<svg xmlns="http://www.w3.org/2000/svg" viewBox="0 0 67.86 50.11"><defs><style>.cls-1{fill:#ed1b2e;}.cls-2{fill:#7a7a7a;}.cls-3{fill:#d8d8d8;}.cls-4{fill:#bfbfbf;}.cls-5{fill:#e2e2e2;}.cls-6{fill:#c19756;}.cls-7{fill:#b28242;}.cls-8{fill:#e0e0e0;}.cls-10,.cls-9{fill:#f9c84e;isolation:isolate;}.cls-9{opacity:0.5;}.cls-10{opacity:0.3;}</style></defs><g id="Layer_2" data-name="Layer 2"><g id="Layer_1-2" data-name="Layer 1"><g id="Group_22" data-name="Group 22"><path id="Path_84" data-name="Path 84" class="cls-1" d="M0,50.11V0H67.86V50.11Zm59.69-8.17V8.17H8.17V41.94Z"/><path id="Path_85" data-name="Path 85" class="cls-1" d="M2.56,2.56v45H65.3v-45ZM62.25,44.5H5.61V5.61H62.25Z"/><path id="Path_86" data-name="Path 86" class="cls-2" d="M5.61,5.61V44.5H62.25V5.61ZM61.79,44H6.07v-38H61.79Z"/><path id="Path_87" data-name="Path 87" class="cls-3" d="M61.79,44H6.07l12.26-7.8h31.2Z"/><path id="Path_88" data-name="Path 88" class="cls-4" d="M18.33,13.87V36.25L6.07,44.05v-38Z"/><path id="Path_89" data-name="Path 89" class="cls-3" d="M61.79,6.07l-12.26,7.8H18.33L6.07,6.07Z"/><path id="Path_90" data-name="Path 90" class="cls-4" d="M61.79,6.07v38l-12.26-7.8V13.88Z"/><rect id="Rectangle_32" data-name="Rectangle 32" class="cls-5" x="18.33" y="13.87" width="31.19" height="22.37"/></g><g id="Group_24" data-name="Group 24"><rect id="Rectangle_33" data-name="Rectangle 33" class="cls-6" x="21.64" y="23.38" width="24.57" height="17.43"/><path id="Path_91" data-name="Path 91" class="cls-7" d="M46.22,23.38H21.64l3.19-5.83H43Z"/></g><path class="cls-8" d="M30.5,31.16c.22,0,.45,0,.67.06a1.91,1.91,0,0,1,1,.54c.28.3.59.59.89.88l.56-.6c-.29-.27-.6-.55-.9-.84a2,2,0,0,1-.57-1.13c0-.41-.07-.83-.13-1.24a2.77,2.77,0,0,0-.85-1.76,3.58,3.58,0,0,0-2-.93A1.83,1.83,0,0,0,27.05,28,3.33,3.33,0,0,0,28,30.25a2.13,2.13,0,0,0,1.13.71C29.55,31.06,30,31.1,30.5,31.16Z"/><path class="cls-8" d="M40.78,27.54s-.16,0-.21.09c-.75.7-1.49,1.42-2.23,2.13,0,0-.09.1-.14.11s-.21,0-.26,0a.4.4,0,0,1,0-.27c0-.05.06-.1.1-.14l1.09-1.13,1.1-1.15a.56.56,0,0,0,.06-.17l-.19.05s-.05,0-.08.06l-2.22,2.14c-.13.13-.29.15-.38.06a.28.28,0,0,1,0-.38l.07-.08,2.09-2.17c.06-.06.18-.13.09-.23s-.17,0-.22.1l-2.21,2.12-.09.09a.24.24,0,0,1-.34,0,.23.23,0,0,1,0-.33l.13-.14c.69-.72,1.38-1.44,2.08-2.15a.87.87,0,0,0,.09-.11.08.08,0,1,0-.12-.12.28.28,0,0,0-.09.07c-1,1-2,1.93-3,2.88a1.37,1.37,0,0,0-.45,1,2.24,2.24,0,0,1-.69,1.51l-2.4,2.37a17.65,17.65,0,0,1-2.64,2.16c-.29.2-.58.4-.86.61a1.45,1.45,0,0,0-.57.89.75.75,0,0,0,.78,1,1.34,1.34,0,0,0,.93-.42,3.12,3.12,0,0,0,.32-.4A21.71,21.71,0,0,1,33.17,34c.72-.71,1.43-1.43,2.14-2.16a2.28,2.28,0,0,1,1.56-.72,1.35,1.35,0,0,0,1-.44c1-1,1.92-2,2.89-3C40.76,27.69,40.87,27.63,40.78,27.54Z"/><path class="cls-8" d="M38.44,36.24a22,22,0,0,1-3.77-3.11,1,1,0,0,0-.11-.1l-.56.56a1.22,1.22,0,0,1,.17.15,20.74,20.74,0,0,1,2.2,2.48l1,1.47a1.48,1.48,0,0,0,1.07.64.74.74,0,0,0,.86-.8,1.42,1.42,0,0,0-.43-.94A3.73,3.73,0,0,0,38.44,36.24Z"/><path id="Path_104" data-name="Path 104" class="cls-9" d="M59.38,6.07,36.57,44H20.47l22.81-38Z"/><path id="Path_105" data-name="Path 105" class="cls-10" d="M43.28,6.07,20.47,44H6.07v-38Z"/><path id="Path_106" data-name="Path 106" class="cls-10" d="M61.79,6.07v4.29L41.56,44h-5l22.81-38Z"/><path id="Path_107" data-name="Path 107" class="cls-10" d="M48.14,44,61.79,21.32V44Z"/><path id="Path_108" data-name="Path 108" class="cls-9" d="M61.79,10.36v11L48.14,44H41.56Z"/></g></g></svg>