<svg id="Layer_1" data-name="Layer 1" xmlns="http://www.w3.org/2000/svg" viewBox="0 0 113.43 144.04"><defs><style>.cls-1{fill:#d60665;}.cls-2{isolation:isolate;}.cls-3{fill:#fff;}</style></defs><g id="foodpandaInstruction"><g id="Rectangle_19-2" data-name="Rectangle 19-2"><rect class="cls-1" x="18.22" y="13.02" width="77" height="118" rx="5"/></g><g id="Group_11" data-name="Group 11"><g id="abcd-abc1" class="cls-2"><g class="cls-2"><path class="cls-3" d="M41.1,70.08a1.32,1.32,0,0,1-.57-.12,1,1,0,0,1-.4-.33.8.8,0,0,1-.15-.47.76.76,0,0,1,.34-.67,2.09,2.09,0,0,1,.91-.34L42,68v-.11a.53.53,0,0,0-.11-.36.46.46,0,0,0-.38-.13.61.61,0,0,0-.32.08.49.49,0,0,0-.18.2.14.14,0,0,1-.14.08h-.57a.12.12,0,0,1-.1,0,.08.08,0,0,1,0-.09.43.43,0,0,1,.08-.24,1,1,0,0,1,.24-.27,1.22,1.22,0,0,1,.41-.23,1.85,1.85,0,0,1,.62-.09,2.08,2.08,0,0,1,.65.09,1.19,1.19,0,0,1,.43.25,1,1,0,0,1,.24.38,1.34,1.34,0,0,1,.08.46v1.85a.14.14,0,0,1,0,.11.12.12,0,0,1-.1,0H42.2a.12.12,0,0,1-.1,0,.14.14,0,0,1-.05-.11v-.22a.7.7,0,0,1-.21.21.91.91,0,0,1-.31.16A1.4,1.4,0,0,1,41.1,70.08Zm.24-.62a.68.68,0,0,0,.35-.09.55.55,0,0,0,.25-.25,1,1,0,0,0,.09-.44v-.1l-.56.09a1.11,1.11,0,0,0-.47.16.31.31,0,0,0-.15.26.29.29,0,0,0,.07.2.35.35,0,0,0,.18.13A1,1,0,0,0,41.34,69.46Z"/><path class="cls-3" d="M45.47,70.08A1.41,1.41,0,0,1,44.9,70a1.22,1.22,0,0,1-.37-.3v.2a.14.14,0,0,1-.15.15h-.57a.15.15,0,0,1-.11,0,.18.18,0,0,1,0-.11v-4a.14.14,0,0,1,.15-.15h.62a.18.18,0,0,1,.1,0,.15.15,0,0,1,0,.11v1.31A1.19,1.19,0,0,1,45,67a1.17,1.17,0,0,1,.52-.11A1.35,1.35,0,0,1,46,67a1.11,1.11,0,0,1,.39.29,1.41,1.41,0,0,1,.25.45,1.7,1.7,0,0,1,.09.57,1.41,1.41,0,0,1,0,.2,1.62,1.62,0,0,1,0,.21,2,2,0,0,1-.1.57,1.37,1.37,0,0,1-.24.45A1,1,0,0,1,46,70,1.35,1.35,0,0,1,45.47,70.08Zm-.27-.72a.53.53,0,0,0,.36-.1.51.51,0,0,0,.19-.26,1.28,1.28,0,0,0,.07-.35,2.28,2.28,0,0,0,0-.37,1.35,1.35,0,0,0-.07-.36.55.55,0,0,0-.19-.26.53.53,0,0,0-.36-.1.56.56,0,0,0-.35.1.52.52,0,0,0-.2.24.84.84,0,0,0-.08.32v.45a1.14,1.14,0,0,0,.08.33.55.55,0,0,0,.19.26A.61.61,0,0,0,45.2,69.36Z"/><path class="cls-3" d="M48.78,70.08a1.71,1.71,0,0,1-.77-.16,1.34,1.34,0,0,1-.53-.47,1.69,1.69,0,0,1-.21-.74v-.49a1.61,1.61,0,0,1,.21-.75A1.28,1.28,0,0,1,48,67a1.86,1.86,0,0,1,.77-.16,1.9,1.9,0,0,1,.68.11,1.63,1.63,0,0,1,.47.28,1.18,1.18,0,0,1,.26.35,1,1,0,0,1,.1.32.14.14,0,0,1-.15.15H49.5a.12.12,0,0,1-.09,0,.22.22,0,0,1-.07-.09.64.64,0,0,0-.21-.3.64.64,0,0,0-.76.08.89.89,0,0,0-.17.54v.43a.91.91,0,0,0,.17.54.58.58,0,0,0,.43.17.54.54,0,0,0,.33-.09.58.58,0,0,0,.21-.3l.06-.1a.17.17,0,0,1,.1,0h.64a.21.21,0,0,1,.11,0,.15.15,0,0,1,0,.11,1.4,1.4,0,0,1-.06.24,1.33,1.33,0,0,1-.16.28,1.26,1.26,0,0,1-.29.27,1.49,1.49,0,0,1-.42.2A2,2,0,0,1,48.78,70.08Z"/><path class="cls-3" d="M52,70.08a1.25,1.25,0,0,1-.53-.1,1,1,0,0,1-.4-.29,1.08,1.08,0,0,1-.24-.45,2.4,2.4,0,0,1-.11-.57v-.41a2,2,0,0,1,.1-.57,1.41,1.41,0,0,1,.25-.45,1,1,0,0,1,.39-.29,1.33,1.33,0,0,1,.54-.11,1.27,1.27,0,0,1,.54.11,1.1,1.1,0,0,1,.36.27V65.91a.14.14,0,0,1,.15-.15h.62a.18.18,0,0,1,.1,0,.15.15,0,0,1,0,.11v4a.14.14,0,0,1,0,.11.13.13,0,0,1-.1,0h-.58a.13.13,0,0,1-.1,0,.14.14,0,0,1,0-.11v-.2a1.26,1.26,0,0,1-.38.3A1.35,1.35,0,0,1,52,70.08Zm.28-.72a.54.54,0,0,0,.35-.1.57.57,0,0,0,.2-.26.88.88,0,0,0,.07-.33,1.85,1.85,0,0,0,0-.23,1.55,1.55,0,0,0,0-.22.83.83,0,0,0-.07-.32.52.52,0,0,0-.2-.24.56.56,0,0,0-.35-.1.57.57,0,0,0-.36.1.55.55,0,0,0-.19.26,1.35,1.35,0,0,0-.07.36,2.28,2.28,0,0,0,0,.37,1.28,1.28,0,0,0,.07.35.51.51,0,0,0,.19.26A.57.57,0,0,0,52.31,69.36Z"/><path class="cls-3" d="M54.73,68.61a.14.14,0,0,1-.1,0,.12.12,0,0,1,0-.1V68a.14.14,0,0,1,.14-.14H56.6a.14.14,0,0,1,.14.14v.48a.12.12,0,0,1,0,.1.14.14,0,0,1-.1,0Z"/><path class="cls-3" d="M58.36,70.08a1.32,1.32,0,0,1-.57-.12,1,1,0,0,1-.4-.33.8.8,0,0,1-.15-.47.76.76,0,0,1,.34-.67,2.09,2.09,0,0,1,.91-.34l.79-.11v-.11a.53.53,0,0,0-.11-.36.46.46,0,0,0-.38-.13.57.57,0,0,0-.31.08.52.52,0,0,0-.19.2.14.14,0,0,1-.14.08h-.57a.12.12,0,0,1-.1,0,.09.09,0,0,1,0-.09.52.52,0,0,1,.08-.24,1,1,0,0,1,.24-.27,1.33,1.33,0,0,1,.41-.23,1.89,1.89,0,0,1,.62-.09,2.08,2.08,0,0,1,.65.09,1.19,1.19,0,0,1,.43.25,1,1,0,0,1,.24.38,1.34,1.34,0,0,1,.08.46v1.85a.14.14,0,0,1-.05.11.12.12,0,0,1-.1,0h-.59a.13.13,0,0,1-.1,0,.14.14,0,0,1,0-.11v-.22a1,1,0,0,1-.21.21,1.07,1.07,0,0,1-.32.16A1.35,1.35,0,0,1,58.36,70.08Zm.24-.62a.74.74,0,0,0,.36-.09.58.58,0,0,0,.24-.25,1,1,0,0,0,.09-.44v-.1l-.56.09a1.11,1.11,0,0,0-.47.16.31.31,0,0,0-.15.26.29.29,0,0,0,.07.2.35.35,0,0,0,.18.13A1,1,0,0,0,58.6,69.46Z"/><path class="cls-3" d="M62.73,70.08a1.41,1.41,0,0,1-.57-.11,1.22,1.22,0,0,1-.37-.3v.2a.14.14,0,0,1-.15.15h-.57a.12.12,0,0,1-.1,0,.14.14,0,0,1,0-.11v-4a.16.16,0,0,1,0-.11.15.15,0,0,1,.1,0h.62a.18.18,0,0,1,.1,0,.15.15,0,0,1,0,.11v1.31a1.31,1.31,0,0,1,.38-.27,1.21,1.21,0,0,1,.52-.11,1.35,1.35,0,0,1,.55.11,1.11,1.11,0,0,1,.39.29,1.41,1.41,0,0,1,.25.45,1.7,1.7,0,0,1,.09.57,1.41,1.41,0,0,1,0,.2,1.62,1.62,0,0,1,0,.21,2,2,0,0,1-.1.57,1.21,1.21,0,0,1-.24.45,1,1,0,0,1-.39.29A1.35,1.35,0,0,1,62.73,70.08Zm-.26-.72a.52.52,0,0,0,.35-.1A.46.46,0,0,0,63,69a1.28,1.28,0,0,0,.07-.35,2.28,2.28,0,0,0,0-.37,1.35,1.35,0,0,0-.07-.36.49.49,0,0,0-.19-.26.52.52,0,0,0-.35-.1.57.57,0,0,0-.36.1.59.59,0,0,0-.2.24.84.84,0,0,0-.08.32v.45a1.14,1.14,0,0,0,.08.33.51.51,0,0,0,.2.26A.57.57,0,0,0,62.47,69.36Z"/><path class="cls-3" d="M66,70.08a1.71,1.71,0,0,1-.77-.16,1.34,1.34,0,0,1-.53-.47,1.69,1.69,0,0,1-.21-.74v-.49a1.73,1.73,0,0,1,.21-.75,1.28,1.28,0,0,1,.53-.47,1.86,1.86,0,0,1,.77-.16,2,2,0,0,1,.69.11,1.71,1.71,0,0,1,.46.28,1,1,0,0,1,.26.35,1,1,0,0,1,.1.32.14.14,0,0,1-.15.15h-.64a.12.12,0,0,1-.09,0,.35.35,0,0,1-.06-.09.65.65,0,0,0-.22-.3.64.64,0,0,0-.76.08.83.83,0,0,0-.16.54,3.08,3.08,0,0,0,0,.43.79.79,0,0,0,.17.54.54.54,0,0,0,.42.17.59.59,0,0,0,.34-.09.72.72,0,0,0,.21-.3.31.31,0,0,1,0-.1.17.17,0,0,1,.1,0h.64a.21.21,0,0,1,.11,0,.15.15,0,0,1,0,.11,1.4,1.4,0,0,1-.06.24,1,1,0,0,1-.16.28,1.26,1.26,0,0,1-.29.27,1.37,1.37,0,0,1-.42.2A2,2,0,0,1,66,70.08Z"/><path class="cls-3" d="M69.42,70a.15.15,0,0,1-.11,0,.14.14,0,0,1,0-.11v-3l-.87.67a.2.2,0,0,1-.11,0,.2.2,0,0,1-.1-.07l-.29-.39a.12.12,0,0,1,0-.11.13.13,0,0,1,.06-.1l1.37-1.06.07,0h.71a.18.18,0,0,1,.1,0,.15.15,0,0,1,0,.11v3.9a.14.14,0,0,1,0,.11.13.13,0,0,1-.1,0Z"/></g></g><g id="Line_1" data-name="Line 1"><rect class="cls-3" x="56.72" y="71.02" width="15" height="1"/></g></g><g id="_1._Input_the_4_digit_pin_as_shown_above" data-name=" 1. Input the 4 digit pin as shown above" class="cls-2"><g class="cls-2"><path class="cls-3" d="M28.6,86a.11.11,0,0,1-.12-.12V83.41l-.72.56a.12.12,0,0,1-.1,0,.18.18,0,0,1-.08,0l-.25-.33a.1.1,0,0,1,0-.09.11.11,0,0,1,.05-.08l1.14-.88a.09.09,0,0,1,.06,0h.59a.11.11,0,0,1,.09,0,.12.12,0,0,1,0,.09V85.9a.16.16,0,0,1,0,.09.14.14,0,0,1-.09,0Z"/><path class="cls-3" d="M30,86a.11.11,0,0,1-.12-.12v-.56a.12.12,0,0,1,.12-.13h.56a.14.14,0,0,1,.13.13v.56a.12.12,0,0,1-.13.12Z"/><path class="cls-3" d="M32.59,86a.11.11,0,0,1-.12-.12V82.65a.12.12,0,0,1,.12-.13h.57a.12.12,0,0,1,.12.13V85.9a.11.11,0,0,1-.12.12Z"/><path class="cls-3" d="M34.09,86A.14.14,0,0,1,34,86a.16.16,0,0,1,0-.09V83.55a.12.12,0,0,1,0-.09.11.11,0,0,1,.09,0h.49a.12.12,0,0,1,.12.13v.19a1.14,1.14,0,0,1,.34-.26,1.06,1.06,0,0,1,.5-.11,1,1,0,0,1,.51.13.89.89,0,0,1,.35.39,1.28,1.28,0,0,1,.13.61v1.4a.12.12,0,0,1,0,.09.11.11,0,0,1-.08,0h-.53a.12.12,0,0,1-.13-.12V84.53a.58.58,0,0,0-.13-.41.44.44,0,0,0-.37-.15.48.48,0,0,0-.37.15.54.54,0,0,0-.14.41V85.9a.12.12,0,0,1,0,.09.11.11,0,0,1-.08,0Z"/><path class="cls-3" d="M37.26,87a.12.12,0,0,1-.13-.12v-3.3a.14.14,0,0,1,.13-.13h.47a.14.14,0,0,1,.13.13v.19a.91.91,0,0,1,.31-.27,1.06,1.06,0,0,1,.47-.1,1.17,1.17,0,0,1,.45.08,1,1,0,0,1,.33.24.88.88,0,0,1,.2.37,1.71,1.71,0,0,1,.09.48v.37a1.78,1.78,0,0,1-.08.47,1.23,1.23,0,0,1-.21.37,1,1,0,0,1-.33.24,1.17,1.17,0,0,1-.45.08A1,1,0,0,1,38.2,86a.86.86,0,0,1-.31-.25v1.12a.16.16,0,0,1,0,.09.14.14,0,0,1-.09,0Zm1.16-1.5a.56.56,0,0,0,.3-.08.48.48,0,0,0,.15-.22.72.72,0,0,0,.06-.29,1.6,1.6,0,0,0,0-.31.73.73,0,0,0-.06-.3.48.48,0,0,0-.15-.22.56.56,0,0,0-.3-.08.45.45,0,0,0-.3.09.44.44,0,0,0-.17.21,1.27,1.27,0,0,0-.06.28v.38a1.1,1.1,0,0,0,.06.26.55.55,0,0,0,.17.2A.48.48,0,0,0,38.42,85.47Z"/><path class="cls-3" d="M41.2,86.07a1,1,0,0,1-.52-.13.93.93,0,0,1-.34-.39,1.38,1.38,0,0,1-.12-.61V83.55a.12.12,0,0,1,0-.09.11.11,0,0,1,.09,0h.53a.12.12,0,0,1,.12.13v1.36c0,.38.17.56.49.56a.5.5,0,0,0,.38-.15.56.56,0,0,0,.13-.41V83.55a.14.14,0,0,1,.13-.13h.53a.09.09,0,0,1,.08,0,.1.1,0,0,1,0,.09V85.9a.12.12,0,0,1,0,.09.11.11,0,0,1-.08,0h-.49A.12.12,0,0,1,42,85.9v-.2a.9.9,0,0,1-.33.28A1.28,1.28,0,0,1,41.2,86.07Z"/><path class="cls-3" d="M44.65,86a1.19,1.19,0,0,1-.53-.1.7.7,0,0,1-.34-.32,1.2,1.2,0,0,1-.11-.54V84h-.39a.11.11,0,0,1-.12-.12v-.34a.12.12,0,0,1,.12-.13h.39V82.6a.14.14,0,0,1,.13-.13h.49a.12.12,0,0,1,.12.13v.82H45a.09.09,0,0,1,.08,0,.1.1,0,0,1,0,.09v.34a.12.12,0,0,1,0,.09A.11.11,0,0,1,45,84h-.63v1a.51.51,0,0,0,.07.3.25.25,0,0,0,.24.11h.36a.11.11,0,0,1,.12.12v.37a.16.16,0,0,1,0,.09.14.14,0,0,1-.09,0Z"/><path class="cls-3" d="M47.89,86a1.25,1.25,0,0,1-.53-.1A.68.68,0,0,1,47,85.6a1.08,1.08,0,0,1-.11-.54V84h-.39a.12.12,0,0,1-.13-.12v-.34a.14.14,0,0,1,.13-.13h.39V82.6a.12.12,0,0,1,.12-.13h.49a.14.14,0,0,1,.13.13v.82h.62a.11.11,0,0,1,.09,0,.12.12,0,0,1,0,.09v.34a.16.16,0,0,1,0,.09.14.14,0,0,1-.09,0h-.62v1a.61.61,0,0,0,.06.3.28.28,0,0,0,.24.11h.37a.11.11,0,0,1,.08,0,.11.11,0,0,1,0,.09v.37a.12.12,0,0,1,0,.09.11.11,0,0,1-.08,0Z"/><path class="cls-3" d="M49,86a.12.12,0,0,1-.13-.12V82.6a.14.14,0,0,1,.13-.13h.54a.09.09,0,0,1,.08,0,.1.1,0,0,1,0,.09v1.12a1,1,0,0,1,.33-.25,1,1,0,0,1,.47-.1,1.11,1.11,0,0,1,.52.13,1,1,0,0,1,.36.39,1.41,1.41,0,0,1,.13.61v1.4a.12.12,0,0,1-.13.12h-.54a.14.14,0,0,1-.09,0,.16.16,0,0,1,0-.09V84.53a.63.63,0,0,0-.13-.41.47.47,0,0,0-.37-.15.49.49,0,0,0-.38.15.54.54,0,0,0-.14.41V85.9a.12.12,0,0,1,0,.09.11.11,0,0,1-.08,0Z"/><path class="cls-3" d="M53.24,86.07a1.26,1.26,0,0,1-.92-.32,1.27,1.27,0,0,1-.35-.93v-.21a1.54,1.54,0,0,1,.17-.67,1.11,1.11,0,0,1,.44-.42,1.33,1.33,0,0,1,.65-.15,1.34,1.34,0,0,1,.7.17,1.21,1.21,0,0,1,.43.47,1.67,1.67,0,0,1,.14.69v.11a.12.12,0,0,1,0,.09.11.11,0,0,1-.08,0H52.74v0a1.14,1.14,0,0,0,.06.29.62.62,0,0,0,.17.22.45.45,0,0,0,.26.08.4.4,0,0,0,.2,0,.47.47,0,0,0,.14-.08s.06-.06.07-.09l.07-.06h.61l.08,0a.07.07,0,0,1,0,.08.43.43,0,0,1-.08.2,1,1,0,0,1-.23.23,1.42,1.42,0,0,1-.37.19A1.61,1.61,0,0,1,53.24,86.07Zm-.5-1.59h1a.79.79,0,0,0-.06-.32.45.45,0,0,0-.16-.2.48.48,0,0,0-.27-.08A.45.45,0,0,0,53,84a.47.47,0,0,0-.17.2.79.79,0,0,0-.06.32Z"/><path class="cls-3" d="M57.75,86a.11.11,0,0,1-.08,0,.12.12,0,0,1,0-.09v-.6H56.06a.11.11,0,0,1-.09,0,.12.12,0,0,1,0-.09v-.4a.22.22,0,0,1,0-.08l0-.07,1.47-2a.2.2,0,0,1,.18-.09h.64a.09.09,0,0,1,.08,0,.1.1,0,0,1,0,.09v2h.44a.1.1,0,0,1,.09,0,.09.09,0,0,1,0,.08v.42a.1.1,0,0,1,0,.09.09.09,0,0,1-.08,0H58.4v.6a.12.12,0,0,1,0,.09.11.11,0,0,1-.08,0Zm-1-1.36h.94V83.34Z"/><path class="cls-3" d="M61.51,86.07a1.23,1.23,0,0,1-.44-.08,1,1,0,0,1-.33-.24,1.17,1.17,0,0,1-.21-.38,1.72,1.72,0,0,1-.08-.48,1.45,1.45,0,0,1,0-.34,1.4,1.4,0,0,1,.08-.47,1.37,1.37,0,0,1,.2-.38,1,1,0,0,1,.34-.24,1,1,0,0,1,.44-.09,1,1,0,0,1,.45.09.86.86,0,0,1,.3.23V82.6a.14.14,0,0,1,.13-.13h.51a.11.11,0,0,1,.09,0,.12.12,0,0,1,0,.09v3.3A.16.16,0,0,1,63,86a.14.14,0,0,1-.09,0h-.48a.11.11,0,0,1-.08,0,.12.12,0,0,1,0-.09v-.17A.92.92,0,0,1,62,86,1,1,0,0,1,61.51,86.07Zm.23-.6a.53.53,0,0,0,.3-.08.5.5,0,0,0,.16-.22.64.64,0,0,0,.06-.28,1.21,1.21,0,0,0,0-.19,1.09,1.09,0,0,0,0-.18.63.63,0,0,0-.06-.27.47.47,0,0,0-.17-.2.5.5,0,0,0-.29-.08.56.56,0,0,0-.3.08.6.6,0,0,0-.16.22.94.94,0,0,0-.05.3,1.6,1.6,0,0,0,0,.31.93.93,0,0,0,.05.29.6.6,0,0,0,.16.22A.56.56,0,0,0,61.74,85.47Z"/><path class="cls-3" d="M63.76,83a.11.11,0,0,1-.08,0,.12.12,0,0,1,0-.09v-.4a.13.13,0,0,1,0-.1.11.11,0,0,1,.08,0h.53a.16.16,0,0,1,.09,0,.18.18,0,0,1,0,.1v.4a.18.18,0,0,1,0,.09.16.16,0,0,1-.09,0Zm0,3a.14.14,0,0,1-.09,0,.16.16,0,0,1,0-.09V83.55a.12.12,0,0,1,0-.09.11.11,0,0,1,.09,0h.5a.12.12,0,0,1,.12.13V85.9a.11.11,0,0,1-.12.12Z"/><path class="cls-3" d="M66.25,87.12a1.61,1.61,0,0,1-.62-.1,1.22,1.22,0,0,1-.39-.23.94.94,0,0,1-.2-.27.57.57,0,0,1-.06-.21.08.08,0,0,1,0-.09.12.12,0,0,1,.09,0h.54l.07,0a.24.24,0,0,1,.06.08.56.56,0,0,0,.07.13.33.33,0,0,0,.14.11.54.54,0,0,0,.24,0,.76.76,0,0,0,.29,0,.31.31,0,0,0,.17-.17.75.75,0,0,0,.06-.33v-.33a1.14,1.14,0,0,1-.3.21A1,1,0,0,1,66,86a1.14,1.14,0,0,1-.46-.09.75.75,0,0,1-.32-.23.88.88,0,0,1-.2-.37,1.42,1.42,0,0,1-.08-.48,1.22,1.22,0,0,1,0-.27,1.4,1.4,0,0,1,.08-.47,1,1,0,0,1,.2-.38.87.87,0,0,1,.32-.24,1.14,1.14,0,0,1,.46-.09,1,1,0,0,1,.47.11.92.92,0,0,1,.32.26v-.19a.1.1,0,0,1,0-.09.09.09,0,0,1,.08,0h.49a.11.11,0,0,1,.09,0,.13.13,0,0,1,0,.09V86a1.41,1.41,0,0,1-.14.64A1,1,0,0,1,67,87,1.48,1.48,0,0,1,66.25,87.12Zm0-1.72a.5.5,0,0,0,.29-.08.48.48,0,0,0,.17-.21.66.66,0,0,0,.06-.27s0-.09,0-.16,0-.12,0-.15a.6.6,0,0,0-.06-.27.39.39,0,0,0-.17-.21.5.5,0,0,0-.29-.08.53.53,0,0,0-.3.08.6.6,0,0,0-.16.22,1.33,1.33,0,0,0-.06.3v.23a1.33,1.33,0,0,0,.06.3.6.6,0,0,0,.16.22A.53.53,0,0,0,66.22,85.4Z"/><path class="cls-3" d="M68.26,83a.14.14,0,0,1-.09,0,.16.16,0,0,1,0-.09v-.4a.17.17,0,0,1,0-.1.14.14,0,0,1,.09,0h.52a.12.12,0,0,1,.09,0,.13.13,0,0,1,0,.1v.4a.12.12,0,0,1-.13.12Zm0,3a.11.11,0,0,1-.08,0,.12.12,0,0,1,0-.09V83.55a.1.1,0,0,1,0-.09.09.09,0,0,1,.08,0h.5a.14.14,0,0,1,.13.13V85.9a.12.12,0,0,1-.13.12Z"/><path class="cls-3" d="M70.77,86a1.25,1.25,0,0,1-.53-.1.64.64,0,0,1-.33-.32,1.08,1.08,0,0,1-.11-.54V84h-.39a.12.12,0,0,1-.13-.12v-.34a.14.14,0,0,1,.13-.13h.39V82.6a.12.12,0,0,1,.12-.13h.49a.14.14,0,0,1,.13.13v.82h.62a.12.12,0,0,1,.12.13v.34a.11.11,0,0,1-.12.12h-.62v1a.61.61,0,0,0,.06.3.28.28,0,0,0,.24.11h.37a.11.11,0,0,1,.08,0,.11.11,0,0,1,0,.09v.37a.12.12,0,0,1,0,.09.11.11,0,0,1-.08,0Z"/><path class="cls-3" d="M73,87a.14.14,0,0,1-.09,0,.16.16,0,0,1,0-.09v-3.3a.12.12,0,0,1,0-.09.11.11,0,0,1,.09,0h.48a.12.12,0,0,1,.12.13v.19a1,1,0,0,1,.31-.27,1.14,1.14,0,0,1,.48-.1,1.25,1.25,0,0,1,.45.08.87.87,0,0,1,.32.24,1,1,0,0,1,.21.37,1.42,1.42,0,0,1,.08.48c0,.06,0,.13,0,.18s0,.12,0,.19a1.45,1.45,0,0,1-.08.47,1,1,0,0,1-.2.37,1,1,0,0,1-.33.24,1.25,1.25,0,0,1-.45.08,1.06,1.06,0,0,1-.45-.09.91.91,0,0,1-.3-.25v1.12a.12.12,0,0,1,0,.09.11.11,0,0,1-.08,0Zm1.16-1.5a.51.51,0,0,0,.3-.08.44.44,0,0,0,.16-.22,1.36,1.36,0,0,0,.06-.29v-.31a1.33,1.33,0,0,0-.06-.3.44.44,0,0,0-.16-.22.51.51,0,0,0-.3-.08.49.49,0,0,0-.3.09.42.42,0,0,0-.16.21.67.67,0,0,0-.06.28,1.15,1.15,0,0,0,0,.19,1.28,1.28,0,0,0,0,.19.58.58,0,0,0,.06.26.47.47,0,0,0,.17.2A.43.43,0,0,0,74.15,85.47Z"/><path class="cls-3" d="M76.08,83A.11.11,0,0,1,76,83a.12.12,0,0,1,0-.09v-.4a.13.13,0,0,1,0-.1.11.11,0,0,1,.08,0h.53a.16.16,0,0,1,.09,0,.18.18,0,0,1,0,.1v.4a.18.18,0,0,1,0,.09.16.16,0,0,1-.09,0Zm0,3A.12.12,0,0,1,76,86a.16.16,0,0,1,0-.09V83.55a.12.12,0,0,1,0-.09.1.1,0,0,1,.09,0h.5a.12.12,0,0,1,.12.13V85.9a.11.11,0,0,1-.12.12Z"/><path class="cls-3" d="M77.6,86a.12.12,0,0,1-.09,0,.16.16,0,0,1,0-.09V83.55a.12.12,0,0,1,0-.09.1.1,0,0,1,.09,0h.49a.12.12,0,0,1,.12.13v.19a1.14,1.14,0,0,1,.34-.26,1.06,1.06,0,0,1,.5-.11,1,1,0,0,1,.51.13.89.89,0,0,1,.35.39,1.28,1.28,0,0,1,.13.61v1.4A.12.12,0,0,1,80,86a.11.11,0,0,1-.08,0h-.53a.12.12,0,0,1-.13-.12V84.53a.58.58,0,0,0-.13-.41.45.45,0,0,0-.37-.15.48.48,0,0,0-.37.15.54.54,0,0,0-.14.41V85.9a.18.18,0,0,1,0,.09.11.11,0,0,1-.08,0Z"/><path class="cls-3" d="M82.51,86.07A1,1,0,0,1,82,86a.86.86,0,0,1-.34-.28.7.7,0,0,1,.16-1,1.8,1.8,0,0,1,.76-.28l.66-.09v-.09a.45.45,0,0,0-.09-.3.41.41,0,0,0-.32-.11.4.4,0,0,0-.26.07.44.44,0,0,0-.16.17.13.13,0,0,1-.11.06h-.48a.1.1,0,0,1-.08,0,.11.11,0,0,1,0-.08.4.4,0,0,1,.07-.2,1,1,0,0,1,.2-.23,1.2,1.2,0,0,1,.34-.18,1.54,1.54,0,0,1,.52-.08,1.71,1.71,0,0,1,.54.08.9.9,0,0,1,.36.21A.92.92,0,0,1,84,84a1.21,1.21,0,0,1,.06.38V85.9a.11.11,0,0,1-.12.12h-.49a.12.12,0,0,1-.09,0,.16.16,0,0,1,0-.09v-.19a1.53,1.53,0,0,1-.18.18.9.9,0,0,1-.26.13A1.25,1.25,0,0,1,82.51,86.07Zm.2-.52a.6.6,0,0,0,.3-.07.58.58,0,0,0,.2-.21.81.81,0,0,0,.08-.37v-.08l-.47.07a.91.91,0,0,0-.39.14.25.25,0,0,0-.13.22.23.23,0,0,0,.06.16.42.42,0,0,0,.15.11A.64.64,0,0,0,82.71,85.55Z"/><path class="cls-3" d="M85.67,86.07a1.7,1.7,0,0,1-.53-.07,1.21,1.21,0,0,1-.36-.18,1,1,0,0,1-.21-.21.41.41,0,0,1-.07-.18.1.1,0,0,1,0-.09.09.09,0,0,1,.08,0h.51l0,0,.14.1a.44.44,0,0,0,.16.1.53.53,0,0,0,.23,0A.49.49,0,0,0,86,85.5a.21.21,0,0,0,.12-.19.2.2,0,0,0-.06-.15.52.52,0,0,0-.19-.11l-.43-.11a1.65,1.65,0,0,1-.46-.16.72.72,0,0,1-.29-.25.72.72,0,0,1-.09-.37.65.65,0,0,1,.12-.37.91.91,0,0,1,.36-.3,1.34,1.34,0,0,1,.6-.12,1.39,1.39,0,0,1,.48.07,1,1,0,0,1,.35.17.83.83,0,0,1,.21.21.34.34,0,0,1,.08.19.08.08,0,0,1,0,.08.09.09,0,0,1-.08,0h-.49l0,0L86,84l-.14-.09a.67.67,0,0,0-.22,0,.47.47,0,0,0-.26.07.26.26,0,0,0-.08.19.22.22,0,0,0,0,.13.45.45,0,0,0,.19.11l.42.1a1.55,1.55,0,0,1,.54.18.71.71,0,0,1,.29.28.67.67,0,0,1,.09.34.68.68,0,0,1-.14.41.9.9,0,0,1-.41.29A1.83,1.83,0,0,1,85.67,86.07Z"/></g><g class="cls-2"><path class="cls-3" d="M28.56,92.07A1.62,1.62,0,0,1,28,92a1.42,1.42,0,0,1-.37-.18.77.77,0,0,1-.2-.21.32.32,0,0,1-.07-.18.09.09,0,0,1,0-.09.12.12,0,0,1,.08,0H28l0,0,.13.1a.54.54,0,0,0,.16.1.57.57,0,0,0,.24,0,.51.51,0,0,0,.28-.07.21.21,0,0,0,.11-.19.25.25,0,0,0,0-.15.59.59,0,0,0-.2-.11l-.43-.11a1.77,1.77,0,0,1-.46-.16.69.69,0,0,1-.28-.25.64.64,0,0,1-.1-.37.65.65,0,0,1,.12-.37,1,1,0,0,1,.37-.3,1.34,1.34,0,0,1,.6-.12,1.43,1.43,0,0,1,.48.07,1.14,1.14,0,0,1,.35.17,1,1,0,0,1,.21.21.43.43,0,0,1,.08.19.11.11,0,0,1,0,.08.1.1,0,0,1-.08,0h-.49l0,0L28.9,90l-.15-.09a.62.62,0,0,0-.22,0,.44.44,0,0,0-.25.07.23.23,0,0,0-.09.19.24.24,0,0,0,0,.13.46.46,0,0,0,.18.11l.43.1a1.71,1.71,0,0,1,.54.18.68.68,0,0,1,.28.28.67.67,0,0,1,.09.34.62.62,0,0,1-.14.41.85.85,0,0,1-.41.29A1.74,1.74,0,0,1,28.56,92.07Z"/><path class="cls-3" d="M30.37,92a.12.12,0,0,1-.13-.12V88.6a.14.14,0,0,1,.13-.13h.54a.09.09,0,0,1,.08,0,.1.1,0,0,1,0,.09v1.12a1,1,0,0,1,.33-.25,1,1,0,0,1,.47-.1,1.11,1.11,0,0,1,.52.13,1,1,0,0,1,.36.39,1.41,1.41,0,0,1,.13.61v1.4a.12.12,0,0,1-.13.12h-.54a.14.14,0,0,1-.09,0,.16.16,0,0,1,0-.09V90.53a.63.63,0,0,0-.13-.41.47.47,0,0,0-.37-.15.49.49,0,0,0-.38.15.54.54,0,0,0-.14.41V91.9A.12.12,0,0,1,31,92a.11.11,0,0,1-.08,0Z"/><path class="cls-3" d="M34.63,92.07a1.48,1.48,0,0,1-.7-.14,1,1,0,0,1-.43-.39,1.39,1.39,0,0,1-.16-.59V90.5a1.28,1.28,0,0,1,.17-.6,1,1,0,0,1,.44-.39,1.7,1.7,0,0,1,1.35,0,1,1,0,0,1,.44.39,1.28,1.28,0,0,1,.17.6c0,.06,0,.13,0,.22s0,.16,0,.23a1.27,1.27,0,0,1-.17.59.94.94,0,0,1-.42.39A1.47,1.47,0,0,1,34.63,92.07Zm0-.55a.47.47,0,0,0,.37-.15.71.71,0,0,0,.13-.45,2,2,0,0,0,0-.4.7.7,0,0,0-.13-.44.44.44,0,0,0-.37-.16.45.45,0,0,0-.38.16.7.7,0,0,0-.13.44,2,2,0,0,0,0,.4.71.71,0,0,0,.13.45A.48.48,0,0,0,34.63,91.52Z"/><path class="cls-3" d="M37.08,92A.2.2,0,0,1,37,92a.41.41,0,0,1,0-.09l-.72-2.32s0,0,0,0a.1.1,0,0,1,.11-.11h.44a.11.11,0,0,1,.1,0,.13.13,0,0,1,0,.06l.45,1.55.49-1.54a.13.13,0,0,1,0-.07.15.15,0,0,1,.11,0h.29a.12.12,0,0,1,.1,0,.1.1,0,0,1,.05.07l.49,1.54.45-1.55,0-.06a.13.13,0,0,1,.1,0h.44a.11.11,0,0,1,.08,0,.13.13,0,0,1,0,.08v0l-.72,2.32a.41.41,0,0,1,0,.09.2.2,0,0,1-.11,0h-.39a.2.2,0,0,1-.11,0l-.06-.09-.48-1.48-.5,1.48a.41.41,0,0,1-.05.09.2.2,0,0,1-.11,0Z"/><path class="cls-3" d="M40.63,92a.11.11,0,0,1-.08,0,.12.12,0,0,1,0-.09V89.55a.1.1,0,0,1,0-.09.09.09,0,0,1,.08,0h.49a.14.14,0,0,1,.13.13v.19a1.09,1.09,0,0,1,.33-.26,1.12,1.12,0,0,1,.5-.11,1.08,1.08,0,0,1,.52.13,1,1,0,0,1,.35.39,1.41,1.41,0,0,1,.13.61v1.4A.12.12,0,0,1,43,92,.14.14,0,0,1,43,92h-.53a.11.11,0,0,1-.12-.12V90.53a.63.63,0,0,0-.13-.41A.45.45,0,0,0,41.8,90a.5.5,0,0,0-.38.15.58.58,0,0,0-.14.41V91.9a.16.16,0,0,1,0,.09.14.14,0,0,1-.09,0Z"/><path class="cls-3" d="M45.55,92.07a1.06,1.06,0,0,1-.48-.1.83.83,0,0,1-.33-.28.59.59,0,0,1-.13-.39.66.66,0,0,1,.29-.56,1.7,1.7,0,0,1,.76-.28l.65-.09v-.09a.45.45,0,0,0-.09-.3.39.39,0,0,0-.31-.11.45.45,0,0,0-.27.07.41.41,0,0,0-.15.17.14.14,0,0,1-.12.06H44.9a.12.12,0,0,1-.09,0,.08.08,0,0,1,0-.08.49.49,0,0,1,.06-.2,1.31,1.31,0,0,1,.2-.23,1.27,1.27,0,0,1,.35-.18,1.52,1.52,0,0,1,.51-.08,1.71,1.71,0,0,1,.54.08.9.9,0,0,1,.36.21A.79.79,0,0,1,47,90a1,1,0,0,1,.07.38V91.9A.12.12,0,0,1,47,92h-.49a.11.11,0,0,1-.08,0,.12.12,0,0,1,0-.09v-.19a.94.94,0,0,1-.17.18,1,1,0,0,1-.27.13A1.23,1.23,0,0,1,45.55,92.07Zm.2-.52a.54.54,0,0,0,.29-.07.53.53,0,0,0,.21-.21.82.82,0,0,0,.07-.37v-.08l-.46.07a1,1,0,0,0-.4.14.26.26,0,0,0-.12.22.23.23,0,0,0,.06.16.3.3,0,0,0,.15.11A.64.64,0,0,0,45.75,91.55Z"/><path class="cls-3" d="M49.19,92.07a.94.94,0,0,1-.47-.1.83.83,0,0,1-.31-.24v.17a.12.12,0,0,1-.13.12h-.47a.12.12,0,0,1-.13-.12V88.6a.14.14,0,0,1,.13-.13h.51a.11.11,0,0,1,.09,0,.12.12,0,0,1,0,.09v1.09a1,1,0,0,1,.31-.23,1,1,0,0,1,.44-.09,1,1,0,0,1,.78.33,1.17,1.17,0,0,1,.21.38,1.71,1.71,0,0,1,.08.47v.34a1.71,1.71,0,0,1-.09.48,1,1,0,0,1-.2.38,1,1,0,0,1-.33.24A1.17,1.17,0,0,1,49.19,92.07Zm-.22-.6a.56.56,0,0,0,.3-.08.48.48,0,0,0,.15-.22.72.72,0,0,0,.06-.29,1.6,1.6,0,0,0,0-.31.73.73,0,0,0-.06-.3.48.48,0,0,0-.15-.22.6.6,0,0,0-.6,0,.55.55,0,0,0-.17.2,1.18,1.18,0,0,0-.06.27v.37a1.15,1.15,0,0,0,.06.28.52.52,0,0,0,.17.22A.51.51,0,0,0,49,91.47Z"/><path class="cls-3" d="M52,92.07a1.44,1.44,0,0,1-.69-.14,1,1,0,0,1-.43-.39A1.26,1.26,0,0,1,50.7,91a1.69,1.69,0,0,1,0-.23,1.41,1.41,0,0,1,0-.22,1.17,1.17,0,0,1,.17-.6,1,1,0,0,1,.43-.39,1.59,1.59,0,0,1,.68-.14,1.55,1.55,0,0,1,.68.14,1,1,0,0,1,.43.39,1.17,1.17,0,0,1,.17.6,1.41,1.41,0,0,1,0,.22,1.69,1.69,0,0,1,0,.23,1.26,1.26,0,0,1-.16.59,1,1,0,0,1-.43.39A1.41,1.41,0,0,1,52,92.07Zm0-.55a.44.44,0,0,0,.37-.15.71.71,0,0,0,.14-.45v-.4a.7.7,0,0,0-.14-.44.42.42,0,0,0-.37-.16.43.43,0,0,0-.37.16.7.7,0,0,0-.14.44v.4a.71.71,0,0,0,.14.45A.45.45,0,0,0,52,91.52Z"/><path class="cls-3" d="M54.62,92a.16.16,0,0,1-.12,0l-.06-.08-.94-2.32s0,0,0,0a.1.1,0,0,1,.11-.11h.49a.1.1,0,0,1,.09,0,.13.13,0,0,1,0,.06l.61,1.65.62-1.65,0-.06a.13.13,0,0,1,.1,0h.48a.11.11,0,0,1,.08,0,.13.13,0,0,1,0,.08v0l-.95,2.32a.16.16,0,0,1-.06.08.12.12,0,0,1-.11,0Z"/><path class="cls-3" d="M57.68,92.07a1.26,1.26,0,0,1-.92-.32,1.27,1.27,0,0,1-.35-.93v-.21a1.54,1.54,0,0,1,.17-.67,1.11,1.11,0,0,1,.44-.42,1.33,1.33,0,0,1,.65-.15,1.34,1.34,0,0,1,.7.17,1.21,1.21,0,0,1,.43.47,1.52,1.52,0,0,1,.14.69v.11a.12.12,0,0,1,0,.09.11.11,0,0,1-.08,0H57.18v0a1.14,1.14,0,0,0,.06.29.62.62,0,0,0,.17.22.45.45,0,0,0,.26.08.4.4,0,0,0,.2,0,.32.32,0,0,0,.13-.08s.07-.06.08-.09l.07-.06h.61l.08,0a.07.07,0,0,1,0,.08.43.43,0,0,1-.08.2,1,1,0,0,1-.23.23,1.42,1.42,0,0,1-.37.19A1.61,1.61,0,0,1,57.68,92.07Zm-.5-1.59h1a.79.79,0,0,0-.06-.32.45.45,0,0,0-.16-.2.48.48,0,0,0-.27-.08.45.45,0,0,0-.26.08.47.47,0,0,0-.17.2.79.79,0,0,0-.06.32Z"/></g></g><g id="_2._Get_order" data-name=" 2. Get order" class="cls-2"><g class="cls-2"><path class="cls-3" d="M27.56,101a.12.12,0,0,1-.13-.12v-.3a.52.52,0,0,1,0-.11.27.27,0,0,1,.11-.13l.66-.66c.24-.19.44-.34.59-.47a2.19,2.19,0,0,0,.34-.36.58.58,0,0,0,.11-.31.48.48,0,0,0-.11-.32.42.42,0,0,0-.35-.13.5.5,0,0,0-.27.07.4.4,0,0,0-.16.18.62.62,0,0,0-.08.24.13.13,0,0,1-.07.09l-.09,0H27.6a.1.1,0,0,1-.08,0,.11.11,0,0,1,0-.07,1,1,0,0,1,.1-.44,1,1,0,0,1,.26-.36,1.31,1.31,0,0,1,.41-.26,1.53,1.53,0,0,1,.54-.09,1.66,1.66,0,0,1,.71.14,1,1,0,0,1,.43.38,1.1,1.1,0,0,1,.14.55A1,1,0,0,1,30,99a1.36,1.36,0,0,1-.28.39c-.12.12-.27.25-.44.39l-.59.59H30a.12.12,0,0,1,.09,0,.11.11,0,0,1,0,.09v.43A.12.12,0,0,1,30,101Z"/><path class="cls-3" d="M30.8,101a.12.12,0,0,1-.13-.12v-.56a.14.14,0,0,1,.13-.13h.56a.12.12,0,0,1,.12.13v.56a.11.11,0,0,1-.12.12Z"/><path class="cls-3" d="M34.65,101.07a1.83,1.83,0,0,1-.81-.16,1.09,1.09,0,0,1-.51-.46,1.49,1.49,0,0,1-.2-.73V98.8a1.48,1.48,0,0,1,.2-.72,1.15,1.15,0,0,1,.52-.45,1.78,1.78,0,0,1,.8-.16,1.89,1.89,0,0,1,.65.1,1.6,1.6,0,0,1,.47.24,1.5,1.5,0,0,1,.29.34.77.77,0,0,1,.1.34.11.11,0,0,1,0,.08.1.1,0,0,1-.08,0h-.62l-.08,0a.15.15,0,0,1,0-.06.63.63,0,0,0-.12-.18.64.64,0,0,0-.2-.16.83.83,0,0,0-.34-.06.72.72,0,0,0-.5.16.75.75,0,0,0-.2.54c0,.29,0,.58,0,.88a.8.8,0,0,0,.2.56.77.77,0,0,0,.51.17.83.83,0,0,0,.36-.08.51.51,0,0,0,.26-.22.72.72,0,0,0,.1-.4v-.12h-.55a.12.12,0,0,1-.08,0,.12.12,0,0,1,0-.09v-.32a.11.11,0,0,1,0-.09.11.11,0,0,1,.08,0h1.23a.16.16,0,0,1,.09,0,.14.14,0,0,1,0,.09v.55a1.32,1.32,0,0,1-.19.73,1.22,1.22,0,0,1-.53.47A1.86,1.86,0,0,1,34.65,101.07Z"/><path class="cls-3" d="M37.9,101.07a1.26,1.26,0,0,1-.92-.32,1.27,1.27,0,0,1-.35-.93v-.21a1.54,1.54,0,0,1,.17-.67,1.11,1.11,0,0,1,.44-.42,1.33,1.33,0,0,1,.65-.15,1.34,1.34,0,0,1,.7.17A1.21,1.21,0,0,1,39,99a1.67,1.67,0,0,1,.14.69v.11a.12.12,0,0,1,0,.09.11.11,0,0,1-.08,0H37.4v0a1.14,1.14,0,0,0,.06.29.62.62,0,0,0,.17.22.45.45,0,0,0,.26.08.4.4,0,0,0,.2,0,.32.32,0,0,0,.13-.08s.07-.06.08-.09l.07-.06H39a.15.15,0,0,1,.08,0,.07.07,0,0,1,0,.08.43.43,0,0,1-.08.2,1,1,0,0,1-.23.23,1.42,1.42,0,0,1-.37.19A1.61,1.61,0,0,1,37.9,101.07Zm-.5-1.59h1a.79.79,0,0,0-.06-.32.45.45,0,0,0-.16-.2.48.48,0,0,0-.27-.08.45.45,0,0,0-.26.08.47.47,0,0,0-.17.2.79.79,0,0,0-.06.32Z"/><path class="cls-3" d="M40.9,101a1.25,1.25,0,0,1-.53-.1.68.68,0,0,1-.33-.32,1.08,1.08,0,0,1-.11-.54V99h-.39a.12.12,0,0,1-.13-.12v-.34a.14.14,0,0,1,.13-.13h.39V97.6a.12.12,0,0,1,.12-.13h.49a.14.14,0,0,1,.13.13v.82h.62a.11.11,0,0,1,.09,0,.12.12,0,0,1,0,.09v.34a.16.16,0,0,1,0,.09.14.14,0,0,1-.09,0h-.62v1a.61.61,0,0,0,.06.3.28.28,0,0,0,.24.11h.37a.11.11,0,0,1,.08,0,.11.11,0,0,1,0,.09v.37a.12.12,0,0,1,0,.09.11.11,0,0,1-.08,0Z"/><path class="cls-3" d="M44.19,101.07a1.48,1.48,0,0,1-.7-.14,1,1,0,0,1-.43-.39,1.39,1.39,0,0,1-.16-.59V99.5a1.28,1.28,0,0,1,.17-.6,1,1,0,0,1,.44-.39,1.7,1.7,0,0,1,1.35,0,1,1,0,0,1,.44.39,1.28,1.28,0,0,1,.17.6c0,.06,0,.13,0,.22s0,.16,0,.23a1.27,1.27,0,0,1-.17.59.94.94,0,0,1-.42.39A1.47,1.47,0,0,1,44.19,101.07Zm0-.55a.47.47,0,0,0,.37-.15.71.71,0,0,0,.13-.45,2,2,0,0,0,0-.4.7.7,0,0,0-.13-.44.44.44,0,0,0-.37-.16.45.45,0,0,0-.38.16.7.7,0,0,0-.13.44,2,2,0,0,0,0,.4.71.71,0,0,0,.13.45A.48.48,0,0,0,44.19,100.52Z"/><path class="cls-3" d="M46.12,101a.11.11,0,0,1-.08,0,.12.12,0,0,1,0-.09V98.55a.1.1,0,0,1,0-.09.09.09,0,0,1,.08,0h.49a.11.11,0,0,1,.09,0,.13.13,0,0,1,0,.09v.2a.7.7,0,0,1,.3-.24,1,1,0,0,1,.43-.09h.21a.11.11,0,0,1,.09,0,.12.12,0,0,1,0,.09V99a.16.16,0,0,1,0,.09.14.14,0,0,1-.09,0h-.44a.47.47,0,0,0-.34.12.46.46,0,0,0-.13.35v1.33a.11.11,0,0,1-.12.12Z"/><path class="cls-3" d="M49.11,101.07a1.23,1.23,0,0,1-.44-.08,1,1,0,0,1-.33-.24,1.17,1.17,0,0,1-.21-.38,2.18,2.18,0,0,1-.08-.48,1.45,1.45,0,0,1,0-.34,1.4,1.4,0,0,1,.08-.47,1.37,1.37,0,0,1,.2-.38,1,1,0,0,1,.33-.24,1.13,1.13,0,0,1,.45-.09,1,1,0,0,1,.45.09.86.86,0,0,1,.3.23V97.6a.14.14,0,0,1,.13-.13h.51a.11.11,0,0,1,.09,0,.12.12,0,0,1,0,.09v3.3a.16.16,0,0,1,0,.09.14.14,0,0,1-.09,0H50a.11.11,0,0,1-.08,0,.12.12,0,0,1,0-.09v-.17a.92.92,0,0,1-.31.24A1,1,0,0,1,49.11,101.07Zm.23-.6a.53.53,0,0,0,.3-.08.5.5,0,0,0,.16-.22.64.64,0,0,0,.06-.28,1.21,1.21,0,0,0,0-.19,1.09,1.09,0,0,0,0-.18.63.63,0,0,0-.06-.27.41.41,0,0,0-.17-.2.5.5,0,0,0-.29-.08.56.56,0,0,0-.3.08.6.6,0,0,0-.16.22.94.94,0,0,0-.05.3,1.6,1.6,0,0,0,0,.31.93.93,0,0,0,.05.29.6.6,0,0,0,.16.22A.56.56,0,0,0,49.34,100.47Z"/><path class="cls-3" d="M52.42,101.07a1.26,1.26,0,0,1-.92-.32,1.27,1.27,0,0,1-.35-.93v-.21a1.54,1.54,0,0,1,.17-.67,1.11,1.11,0,0,1,.44-.42,1.33,1.33,0,0,1,.65-.15,1.34,1.34,0,0,1,.7.17,1.21,1.21,0,0,1,.43.47,1.67,1.67,0,0,1,.14.69v.11a.12.12,0,0,1,0,.09.11.11,0,0,1-.08,0H51.92v0a1.14,1.14,0,0,0,.06.29.62.62,0,0,0,.17.22.45.45,0,0,0,.26.08.4.4,0,0,0,.2,0,.32.32,0,0,0,.13-.08s.07-.06.08-.09l.07-.06h.61l.08,0a.07.07,0,0,1,0,.08.43.43,0,0,1-.08.2,1,1,0,0,1-.23.23,1.42,1.42,0,0,1-.37.19A1.61,1.61,0,0,1,52.42,101.07Zm-.5-1.59h1a.79.79,0,0,0-.06-.32.45.45,0,0,0-.16-.2.48.48,0,0,0-.27-.08.45.45,0,0,0-.26.08.47.47,0,0,0-.17.2.79.79,0,0,0-.06.32Z"/><path class="cls-3" d="M54.3,101a.11.11,0,0,1-.08,0,.12.12,0,0,1,0-.09V98.55a.1.1,0,0,1,0-.09.09.09,0,0,1,.08,0h.49a.11.11,0,0,1,.09,0,.13.13,0,0,1,0,.09v.2a.7.7,0,0,1,.3-.24,1,1,0,0,1,.43-.09h.21a.11.11,0,0,1,.09,0,.12.12,0,0,1,0,.09V99a.16.16,0,0,1,0,.09.14.14,0,0,1-.09,0h-.44a.47.47,0,0,0-.34.12.46.46,0,0,0-.13.35v1.33a.11.11,0,0,1-.12.12Z"/></g></g><g id="_3._Lock_the_door" data-name=" 3. Lock the door" class="cls-2"><g class="cls-2"><path class="cls-3" d="M28.81,110.07a2,2,0,0,1-.64-.09,1.45,1.45,0,0,1-.43-.23.85.85,0,0,1-.26-.31,1,1,0,0,1-.09-.32.09.09,0,0,1,0-.07.11.11,0,0,1,.08,0h.55a.15.15,0,0,1,.09,0,.18.18,0,0,1,.06.08.4.4,0,0,0,.13.18.5.5,0,0,0,.22.1,1,1,0,0,0,.26,0,.74.74,0,0,0,.44-.13.47.47,0,0,0,.16-.37.38.38,0,0,0-.15-.34.74.74,0,0,0-.43-.11H28.3a.14.14,0,0,1-.09,0,.16.16,0,0,1,0-.09v-.24a.15.15,0,0,1,0-.1.1.1,0,0,1,.05-.06l.86-.79H27.7a.1.1,0,0,1-.09,0,.09.09,0,0,1,0-.08v-.4a.14.14,0,0,1,.13-.13h2.22a.12.12,0,0,1,.12.13V107a.15.15,0,0,1,0,.09l-.05.06-.81.8h.05a1.66,1.66,0,0,1,.52.14.83.83,0,0,1,.36.33,1,1,0,0,1,.14.54.9.9,0,0,1-.19.58,1.21,1.21,0,0,1-.5.38A1.9,1.9,0,0,1,28.81,110.07Z"/><path class="cls-3" d="M30.85,110a.12.12,0,0,1-.13-.12v-.56a.14.14,0,0,1,.13-.13h.56a.12.12,0,0,1,.12.13v.56a.11.11,0,0,1-.12.12Z"/><path class="cls-3" d="M33.42,110a.12.12,0,0,1-.13-.12v-3.25a.14.14,0,0,1,.13-.13H34a.14.14,0,0,1,.13.13v2.7h1.55a.12.12,0,0,1,.12.13v.42a.11.11,0,0,1-.12.12Z"/><path class="cls-3" d="M37.34,110.07a1.48,1.48,0,0,1-.7-.14,1,1,0,0,1-.43-.39,1.39,1.39,0,0,1-.16-.59v-.45a1.28,1.28,0,0,1,.17-.6,1,1,0,0,1,.44-.39,1.7,1.7,0,0,1,1.35,0,1,1,0,0,1,.44.39,1.28,1.28,0,0,1,.17.6c0,.06,0,.13,0,.22s0,.16,0,.23a1.27,1.27,0,0,1-.17.59.94.94,0,0,1-.42.39A1.47,1.47,0,0,1,37.34,110.07Zm0-.55a.47.47,0,0,0,.37-.15.71.71,0,0,0,.13-.45,2,2,0,0,0,0-.4.7.7,0,0,0-.13-.44.44.44,0,0,0-.37-.16.45.45,0,0,0-.38.16.7.7,0,0,0-.13.44,2,2,0,0,0,0,.4.71.71,0,0,0,.13.45A.48.48,0,0,0,37.34,109.52Z"/><path class="cls-3" d="M40.31,110.07a1.41,1.41,0,0,1-.64-.13,1,1,0,0,1-.44-.4,1.18,1.18,0,0,1-.18-.61v-.41a1.22,1.22,0,0,1,.18-.62,1,1,0,0,1,.43-.39,1.48,1.48,0,0,1,.65-.14,1.62,1.62,0,0,1,.57.09,1.3,1.3,0,0,1,.38.24.83.83,0,0,1,.22.29.63.63,0,0,1,.08.27.08.08,0,0,1,0,.08.11.11,0,0,1-.09,0h-.53a.1.1,0,0,1-.08,0,.13.13,0,0,1,0-.07.56.56,0,0,0-.18-.25.51.51,0,0,0-.28-.08.43.43,0,0,0-.35.15.62.62,0,0,0-.14.45,2,2,0,0,0,0,.35.67.67,0,0,0,.14.45.42.42,0,0,0,.35.14.47.47,0,0,0,.28-.07.62.62,0,0,0,.18-.25.16.16,0,0,1,0-.08.1.1,0,0,1,.08,0h.53a.11.11,0,0,1,.09,0,.09.09,0,0,1,0,.09,1,1,0,0,1,0,.2,1.18,1.18,0,0,1-.14.23.85.85,0,0,1-.24.22,1,1,0,0,1-.35.17A1.75,1.75,0,0,1,40.31,110.07Z"/><path class="cls-3" d="M42.18,110a.12.12,0,0,1-.13-.12v-3.3a.14.14,0,0,1,.13-.13h.49a.09.09,0,0,1,.08,0,.1.1,0,0,1,0,.09v1.69l.77-.78a.19.19,0,0,1,.07-.06.15.15,0,0,1,.1,0h.57a.11.11,0,0,1,.08,0,.13.13,0,0,1,0,.08s0,0,0,0,0,0,0,0l-1,1,1.09,1.24a.12.12,0,0,1,0,.08.1.1,0,0,1-.11.11h-.58l-.11,0-.07-.06-.87-1v.94a.12.12,0,0,1,0,.09.11.11,0,0,1-.08,0Z"/><path class="cls-3" d="M47.11,110a1.25,1.25,0,0,1-.53-.1.68.68,0,0,1-.33-.32,1.08,1.08,0,0,1-.11-.54v-1h-.39a.12.12,0,0,1-.13-.12v-.34a.14.14,0,0,1,.13-.13h.39v-.82a.12.12,0,0,1,.12-.13h.49a.14.14,0,0,1,.13.13v.82h.62a.11.11,0,0,1,.09,0,.12.12,0,0,1,0,.09v.34a.16.16,0,0,1,0,.09.14.14,0,0,1-.09,0h-.62v1a.61.61,0,0,0,.06.3.28.28,0,0,0,.24.11h.37a.11.11,0,0,1,.08,0,.11.11,0,0,1,0,.09v.37a.12.12,0,0,1,0,.09.11.11,0,0,1-.08,0Z"/><path class="cls-3" d="M48.23,110a.12.12,0,0,1-.13-.12v-3.3a.14.14,0,0,1,.13-.13h.54a.09.09,0,0,1,.08,0,.1.1,0,0,1,0,.09v1.12a1,1,0,0,1,.33-.25,1,1,0,0,1,.47-.1,1.11,1.11,0,0,1,.52.13,1,1,0,0,1,.36.39,1.41,1.41,0,0,1,.13.61v1.4a.12.12,0,0,1-.13.12H50a.14.14,0,0,1-.09,0,.16.16,0,0,1,0-.09v-1.37a.63.63,0,0,0-.13-.41.47.47,0,0,0-.37-.15.49.49,0,0,0-.38.15.54.54,0,0,0-.14.41v1.37a.12.12,0,0,1,0,.09.11.11,0,0,1-.08,0Z"/><path class="cls-3" d="M52.46,110.07a1.26,1.26,0,0,1-.92-.32,1.27,1.27,0,0,1-.35-.93v-.21a1.54,1.54,0,0,1,.17-.67,1.11,1.11,0,0,1,.44-.42,1.33,1.33,0,0,1,.65-.15,1.34,1.34,0,0,1,.7.17,1.21,1.21,0,0,1,.43.47,1.67,1.67,0,0,1,.14.69v.11a.12.12,0,0,1,0,.09.11.11,0,0,1-.08,0H52v0a1.14,1.14,0,0,0,.06.29.62.62,0,0,0,.17.22.45.45,0,0,0,.26.08.4.4,0,0,0,.2,0,.32.32,0,0,0,.13-.08s.07-.06.08-.09l.07-.06h.61l.08,0a.07.07,0,0,1,0,.08.43.43,0,0,1-.08.2,1,1,0,0,1-.23.23A1.42,1.42,0,0,1,53,110,1.61,1.61,0,0,1,52.46,110.07Zm-.5-1.59h1a.79.79,0,0,0-.06-.32.45.45,0,0,0-.16-.2.48.48,0,0,0-.27-.08.45.45,0,0,0-.26.08.47.47,0,0,0-.17.2.79.79,0,0,0-.06.32Z"/><path class="cls-3" d="M56.29,110.07a1.23,1.23,0,0,1-.44-.08,1,1,0,0,1-.33-.24,1.17,1.17,0,0,1-.21-.38,2.18,2.18,0,0,1-.08-.48,1.45,1.45,0,0,1,0-.34,1.4,1.4,0,0,1,.08-.47,1.37,1.37,0,0,1,.2-.38,1,1,0,0,1,.33-.24,1.13,1.13,0,0,1,.45-.09,1.06,1.06,0,0,1,.45.09.86.86,0,0,1,.3.23V106.6a.14.14,0,0,1,.13-.13h.51a.12.12,0,0,1,.12.13v3.3a.11.11,0,0,1-.12.12H57.2a.11.11,0,0,1-.08,0,.12.12,0,0,1,0-.09v-.17a.92.92,0,0,1-.31.24A1,1,0,0,1,56.29,110.07Zm.23-.6a.53.53,0,0,0,.3-.08.5.5,0,0,0,.16-.22.64.64,0,0,0,.06-.28,1.21,1.21,0,0,0,0-.19,1.09,1.09,0,0,0,0-.18.63.63,0,0,0-.06-.27.47.47,0,0,0-.17-.2.5.5,0,0,0-.29-.08.56.56,0,0,0-.3.08.6.6,0,0,0-.16.22.94.94,0,0,0-.05.3,1.6,1.6,0,0,0,0,.31.93.93,0,0,0,.05.29.6.6,0,0,0,.16.22A.56.56,0,0,0,56.52,109.47Z"/><path class="cls-3" d="M59.63,110.07a1.48,1.48,0,0,1-.7-.14,1,1,0,0,1-.43-.39,1.39,1.39,0,0,1-.16-.59v-.45a1.28,1.28,0,0,1,.17-.6,1,1,0,0,1,.44-.39,1.7,1.7,0,0,1,1.35,0,1,1,0,0,1,.44.39,1.28,1.28,0,0,1,.17.6c0,.06,0,.13,0,.22s0,.16,0,.23a1.27,1.27,0,0,1-.17.59.94.94,0,0,1-.42.39A1.47,1.47,0,0,1,59.63,110.07Zm0-.55a.47.47,0,0,0,.37-.15.71.71,0,0,0,.13-.45,2,2,0,0,0,0-.4.7.7,0,0,0-.13-.44.44.44,0,0,0-.37-.16.45.45,0,0,0-.38.16.7.7,0,0,0-.13.44,2,2,0,0,0,0,.4.71.71,0,0,0,.13.45A.48.48,0,0,0,59.63,109.52Z"/><path class="cls-3" d="M62.63,110.07a1.44,1.44,0,0,1-.69-.14,1,1,0,0,1-.43-.39,1.26,1.26,0,0,1-.16-.59,1.69,1.69,0,0,1,0-.23,1.41,1.41,0,0,1,0-.22,1.17,1.17,0,0,1,.17-.6,1,1,0,0,1,.43-.39,1.59,1.59,0,0,1,.68-.14,1.55,1.55,0,0,1,.68.14,1,1,0,0,1,.43.39,1.17,1.17,0,0,1,.17.6,1.41,1.41,0,0,1,0,.22,1.69,1.69,0,0,1,0,.23,1.26,1.26,0,0,1-.16.59,1,1,0,0,1-.43.39A1.44,1.44,0,0,1,62.63,110.07Zm0-.55a.44.44,0,0,0,.37-.15.71.71,0,0,0,.14-.45v-.4a.7.7,0,0,0-.14-.44.42.42,0,0,0-.37-.16.43.43,0,0,0-.37.16.7.7,0,0,0-.14.44v.4a.71.71,0,0,0,.14.45A.45.45,0,0,0,62.63,109.52Z"/><path class="cls-3" d="M64.57,110a.12.12,0,0,1-.09,0,.16.16,0,0,1,0-.09v-2.35a.12.12,0,0,1,0-.09.1.1,0,0,1,.09,0h.49a.12.12,0,0,1,.12.13v.2a.79.79,0,0,1,.31-.24.93.93,0,0,1,.42-.09h.22a.09.09,0,0,1,.08,0,.13.13,0,0,1,0,.09V108a.18.18,0,0,1,0,.09.11.11,0,0,1-.08,0h-.44a.42.42,0,0,0-.47.47v1.33a.12.12,0,0,1-.13.12Z"/></g></g><g id="Group_7" data-name="Group 7"><g id="Path_12" data-name="Path 12"><path class="cls-3" d="M72.26,40.26c-.42,0-.5.16-.48.53,0,.62,0,1.23,0,1.9a2.29,2.29,0,0,0-3,.39,2.42,2.42,0,0,0,0,3,2.27,2.27,0,0,0,3,.38c.1.52.51.33.8.3.09,0,.22-.32.22-.5,0-1.84,0-3.68,0-5.53C72.83,40.32,72.65,40.27,72.26,40.26ZM70.53,46a1.28,1.28,0,0,1-1.29-1.27v-.13a1.29,1.29,0,0,1,1.18-1.37h.15a1.33,1.33,0,0,1,1.31,1.35v0A1.33,1.33,0,0,1,70.6,46Z"/></g><g id="Path_13" data-name="Path 13"><path class="cls-3" d="M53.59,40.78c0-.15,0-.3,0-.44-1-.18-1-.16-1,.73V42.7a2.23,2.23,0,0,0-3,.41,2.38,2.38,0,0,0,.05,3,2.17,2.17,0,0,0,3,.32c.08.61.52.34.82.34.06,0,.18-.32.18-.49C53.6,44.47,53.59,42.62,53.59,40.78ZM51.36,46a1.24,1.24,0,0,1-1.31-1.16.67.67,0,0,1,0-.2,1.24,1.24,0,0,1,1.09-1.39.59.59,0,0,1,.19,0,1.26,1.26,0,0,1,1.32,1.21v.15A1.28,1.28,0,0,1,51.5,46Z"/></g><g id="Path_14" data-name="Path 14"><path class="cls-3" d="M58.51,43.12a2.22,2.22,0,0,0-3-.42c-.12-.52-.53-.35-.84-.31-.08,0-.19.34-.19.53,0,1.83,0,3.65,0,5.48,0,.43.24.39.52.39s.55,0,.53-.39c0-.61,0-1.23,0-1.9a2.24,2.24,0,0,0,3-.43A2.37,2.37,0,0,0,58.51,43.12ZM56.71,46a1.28,1.28,0,0,1-1.33-1.23v-.13a1.29,1.29,0,0,1,1.16-1.4h.13A1.22,1.22,0,0,1,58,44.36v.22A1.25,1.25,0,0,1,56.91,46Z"/></g><g id="Path_15" data-name="Path 15"><path class="cls-3" d="M77.12,43.73a1.51,1.51,0,0,0-1.54-1.48H75.5a1.64,1.64,0,0,0-1.85,1.29c.4.1.77.34,1.15-.17.14-.18.66-.18,1-.1s.29.4.43.62l-.12.13a3.53,3.53,0,0,0-.65,0,5.5,5.5,0,0,0-1.27.32,1.36,1.36,0,0,0,.47,2.54,1.87,1.87,0,0,0,1.55-.49c0,.11,0,.26.1.28a2,2,0,0,0,.64.14c.07,0,.22-.17.22-.27C77.14,45.61,77.18,44.67,77.12,43.73ZM74.86,46a.61.61,0,0,1-.32-.44.86.86,0,0,1,.4-.55,5.22,5.22,0,0,1,1.11-.11A1,1,0,0,1,75.26,46,1.08,1.08,0,0,1,74.86,46Z"/></g><g id="Path_16" data-name="Path 16"><path class="cls-3" d="M63,46.28c0-.79,0-1.58,0-2.38a1.5,1.5,0,0,0-1.22-1.59,1.86,1.86,0,0,0-2.15.82,1.9,1.9,0,0,0-.14.4c.45.14.82.31,1.2-.18.13-.17.63-.17.91-.09s.32.39.48.6L62,44a3.28,3.28,0,0,0-.7,0,5.06,5.06,0,0,0-1.27.33,1.26,1.26,0,0,0-.63,1.46,1.24,1.24,0,0,0,1.07,1,2,2,0,0,0,1.65-.5c0,.56.37.48.67.46S63,46.48,63,46.28ZM61,46c-.27,0-.53,0-.59-.34a.54.54,0,0,1,.34-.67l.09,0A10.35,10.35,0,0,1,62,44.86c0,.73-.35,1.09-1,1.12Z"/></g><g id="Path_17" data-name="Path 17"><path class="cls-3" d="M46.39,42.26a2.34,2.34,0,1,0,2.32,2.35A2.35,2.35,0,0,0,46.39,42.26Zm0,3.72a1.24,1.24,0,0,1-1.31-1.17,2.09,2.09,0,0,1,0-.25,1.23,1.23,0,0,1,1.1-1.34h.22a1.24,1.24,0,0,1,1.28,1.19,1.48,1.48,0,0,1,0,.21A1.23,1.23,0,0,1,46.58,46Z"/></g><g id="Path_18" data-name="Path 18"><path class="cls-3" d="M41.38,42.26a2.34,2.34,0,0,0,0,4.67h0a2.36,2.36,0,0,0,2.39-2.33h0A2.37,2.37,0,0,0,41.38,42.26Zm0,3.72a1.24,1.24,0,0,1-1.27-1.21,1.21,1.21,0,0,1,0-.19,1.24,1.24,0,0,1,1.1-1.36h.2a1.24,1.24,0,0,1,1.3,1.18,1.34,1.34,0,0,1,0,.2A1.24,1.24,0,0,1,41.59,46Z"/></g><g id="Path_19" data-name="Path 19"><path class="cls-3" d="M66.69,46.79v-2c0-.23,0-.45,0-.67,0-.6-.31-.86-.86-.85a.92.92,0,0,0-1,.89h0c0,.76,0,1.52,0,2.28,0,.45-.22.44-.54.44s-.54,0-.53-.44c0-1.14,0-2.28,0-3.43,0-.2.09-.56.2-.58.31,0,.72-.19.86.32a1.64,1.64,0,0,1,2-.22,1.68,1.68,0,0,1,.9,1.66V46.2c0,.66,0,.66-.64.64Z"/></g><g id="Path_20" data-name="Path 20"><path class="cls-3" d="M39,42.39v.89l-.89,0v1.61c0,.47,0,1,0,1.43s-.19.48-.55.48-.52-.05-.51-.47c0-1,0-1.94,0-2.91a.35.35,0,0,0,0-.13c-.35,0-.8,0-.74-.62s.52-.23.78-.46c0-.2,0-.46,0-.71a1.33,1.33,0,0,1,1.3-1.27c.63,0,.76.19.59,1-.91,0-1,.09-.8,1.08l.41,0Z"/></g></g><g id="Group_13" data-name="Group 13"><g id="Path_48" data-name="Path 48"><path class="cls-3" d="M60.38,21.3l-.17-.08a6.41,6.41,0,0,0-2.55-.57,6.74,6.74,0,0,0-3,.59c-.09,0-.16.08-.24,0a1.73,1.73,0,0,0-2-.65,1.77,1.77,0,0,0-1.25,2.18,1.88,1.88,0,0,0,.41.76c.09.1.13.16.05.28a6.56,6.56,0,0,0-1,4.54,6.42,6.42,0,0,0,1.17,3.07,6.73,6.73,0,0,0,6.51,2.9,6.53,6.53,0,0,0,3.66-1.64,6.91,6.91,0,0,0,1.79-7.92c-.17-.38-.38-.74-.57-1.1A1.85,1.85,0,0,0,63.23,21L63.17,21a1.88,1.88,0,0,0-2.65.16A1.33,1.33,0,0,0,60.38,21.3Z"/></g><g id="Path_49" data-name="Path 49"><path d="M60.38,21.3a1.86,1.86,0,0,1,2.6-.49,1.33,1.33,0,0,1,.19.14,1.86,1.86,0,0,1,0,2.61l-.06.06c.19.36.4.72.57,1.1a6.93,6.93,0,0,1-1.79,7.93,6.58,6.58,0,0,1-3.66,1.63,6.73,6.73,0,0,1-6.51-2.9,6.42,6.42,0,0,1-1.17-3.07,6.56,6.56,0,0,1,1-4.54c.08-.12,0-.19-.05-.28a1.79,1.79,0,0,1,.84-2.94,1.72,1.72,0,0,1,2,.66c.08.11.15.06.24,0a6.74,6.74,0,0,1,3-.59,6.41,6.41,0,0,1,2.55.57Zm-9.27,6.16a6.35,6.35,0,0,0,12.7.33c0-.11,0-.21,0-.31a6.35,6.35,0,1,0-12.7-.33C51.11,27.25,51.11,27.36,51.11,27.46Z"/></g><g id="Path_50" data-name="Path 50"><path class="cls-3" d="M51.12,27.46a6.35,6.35,0,1,1,12.7-.29v.31a6.35,6.35,0,0,1-12.7.29A1.6,1.6,0,0,1,51.12,27.46Zm1.1-.79a2.18,2.18,0,0,0,.88,1.84.84.84,0,0,0,1.19.07.89.89,0,0,0,.28-.54,3.8,3.8,0,0,1,.62-1.22c.23-.3.46-.6.71-.88a1.06,1.06,0,0,0-.13-1.5,1,1,0,0,0-.44-.22,2.75,2.75,0,0,0-.86,0,2.54,2.54,0,0,0-2.25,2.5Zm7.84-2.54-.37,0a1.15,1.15,0,0,0-.91.79A1,1,0,0,0,59,26a5.51,5.51,0,0,1,1.33,2.19.77.77,0,0,0,.91.58.89.89,0,0,0,.31-.15A2.24,2.24,0,0,0,62.64,27a2.54,2.54,0,0,0-2.23-2.81,2.06,2.06,0,0,0-.35,0Zm-.93,5.09H55.8a1.36,1.36,0,0,0,.73,1.19,1.81,1.81,0,0,0,2-.07,1.31,1.31,0,0,0,.63-1.12Zm-1.66-1.67c-.3.05-.59.07-.87.14s-.38.27-.18.54a1.34,1.34,0,0,0,1.88.19,2.28,2.28,0,0,0,.22-.22c.17-.25.12-.43-.17-.5a8.79,8.79,0,0,0-.87-.15Z"/></g><g id="Path_51" data-name="Path 51"><path d="M52.22,26.67a2.54,2.54,0,0,1,2.25-2.5,2.82,2.82,0,0,1,.87,0,1.07,1.07,0,0,1,.79,1.28,1.1,1.1,0,0,1-.23.44c-.24.29-.48.58-.71.88A3.8,3.8,0,0,0,54.57,28a.85.85,0,0,1-.92.75.86.86,0,0,1-.54-.28A2.21,2.21,0,0,1,52.22,26.67ZM54.93,26a.35.35,0,0,0,.35-.37.37.37,0,0,0-.37-.35.36.36,0,0,0-.36.35.35.35,0,0,0,.35.37Z"/></g><g id="Path_52" data-name="Path 52"><path d="M60.06,24.13a2.54,2.54,0,0,1,2.6,2.48,2,2,0,0,1,0,.35,2.24,2.24,0,0,1-1.06,1.66.76.76,0,0,1-1.07-.12.68.68,0,0,1-.14-.31A5.62,5.62,0,0,0,59,26a1,1,0,0,1-.26-1,1.15,1.15,0,0,1,.91-.79Zm0,1.85a.36.36,0,0,0,0-.72.37.37,0,0,0-.37.35.35.35,0,0,0,.35.37Z"/></g><g id="Path_53" data-name="Path 53"><path d="M59.13,29.22a1.31,1.31,0,0,1-.63,1.12,1.79,1.79,0,0,1-2,.07,1.36,1.36,0,0,1-.74-1.19Z"/></g><g id="Path_54" data-name="Path 54"><path d="M57.48,27.55c.29.05.59.08.88.15s.34.25.16.5a1.35,1.35,0,0,1-1.88.24,1.45,1.45,0,0,1-.22-.21c-.2-.26-.14-.46.19-.54S57.18,27.6,57.48,27.55Z"/></g><g id="Path_55" data-name="Path 55"><path class="cls-3" d="M54.93,26a.37.37,0,0,1-.39-.34v0a.37.37,0,0,1,.74,0,.36.36,0,0,1-.35.37Z"/></g><g id="Path_56" data-name="Path 56"><path class="cls-3" d="M60.08,26a.37.37,0,0,1-.38-.35v0a.37.37,0,0,1,.74,0,.36.36,0,0,1-.36.36Z"/></g></g></g></svg>