<svg xmlns="http://www.w3.org/2000/svg" viewBox="0 0 1209.31 236.31"><defs><style>.cls-1{fill:#fff;}</style></defs><g id="Layer_2" data-name="Layer 2"><g id="Layer_1-2" data-name="Layer 1"><path class="cls-1" d="M1103.68,51.85c-9.2-.25-10.8,3.58-10.47,11.56.53,13.29.14,26.63.14,41.07-26.71-13.66-50.14-10.26-65.41,8.47s-15.21,47,.27,65.56c15.62,18.79,38.85,21.76,65,8.14,2.06,11.37,11,7.17,17.33,6.66,2-.17,4.76-7.09,4.78-10.95.35-39.77-.08-79.55.45-119.32C1115.9,53.29,1112,52.06,1103.68,51.85Zm-37.39,123.61c-16.71-.13-28.15-12.49-27.92-30.21.25-17.87,11.66-29.66,28.6-29.51,16.26.14,28.63,13.29,28.36,30.19C1095.06,163.05,1082.76,175.56,1066.29,175.46Z"/><path class="cls-1" d="M700.2,63.16c0-3.29-.39-6.59-.59-9.64-20.94-3.9-21.72-3.3-21.72,15.91v35.14c-25-14.27-49.09-10.54-65.23,8.92-15.27,18.42-14.78,47.62,1.11,65.45,17,19,40.7,22,64.55,6.88,1.81,13.11,11.29,7.34,17.85,7.44,1.29,0,3.85-6.88,3.89-10.61C700.35,142.81,700.25,103,700.2,63.16ZM652,175.44c-17.27.14-28.15-11.21-28.27-29.49-.11-18.47,10.49-30.09,27.55-30.21s28.36,11.64,28.5,29.49S668.78,175.31,652,175.44Z"/><path class="cls-1" d="M806.44,113.8c-17.12-20.32-39.77-23.58-65.66-9.17-2.43-11.26-11.35-7.63-18-6.72-1.92.27-4.1,7.46-4.14,11.5-.29,39.46.06,78.93-.33,118.39-.1,9.34,5.32,8.49,11.29,8.49s11.79.85,11.42-8.47c-.54-13.29-.14-26.64-.14-41.19,25.69,14.26,48.92,10.57,65.39-9.09C821.16,159.78,821.24,131.36,806.44,113.8Zm-38.83,61.64c-16.79.16-28.43-11.81-28.56-29.41-.12-17.85,11.09-30.13,27.68-30.29,17.31-.19,28,11,28.11,29.4C795,163.84,784.66,175.29,767.61,175.44Z"/><path class="cls-1" d="M1208.59,127c-1.25-20-14.38-31-34.91-31.95-21.37-.94-36.14,9.07-40.1,27.7,8.78,2.19,16.67,7.48,25-3.69,2.9-3.87,14.11-3.71,20.63-2,4,1,6.2,8.62,9.21,13.28-.81.92-1.63,1.85-2.43,2.8-4.72,0-9.55-.7-14.1.14-9.32,1.73-19.13,2.91-27.53,6.84-12.12,5.69-17,18.3-14.57,31.18,2.57,13.71,10.55,21.29,24.85,23.58,12.65,2,23.54-2,33.34-10.59.87,2.51,1.08,5.71,2.29,6.16a43.33,43.33,0,0,0,13.79,3.11c1.61,0,4.76-3.77,4.8-5.85C1209.13,167.42,1209.85,147.12,1208.59,127Zm-48.76,48c-3.17-1-7.48-6.82-6.88-9.39,1.09-4.56,4.78-10.68,8.72-11.92,7.5-2.37,15.93-1.75,23.95-2.37C1187,167.38,1173.5,179.39,1159.83,174.94Z"/><path class="cls-1" d="M904.1,182c.38-17.12.35-34.27.07-51.42-.31-18.77-9.32-30.21-26.36-34.31-19.62-4.72-38.23,2.27-46.37,17.56-1.38,2.6-2,5.54-3.15,8.7,9.91,3.09,17.84,6.8,25.9-3.82C857,115,867.83,115,874,116.81c4.37,1.27,7,8.43,10.41,13-.88,1.13-1.77,2.25-2.66,3.38-5.07,0-10.28-.78-15.19.16-9.27,1.78-19,3.2-27.36,7.2-11.79,5.6-16.1,17.62-13.77,31.47,2.08,12.28,10.2,20.09,23.31,22.66s24.52-1.75,35.51-10.81c.08,12.3,8,10.38,14.61,10C907.48,193.33,904,186.3,904.1,182ZM861,175.48c-5.81.29-11.31-.19-12.61-7.4-1.34-7.56,1.69-13.35,9.17-14.8,7.87-1.52,16-1.42,24.19-2C881.33,167,874.1,174.86,861,175.48Z"/><path class="cls-1" d="M544.73,95.17c-27.67-.25-50.75,22.44-50.92,50A50.66,50.66,0,0,0,544,196c27.72.25,50.74-22.34,50.9-50A50.7,50.7,0,0,0,544.73,95.17Zm-.37,80.29c-17.68,0-28.11-11.42-27.9-30.61.19-18.32,10.86-29.3,28.36-29.11,17.18.16,27.49,11.47,27.43,30.06S561.67,175.44,544.36,175.46Z"/><path class="cls-1" d="M436.52,95.17c-27.33.08-49.87,22.42-50.06,49.58-.2,28.13,21.62,50.74,49.42,51.21,28,.48,51.6-22.69,51.46-50.57C487.2,117.9,464.11,95.06,436.52,95.17Zm-.47,80.27c-17.07-.23-27.41-11.75-27.25-30.3s10.76-29.47,28.15-29.4c17.17.06,27.84,11.45,27.87,29.79C464.84,164.27,453.85,175.69,436.05,175.44Z"/><path class="cls-1" d="M983.24,192.93c0-15,0-29.67,0-44.35,0-4.8.14-9.63-.2-14.41-.94-12.92-6.68-18.53-18.53-18.43-11.62.1-20.77,8-21.1,19.46-.48,16.46-.7,33,0,49.42.42,9.6-4.78,9.45-11.5,9.45s-11.76.09-11.52-9.46c.62-24.71,0-49.44.4-74.15.07-4.4,2-12.09,4.21-12.5,6.69-1.26,15.55-4.2,18.55,6.89C957,93.28,971.32,92.5,986.05,100c14.39,7.38,19.61,20.21,19.44,35.85-.16,14.76,0,29.52,0,44.28,0,14.19,0,14.22-14,13.76C989.17,193.85,986.87,193.38,983.24,192.93Z"/><path class="cls-1" d="M384.87,98v19.14l-19.3,1.08v34.7c0,10.3-.56,20.65.16,30.91.67,9.54-4.16,10.41-11.8,10.35-7.32-.06-11.26-1-11-10,.63-20.93.13-41.9.06-62.86a16.34,16.34,0,0,0-.7-2.79c-7.65-1-17.22.91-15.95-13.4,1.17-13,11.26-5.12,16.89-10.13,0-4.42-.28-9.85.05-15.25.93-15.59,12.41-26.67,28.09-27.4,13.46-.63,16.32,4.1,12.66,21-19.62.26-20.87,1.89-17.22,23.26,2.83.2,5.83.39,8.82.62S381.59,97.69,384.87,98Z"/><path class="cls-1" d="M80,62.52a46.17,46.17,0,0,0-14.47-.78c-21,2-37.7,20.68-37.58,41.71.12,12.55,4.62,23.1,14.77,30.73,10.88,8.18,20.56,5,24.47-7.93A62.58,62.58,0,0,1,77.54,106c3.84-5,7.76-10,11.85-14.81C99.57,79.19,90.21,64.88,80,62.52ZM73.15,92a6.11,6.11,0,0,1-6.43-6.2,6,6,0,0,1,6-5.82,6,6,0,1,1,.39,12Zm57.27,28.65c-4.82-1.19-9.82-1.66-14.71-2.44-5,.76-9.84,1.19-14.55,2.33-5.41,1.31-6.35,4.56-3.07,8.94,8.34,11.19,27,10.91,35.07-.52C136.05,124.82,135.25,121.79,130.42,120.6ZM87.74,146c.55,9.08,4.62,15.73,12.27,19.87,11.08,6,22.2,5.71,32.82-1.26A22,22,0,0,0,143.36,146Zm71.11-85c-1.64.18-3.92.29-6.14.73-7.53,1.47-12.58,5.91-15.19,13.12-2.43,6.72-.35,12.26,4.27,17.34C151.55,103,159.9,114.5,164,128.88c2.7,9.51,11.85,12.41,20.29,7.1A37.29,37.29,0,0,0,202,108.32C205,85.81,188.37,61.79,158.85,61ZM159.14,92a6.07,6.07,0,0,1-6.27-6.32,6,6,0,0,1,6.13-5.7,6,6,0,1,1,.14,12ZM158.85,61c-1.64.18-3.92.29-6.14.73-7.53,1.47-12.58,5.91-15.19,13.12-2.43,6.72-.35,12.26,4.27,17.34C151.55,103,159.9,114.5,164,128.88c2.7,9.51,11.85,12.41,20.29,7.1A37.29,37.29,0,0,0,202,108.32C205,85.81,188.37,61.79,158.85,61ZM159.14,92a6.07,6.07,0,0,1-6.27-6.32,6,6,0,0,1,6.13-5.7,6,6,0,1,1,.14,12Zm-59.13,74c11.08,6,22.2,5.71,32.82-1.26A22,22,0,0,0,143.36,146H87.74C88.29,155.12,92.36,161.77,100,165.91Zm33.15-37c2.89-4.09,2.09-7.12-2.74-8.31s-9.82-1.66-14.71-2.44c-5,.76-9.84,1.19-14.55,2.33-5.41,1.31-6.35,4.56-3.07,8.94C106.43,140.62,125.09,140.34,133.16,128.91ZM80,62.52a46.17,46.17,0,0,0-14.47-.78c-21,2-37.7,20.68-37.58,41.71.12,12.55,4.62,23.1,14.77,30.73,10.88,8.18,20.56,5,24.47-7.93A62.58,62.58,0,0,1,77.54,106c3.84-5,7.76-10,11.85-14.81C99.57,79.19,90.21,64.88,80,62.52ZM73.15,92a6.11,6.11,0,0,1-6.43-6.2,6,6,0,0,1,6-5.82,6,6,0,1,1,.39,12Zm147-21.17c-2.8-6.28-6.35-12.22-9.57-18.35,13.52-11.61,12-33.91.19-44.52C198-3.51,175-3.1,164.13,13.71c-1.07-.47-1.93-.85-2.78-1.24a108.14,108.14,0,0,0-42.59-9.6A114.19,114.19,0,0,0,68,12.69c-1.42.63-2.56,1.33-3.94-.53C55.71.94,44.38-2,31.33,1.28c-21.58,5.51-29.1,32.05-14,49,1.45,1.62,2.11,2.67.71,4.79C2.85,78.14-2.31,103.52.93,130.82,3.15,149.56,9.39,167,20.46,182.06c26.88,36.71,63.32,53.18,108.7,48.4,23.15-2.44,43.54-12,61.07-27.29q31.52-27.6,37.89-69.07C231.48,112.26,229.15,91,220.12,70.78Zm-104.72,152c-57.88,0-105.74-48.05-105.89-106.22C9.34,57.43,56,10.69,115.28,10.57S221.44,57.27,221.62,116.9C221.81,174.49,173.31,222.86,115.4,222.81ZM158.85,61c-1.64.18-3.92.29-6.14.73-7.53,1.47-12.58,5.91-15.19,13.12-2.43,6.72-.35,12.26,4.27,17.34C151.55,103,159.9,114.5,164,128.88c2.7,9.51,11.85,12.41,20.29,7.1A37.29,37.29,0,0,0,202,108.32C205,85.81,188.37,61.79,158.85,61ZM159.14,92a6.07,6.07,0,0,1-6.27-6.32,6,6,0,0,1,6.13-5.7,6,6,0,1,1,.14,12Zm-59.13,74c11.08,6,22.2,5.71,32.82-1.26A22,22,0,0,0,143.36,146H87.74C88.29,155.12,92.36,161.77,100,165.91Zm33.15-37c2.89-4.09,2.09-7.12-2.74-8.31s-9.82-1.66-14.71-2.44c-5,.76-9.84,1.19-14.55,2.33-5.41,1.31-6.35,4.56-3.07,8.94C106.43,140.62,125.09,140.34,133.16,128.91ZM80,62.52a46.17,46.17,0,0,0-14.47-.78c-21,2-37.7,20.68-37.58,41.71.12,12.55,4.62,23.1,14.77,30.73,10.88,8.18,20.56,5,24.47-7.93A62.58,62.58,0,0,1,77.54,106c3.84-5,7.76-10,11.85-14.81C99.57,79.19,90.21,64.88,80,62.52ZM73.15,92a6.11,6.11,0,0,1-6.43-6.2,6,6,0,0,1,6-5.82,6,6,0,1,1,.39,12ZM80,62.52a46.17,46.17,0,0,0-14.47-.78c-21,2-37.7,20.68-37.58,41.71.12,12.55,4.62,23.1,14.77,30.73,10.88,8.18,20.56,5,24.47-7.93A62.58,62.58,0,0,1,77.54,106c3.84-5,7.76-10,11.85-14.81C99.57,79.19,90.21,64.88,80,62.52ZM73.15,92a6.11,6.11,0,0,1-6.43-6.2,6,6,0,0,1,6-5.82,6,6,0,1,1,.39,12Zm57.27,28.65c-4.82-1.19-9.82-1.66-14.71-2.44-5,.76-9.84,1.19-14.55,2.33-5.41,1.31-6.35,4.56-3.07,8.94,8.34,11.19,27,10.91,35.07-.52C136.05,124.82,135.25,121.79,130.42,120.6ZM87.74,146c.55,9.08,4.62,15.73,12.27,19.87,11.08,6,22.2,5.71,32.82-1.26A22,22,0,0,0,143.36,146Zm71.11-85c-1.64.18-3.92.29-6.14.73-7.53,1.47-12.58,5.91-15.19,13.12-2.43,6.72-.35,12.26,4.27,17.34C151.55,103,159.9,114.5,164,128.88c2.7,9.51,11.85,12.41,20.29,7.1A37.29,37.29,0,0,0,202,108.32C205,85.81,188.37,61.79,158.85,61ZM159.14,92a6.07,6.07,0,0,1-6.27-6.32,6,6,0,0,1,6.13-5.7,6,6,0,1,1,.14,12ZM158.85,61c-1.64.18-3.92.29-6.14.73-7.53,1.47-12.58,5.91-15.19,13.12-2.43,6.72-.35,12.26,4.27,17.34C151.55,103,159.9,114.5,164,128.88c2.7,9.51,11.85,12.41,20.29,7.1A37.29,37.29,0,0,0,202,108.32C205,85.81,188.37,61.79,158.85,61ZM159.14,92a6.07,6.07,0,0,1-6.27-6.32,6,6,0,0,1,6.13-5.7,6,6,0,1,1,.14,12ZM87.74,146c.55,9.08,4.62,15.73,12.27,19.87,11.08,6,22.2,5.71,32.82-1.26A22,22,0,0,0,143.36,146Zm42.68-25.44c-4.82-1.19-9.82-1.66-14.71-2.44-5,.76-9.84,1.19-14.55,2.33-5.41,1.31-6.35,4.56-3.07,8.94,8.34,11.19,27,10.91,35.07-.52C136.05,124.82,135.25,121.79,130.42,120.6ZM80,62.52a46.17,46.17,0,0,0-14.47-.78c-21,2-37.7,20.68-37.58,41.71.12,12.55,4.62,23.1,14.77,30.73,10.88,8.18,20.56,5,24.47-7.93A62.58,62.58,0,0,1,77.54,106c3.84-5,7.76-10,11.85-14.81C99.57,79.19,90.21,64.88,80,62.52ZM73.15,92a6.11,6.11,0,0,1-6.43-6.2,6,6,0,0,1,6-5.82,6,6,0,1,1,.39,12Z"/><path class="cls-1" d="M220.12,70.78c-2.8-6.28-6.35-12.22-9.57-18.35,13.52-11.61,12-33.91.19-44.52C198-3.51,175-3.1,164.13,13.71c-1.07-.47-1.93-.85-2.78-1.24a108.14,108.14,0,0,0-42.59-9.6A114.19,114.19,0,0,0,68,12.69c-1.42.63-2.56,1.33-3.94-.53C55.71.94,44.38-2,31.33,1.28c-21.58,5.51-29.1,32.05-14,49,1.45,1.62,2.11,2.67.71,4.79C2.85,78.14-2.31,103.52.93,130.82,3.15,149.56,9.39,167,20.46,182.06c26.88,36.71,63.32,53.18,108.7,48.4,23.15-2.44,43.54-12,61.07-27.29q31.52-27.6,37.89-69.07C231.48,112.26,229.15,91,220.12,70.78Zm-104.72,152c-57.88,0-105.74-48.05-105.89-106.22C9.34,57.43,56,10.69,115.28,10.57S221.44,57.27,221.62,116.9C221.81,174.49,173.31,222.86,115.4,222.81Z"/><path class="cls-1" d="M80,62.52a46.17,46.17,0,0,0-14.47-.78c-21,2-37.7,20.68-37.58,41.71.12,12.55,4.62,23.1,14.77,30.73,10.88,8.18,20.56,5,24.47-7.93A62.58,62.58,0,0,1,77.54,106c3.84-5,7.76-10,11.85-14.81C99.57,79.19,90.21,64.88,80,62.52ZM73.15,92a6.11,6.11,0,0,1-6.43-6.2,6,6,0,0,1,6-5.82,6,6,0,1,1,.39,12Z"/><path class="cls-1" d="M158.85,61c-1.64.18-3.92.29-6.14.73-7.53,1.47-12.58,5.91-15.19,13.12-2.43,6.72-.35,12.26,4.27,17.34C151.55,103,159.9,114.5,164,128.88c2.7,9.51,11.85,12.41,20.29,7.1A37.29,37.29,0,0,0,202,108.32C205,85.81,188.37,61.79,158.85,61ZM159.14,92a6.07,6.07,0,0,1-6.27-6.32,6,6,0,0,1,6.13-5.7,6,6,0,1,1,.14,12Z"/><path class="cls-1" d="M143.36,146a22,22,0,0,1-10.53,18.61c-10.62,7-21.74,7.24-32.82,1.26-7.65-4.14-11.72-10.79-12.27-19.87Z"/><path class="cls-1" d="M133.16,128.91c-8.07,11.43-26.73,11.71-35.07.52-3.28-4.38-2.34-7.63,3.07-8.94,4.71-1.14,9.59-1.57,14.55-2.33,4.89.78,9.89,1.25,14.71,2.44S136.05,124.82,133.16,128.91Z"/></g></g></svg>