<svg xmlns="http://www.w3.org/2000/svg" viewBox="0 0 198.55 200"><defs><style>.cls-1{fill:#fff;}</style></defs><g id="Layer_2" data-name="Layer 2"><g id="Layer_1-2" data-name="Layer 1"><path class="cls-1" d="M69.19,54.07a39.83,39.83,0,0,0-12.52-.68c-18.19,1.72-32.6,17.89-32.5,36.08.1,10.85,4,20,12.77,26.57,9.41,7.07,17.79,4.37,21.17-6.86a54.09,54.09,0,0,1,8.94-17.51c3.33-4.34,6.72-8.63,10.26-12.8C86.11,68.49,78,56.11,69.19,54.07ZM63.26,79.52a5.29,5.29,0,0,1-5.56-5.36,5.23,5.23,0,0,1,5.23-5,5.2,5.2,0,1,1,.33,10.4Zm49.53,24.78c-4.17-1-8.49-1.44-12.72-2.12-4.29.67-8.52,1-12.59,2-4.67,1.14-5.49,3.94-2.65,7.73,7.21,9.68,23.35,9.44,30.33-.45C117.65,108,117,105.32,112.79,104.3Zm-36.91,22c.47,7.85,4,13.61,10.61,17.19,9.58,5.17,19.2,4.94,28.38-1.09a19.07,19.07,0,0,0,9.11-16.1Zm61.49-73.51c-1.42.16-3.39.26-5.3.64a16.6,16.6,0,0,0-13.14,11.34c-2.11,5.81-.3,10.61,3.69,15,8.44,9.3,15.66,19.26,19.18,31.69,2.33,8.23,10.25,10.74,17.55,6.15a32.24,32.24,0,0,0,15.34-23.93C177.3,74.21,162.9,53.43,137.37,52.78Zm.26,26.74a5.2,5.2,0,1,1-.13-10.4,5.2,5.2,0,1,1,.13,10.4Zm-.26-26.74c-1.42.16-3.39.26-5.3.64a16.6,16.6,0,0,0-13.14,11.34c-2.11,5.81-.3,10.61,3.69,15,8.44,9.3,15.66,19.26,19.18,31.69,2.33,8.23,10.25,10.74,17.55,6.15a32.24,32.24,0,0,0,15.34-23.93C177.3,74.21,162.9,53.43,137.37,52.78Zm.26,26.74a5.2,5.2,0,1,1-.13-10.4,5.2,5.2,0,1,1,.13,10.4Zm-51.14,64c9.58,5.17,19.2,4.94,28.38-1.09a19.07,19.07,0,0,0,9.11-16.1H75.88C76.35,134.14,79.87,139.9,86.49,143.48Zm28.67-32c2.49-3.53,1.8-6.16-2.37-7.18s-8.49-1.44-12.72-2.12c-4.29.67-8.52,1-12.59,2-4.67,1.14-5.49,3.94-2.65,7.73C92,121.61,108.18,121.37,115.16,111.48Zm-46-57.41a39.83,39.83,0,0,0-12.52-.68c-18.19,1.72-32.6,17.89-32.5,36.08.1,10.85,4,20,12.77,26.57,9.41,7.07,17.79,4.37,21.17-6.86a54.09,54.09,0,0,1,8.94-17.51c3.33-4.34,6.72-8.63,10.26-12.8C86.11,68.49,78,56.11,69.19,54.07ZM63.26,79.52a5.29,5.29,0,0,1-5.56-5.36,5.23,5.23,0,0,1,5.23-5,5.2,5.2,0,1,1,.33,10.4Zm127.1-18.31c-2.42-5.43-5.49-10.56-8.27-15.87,11.68-10,10.41-29.32.16-38.5-11-9.87-30.9-9.52-40.31,5l-2.41-1.08a93.57,93.57,0,0,0-36.83-8.3A98.62,98.62,0,0,0,58.77,11c-1.22.54-2.21,1.14-3.4-.46C48.18.81,38.38-1.77,27.1,1.11,8.43,5.87,1.93,28.83,15,43.46c1.25,1.4,1.82,2.31.61,4.14C2.46,67.57-2,89.52.8,113.13c1.92,16.21,7.32,31.25,16.89,44.31,23.25,31.75,54.77,46,94,41.86,20-2.11,37.65-10.33,52.81-23.6A96.66,96.66,0,0,0,197.28,116C200.19,97.08,198.17,78.73,190.36,61.21ZM99.8,192.69c-50,0-91.45-41.55-91.58-91.86C8.08,49.67,48.41,9.25,99.69,9.14s91.81,40.38,92,92C191.82,150.9,149.88,192.73,99.8,192.69ZM137.37,52.78c-1.42.16-3.39.26-5.3.64a16.6,16.6,0,0,0-13.14,11.34c-2.11,5.81-.3,10.61,3.69,15,8.44,9.3,15.66,19.26,19.18,31.69,2.33,8.23,10.25,10.74,17.55,6.15a32.24,32.24,0,0,0,15.34-23.93C177.3,74.21,162.9,53.43,137.37,52.78Zm.26,26.74a5.2,5.2,0,1,1-.13-10.4,5.2,5.2,0,1,1,.13,10.4Zm-51.14,64c9.58,5.17,19.2,4.94,28.38-1.09a19.07,19.07,0,0,0,9.11-16.1H75.88C76.35,134.14,79.87,139.9,86.49,143.48Zm28.67-32c2.49-3.53,1.8-6.16-2.37-7.18s-8.49-1.44-12.72-2.12c-4.29.67-8.52,1-12.59,2-4.67,1.14-5.49,3.94-2.65,7.73C92,121.61,108.18,121.37,115.16,111.48Zm-46-57.41a39.83,39.83,0,0,0-12.52-.68c-18.19,1.72-32.6,17.89-32.5,36.08.1,10.85,4,20,12.77,26.57,9.41,7.07,17.79,4.37,21.17-6.86a54.09,54.09,0,0,1,8.94-17.51c3.33-4.34,6.72-8.63,10.26-12.8C86.11,68.49,78,56.11,69.19,54.07ZM63.26,79.52a5.29,5.29,0,0,1-5.56-5.36,5.23,5.23,0,0,1,5.23-5,5.2,5.2,0,1,1,.33,10.4Zm5.93-25.45a39.83,39.83,0,0,0-12.52-.68c-18.19,1.72-32.6,17.89-32.5,36.08.1,10.85,4,20,12.77,26.57,9.41,7.07,17.79,4.37,21.17-6.86a54.09,54.09,0,0,1,8.94-17.51c3.33-4.34,6.72-8.63,10.26-12.8C86.11,68.49,78,56.11,69.19,54.07ZM63.26,79.52a5.29,5.29,0,0,1-5.56-5.36,5.23,5.23,0,0,1,5.23-5,5.2,5.2,0,1,1,.33,10.4Zm49.53,24.78c-4.17-1-8.49-1.44-12.72-2.12-4.29.67-8.52,1-12.59,2-4.67,1.14-5.49,3.94-2.65,7.73,7.21,9.68,23.35,9.44,30.33-.45C117.65,108,117,105.32,112.79,104.3Zm-36.91,22c.47,7.85,4,13.61,10.61,17.19,9.58,5.17,19.2,4.94,28.38-1.09a19.07,19.07,0,0,0,9.11-16.1Zm61.49-73.51c-1.42.16-3.39.26-5.3.64a16.6,16.6,0,0,0-13.14,11.34c-2.11,5.81-.3,10.61,3.69,15,8.44,9.3,15.66,19.26,19.18,31.69,2.33,8.23,10.25,10.74,17.55,6.15a32.24,32.24,0,0,0,15.34-23.93C177.3,74.21,162.9,53.43,137.37,52.78Zm.26,26.74a5.2,5.2,0,1,1-.13-10.4,5.2,5.2,0,1,1,.13,10.4Zm-.26-26.74c-1.42.16-3.39.26-5.3.64a16.6,16.6,0,0,0-13.14,11.34c-2.11,5.81-.3,10.61,3.69,15,8.44,9.3,15.66,19.26,19.18,31.69,2.33,8.23,10.25,10.74,17.55,6.15a32.24,32.24,0,0,0,15.34-23.93C177.3,74.21,162.9,53.43,137.37,52.78Zm.26,26.74a5.2,5.2,0,1,1-.13-10.4,5.2,5.2,0,1,1,.13,10.4ZM75.88,126.29c.47,7.85,4,13.61,10.61,17.19,9.58,5.17,19.2,4.94,28.38-1.09a19.07,19.07,0,0,0,9.11-16.1Zm36.91-22c-4.17-1-8.49-1.44-12.72-2.12-4.29.67-8.52,1-12.59,2-4.67,1.14-5.49,3.94-2.65,7.73,7.21,9.68,23.35,9.44,30.33-.45C117.65,108,117,105.32,112.79,104.3ZM69.19,54.07a39.83,39.83,0,0,0-12.52-.68c-18.19,1.72-32.6,17.89-32.5,36.08.1,10.85,4,20,12.77,26.57,9.41,7.07,17.79,4.37,21.17-6.86a54.09,54.09,0,0,1,8.94-17.51c3.33-4.34,6.72-8.63,10.26-12.8C86.11,68.49,78,56.11,69.19,54.07ZM63.26,79.52a5.29,5.29,0,0,1-5.56-5.36,5.23,5.23,0,0,1,5.23-5,5.2,5.2,0,1,1,.33,10.4Z"/><path class="cls-1" d="M190.36,61.21c-2.42-5.43-5.49-10.56-8.27-15.87,11.68-10,10.41-29.32.16-38.5-11-9.87-30.9-9.52-40.31,5l-2.41-1.08a93.57,93.57,0,0,0-36.83-8.3A98.62,98.62,0,0,0,58.77,11c-1.22.54-2.21,1.14-3.4-.46C48.18.81,38.38-1.77,27.1,1.11,8.43,5.87,1.93,28.83,15,43.46c1.25,1.4,1.82,2.31.61,4.14C2.46,67.57-2,89.52.8,113.13c1.92,16.21,7.32,31.25,16.89,44.31,23.25,31.75,54.77,46,94,41.86,20-2.11,37.65-10.33,52.81-23.6A96.66,96.66,0,0,0,197.28,116C200.19,97.08,198.17,78.73,190.36,61.21ZM99.8,192.69c-50,0-91.45-41.55-91.58-91.86C8.08,49.67,48.41,9.25,99.69,9.14s91.81,40.38,92,92C191.82,150.9,149.88,192.73,99.8,192.69Z"/><path class="cls-1" d="M69.19,54.07a39.83,39.83,0,0,0-12.52-.68c-18.19,1.72-32.6,17.89-32.5,36.08.1,10.85,4,20,12.77,26.57,9.41,7.07,17.79,4.37,21.17-6.86a54.09,54.09,0,0,1,8.94-17.51c3.33-4.34,6.72-8.63,10.26-12.8C86.11,68.49,78,56.11,69.19,54.07ZM63.26,79.52a5.29,5.29,0,0,1-5.56-5.36,5.23,5.23,0,0,1,5.23-5,5.2,5.2,0,1,1,.33,10.4Z"/><path class="cls-1" d="M137.37,52.78c-1.42.16-3.39.26-5.3.64a16.6,16.6,0,0,0-13.14,11.34c-2.11,5.81-.3,10.61,3.69,15,8.44,9.3,15.66,19.26,19.18,31.69,2.33,8.23,10.25,10.74,17.55,6.15a32.24,32.24,0,0,0,15.34-23.93C177.3,74.21,162.9,53.43,137.37,52.78Zm.26,26.74a5.2,5.2,0,1,1-.13-10.4,5.2,5.2,0,1,1,.13,10.4Z"/><path class="cls-1" d="M124,126.29a19.07,19.07,0,0,1-9.11,16.1c-9.18,6-18.8,6.26-28.38,1.09-6.62-3.58-10.14-9.34-10.61-17.19Z"/><path class="cls-1" d="M115.16,111.48c-7,9.89-23.12,10.13-30.33.45-2.84-3.79-2-6.59,2.65-7.73,4.07-1,8.3-1.35,12.59-2,4.23.68,8.55,1.09,12.72,2.12S117.65,108,115.16,111.48Z"/></g></g></svg>