<svg xmlns="http://www.w3.org/2000/svg" viewBox="0 0 662.57 255.92"><defs><style>.cls-1{fill:#fff;}</style></defs><g id="Layer_2" data-name="Layer 2"><g id="Layer_1-2" data-name="Layer 1"><path class="cls-1" d="M167.9,150.87h-5.76c-18.84,0-37.67-.09-56.5.07-3.83,0-5.36-1-5.27-5,.36-15.36-1.85-12.41,12.17-12.53,22.5-.18,45,.06,67.5-.14,4.44,0,6.12,1.06,6.08,5.8-.2,26.5,0,53-.25,79.49a13.26,13.26,0,0,1-3.49,8.25c-15.17,15.7-34.25,23.92-55.46,27.31-27.74,4.45-54.34,1.08-78.19-14.67C14.23,216.66-1.43,183.78.1,142.9c1.55-41.43,23-70.63,58.43-90.29C80.86,40.22,105.17,37.19,130.2,40c10.51,1.19,20.85,3.9,31.26,6,3.48.69,4.83,2.86,4.63,6.47-.26,4.58-.06,9.18-.06,14.4-2-.69-3.05-1-4.06-1.42-39.53-16-77.3-14.33-111.57,12.82C.46,117.82,9.49,197.69,61.31,226.75c19.77,11.09,40.88,13.3,62.9,10.1,14.92-2.17,28.86-6.81,40.6-16.6,1.68-1.4,3.29-4,3.32-6.08.24-20,.14-40,.12-60C168.25,153.35,168.08,152.53,167.9,150.87Z"/><path class="cls-1" d="M414.45,228.75c0,4.75.35,9.42-.19,14-.18,1.52-2.37,3.44-4.06,4.05-17.67,6.38-35.36,5-52.08-2.56-33.19-15-50.57-41-51-77.78-.17-13.34,0-26.54,4.55-39.45,11-31.31,43-55.77,78.66-55,33.71.73,65.56,23.25,75.9,55.8a91.55,91.55,0,0,1,4.2,25.92c.5,30.32.11,60.66.28,91,0,4.45-1,6.12-5.79,6-11.81-.24-11.81,0-11.81-11.94q0-42,0-84c0-32.23-22.26-59.57-52.12-64.09-33.79-5.13-65,13.22-73.36,45.69-6.7,26.19-6.21,52.68,13.54,74.46,18.38,20.26,41.18,26.54,67.61,18.67,1.27-.38,2.55-.75,3.84-1.07A8.19,8.19,0,0,1,414.45,228.75Z"/><path class="cls-1" d="M518.55,186.82c4.51,7.86,7.9,15.78,13,22.33,16.78,21.44,44.6,29,70.62,19.94A64.06,64.06,0,0,0,644.71,170c.14-12.44.83-24.9-3.53-37.06C626,90.47,574.85,76,540,104.65c-20.47,16.82-37.25,37.13-53.66,57.76-1.33,1.67-2.7,3.31-4,5l-1.52-.21c0-3.65.42-7.36-.08-10.94-1.31-9.45,2.11-16.72,8.26-23.87C503.1,115.9,517.3,99.65,535.21,87,567,64.68,608.59,67.58,636.55,94.5c16.76,16.12,25.51,35.81,26,59.2.32,17.27-.42,34.17-8.12,50.26-25.2,52.63-97.88,62.94-135,18.76-4.53-5.38-7.63-12.05-10.8-18.42-.82-1.65-.06-4.86,1.11-6.59C512.32,193.75,515.67,190.27,518.55,186.82Z"/><path class="cls-1" d="M164.64,98.4c-16.31-13-35.5-14.27-55-13.85-30.35.64-57.66,22.19-62.41,50.76-5.7,34.2,10.57,61.77,39.83,71.32,17,5.55,34.24,3.41,51-2.31,1.12-.38,2.57-1.94,2.6-3,.23-7,.12-13.93.12-21.39-2.23-.12-4-.29-5.74-.29-10,0-20-.17-30,0-6.5.13-4.86-4.71-4.36-7.67.57-3.42-3.85-9.74,4-9.86,16.16-.23,32.33,0,48.5-.13,3.35,0,4.27,1.28,4.25,4.43-.11,14.16.09,28.33-.2,42.49a9,9,0,0,1-3.3,6c-9.18,6.91-20,9.74-31.15,11.16-22.13,2.79-43.33.63-61.88-13.26-23.33-17.46-33.26-41.15-32.37-69.93,1.32-43,39-73.26,76-75.79,19.74-1.34,38.86.74,57.06,9.08,3.13,1.44,4.69,3.17,4.49,6.77-.28,4.91-.07,9.85-.07,14.78Z"/><path class="cls-1" d="M480.81,212.72c0-8-.08-15.91.09-23.86a7,7,0,0,1,1.92-3.9c19.43-22.14,38.51-44.63,58.59-66.17,9.91-10.63,22.71-17.66,37.85-18.16,29-1,53.46,22.63,54.67,52.84.52,13,1,26.1-5.31,38.15-10.31,19.79-26.66,30.69-49,30.13-22.9-.57-37.52-13.93-47.28-33.8-4-8.2-4.61-15.21,3-21.62,2.36-2,4-4.77,6.85-8.22.57,2.68,1,4.31,1.27,6,2.17,11.37,6.67,21.63,14.88,30,9.68,9.8,21.16,13,34.27,8.19,13.77-5,21.78-15.11,23.28-29.67a138.17,138.17,0,0,0,.08-22.47c-1.6-26.18-32.41-40.78-54.69-25.71a88.13,88.13,0,0,0-16.91,15.44c-19.83,22.92-39.28,46.17-58.87,69.3-1.15,1.36-2.28,2.75-3.43,4.12Z"/><path class="cls-1" d="M414.43,196.16c0,6.23.7,11.5-.31,16.42-.48,2.32-3.94,4.77-6.58,5.78-16.92,6.48-33.2,4.54-48-5.69C344,202,335.58,187.06,335.87,167.82c.17-11.59-.94-23.2,3.95-34.43,10-23,34.76-36.52,59.54-32a52,52,0,0,1,42.69,49.89c.65,31.64.21,63.31.33,95,0,3.24-1.16,4.44-4.38,4.36-16.29-.41-13.43,2.55-13.53-13.18-.17-28,0-56-.08-84-.05-17.06-11.53-31.22-27.68-34.55-17.07-3.5-33.34,4.65-40.34,20.39a24.35,24.35,0,0,0-2.46,8.57c-.34,8.81-1.2,17.78,0,26.42,3.63,25.54,31.69,38,55.13,24.9C410.49,198.43,411.89,197.61,414.43,196.16Z"/><path class="cls-1" d="M326.84,83.71c-3.81,4.2-6.86,8-10.38,11.2-1,.9-3.58.88-5,.27-21.33-9-42.17-7.61-61.85,4.08-17.91,10.65-27.44,27.43-28,48-.92,31.3-.4,62.65-.49,94,0,1.67-.09,3.34,0,5,.17,3.12-1,4.52-4.35,4.44-16.15-.39-13.31,2.37-13.4-12.83-.17-28.17-.24-56.33,0-84.5.23-24.88,8.93-46.22,28.13-62.66,23.19-19.87,62.1-24.74,88.43-11.18C322.08,80.61,324.1,82,326.84,83.71Z"/><path class="cls-1" d="M308.71,105.9l-7.37,14.64c-4.83-.76-9.36-1.91-13.93-2.13-22.62-1.07-37.81,13.4-37.89,36.07-.1,29.65,0,59.3,0,89,0,7.18,0,7.18-7,7.19-10.57,0-10.57,0-10.57-10.57,0-29-.08-58,0-87,.13-37.52,35.68-61.39,71.84-49.54A43.41,43.41,0,0,1,308.71,105.9Z"/><path class="cls-1" d="M497.81,104V99.17c0-31,.1-61.94-.09-92.9,0-4.63.95-6.4,6-6.26,11.67.32,11.67.06,11.67,11.53,0,23.81.1,47.62-.15,71.42,0,2.58-1.59,5.56-3.31,7.63-4,4.82-8.54,9.19-12.86,13.75Z"/><path class="cls-1" d="M543.54.13c.15,2.36.37,4.15.38,6,0,19.5-.08,39,.1,58.5,0,3.84-1.23,6-4.57,7.9-4.29,2.41-8.19,5.53-12.91,8.8-.2-2-.46-3.4-.46-4.78,0-23.67.06-47.33-.1-71,0-4,1-5.79,5.3-5.44C535.22.38,539.21.13,543.54.13Z"/></g></g></svg>