<svg id="Layer_1" data-name="Layer 1" xmlns="http://www.w3.org/2000/svg" viewBox="0 0 113.43 144.04"><defs><style>.cls-1{fill:#009e35;}.cls-2{fill:#fff;}.cls-3{isolation:isolate;}</style></defs><g id="grabInstruction"><g id="Rectangle_18-2" data-name="Rectangle 18-2"><rect class="cls-1" x="18.22" y="13.02" width="77" height="118" rx="5"/></g><g id="Group_6" data-name="Group 6"><g id="Path_2" data-name="Path 2"><path class="cls-2" d="M51.53,44.75h-2c-.12,0-.17,0-.16-.16,0-.49-.06-.39.38-.4h2.15c.14,0,.19,0,.19.18,0,.85,0,1.69,0,2.53a.36.36,0,0,1-.11.26,3,3,0,0,1-1.76.87,3.38,3.38,0,0,1-3.46-5.23,3.37,3.37,0,0,1,1.29-1.17,3.75,3.75,0,0,1,2.28-.4c.33,0,.66.13,1,.19a.17.17,0,0,1,.15.19v0c0,.15,0,.29,0,.46L51.34,42a3.35,3.35,0,0,0-3.55.41,2.91,2.91,0,0,0-.37,4.1,3.28,3.28,0,0,0,.72.62,3.1,3.1,0,0,0,2,.32A2.51,2.51,0,0,0,51.43,47a.26.26,0,0,0,.1-.19c0-.64,0-1.28,0-1.91A.41.41,0,0,0,51.53,44.75Z"/></g><g id="Path_3" data-name="Path 3"><path class="cls-2" d="M59.36,47.22a3.38,3.38,0,0,1,0,.45s-.08.1-.13.13a2.17,2.17,0,0,1-1.66-.09A2.56,2.56,0,0,1,56,45.24,3.52,3.52,0,0,1,56.1,44,2.59,2.59,0,0,1,61,44a3.34,3.34,0,0,1,.13.82c0,1,0,1.93,0,2.9,0,.14,0,.19-.18.19-.38,0-.38,0-.38-.38V44.87a2,2,0,0,0-4-.59A2.45,2.45,0,0,0,57,46.65a2,2,0,0,0,2.15.6l.12,0Z"/></g><g id="Path_4" data-name="Path 4"><path class="cls-2" d="M62.67,45.89a6.23,6.23,0,0,0,.41.71,2,2,0,0,0,2.25.63,2,2,0,0,0,1.35-1.88,3.64,3.64,0,0,0-.11-1.18,2,2,0,0,0-3.22-.89,12.43,12.43,0,0,0-1.71,1.84l-.13.16h0v-.35a.9.9,0,0,1,.26-.76,8.29,8.29,0,0,1,1.47-1.43,2.5,2.5,0,0,1,3.22.23,2.64,2.64,0,0,1,.83,1.88,3.49,3.49,0,0,1-.26,1.6,2.5,2.5,0,0,1-4.63,0,.26.26,0,0,1,0-.21A3.44,3.44,0,0,1,62.67,45.89Z"/></g><g id="Path_5" data-name="Path 5"><path class="cls-2" d="M51.42,43.08a2.55,2.55,0,0,0-1.74-.44,2,2,0,0,0-2,1.61A1.92,1.92,0,0,0,49,46.52a2.57,2.57,0,0,0,1.62-.07s.08-.06.08-.1c0-.23,0-.45,0-.68H49.53c-.21,0-.16-.15-.14-.25s-.12-.31.13-.31h1.54c.1,0,.13,0,.13.14,0,.45,0,.9,0,1.35a.26.26,0,0,1-.1.19,2,2,0,0,1-1,.35,2.59,2.59,0,0,1-2-.42,2.49,2.49,0,0,1-1-2.22,2.58,2.58,0,0,1,2.41-2.41,3.66,3.66,0,0,1,1.82.29.21.21,0,0,1,.14.22c0,.15,0,.31,0,.47Z"/></g><g id="Path_6" data-name="Path 6"><path class="cls-2" d="M61.47,46.71V46a.27.27,0,0,1,.06-.12c.62-.7,1.22-1.42,1.86-2.1a1.67,1.67,0,0,1,2.36-.17,1.64,1.64,0,0,1,.58,1.27A2.28,2.28,0,0,1,66.17,46a1.63,1.63,0,0,1-1.56,1,1.68,1.68,0,0,1-1.5-1.08.49.49,0,0,1,.1-.68,2.75,2.75,0,0,0,.22-.26c0,.08,0,.13,0,.19a1.82,1.82,0,0,0,.47.95,1,1,0,0,0,1.09.26,1.06,1.06,0,0,0,.74-.94,4.33,4.33,0,0,0,0-.72,1.12,1.12,0,0,0-1.21-1,1.25,1.25,0,0,0-.53.19,3.15,3.15,0,0,0-.54.49c-.62.73-1.24,1.47-1.87,2.2a1.47,1.47,0,0,1-.1.13A0,0,0,0,1,61.47,46.71Z"/></g><g id="Path_7" data-name="Path 7"><path class="cls-2" d="M59.36,46.19a3,3,0,0,1,0,.52.35.35,0,0,1-.21.18,1.56,1.56,0,0,1-1.52-.18,1.64,1.64,0,0,1-.76-1.42A2.68,2.68,0,0,1,57,44.2a1.73,1.73,0,0,1,1.89-1,1.65,1.65,0,0,1,1.36,1.58c0,1,0,2,0,3,0,.1,0,.14-.14.14-.52,0-.43.08-.43-.42,0-.89,0-1.78,0-2.67a1.1,1.1,0,0,0-.88-1.1,1.13,1.13,0,0,0-1.28.65.69.69,0,0,0-.08.28,3.84,3.84,0,0,0,0,.83,1.15,1.15,0,0,0,1.32,1,1.31,1.31,0,0,0,.43-.16Z"/></g><g id="Path_8" data-name="Path 8"><path class="cls-2" d="M56.58,42.61a4,4,0,0,1-.33.36.18.18,0,0,1-.16,0,2.09,2.09,0,0,0-2,.13,1.79,1.79,0,0,0-.89,1.53c0,1,0,2,0,3v.16c0,.1,0,.14-.14.14-.51,0-.42.08-.43-.41V44.83a2.49,2.49,0,0,1,.9-2,2.69,2.69,0,0,1,2.8-.36Z"/></g><g id="Path_9" data-name="Path 9"><path class="cls-2" d="M56,43.32c-.08.17-.16.32-.23.46a3.32,3.32,0,0,0-.44-.06,1.08,1.08,0,0,0-1.2,1,.61.61,0,0,0,0,.19v2.83c0,.23,0,.23-.22.23s-.34,0-.34-.34V44.82a1.68,1.68,0,0,1,1.68-1.68,1.56,1.56,0,0,1,.6.11Z"/></g><g id="Path_10" data-name="Path 10"><path class="cls-2" d="M62,43.26V40.15c0-.14,0-.2.19-.2.37,0,.37,0,.37.37v2.27a.43.43,0,0,1-.1.24c-.13.15-.27.29-.41.43S62,43.26,62,43.26Z"/></g><g id="Path_11" data-name="Path 11"><path class="cls-2" d="M63.46,40a1.28,1.28,0,0,1,0,.19V42a.25.25,0,0,1-.14.25,3,3,0,0,0-.41.28,1.25,1.25,0,0,1,0-.15V40.13c0-.13,0-.18.17-.17Z"/></g></g><g id="Group_10" data-name="Group 10"><g id="GF-454T" class="cls-3"><g class="cls-3"><path class="cls-2" d="M46.3,69.08a2.21,2.21,0,0,1-1-.19,1.36,1.36,0,0,1-.61-.55,1.72,1.72,0,0,1-.24-.88c0-.17,0-.35,0-.55s0-.38,0-.56a1.7,1.7,0,0,1,.24-.86,1.43,1.43,0,0,1,.62-.54,2.19,2.19,0,0,1,1-.19,2.37,2.37,0,0,1,.78.12,1.74,1.74,0,0,1,.56.29,1.6,1.6,0,0,1,.35.4,1,1,0,0,1,.13.42.18.18,0,0,1,0,.09.15.15,0,0,1-.1,0h-.74a.12.12,0,0,1-.09,0s0,0-.06-.07A.8.8,0,0,0,47,65.8a1,1,0,0,0-.24-.19,1,1,0,0,0-.41-.07.88.88,0,0,0-.6.19.92.92,0,0,0-.24.65q0,.53,0,1.05a.94.94,0,0,0,.25.67.84.84,0,0,0,.6.21,1,1,0,0,0,.44-.09.74.74,0,0,0,.31-.27.88.88,0,0,0,.11-.48v-.15h-.65a.12.12,0,0,1-.1,0,.15.15,0,0,1,0-.11v-.38a.15.15,0,0,1,0-.11.12.12,0,0,1,.1,0H48a.14.14,0,0,1,.15.15v.65a1.68,1.68,0,0,1-.23.89,1.46,1.46,0,0,1-.64.56A2.27,2.27,0,0,1,46.3,69.08Z"/><path class="cls-2" d="M49,69a.15.15,0,0,1-.11,0,.18.18,0,0,1,0-.11V65a.14.14,0,0,1,.15-.15H51.7a.14.14,0,0,1,.15.15v.51a.18.18,0,0,1,0,.11.15.15,0,0,1-.11,0H49.81v1h1.77a.15.15,0,0,1,.11,0,.18.18,0,0,1,0,.11v.51a.18.18,0,0,1,0,.1.15.15,0,0,1-.11,0H49.81v1.42a.18.18,0,0,1,0,.11.15.15,0,0,1-.11,0Z"/><path class="cls-2" d="M52.55,67.61a.14.14,0,0,1-.1,0,.12.12,0,0,1-.05-.1V67a.14.14,0,0,1,.05-.1.13.13,0,0,1,.1,0h1.87a.14.14,0,0,1,.14.14v.48a.12.12,0,0,1,0,.1.14.14,0,0,1-.1,0Z"/><path class="cls-2" d="M57.27,69a.13.13,0,0,1-.1,0,.14.14,0,0,1,0-.11v-.72H55.24a.12.12,0,0,1-.1,0,.14.14,0,0,1,0-.11v-.48a.29.29,0,0,1,0-.09.19.19,0,0,1,0-.09l1.76-2.42a.27.27,0,0,1,.22-.1h.76a.15.15,0,0,1,.1,0,.16.16,0,0,1,0,.11v2.38h.53a.14.14,0,0,1,.11.05.12.12,0,0,1,0,.1V68a.14.14,0,0,1,0,.11.13.13,0,0,1-.1,0h-.54v.72A.14.14,0,0,1,58,69a.12.12,0,0,1-.1,0ZM56,67.38h1.13V65.81Z"/><path class="cls-2" d="M60.8,69.09a2.08,2.08,0,0,1-.91-.18,1.24,1.24,0,0,1-.55-.45,1.13,1.13,0,0,1-.2-.6.12.12,0,0,1,.12-.13h.68a.21.21,0,0,1,.12,0l.07.09a.72.72,0,0,0,.16.27.76.76,0,0,0,.23.15.86.86,0,0,0,.28,0,.67.67,0,0,0,.35-.08.58.58,0,0,0,.26-.23.71.71,0,0,0,.1-.39.68.68,0,0,0-.09-.35.69.69,0,0,0-.25-.23A.75.75,0,0,0,60.8,67a.93.93,0,0,0-.26,0,.61.61,0,0,0-.16.09l-.12.09a.28.28,0,0,1-.12,0h-.67a.18.18,0,0,1-.09,0,.12.12,0,0,1,0-.09L59.55,65a.23.23,0,0,1,.06-.13.21.21,0,0,1,.13-.05h2.33a.15.15,0,0,1,.1,0,.16.16,0,0,1,0,.11v.48a.18.18,0,0,1-.15.15H60.33l-.09.88a1.4,1.4,0,0,1,.3-.14,1.55,1.55,0,0,1,.49-.07,1.42,1.42,0,0,1,.55.1,1.33,1.33,0,0,1,.79.7,1.26,1.26,0,0,1,.11.57,1.34,1.34,0,0,1-.2.75,1.32,1.32,0,0,1-.58.51A1.93,1.93,0,0,1,60.8,69.09Z"/><path class="cls-2" d="M65.07,69A.15.15,0,0,1,65,69a.18.18,0,0,1,0-.11v-.72H63a.13.13,0,0,1-.1,0,.14.14,0,0,1,0-.11v-.48a.28.28,0,0,1,0-.09.36.36,0,0,1,.05-.09l1.76-2.42a.29.29,0,0,1,.22-.1h.76a.14.14,0,0,1,.15.15v2.38h.53a.13.13,0,0,1,.11.05.12.12,0,0,1,0,.1V68a.14.14,0,0,1,0,.11.13.13,0,0,1-.1,0h-.54v.72a.18.18,0,0,1,0,.11.15.15,0,0,1-.11,0Zm-1.25-1.64h1.12V65.81Z"/><path class="cls-2" d="M68.08,69a.12.12,0,0,1-.1,0,.14.14,0,0,1,0-.11V65.66H66.84a.14.14,0,0,1-.1,0,.12.12,0,0,1,0-.1V65a.15.15,0,0,1,0-.11.18.18,0,0,1,.1,0H70a.15.15,0,0,1,.16.15v.54a.12.12,0,0,1,0,.1.13.13,0,0,1-.11,0H68.9v3.21a.14.14,0,0,1,0,.11.15.15,0,0,1-.11,0Z"/></g></g><g id="Line_1" data-name="Line 1"><rect class="cls-2" x="54.72" y="70.02" width="12" height="1"/></g></g><g id="_1._Input_the_3_digit_pin_as_shown_above" data-name=" 1. Input the 3 digit pin as shown above" class="cls-3"><g class="cls-3"><path class="cls-2" d="M28.6,86a.11.11,0,0,1-.12-.12V83.41l-.72.56a.12.12,0,0,1-.1,0,.18.18,0,0,1-.08,0l-.25-.33a.1.1,0,0,1,0-.09.11.11,0,0,1,.05-.08l1.14-.88a.09.09,0,0,1,.06,0h.59a.11.11,0,0,1,.09,0,.12.12,0,0,1,0,.09V85.9a.16.16,0,0,1,0,.09.14.14,0,0,1-.09,0Z"/><path class="cls-2" d="M30,86a.11.11,0,0,1-.12-.12v-.56a.12.12,0,0,1,.12-.13h.56a.14.14,0,0,1,.13.13v.56a.12.12,0,0,1-.13.12Z"/><path class="cls-2" d="M32.59,86a.11.11,0,0,1-.12-.12V82.65a.12.12,0,0,1,.12-.13h.57a.12.12,0,0,1,.12.13V85.9a.11.11,0,0,1-.12.12Z"/><path class="cls-2" d="M34.09,86A.14.14,0,0,1,34,86a.16.16,0,0,1,0-.09V83.55a.12.12,0,0,1,0-.09.11.11,0,0,1,.09,0h.49a.12.12,0,0,1,.12.13v.19a1.14,1.14,0,0,1,.34-.26,1.06,1.06,0,0,1,.5-.11,1,1,0,0,1,.51.13.89.89,0,0,1,.35.39,1.28,1.28,0,0,1,.13.61v1.4a.12.12,0,0,1,0,.09.11.11,0,0,1-.08,0h-.53a.12.12,0,0,1-.13-.12V84.53a.58.58,0,0,0-.13-.41.44.44,0,0,0-.37-.15.48.48,0,0,0-.37.15.54.54,0,0,0-.14.41V85.9a.12.12,0,0,1,0,.09.11.11,0,0,1-.08,0Z"/><path class="cls-2" d="M37.26,87a.12.12,0,0,1-.13-.12v-3.3a.14.14,0,0,1,.13-.13h.47a.14.14,0,0,1,.13.13v.19a.91.91,0,0,1,.31-.27,1.06,1.06,0,0,1,.47-.1,1.17,1.17,0,0,1,.45.08,1,1,0,0,1,.33.24.88.88,0,0,1,.2.37,1.71,1.71,0,0,1,.09.48v.37a1.78,1.78,0,0,1-.08.47,1.23,1.23,0,0,1-.21.37,1,1,0,0,1-.33.24,1.17,1.17,0,0,1-.45.08A1,1,0,0,1,38.2,86a.86.86,0,0,1-.31-.25v1.12a.16.16,0,0,1,0,.09.14.14,0,0,1-.09,0Zm1.16-1.5a.56.56,0,0,0,.3-.08.48.48,0,0,0,.15-.22.72.72,0,0,0,.06-.29,1.6,1.6,0,0,0,0-.31.73.73,0,0,0-.06-.3.48.48,0,0,0-.15-.22.56.56,0,0,0-.3-.08.45.45,0,0,0-.3.09.44.44,0,0,0-.17.21,1.27,1.27,0,0,0-.06.28v.38a1.1,1.1,0,0,0,.06.26.55.55,0,0,0,.17.2A.48.48,0,0,0,38.42,85.47Z"/><path class="cls-2" d="M41.2,86.07a1,1,0,0,1-.52-.13.93.93,0,0,1-.34-.39,1.38,1.38,0,0,1-.12-.61V83.55a.12.12,0,0,1,0-.09.11.11,0,0,1,.09,0h.53a.12.12,0,0,1,.12.13v1.36c0,.38.17.56.49.56a.5.5,0,0,0,.38-.15.56.56,0,0,0,.13-.41V83.55a.14.14,0,0,1,.13-.13h.53a.09.09,0,0,1,.08,0,.1.1,0,0,1,0,.09V85.9a.12.12,0,0,1,0,.09.11.11,0,0,1-.08,0h-.49A.12.12,0,0,1,42,85.9v-.2a.9.9,0,0,1-.33.28A1.28,1.28,0,0,1,41.2,86.07Z"/><path class="cls-2" d="M44.65,86a1.19,1.19,0,0,1-.53-.1.7.7,0,0,1-.34-.32,1.2,1.2,0,0,1-.11-.54V84h-.39a.11.11,0,0,1-.12-.12v-.34a.12.12,0,0,1,.12-.13h.39V82.6a.14.14,0,0,1,.13-.13h.49a.12.12,0,0,1,.12.13v.82H45a.09.09,0,0,1,.08,0,.1.1,0,0,1,0,.09v.34a.12.12,0,0,1,0,.09A.11.11,0,0,1,45,84h-.63v1a.51.51,0,0,0,.07.3.25.25,0,0,0,.24.11h.36a.11.11,0,0,1,.12.12v.37a.16.16,0,0,1,0,.09.14.14,0,0,1-.09,0Z"/><path class="cls-2" d="M47.89,86a1.25,1.25,0,0,1-.53-.1A.68.68,0,0,1,47,85.6a1.08,1.08,0,0,1-.11-.54V84h-.39a.12.12,0,0,1-.13-.12v-.34a.14.14,0,0,1,.13-.13h.39V82.6a.12.12,0,0,1,.12-.13h.49a.14.14,0,0,1,.13.13v.82h.62a.11.11,0,0,1,.09,0,.12.12,0,0,1,0,.09v.34a.16.16,0,0,1,0,.09.14.14,0,0,1-.09,0h-.62v1a.61.61,0,0,0,.06.3.28.28,0,0,0,.24.11h.37a.11.11,0,0,1,.08,0,.11.11,0,0,1,0,.09v.37a.12.12,0,0,1,0,.09.11.11,0,0,1-.08,0Z"/><path class="cls-2" d="M49,86a.12.12,0,0,1-.13-.12V82.6a.14.14,0,0,1,.13-.13h.54a.09.09,0,0,1,.08,0,.1.1,0,0,1,0,.09v1.12a1,1,0,0,1,.33-.25,1,1,0,0,1,.47-.1,1.11,1.11,0,0,1,.52.13,1,1,0,0,1,.36.39,1.41,1.41,0,0,1,.13.61v1.4a.12.12,0,0,1-.13.12h-.54a.14.14,0,0,1-.09,0,.16.16,0,0,1,0-.09V84.53a.63.63,0,0,0-.13-.41.47.47,0,0,0-.37-.15.49.49,0,0,0-.38.15.54.54,0,0,0-.14.41V85.9a.12.12,0,0,1,0,.09.11.11,0,0,1-.08,0Z"/><path class="cls-2" d="M53.24,86.07a1.26,1.26,0,0,1-.92-.32,1.27,1.27,0,0,1-.35-.93v-.21a1.54,1.54,0,0,1,.17-.67,1.11,1.11,0,0,1,.44-.42,1.33,1.33,0,0,1,.65-.15,1.34,1.34,0,0,1,.7.17,1.21,1.21,0,0,1,.43.47,1.67,1.67,0,0,1,.14.69v.11a.12.12,0,0,1,0,.09.11.11,0,0,1-.08,0H52.74v0a1.14,1.14,0,0,0,.06.29.62.62,0,0,0,.17.22.45.45,0,0,0,.26.08.4.4,0,0,0,.2,0,.47.47,0,0,0,.14-.08s.06-.06.07-.09l.07-.06h.61l.08,0a.07.07,0,0,1,0,.08.43.43,0,0,1-.08.2,1,1,0,0,1-.23.23,1.42,1.42,0,0,1-.37.19A1.61,1.61,0,0,1,53.24,86.07Zm-.5-1.59h1a.79.79,0,0,0-.06-.32.45.45,0,0,0-.16-.2.48.48,0,0,0-.27-.08A.45.45,0,0,0,53,84a.47.47,0,0,0-.17.2.79.79,0,0,0-.06.32Z"/><path class="cls-2" d="M57.38,86.07a2,2,0,0,1-.63-.09,1.52,1.52,0,0,1-.44-.23.82.82,0,0,1-.25-.31.68.68,0,0,1-.09-.32.1.1,0,0,1,.1-.1h.55s.07,0,.09,0,0,0,.07.08a.34.34,0,0,0,.13.18.51.51,0,0,0,.21.1,1.09,1.09,0,0,0,.26,0,.7.7,0,0,0,.44-.13.44.44,0,0,0,.16-.37.38.38,0,0,0-.15-.34.72.72,0,0,0-.42-.11h-.54a.11.11,0,0,1-.08,0,.12.12,0,0,1,0-.09v-.24a.25.25,0,0,1,0-.1l0-.06.86-.79H56.27a.12.12,0,0,1-.09,0,.11.11,0,0,1,0-.08v-.4a.12.12,0,0,1,.12-.13h2.22a.14.14,0,0,1,.13.13V83a.29.29,0,0,1,0,.09l-.05.06-.82.8h.05a1.72,1.72,0,0,1,.53.14,1,1,0,0,1,.36.33,1,1,0,0,1,.13.54,1,1,0,0,1-.18.58,1.32,1.32,0,0,1-.51.38A1.83,1.83,0,0,1,57.38,86.07Z"/><path class="cls-2" d="M61.4,86.07A1.25,1.25,0,0,1,61,86a1,1,0,0,1-.33-.24,1,1,0,0,1-.2-.38,1.71,1.71,0,0,1-.09-.48v-.34a2.19,2.19,0,0,1,.08-.47,1.17,1.17,0,0,1,.21-.38,1,1,0,0,1,.33-.24,1.06,1.06,0,0,1,.45-.09,1,1,0,0,1,.44.09.9.9,0,0,1,.31.23V82.6a.12.12,0,0,1,0-.09.1.1,0,0,1,.09,0h.52a.09.09,0,0,1,.08,0,.1.1,0,0,1,0,.09v3.3a.12.12,0,0,1,0,.09.11.11,0,0,1-.08,0h-.48a.12.12,0,0,1-.09,0,.16.16,0,0,1,0-.09v-.17a1,1,0,0,1-.79.34Zm.23-.6a.5.5,0,0,0,.29-.08.52.52,0,0,0,.17-.22,1.15,1.15,0,0,0,.06-.28c0-.06,0-.13,0-.19s0-.12,0-.18a1.18,1.18,0,0,0-.06-.27.55.55,0,0,0-.17-.2.52.52,0,0,0-.29-.08.51.51,0,0,0-.3.08.44.44,0,0,0-.16.22,1.33,1.33,0,0,0-.06.3,1.6,1.6,0,0,0,0,.31,1.36,1.36,0,0,0,.06.29.44.44,0,0,0,.16.22A.51.51,0,0,0,61.63,85.47Z"/><path class="cls-2" d="M63.65,83a.14.14,0,0,1-.09,0,.16.16,0,0,1,0-.09v-.4a.17.17,0,0,1,0-.1.14.14,0,0,1,.09,0h.52a.12.12,0,0,1,.09,0,.13.13,0,0,1,0,.1v.4a.12.12,0,0,1-.13.12Zm0,3a.11.11,0,0,1-.08,0,.12.12,0,0,1,0-.09V83.55a.1.1,0,0,1,0-.09.09.09,0,0,1,.08,0h.5a.14.14,0,0,1,.13.13V85.9a.12.12,0,0,1-.13.12Z"/><path class="cls-2" d="M66.13,87.12a1.53,1.53,0,0,1-.61-.1,1,1,0,0,1-.39-.23.78.78,0,0,1-.2-.27.63.63,0,0,1-.07-.21.14.14,0,0,1,.13-.13h.53l.08,0a.22.22,0,0,1,.05.08l.07.13a.4.4,0,0,0,.14.11.55.55,0,0,0,.25,0,.84.84,0,0,0,.29,0,.4.4,0,0,0,.17-.17.75.75,0,0,0,.06-.33v-.33a1.05,1.05,0,0,1-.31.21,1,1,0,0,1-.44.09,1.08,1.08,0,0,1-.46-.09.86.86,0,0,1-.33-.23,1,1,0,0,1-.2-.37,1.72,1.72,0,0,1-.08-.48v-.27a1.71,1.71,0,0,1,.08-.47,1.15,1.15,0,0,1,.2-.38,1,1,0,0,1,.33-.24,1.08,1.08,0,0,1,.46-.09,1,1,0,0,1,.47.11,1,1,0,0,1,.32.26v-.19a.12.12,0,0,1,0-.09.11.11,0,0,1,.09,0h.49a.09.09,0,0,1,.08,0,.1.1,0,0,1,0,.09V86a1.29,1.29,0,0,1-.15.64,1,1,0,0,1-.43.39A1.46,1.46,0,0,1,66.13,87.12Zm0-1.72a.52.52,0,0,0,.29-.08.68.68,0,0,0,.17-.21,1.31,1.31,0,0,0,.06-.27v-.31a1.07,1.07,0,0,0-.06-.27.51.51,0,0,0-.17-.21.52.52,0,0,0-.29-.08.51.51,0,0,0-.3.08.44.44,0,0,0-.16.22.73.73,0,0,0-.06.3.89.89,0,0,0,0,.23.73.73,0,0,0,.06.3.44.44,0,0,0,.16.22A.51.51,0,0,0,66.11,85.4Z"/><path class="cls-2" d="M68.14,83a.11.11,0,0,1-.08,0,.12.12,0,0,1,0-.09v-.4a.13.13,0,0,1,0-.1.11.11,0,0,1,.08,0h.53a.16.16,0,0,1,.09,0,.18.18,0,0,1,0,.1v.4a.18.18,0,0,1,0,.09.16.16,0,0,1-.09,0Zm0,3a.12.12,0,0,1-.09,0,.16.16,0,0,1,0-.09V83.55a.12.12,0,0,1,0-.09.1.1,0,0,1,.09,0h.5a.12.12,0,0,1,.12.13V85.9a.11.11,0,0,1-.12.12Z"/><path class="cls-2" d="M70.66,86a1.19,1.19,0,0,1-.53-.1.7.7,0,0,1-.34-.32,1.2,1.2,0,0,1-.11-.54V84h-.39a.14.14,0,0,1-.09,0,.16.16,0,0,1,0-.09v-.34a.12.12,0,0,1,0-.09.11.11,0,0,1,.09,0h.39V82.6a.14.14,0,0,1,.13-.13h.49a.12.12,0,0,1,.12.13v.82h.63a.09.09,0,0,1,.08,0,.13.13,0,0,1,0,.09v.34a.18.18,0,0,1,0,.09.11.11,0,0,1-.08,0h-.63v1a.51.51,0,0,0,.07.3.25.25,0,0,0,.24.11h.36a.16.16,0,0,1,.09,0,.14.14,0,0,1,0,.09v.37a.11.11,0,0,1-.12.12Z"/><path class="cls-2" d="M72.88,87a.12.12,0,0,1-.13-.12v-3.3a.14.14,0,0,1,.13-.13h.47a.1.1,0,0,1,.09,0,.13.13,0,0,1,0,.09v.19a.91.91,0,0,1,.31-.27,1.06,1.06,0,0,1,.47-.1,1.21,1.21,0,0,1,.45.08,1,1,0,0,1,.33.24.88.88,0,0,1,.2.37,1.71,1.71,0,0,1,.09.48v.37a1.78,1.78,0,0,1-.08.47,1.23,1.23,0,0,1-.21.37,1,1,0,0,1-.33.24,1.21,1.21,0,0,1-.45.08,1,1,0,0,1-.44-.09.86.86,0,0,1-.31-.25v1.12a.11.11,0,0,1-.12.12ZM74,85.47a.56.56,0,0,0,.3-.08.48.48,0,0,0,.15-.22.94.94,0,0,0,.06-.29,1.6,1.6,0,0,0,0-.31.94.94,0,0,0-.06-.3.48.48,0,0,0-.15-.22A.56.56,0,0,0,74,84a.45.45,0,0,0-.3.09.44.44,0,0,0-.17.21,1.27,1.27,0,0,0-.06.28v.38a.76.76,0,0,0,.06.26.55.55,0,0,0,.17.2A.48.48,0,0,0,74,85.47Z"/><path class="cls-2" d="M76,83a.12.12,0,0,1-.09,0,.16.16,0,0,1,0-.09v-.4a.17.17,0,0,1,0-.1.12.12,0,0,1,.09,0h.52a.12.12,0,0,1,.09,0,.13.13,0,0,1,0,.1v.4a.12.12,0,0,1-.13.12Zm0,3a.11.11,0,0,1-.08,0,.12.12,0,0,1,0-.09V83.55a.1.1,0,0,1,0-.09.09.09,0,0,1,.08,0h.5a.1.1,0,0,1,.09,0,.13.13,0,0,1,0,.09V85.9a.18.18,0,0,1,0,.09.12.12,0,0,1-.09,0Z"/><path class="cls-2" d="M77.48,86a.11.11,0,0,1-.08,0,.12.12,0,0,1,0-.09V83.55a.1.1,0,0,1,0-.09.09.09,0,0,1,.08,0H78a.1.1,0,0,1,.09,0,.13.13,0,0,1,0,.09v.19a1,1,0,0,1,.33-.26,1.15,1.15,0,0,1,1,0,1,1,0,0,1,.35.39,1.41,1.41,0,0,1,.13.61v1.4a.18.18,0,0,1,0,.09.16.16,0,0,1-.09,0h-.53a.12.12,0,0,1-.09,0,.16.16,0,0,1,0-.09V84.53a.63.63,0,0,0-.13-.41.47.47,0,0,0-.37-.15.49.49,0,0,0-.38.15.58.58,0,0,0-.14.41V85.9A.11.11,0,0,1,78,86Z"/><path class="cls-2" d="M82.4,86.07a1.06,1.06,0,0,1-.48-.1.83.83,0,0,1-.33-.28.59.59,0,0,1-.13-.39.66.66,0,0,1,.29-.56,1.7,1.7,0,0,1,.76-.28l.65-.09v-.09a.45.45,0,0,0-.09-.3.39.39,0,0,0-.31-.11.45.45,0,0,0-.27.07.35.35,0,0,0-.15.17.14.14,0,0,1-.12.06h-.47a.12.12,0,0,1-.09,0,.08.08,0,0,1,0-.08.49.49,0,0,1,.06-.2,1,1,0,0,1,.2-.23,1.27,1.27,0,0,1,.35-.18,1.52,1.52,0,0,1,.51-.08,1.71,1.71,0,0,1,.54.08.9.9,0,0,1,.36.21.79.79,0,0,1,.2.31,1.22,1.22,0,0,1,.07.38V85.9a.18.18,0,0,1,0,.09.12.12,0,0,1-.09,0h-.49a.11.11,0,0,1-.08,0,.12.12,0,0,1,0-.09v-.19a.94.94,0,0,1-.17.18,1,1,0,0,1-.27.13A1.23,1.23,0,0,1,82.4,86.07Zm.2-.52a.57.57,0,0,0,.29-.07.53.53,0,0,0,.21-.21.82.82,0,0,0,.07-.37v-.08l-.46.07a1,1,0,0,0-.4.14.26.26,0,0,0-.12.22.28.28,0,0,0,0,.16.38.38,0,0,0,.16.11A.64.64,0,0,0,82.6,85.55Z"/><path class="cls-2" d="M85.56,86.07A1.73,1.73,0,0,1,85,86a1.51,1.51,0,0,1-.36-.18.77.77,0,0,1-.2-.21.32.32,0,0,1-.07-.18.08.08,0,0,1,0-.09.1.1,0,0,1,.08,0H85l0,0,.13.1a.54.54,0,0,0,.16.1.55.55,0,0,0,.24,0,.51.51,0,0,0,.28-.07.21.21,0,0,0,.11-.19.25.25,0,0,0,0-.15.59.59,0,0,0-.2-.11l-.43-.11a1.77,1.77,0,0,1-.46-.16.63.63,0,0,1-.28-.25.64.64,0,0,1-.1-.37.65.65,0,0,1,.12-.37.94.94,0,0,1,.37-.3,1.34,1.34,0,0,1,.6-.12,1.43,1.43,0,0,1,.48.07,1.14,1.14,0,0,1,.35.17,1,1,0,0,1,.21.21.43.43,0,0,1,.08.19.11.11,0,0,1,0,.08.1.1,0,0,1-.08,0h-.49l0,0L85.9,84l-.15-.09a.67.67,0,0,0-.22,0,.44.44,0,0,0-.25.07.23.23,0,0,0-.09.19.24.24,0,0,0,0,.13.46.46,0,0,0,.18.11l.43.1a1.71,1.71,0,0,1,.54.18.75.75,0,0,1,.28.28.67.67,0,0,1,.09.34.68.68,0,0,1-.14.41.85.85,0,0,1-.41.29A1.74,1.74,0,0,1,85.56,86.07Z"/></g><g class="cls-3"><path class="cls-2" d="M28.56,92.07A1.62,1.62,0,0,1,28,92a1.42,1.42,0,0,1-.37-.18.77.77,0,0,1-.2-.21.32.32,0,0,1-.07-.18.09.09,0,0,1,0-.09.12.12,0,0,1,.08,0H28l0,0,.13.1a.54.54,0,0,0,.16.1.57.57,0,0,0,.24,0,.51.51,0,0,0,.28-.07.21.21,0,0,0,.11-.19.25.25,0,0,0,0-.15.59.59,0,0,0-.2-.11l-.43-.11a1.77,1.77,0,0,1-.46-.16.69.69,0,0,1-.28-.25.64.64,0,0,1-.1-.37.65.65,0,0,1,.12-.37,1,1,0,0,1,.37-.3,1.34,1.34,0,0,1,.6-.12,1.43,1.43,0,0,1,.48.07,1.14,1.14,0,0,1,.35.17,1,1,0,0,1,.21.21.43.43,0,0,1,.08.19.11.11,0,0,1,0,.08.1.1,0,0,1-.08,0h-.49l0,0L28.9,90l-.15-.09a.62.62,0,0,0-.22,0,.44.44,0,0,0-.25.07.23.23,0,0,0-.09.19.24.24,0,0,0,0,.13.46.46,0,0,0,.18.11l.43.1a1.71,1.71,0,0,1,.54.18.68.68,0,0,1,.28.28.67.67,0,0,1,.09.34.62.62,0,0,1-.14.41.85.85,0,0,1-.41.29A1.74,1.74,0,0,1,28.56,92.07Z"/><path class="cls-2" d="M30.37,92a.12.12,0,0,1-.13-.12V88.6a.14.14,0,0,1,.13-.13h.54a.09.09,0,0,1,.08,0,.1.1,0,0,1,0,.09v1.12a1,1,0,0,1,.33-.25,1,1,0,0,1,.47-.1,1.11,1.11,0,0,1,.52.13,1,1,0,0,1,.36.39,1.41,1.41,0,0,1,.13.61v1.4a.12.12,0,0,1-.13.12h-.54a.14.14,0,0,1-.09,0,.16.16,0,0,1,0-.09V90.53a.63.63,0,0,0-.13-.41.47.47,0,0,0-.37-.15.49.49,0,0,0-.38.15.54.54,0,0,0-.14.41V91.9A.12.12,0,0,1,31,92a.11.11,0,0,1-.08,0Z"/><path class="cls-2" d="M34.63,92.07a1.48,1.48,0,0,1-.7-.14,1,1,0,0,1-.43-.39,1.39,1.39,0,0,1-.16-.59V90.5a1.28,1.28,0,0,1,.17-.6,1,1,0,0,1,.44-.39,1.7,1.7,0,0,1,1.35,0,1,1,0,0,1,.44.39,1.28,1.28,0,0,1,.17.6c0,.06,0,.13,0,.22s0,.16,0,.23a1.27,1.27,0,0,1-.17.59.94.94,0,0,1-.42.39A1.47,1.47,0,0,1,34.63,92.07Zm0-.55a.47.47,0,0,0,.37-.15.71.71,0,0,0,.13-.45,2,2,0,0,0,0-.4.7.7,0,0,0-.13-.44.44.44,0,0,0-.37-.16.45.45,0,0,0-.38.16.7.7,0,0,0-.13.44,2,2,0,0,0,0,.4.71.71,0,0,0,.13.45A.48.48,0,0,0,34.63,91.52Z"/><path class="cls-2" d="M37.08,92A.2.2,0,0,1,37,92a.41.41,0,0,1,0-.09l-.72-2.32s0,0,0,0a.1.1,0,0,1,.11-.11h.44a.11.11,0,0,1,.1,0,.13.13,0,0,1,0,.06l.45,1.55.49-1.54a.13.13,0,0,1,0-.07.15.15,0,0,1,.11,0h.29a.12.12,0,0,1,.1,0,.1.1,0,0,1,.05.07l.49,1.54.45-1.55,0-.06a.13.13,0,0,1,.1,0h.44a.11.11,0,0,1,.08,0,.13.13,0,0,1,0,.08v0l-.72,2.32a.41.41,0,0,1,0,.09.2.2,0,0,1-.11,0h-.39a.2.2,0,0,1-.11,0l-.06-.09-.48-1.48-.5,1.48a.41.41,0,0,1-.05.09.2.2,0,0,1-.11,0Z"/><path class="cls-2" d="M40.63,92a.11.11,0,0,1-.08,0,.12.12,0,0,1,0-.09V89.55a.1.1,0,0,1,0-.09.09.09,0,0,1,.08,0h.49a.14.14,0,0,1,.13.13v.19a1.09,1.09,0,0,1,.33-.26,1.12,1.12,0,0,1,.5-.11,1.08,1.08,0,0,1,.52.13,1,1,0,0,1,.35.39,1.41,1.41,0,0,1,.13.61v1.4A.12.12,0,0,1,43,92,.14.14,0,0,1,43,92h-.53a.11.11,0,0,1-.12-.12V90.53a.63.63,0,0,0-.13-.41A.45.45,0,0,0,41.8,90a.5.5,0,0,0-.38.15.58.58,0,0,0-.14.41V91.9a.16.16,0,0,1,0,.09.14.14,0,0,1-.09,0Z"/><path class="cls-2" d="M45.55,92.07a1.06,1.06,0,0,1-.48-.1.83.83,0,0,1-.33-.28.59.59,0,0,1-.13-.39.66.66,0,0,1,.29-.56,1.7,1.7,0,0,1,.76-.28l.65-.09v-.09a.45.45,0,0,0-.09-.3.39.39,0,0,0-.31-.11.45.45,0,0,0-.27.07.41.41,0,0,0-.15.17.14.14,0,0,1-.12.06H44.9a.12.12,0,0,1-.09,0,.08.08,0,0,1,0-.08.49.49,0,0,1,.06-.2,1.31,1.31,0,0,1,.2-.23,1.27,1.27,0,0,1,.35-.18,1.52,1.52,0,0,1,.51-.08,1.71,1.71,0,0,1,.54.08.9.9,0,0,1,.36.21A.79.79,0,0,1,47,90a1,1,0,0,1,.07.38V91.9A.12.12,0,0,1,47,92h-.49a.11.11,0,0,1-.08,0,.12.12,0,0,1,0-.09v-.19a.94.94,0,0,1-.17.18,1,1,0,0,1-.27.13A1.23,1.23,0,0,1,45.55,92.07Zm.2-.52a.54.54,0,0,0,.29-.07.53.53,0,0,0,.21-.21.82.82,0,0,0,.07-.37v-.08l-.46.07a1,1,0,0,0-.4.14.26.26,0,0,0-.12.22.23.23,0,0,0,.06.16.3.3,0,0,0,.15.11A.64.64,0,0,0,45.75,91.55Z"/><path class="cls-2" d="M49.19,92.07a.94.94,0,0,1-.47-.1.83.83,0,0,1-.31-.24v.17a.12.12,0,0,1-.13.12h-.47a.12.12,0,0,1-.13-.12V88.6a.14.14,0,0,1,.13-.13h.51a.11.11,0,0,1,.09,0,.12.12,0,0,1,0,.09v1.09a1,1,0,0,1,.31-.23,1,1,0,0,1,.44-.09,1,1,0,0,1,.78.33,1.17,1.17,0,0,1,.21.38,1.71,1.71,0,0,1,.08.47v.34a1.71,1.71,0,0,1-.09.48,1,1,0,0,1-.2.38,1,1,0,0,1-.33.24A1.17,1.17,0,0,1,49.19,92.07Zm-.22-.6a.56.56,0,0,0,.3-.08.48.48,0,0,0,.15-.22.72.72,0,0,0,.06-.29,1.6,1.6,0,0,0,0-.31.73.73,0,0,0-.06-.3.48.48,0,0,0-.15-.22.6.6,0,0,0-.6,0,.55.55,0,0,0-.17.2,1.18,1.18,0,0,0-.06.27v.37a1.15,1.15,0,0,0,.06.28.52.52,0,0,0,.17.22A.51.51,0,0,0,49,91.47Z"/><path class="cls-2" d="M52,92.07a1.44,1.44,0,0,1-.69-.14,1,1,0,0,1-.43-.39A1.26,1.26,0,0,1,50.7,91a1.69,1.69,0,0,1,0-.23,1.41,1.41,0,0,1,0-.22,1.17,1.17,0,0,1,.17-.6,1,1,0,0,1,.43-.39,1.59,1.59,0,0,1,.68-.14,1.55,1.55,0,0,1,.68.14,1,1,0,0,1,.43.39,1.17,1.17,0,0,1,.17.6,1.41,1.41,0,0,1,0,.22,1.69,1.69,0,0,1,0,.23,1.26,1.26,0,0,1-.16.59,1,1,0,0,1-.43.39A1.41,1.41,0,0,1,52,92.07Zm0-.55a.44.44,0,0,0,.37-.15.71.71,0,0,0,.14-.45v-.4a.7.7,0,0,0-.14-.44.42.42,0,0,0-.37-.16.43.43,0,0,0-.37.16.7.7,0,0,0-.14.44v.4a.71.71,0,0,0,.14.45A.45.45,0,0,0,52,91.52Z"/><path class="cls-2" d="M54.62,92a.16.16,0,0,1-.12,0l-.06-.08-.94-2.32s0,0,0,0a.1.1,0,0,1,.11-.11h.49a.1.1,0,0,1,.09,0,.13.13,0,0,1,0,.06l.61,1.65.62-1.65,0-.06a.13.13,0,0,1,.1,0h.48a.11.11,0,0,1,.08,0,.13.13,0,0,1,0,.08v0l-.95,2.32a.16.16,0,0,1-.06.08.12.12,0,0,1-.11,0Z"/><path class="cls-2" d="M57.68,92.07a1.26,1.26,0,0,1-.92-.32,1.27,1.27,0,0,1-.35-.93v-.21a1.54,1.54,0,0,1,.17-.67,1.11,1.11,0,0,1,.44-.42,1.33,1.33,0,0,1,.65-.15,1.34,1.34,0,0,1,.7.17,1.21,1.21,0,0,1,.43.47,1.67,1.67,0,0,1,.14.69v.11a.12.12,0,0,1,0,.09.11.11,0,0,1-.08,0H57.18v0a1.14,1.14,0,0,0,.06.29.62.62,0,0,0,.17.22.45.45,0,0,0,.26.08.4.4,0,0,0,.2,0,.32.32,0,0,0,.13-.08s.07-.06.08-.09l.07-.06h.61l.08,0a.07.07,0,0,1,0,.08.43.43,0,0,1-.08.2,1,1,0,0,1-.23.23,1.42,1.42,0,0,1-.37.19A1.61,1.61,0,0,1,57.68,92.07Zm-.5-1.59h1a.79.79,0,0,0-.06-.32.45.45,0,0,0-.16-.2.48.48,0,0,0-.27-.08.45.45,0,0,0-.26.08.47.47,0,0,0-.17.2.79.79,0,0,0-.06.32Z"/></g></g><g id="_2._Get_order" data-name=" 2. Get order" class="cls-3"><g class="cls-3"><path class="cls-2" d="M27.56,101a.12.12,0,0,1-.13-.12v-.3a.52.52,0,0,1,0-.11.27.27,0,0,1,.11-.13l.66-.66c.24-.19.44-.34.59-.47a2.19,2.19,0,0,0,.34-.36.58.58,0,0,0,.11-.31.48.48,0,0,0-.11-.32.42.42,0,0,0-.35-.13.5.5,0,0,0-.27.07.4.4,0,0,0-.16.18.62.62,0,0,0-.08.24.13.13,0,0,1-.07.09l-.09,0H27.6a.1.1,0,0,1-.08,0,.11.11,0,0,1,0-.07,1,1,0,0,1,.1-.44,1,1,0,0,1,.26-.36,1.31,1.31,0,0,1,.41-.26,1.53,1.53,0,0,1,.54-.09,1.66,1.66,0,0,1,.71.14,1,1,0,0,1,.43.38,1.1,1.1,0,0,1,.14.55A1,1,0,0,1,30,99a1.36,1.36,0,0,1-.28.39c-.12.12-.27.25-.44.39l-.59.59H30a.12.12,0,0,1,.09,0,.11.11,0,0,1,0,.09v.43A.12.12,0,0,1,30,101Z"/><path class="cls-2" d="M30.8,101a.12.12,0,0,1-.13-.12v-.56a.14.14,0,0,1,.13-.13h.56a.12.12,0,0,1,.12.13v.56a.11.11,0,0,1-.12.12Z"/><path class="cls-2" d="M34.65,101.07a1.83,1.83,0,0,1-.81-.16,1.09,1.09,0,0,1-.51-.46,1.49,1.49,0,0,1-.2-.73V98.8a1.48,1.48,0,0,1,.2-.72,1.15,1.15,0,0,1,.52-.45,1.78,1.78,0,0,1,.8-.16,1.89,1.89,0,0,1,.65.1,1.6,1.6,0,0,1,.47.24,1.5,1.5,0,0,1,.29.34.77.77,0,0,1,.1.34.11.11,0,0,1,0,.08.1.1,0,0,1-.08,0h-.62l-.08,0a.15.15,0,0,1,0-.06.63.63,0,0,0-.12-.18.64.64,0,0,0-.2-.16.83.83,0,0,0-.34-.06.72.72,0,0,0-.5.16.75.75,0,0,0-.2.54c0,.29,0,.58,0,.88a.8.8,0,0,0,.2.56.77.77,0,0,0,.51.17.83.83,0,0,0,.36-.08.51.51,0,0,0,.26-.22.72.72,0,0,0,.1-.4v-.12h-.55a.12.12,0,0,1-.08,0,.12.12,0,0,1,0-.09v-.32a.11.11,0,0,1,0-.09.11.11,0,0,1,.08,0h1.23a.16.16,0,0,1,.09,0,.14.14,0,0,1,0,.09v.55a1.32,1.32,0,0,1-.19.73,1.22,1.22,0,0,1-.53.47A1.86,1.86,0,0,1,34.65,101.07Z"/><path class="cls-2" d="M37.9,101.07a1.26,1.26,0,0,1-.92-.32,1.27,1.27,0,0,1-.35-.93v-.21a1.54,1.54,0,0,1,.17-.67,1.11,1.11,0,0,1,.44-.42,1.33,1.33,0,0,1,.65-.15,1.34,1.34,0,0,1,.7.17A1.21,1.21,0,0,1,39,99a1.67,1.67,0,0,1,.14.69v.11a.12.12,0,0,1,0,.09.11.11,0,0,1-.08,0H37.4v0a1.14,1.14,0,0,0,.06.29.62.62,0,0,0,.17.22.45.45,0,0,0,.26.08.4.4,0,0,0,.2,0,.32.32,0,0,0,.13-.08s.07-.06.08-.09l.07-.06H39a.15.15,0,0,1,.08,0,.07.07,0,0,1,0,.08.43.43,0,0,1-.08.2,1,1,0,0,1-.23.23,1.42,1.42,0,0,1-.37.19A1.61,1.61,0,0,1,37.9,101.07Zm-.5-1.59h1a.79.79,0,0,0-.06-.32.45.45,0,0,0-.16-.2.48.48,0,0,0-.27-.08.45.45,0,0,0-.26.08.47.47,0,0,0-.17.2.79.79,0,0,0-.06.32Z"/><path class="cls-2" d="M40.9,101a1.25,1.25,0,0,1-.53-.1.68.68,0,0,1-.33-.32,1.08,1.08,0,0,1-.11-.54V99h-.39a.12.12,0,0,1-.13-.12v-.34a.14.14,0,0,1,.13-.13h.39V97.6a.12.12,0,0,1,.12-.13h.49a.14.14,0,0,1,.13.13v.82h.62a.11.11,0,0,1,.09,0,.12.12,0,0,1,0,.09v.34a.16.16,0,0,1,0,.09.14.14,0,0,1-.09,0h-.62v1a.61.61,0,0,0,.06.3.28.28,0,0,0,.24.11h.37a.11.11,0,0,1,.08,0,.11.11,0,0,1,0,.09v.37a.12.12,0,0,1,0,.09.11.11,0,0,1-.08,0Z"/><path class="cls-2" d="M44.19,101.07a1.48,1.48,0,0,1-.7-.14,1,1,0,0,1-.43-.39,1.39,1.39,0,0,1-.16-.59V99.5a1.28,1.28,0,0,1,.17-.6,1,1,0,0,1,.44-.39,1.7,1.7,0,0,1,1.35,0,1,1,0,0,1,.44.39,1.28,1.28,0,0,1,.17.6c0,.06,0,.13,0,.22s0,.16,0,.23a1.27,1.27,0,0,1-.17.59.94.94,0,0,1-.42.39A1.47,1.47,0,0,1,44.19,101.07Zm0-.55a.47.47,0,0,0,.37-.15.71.71,0,0,0,.13-.45,2,2,0,0,0,0-.4.7.7,0,0,0-.13-.44.44.44,0,0,0-.37-.16.45.45,0,0,0-.38.16.7.7,0,0,0-.13.44,2,2,0,0,0,0,.4.71.71,0,0,0,.13.45A.48.48,0,0,0,44.19,100.52Z"/><path class="cls-2" d="M46.12,101a.11.11,0,0,1-.08,0,.12.12,0,0,1,0-.09V98.55a.1.1,0,0,1,0-.09.09.09,0,0,1,.08,0h.49a.11.11,0,0,1,.09,0,.13.13,0,0,1,0,.09v.2a.7.7,0,0,1,.3-.24,1,1,0,0,1,.43-.09h.21a.11.11,0,0,1,.09,0,.12.12,0,0,1,0,.09V99a.16.16,0,0,1,0,.09.14.14,0,0,1-.09,0h-.44a.47.47,0,0,0-.34.12.46.46,0,0,0-.13.35v1.33a.11.11,0,0,1-.12.12Z"/><path class="cls-2" d="M49.11,101.07a1.23,1.23,0,0,1-.44-.08,1,1,0,0,1-.33-.24,1.17,1.17,0,0,1-.21-.38,2.18,2.18,0,0,1-.08-.48,1.45,1.45,0,0,1,0-.34,1.4,1.4,0,0,1,.08-.47,1.37,1.37,0,0,1,.2-.38,1,1,0,0,1,.33-.24,1.13,1.13,0,0,1,.45-.09,1,1,0,0,1,.45.09.86.86,0,0,1,.3.23V97.6a.14.14,0,0,1,.13-.13h.51a.11.11,0,0,1,.09,0,.12.12,0,0,1,0,.09v3.3a.16.16,0,0,1,0,.09.14.14,0,0,1-.09,0H50a.11.11,0,0,1-.08,0,.12.12,0,0,1,0-.09v-.17a.92.92,0,0,1-.31.24A1,1,0,0,1,49.11,101.07Zm.23-.6a.53.53,0,0,0,.3-.08.5.5,0,0,0,.16-.22.64.64,0,0,0,.06-.28,1.21,1.21,0,0,0,0-.19,1.09,1.09,0,0,0,0-.18.63.63,0,0,0-.06-.27.41.41,0,0,0-.17-.2.5.5,0,0,0-.29-.08.56.56,0,0,0-.3.08.6.6,0,0,0-.16.22.94.94,0,0,0-.05.3,1.6,1.6,0,0,0,0,.31.93.93,0,0,0,.05.29.6.6,0,0,0,.16.22A.56.56,0,0,0,49.34,100.47Z"/><path class="cls-2" d="M52.42,101.07a1.26,1.26,0,0,1-.92-.32,1.27,1.27,0,0,1-.35-.93v-.21a1.54,1.54,0,0,1,.17-.67,1.11,1.11,0,0,1,.44-.42,1.33,1.33,0,0,1,.65-.15,1.34,1.34,0,0,1,.7.17,1.21,1.21,0,0,1,.43.47,1.67,1.67,0,0,1,.14.69v.11a.12.12,0,0,1,0,.09.11.11,0,0,1-.08,0H51.92v0a1.14,1.14,0,0,0,.06.29.62.62,0,0,0,.17.22.45.45,0,0,0,.26.08.4.4,0,0,0,.2,0,.32.32,0,0,0,.13-.08s.07-.06.08-.09l.07-.06h.61l.08,0a.07.07,0,0,1,0,.08.43.43,0,0,1-.08.2,1,1,0,0,1-.23.23,1.42,1.42,0,0,1-.37.19A1.61,1.61,0,0,1,52.42,101.07Zm-.5-1.59h1a.79.79,0,0,0-.06-.32.45.45,0,0,0-.16-.2.48.48,0,0,0-.27-.08.45.45,0,0,0-.26.08.47.47,0,0,0-.17.2.79.79,0,0,0-.06.32Z"/><path class="cls-2" d="M54.3,101a.11.11,0,0,1-.08,0,.12.12,0,0,1,0-.09V98.55a.1.1,0,0,1,0-.09.09.09,0,0,1,.08,0h.49a.11.11,0,0,1,.09,0,.13.13,0,0,1,0,.09v.2a.7.7,0,0,1,.3-.24,1,1,0,0,1,.43-.09h.21a.11.11,0,0,1,.09,0,.12.12,0,0,1,0,.09V99a.16.16,0,0,1,0,.09.14.14,0,0,1-.09,0h-.44a.47.47,0,0,0-.34.12.46.46,0,0,0-.13.35v1.33a.11.11,0,0,1-.12.12Z"/></g></g><g id="_3._Lock_the_door" data-name=" 3. Lock the door" class="cls-3"><g class="cls-3"><path class="cls-2" d="M28.81,110.07a2,2,0,0,1-.64-.09,1.45,1.45,0,0,1-.43-.23.85.85,0,0,1-.26-.31,1,1,0,0,1-.09-.32.09.09,0,0,1,0-.07.11.11,0,0,1,.08,0h.55a.15.15,0,0,1,.09,0,.18.18,0,0,1,.06.08.4.4,0,0,0,.13.18.5.5,0,0,0,.22.1,1,1,0,0,0,.26,0,.74.74,0,0,0,.44-.13.47.47,0,0,0,.16-.37.38.38,0,0,0-.15-.34.74.74,0,0,0-.43-.11H28.3a.14.14,0,0,1-.09,0,.16.16,0,0,1,0-.09v-.24a.15.15,0,0,1,0-.1.1.1,0,0,1,.05-.06l.86-.79H27.7a.1.1,0,0,1-.09,0,.09.09,0,0,1,0-.08v-.4a.14.14,0,0,1,.13-.13h2.22a.12.12,0,0,1,.12.13V107a.15.15,0,0,1,0,.09l-.05.06-.81.8h.05a1.66,1.66,0,0,1,.52.14.83.83,0,0,1,.36.33,1,1,0,0,1,.14.54.9.9,0,0,1-.19.58,1.21,1.21,0,0,1-.5.38A1.9,1.9,0,0,1,28.81,110.07Z"/><path class="cls-2" d="M30.85,110a.12.12,0,0,1-.13-.12v-.56a.14.14,0,0,1,.13-.13h.56a.12.12,0,0,1,.12.13v.56a.11.11,0,0,1-.12.12Z"/><path class="cls-2" d="M33.42,110a.12.12,0,0,1-.13-.12v-3.25a.14.14,0,0,1,.13-.13H34a.14.14,0,0,1,.13.13v2.7h1.55a.12.12,0,0,1,.12.13v.42a.11.11,0,0,1-.12.12Z"/><path class="cls-2" d="M37.34,110.07a1.48,1.48,0,0,1-.7-.14,1,1,0,0,1-.43-.39,1.39,1.39,0,0,1-.16-.59v-.45a1.28,1.28,0,0,1,.17-.6,1,1,0,0,1,.44-.39,1.7,1.7,0,0,1,1.35,0,1,1,0,0,1,.44.39,1.28,1.28,0,0,1,.17.6c0,.06,0,.13,0,.22s0,.16,0,.23a1.27,1.27,0,0,1-.17.59.94.94,0,0,1-.42.39A1.47,1.47,0,0,1,37.34,110.07Zm0-.55a.47.47,0,0,0,.37-.15.71.71,0,0,0,.13-.45,2,2,0,0,0,0-.4.7.7,0,0,0-.13-.44.44.44,0,0,0-.37-.16.45.45,0,0,0-.38.16.7.7,0,0,0-.13.44,2,2,0,0,0,0,.4.71.71,0,0,0,.13.45A.48.48,0,0,0,37.34,109.52Z"/><path class="cls-2" d="M40.31,110.07a1.41,1.41,0,0,1-.64-.13,1,1,0,0,1-.44-.4,1.18,1.18,0,0,1-.18-.61v-.41a1.22,1.22,0,0,1,.18-.62,1,1,0,0,1,.43-.39,1.48,1.48,0,0,1,.65-.14,1.62,1.62,0,0,1,.57.09,1.3,1.3,0,0,1,.38.24.83.83,0,0,1,.22.29.63.63,0,0,1,.08.27.08.08,0,0,1,0,.08.11.11,0,0,1-.09,0h-.53a.1.1,0,0,1-.08,0,.13.13,0,0,1,0-.07.56.56,0,0,0-.18-.25.51.51,0,0,0-.28-.08.43.43,0,0,0-.35.15.62.62,0,0,0-.14.45,2,2,0,0,0,0,.35.67.67,0,0,0,.14.45.42.42,0,0,0,.35.14.47.47,0,0,0,.28-.07.62.62,0,0,0,.18-.25.16.16,0,0,1,0-.08.1.1,0,0,1,.08,0h.53a.11.11,0,0,1,.09,0,.09.09,0,0,1,0,.09,1,1,0,0,1,0,.2,1.18,1.18,0,0,1-.14.23.85.85,0,0,1-.24.22,1,1,0,0,1-.35.17A1.75,1.75,0,0,1,40.31,110.07Z"/><path class="cls-2" d="M42.18,110a.12.12,0,0,1-.13-.12v-3.3a.14.14,0,0,1,.13-.13h.49a.09.09,0,0,1,.08,0,.1.1,0,0,1,0,.09v1.69l.77-.78a.19.19,0,0,1,.07-.06.15.15,0,0,1,.1,0h.57a.11.11,0,0,1,.08,0,.13.13,0,0,1,0,.08s0,0,0,0,0,0,0,0l-1,1,1.09,1.24a.12.12,0,0,1,0,.08.1.1,0,0,1-.11.11h-.58l-.11,0-.07-.06-.87-1v.94a.12.12,0,0,1,0,.09.11.11,0,0,1-.08,0Z"/><path class="cls-2" d="M47.11,110a1.25,1.25,0,0,1-.53-.1.68.68,0,0,1-.33-.32,1.08,1.08,0,0,1-.11-.54v-1h-.39a.12.12,0,0,1-.13-.12v-.34a.14.14,0,0,1,.13-.13h.39v-.82a.12.12,0,0,1,.12-.13h.49a.14.14,0,0,1,.13.13v.82h.62a.11.11,0,0,1,.09,0,.12.12,0,0,1,0,.09v.34a.16.16,0,0,1,0,.09.14.14,0,0,1-.09,0h-.62v1a.61.61,0,0,0,.06.3.28.28,0,0,0,.24.11h.37a.11.11,0,0,1,.08,0,.11.11,0,0,1,0,.09v.37a.12.12,0,0,1,0,.09.11.11,0,0,1-.08,0Z"/><path class="cls-2" d="M48.23,110a.12.12,0,0,1-.13-.12v-3.3a.14.14,0,0,1,.13-.13h.54a.09.09,0,0,1,.08,0,.1.1,0,0,1,0,.09v1.12a1,1,0,0,1,.33-.25,1,1,0,0,1,.47-.1,1.11,1.11,0,0,1,.52.13,1,1,0,0,1,.36.39,1.41,1.41,0,0,1,.13.61v1.4a.12.12,0,0,1-.13.12H50a.14.14,0,0,1-.09,0,.16.16,0,0,1,0-.09v-1.37a.63.63,0,0,0-.13-.41.47.47,0,0,0-.37-.15.49.49,0,0,0-.38.15.54.54,0,0,0-.14.41v1.37a.12.12,0,0,1,0,.09.11.11,0,0,1-.08,0Z"/><path class="cls-2" d="M52.46,110.07a1.26,1.26,0,0,1-.92-.32,1.27,1.27,0,0,1-.35-.93v-.21a1.54,1.54,0,0,1,.17-.67,1.11,1.11,0,0,1,.44-.42,1.33,1.33,0,0,1,.65-.15,1.34,1.34,0,0,1,.7.17,1.21,1.21,0,0,1,.43.47,1.67,1.67,0,0,1,.14.69v.11a.12.12,0,0,1,0,.09.11.11,0,0,1-.08,0H52v0a1.14,1.14,0,0,0,.06.29.62.62,0,0,0,.17.22.45.45,0,0,0,.26.08.4.4,0,0,0,.2,0,.32.32,0,0,0,.13-.08s.07-.06.08-.09l.07-.06h.61l.08,0a.07.07,0,0,1,0,.08.43.43,0,0,1-.08.2,1,1,0,0,1-.23.23A1.42,1.42,0,0,1,53,110,1.61,1.61,0,0,1,52.46,110.07Zm-.5-1.59h1a.79.79,0,0,0-.06-.32.45.45,0,0,0-.16-.2.48.48,0,0,0-.27-.08.45.45,0,0,0-.26.08.47.47,0,0,0-.17.2.79.79,0,0,0-.06.32Z"/><path class="cls-2" d="M56.29,110.07a1.23,1.23,0,0,1-.44-.08,1,1,0,0,1-.33-.24,1.17,1.17,0,0,1-.21-.38,2.18,2.18,0,0,1-.08-.48,1.45,1.45,0,0,1,0-.34,1.4,1.4,0,0,1,.08-.47,1.37,1.37,0,0,1,.2-.38,1,1,0,0,1,.33-.24,1.13,1.13,0,0,1,.45-.09,1.06,1.06,0,0,1,.45.09.86.86,0,0,1,.3.23V106.6a.14.14,0,0,1,.13-.13h.51a.12.12,0,0,1,.12.13v3.3a.11.11,0,0,1-.12.12H57.2a.11.11,0,0,1-.08,0,.12.12,0,0,1,0-.09v-.17a.92.92,0,0,1-.31.24A1,1,0,0,1,56.29,110.07Zm.23-.6a.53.53,0,0,0,.3-.08.5.5,0,0,0,.16-.22.64.64,0,0,0,.06-.28,1.21,1.21,0,0,0,0-.19,1.09,1.09,0,0,0,0-.18.63.63,0,0,0-.06-.27.47.47,0,0,0-.17-.2.5.5,0,0,0-.29-.08.56.56,0,0,0-.3.08.6.6,0,0,0-.16.22.94.94,0,0,0-.05.3,1.6,1.6,0,0,0,0,.31.93.93,0,0,0,.05.29.6.6,0,0,0,.16.22A.56.56,0,0,0,56.52,109.47Z"/><path class="cls-2" d="M59.63,110.07a1.48,1.48,0,0,1-.7-.14,1,1,0,0,1-.43-.39,1.39,1.39,0,0,1-.16-.59v-.45a1.28,1.28,0,0,1,.17-.6,1,1,0,0,1,.44-.39,1.52,1.52,0,0,1,.68-.14,1.54,1.54,0,0,1,.67.14,1,1,0,0,1,.44.39,1.28,1.28,0,0,1,.17.6c0,.06,0,.13,0,.22s0,.16,0,.23a1.27,1.27,0,0,1-.17.59.94.94,0,0,1-.42.39A1.47,1.47,0,0,1,59.63,110.07Zm0-.55a.47.47,0,0,0,.37-.15.71.71,0,0,0,.13-.45,2,2,0,0,0,0-.4.7.7,0,0,0-.13-.44.44.44,0,0,0-.37-.16.45.45,0,0,0-.38.16.7.7,0,0,0-.13.44,2,2,0,0,0,0,.4.71.71,0,0,0,.13.45A.48.48,0,0,0,59.63,109.52Z"/><path class="cls-2" d="M62.63,110.07a1.44,1.44,0,0,1-.69-.14,1,1,0,0,1-.43-.39,1.26,1.26,0,0,1-.16-.59,1.69,1.69,0,0,1,0-.23,1.41,1.41,0,0,1,0-.22,1.17,1.17,0,0,1,.17-.6,1,1,0,0,1,.43-.39,1.72,1.72,0,0,1,1.36,0,1,1,0,0,1,.43.39,1.17,1.17,0,0,1,.17.6,1.41,1.41,0,0,1,0,.22,1.69,1.69,0,0,1,0,.23,1.26,1.26,0,0,1-.16.59,1,1,0,0,1-.43.39A1.44,1.44,0,0,1,62.63,110.07Zm0-.55a.44.44,0,0,0,.37-.15.71.71,0,0,0,.14-.45v-.4a.7.7,0,0,0-.14-.44.42.42,0,0,0-.37-.16.43.43,0,0,0-.37.16.7.7,0,0,0-.14.44v.4a.71.71,0,0,0,.14.45A.45.45,0,0,0,62.63,109.52Z"/><path class="cls-2" d="M64.57,110a.12.12,0,0,1-.09,0,.16.16,0,0,1,0-.09v-2.35a.12.12,0,0,1,0-.09.1.1,0,0,1,.09,0h.49a.09.09,0,0,1,.08,0,.1.1,0,0,1,0,.09v.2a.79.79,0,0,1,.31-.24.93.93,0,0,1,.42-.09h.22a.09.09,0,0,1,.08,0,.13.13,0,0,1,0,.09V108a.18.18,0,0,1,0,.09.11.11,0,0,1-.08,0h-.44a.42.42,0,0,0-.47.47v1.33a.18.18,0,0,1,0,.09.12.12,0,0,1-.09,0Z"/></g></g><g id="Group_12" data-name="Group 12"><g id="Path_44" data-name="Path 44"><path class="cls-2" d="M63.84,23.46H49.58c-.22,0-.22,0-.22.22V34.22c0,.07,0,.11.1.11H64a.1.1,0,0,0,.11-.11V23.7C64.08,23.45,64.1,23.46,63.84,23.46ZM61.28,26.1a.4.4,0,0,1-.11.19l-1.08,1.22-.91,1a.74.74,0,0,1-.6.27h-.24a.67.67,0,0,0-.73.3,3.43,3.43,0,0,1-.33.33c-.07.07-.07.12,0,.2l1,1,1.13,1.14.12.12a.3.3,0,0,1,0,.42s0,0,0,0l-.19.18a.27.27,0,0,1-.39,0l0,0c-.11-.09-.21-.19-.31-.29l-1.85-1.85-.06-.05c-.15-.15-.15-.15-.3,0l-1.88,1.86a3.34,3.34,0,0,1-.33.32c-.18.17-.31.17-.48,0a1.89,1.89,0,0,1-.2-.2.26.26,0,0,1,0-.36l.15-.17,1.93-1.94.18-.19c.12-.12.12-.12,0-.25l-.56-.55a.16.16,0,0,0-.24,0,1.4,1.4,0,0,1-1.55-.18,2.7,2.7,0,0,1-.91-1.15,3.92,3.92,0,0,1-.32-1.11,1.58,1.58,0,0,1,.16-.86.47.47,0,0,1,.28-.24,1.88,1.88,0,0,1,.85-.1,3.47,3.47,0,0,1,1.51.56,2.2,2.2,0,0,1,.94,1.16,1.28,1.28,0,0,1-.08,1,.17.17,0,0,0,0,.24h0c.2.2.38.4.58.59s.11.09.21,0l.54-.54a.24.24,0,0,0,.09-.21,5,5,0,0,1,0-.67.61.61,0,0,1,.17-.39c.25-.25.52-.47.78-.7l1.51-1.35a.86.86,0,0,1,.2-.13.15.15,0,0,1,.17,0,.14.14,0,0,1,0,.15.68.68,0,0,1-.18.23l-1.2,1.14a2.29,2.29,0,0,0-.27.27.24.24,0,0,0,0,.35l0,0a.19.19,0,0,0,.28,0h0a3.07,3.07,0,0,0,.26-.25l1.26-1.25a.45.45,0,0,1,.17-.13.17.17,0,0,1,.19,0,.15.15,0,0,1,0,.19.62.62,0,0,1-.16.2l-1.33,1.34a.47.47,0,0,0-.1.1.22.22,0,0,0,0,.35.23.23,0,0,0,.32.05l0,0a3.64,3.64,0,0,0,.34-.34l1.08-1.14a.72.72,0,0,1,.22-.17.15.15,0,0,1,.17,0A.13.13,0,0,1,61.28,26.1Z"/></g><g id="Path_45" data-name="Path 45"><path class="cls-2" d="M50,23.07a.83.83,0,0,0,.22,0H63.39c.06,0,.11,0,.13-.07a.15.15,0,0,0,0-.13l-.2-.2-3.5-3.26a.39.39,0,0,0-.29-.11H54a.39.39,0,0,0-.3.12L52.1,20.89l-2,1.82a1.26,1.26,0,0,0-.2.2.11.11,0,0,0,0,.14ZM55,20.85a.29.29,0,0,1,.3-.3h2.83a.53.53,0,0,1,.18,0,.29.29,0,0,1,.23.3c0,.11,0,.23,0,.34s0,.13-.13.13h-3.3c-.08,0-.11,0-.11-.12v-.36Z"/></g><g id="Path_46" data-name="Path 46"><path class="cls-2" d="M50,22.46l2.75-2.58,0,0H51a1.13,1.13,0,0,0-.36.06.92.92,0,0,0-.72.94c0,.48,0,1,0,1.46A.15.15,0,0,0,50,22.46Z"/></g><g id="Path_47" data-name="Path 47"><path class="cls-2" d="M63.47,22.39c0-.52,0-1,0-1.56a.9.9,0,0,0-.29-.7,1.06,1.06,0,0,0-.77-.29c-.56,0-1.12,0-1.67,0a.08.08,0,0,0-.1.05l2.77,2.59Z"/></g></g></g></svg>