<svg xmlns="http://www.w3.org/2000/svg" viewBox="0 0 1015.31 261.19"><defs><style>.cls-1{fill:#fff;}</style></defs><g id="Layer_2" data-name="Layer 2"><g id="Layer_1-2" data-name="Layer 1"><path class="cls-1" d="M520.64,150.87h-5.76c-18.83,0-37.66-.09-56.49.07-3.83,0-5.37-1-5.27-5,.35-15.36-1.85-12.41,12.17-12.53,22.49-.18,45,.06,67.49-.14,4.45,0,6.12,1.06,6.09,5.8-.2,26.5,0,53-.25,79.49a13.26,13.26,0,0,1-3.49,8.25c-15.17,15.7-34.26,23.92-55.47,27.31-27.74,4.45-54.33,1.08-78.18-14.67-34.5-22.78-50.16-55.66-48.63-96.54,1.55-41.43,23-70.63,58.42-90.29,22.34-12.39,46.65-15.42,71.67-12.6,10.52,1.19,20.86,3.9,31.27,6,3.48.69,4.82,2.86,4.63,6.47-.26,4.58-.07,9.18-.07,14.4-2-.69-3-1-4-1.42-39.53-16-77.3-14.33-111.57,12.82-49.94,39.56-40.91,119.43,10.9,148.49,19.77,11.09,40.88,13.3,62.91,10.1,14.91-2.17,28.85-6.81,40.6-16.6,1.68-1.4,3.29-4,3.32-6.08.24-20,.14-40,.12-60C521,153.35,520.83,152.53,520.64,150.87Z"/><path class="cls-1" d="M767.2,228.75c0,4.75.34,9.42-.19,14-.18,1.52-2.38,3.44-4.06,4.05-17.67,6.38-35.36,5-52.08-2.56-33.19-15-50.57-41-51-77.78-.17-13.34,0-26.54,4.55-39.45,11-31.31,43-55.77,78.65-55,33.72.73,65.57,23.25,75.91,55.8a91.55,91.55,0,0,1,4.2,25.92c.5,30.32.11,60.66.28,91,0,4.45-1,6.12-5.79,6-11.81-.24-11.82,0-11.81-11.94q0-42,0-84c0-32.23-22.25-59.57-52.11-64.09-33.79-5.13-65.06,13.22-73.36,45.69-6.7,26.19-6.21,52.68,13.54,74.46,18.38,20.26,41.18,26.54,67.61,18.67,1.27-.38,2.55-.75,3.84-1.07A8.27,8.27,0,0,1,767.2,228.75Z"/><path class="cls-1" d="M871.3,186.82c4.51,7.86,7.9,15.78,13,22.33,16.79,21.44,44.61,29,70.63,19.94A64.06,64.06,0,0,0,997.46,170c.14-12.44.83-24.9-3.53-37.06C978.7,90.47,927.59,76,892.74,104.65c-20.47,16.82-37.24,37.13-53.65,57.76-1.33,1.67-2.7,3.31-4.05,5l-1.52-.21c0-3.65.41-7.36-.08-10.94-1.31-9.45,2.1-16.72,8.25-23.87C855.85,115.9,870,99.65,888,87,919.7,64.68,961.33,67.58,989.3,94.5c16.75,16.12,25.51,35.81,26,59.2.33,17.27-.41,34.17-8.11,50.26-25.2,52.63-97.88,62.94-135,18.76-4.52-5.38-7.62-12.05-10.79-18.42-.82-1.65-.06-4.86,1.11-6.59C865.07,193.75,868.42,190.27,871.3,186.82Z"/><path class="cls-1" d="M517.39,98.4c-16.31-13-35.5-14.27-55.05-13.85-30.34.64-57.65,22.19-62.41,50.76-5.69,34.2,10.58,61.77,39.83,71.32,17,5.55,34.25,3.41,51-2.31a4.4,4.4,0,0,0,2.6-3c.23-7,.12-13.93.12-21.39-2.23-.12-4-.29-5.74-.29-10,0-20-.17-30,0-6.51.13-4.86-4.71-4.36-7.67.57-3.42-3.85-9.74,4-9.86,16.16-.23,32.33,0,48.49-.13,3.36,0,4.28,1.28,4.25,4.43-.11,14.16.09,28.33-.19,42.49a8.94,8.94,0,0,1-3.31,6c-9.17,6.91-20,9.74-31.14,11.16-22.13,2.79-43.33.63-61.88-13.26-23.33-17.46-33.26-41.15-32.38-69.93,1.33-43,39-73.26,76-75.79,19.74-1.34,38.86.74,57.06,9.08,3.13,1.44,4.68,3.17,4.48,6.77-.27,4.91-.06,9.85-.06,14.78Z"/><path class="cls-1" d="M833.56,212.72c0-8-.09-15.91.09-23.86a7,7,0,0,1,1.92-3.9c19.43-22.14,38.5-44.63,58.59-66.17,9.91-10.63,22.71-17.66,37.85-18.16,29-1,53.45,22.63,54.67,52.84.52,13,1,26.1-5.31,38.15-10.32,19.79-26.66,30.69-49,30.13-22.91-.57-37.53-13.93-47.28-33.8-4-8.2-4.61-15.21,3-21.62,2.35-2,4-4.77,6.85-8.22.57,2.68,1,4.31,1.27,6,2.17,11.37,6.66,21.63,14.88,30,9.67,9.8,21.16,13,34.26,8.19,13.78-5,21.79-15.11,23.29-29.67a138.17,138.17,0,0,0,.08-22.47c-1.6-26.18-32.41-40.78-54.7-25.71a88.37,88.37,0,0,0-16.9,15.44c-19.84,22.92-39.28,46.17-58.87,69.3-1.15,1.36-2.29,2.75-3.43,4.12Z"/><path class="cls-1" d="M767.18,196.16c0,6.23.7,11.5-.31,16.42-.48,2.32-3.94,4.77-6.58,5.78-16.92,6.48-33.2,4.54-48-5.69-15.51-10.72-23.93-25.61-23.65-44.85.18-11.59-.94-23.2,4-34.43,10-23,34.75-36.52,59.54-32a52,52,0,0,1,42.68,49.89c.66,31.64.22,63.31.34,95,0,3.24-1.16,4.44-4.39,4.36-16.28-.41-13.43,2.55-13.52-13.18-.17-28,0-56-.08-84-.06-17.06-11.53-31.22-27.69-34.55-17.06-3.5-33.33,4.65-40.33,20.39a24.35,24.35,0,0,0-2.46,8.57c-.34,8.81-1.2,17.78,0,26.42,3.62,25.54,31.68,38,55.13,24.9C763.24,198.43,764.64,197.61,767.18,196.16Z"/><path class="cls-1" d="M679.59,83.71c-3.81,4.2-6.86,8-10.38,11.2-1,.9-3.59.88-5,.27-21.32-9-42.16-7.61-61.84,4.08-17.92,10.65-27.44,27.43-28,48-.92,31.3-.4,62.65-.49,94,0,1.67-.09,3.34,0,5,.18,3.12-1,4.52-4.35,4.44-16.14-.39-13.3,2.37-13.39-12.83-.17-28.17-.25-56.33,0-84.5.23-24.88,8.93-46.22,28.12-62.66,23.2-19.87,62.1-24.74,88.44-11.18C674.82,80.61,676.85,82,679.59,83.71Z"/><path class="cls-1" d="M661.45,105.9l-7.36,14.64c-4.83-.76-9.36-1.91-13.93-2.13-22.62-1.07-37.81,13.4-37.89,36.07-.1,29.65,0,59.3,0,89,0,7.18,0,7.18-7,7.19-10.57,0-10.57,0-10.57-10.57,0-29-.08-58,0-87,.13-37.52,35.68-61.39,71.84-49.54A43.35,43.35,0,0,1,661.45,105.9Z"/><path class="cls-1" d="M850.56,104V99.17c0-31,.09-61.94-.1-92.9,0-4.63,1-6.4,6-6.26,11.66.32,11.67.06,11.67,11.53,0,23.81.1,47.62-.15,71.42,0,2.58-1.59,5.56-3.32,7.63-4,4.82-8.54,9.19-12.86,13.75Z"/><path class="cls-1" d="M896.28.13c.16,2.36.38,4.15.38,6,0,19.5-.07,39,.11,58.5,0,3.84-1.24,6-4.57,7.9-4.29,2.41-8.19,5.53-12.91,8.8-.21-2-.46-3.4-.47-4.78,0-23.67.07-47.33-.09-71,0-4,1-5.79,5.3-5.44C888,.38,892,.13,896.28.13Z"/><path class="cls-1" d="M251.88,72.15c-1,0-2.1,0-3.15,0H127.67q-61.94,0-123.87,0C0,72.15,0,72.16,0,76V256.86c0,.81,0,1.63,0,2.44,0,1.33.58,1.93,1.9,1.88.7,0,1.4,0,2.1,0H251.72c.81,0,1.63,0,2.44,0,1.31,0,2-.55,1.91-1.88,0-.7,0-1.4,0-2.1V76.31C256.08,71.93,256.38,72.16,251.88,72.15Zm-44.49,46a8.19,8.19,0,0,1-1.88,3.3l-18.83,21.16c-5.27,5.91-10.6,11.77-15.79,17.75A12.76,12.76,0,0,1,160.42,165c-1.4,0-2.8,0-4.2,0-5.54-1.4-9.31,1.24-12.64,5.3a58.67,58.67,0,0,1-5.69,5.68c-1.35,1.24-1.28,2.15,0,3.44,5.71,5.67,11.33,11.43,17,17.15q9.84,9.94,19.69,19.89c.66.66,1.36,1.29,1.95,2,2.43,3,2.35,5.28-.3,8-1.05,1.09-2.15,2.14-3.28,3.15-2.46,2.21-4.58,2.35-7.15.25-1.89-1.55-3.63-3.29-5.37-5q-16.14-16-32.24-32.08l-1-1c-2.63-2.58-2.64-2.58-5.15-.09L89.48,224c-1.91,1.89-3.79,3.8-5.75,5.63-3.2,3-5.39,3-8.44,0-1.18-1.13-2.33-2.29-3.39-3.53-1.84-2.12-2-4-.33-6.3a23.07,23.07,0,0,1,2.53-2.89Q90.83,200,107.59,183.14c1.07-1.08,2.13-2.16,3.18-3.26,2.07-2.17,2.08-2.19-.08-4.36-3.21-3.22-6.49-6.38-9.64-9.65a3.05,3.05,0,0,0-4.24-.71c-9.61,5-18.56,2.83-26.92-3-7.24-5.08-12.31-12-15.9-20a64.4,64.4,0,0,1-5.51-19.4A27.35,27.35,0,0,1,51.2,107.8a8.23,8.23,0,0,1,4.95-4.19,32.49,32.49,0,0,1,14.7-1.75,61.08,61.08,0,0,1,26.27,9.74c7.59,4.93,13.45,11.45,16.37,20.26a22.11,22.11,0,0,1-1.39,17.9c-.91,1.74-1,2.84.49,4.23,3.45,3.32,6.73,6.8,10.13,10.16,1.69,1.67,2,1.66,3.69,0,3.16-3.11,6.23-6.3,9.4-9.4a4.34,4.34,0,0,0,1.51-3.71,77.77,77.77,0,0,1,.2-11.52,10,10,0,0,1,3-6.8c4.27-4.31,9-8.15,13.47-12.2,8.76-7.85,17.57-15.64,26.36-23.47a11,11,0,0,1,3.52-2.24,2.44,2.44,0,0,1,2.89.58,2.34,2.34,0,0,1,.1,2.63,12.85,12.85,0,0,1-3.18,4.13q-10.41,9.86-20.81,19.73c-1.61,1.53-3.26,3-4.7,4.7-2,2.28-1.6,4.83.76,6.71,1.85,1.47,3.18,1.62,5.05.14a54.81,54.81,0,0,0,4.58-4.31q10.91-10.86,21.78-21.75a8,8,0,0,1,3.06-2.28,2.8,2.8,0,0,1,3.19.71,2.72,2.72,0,0,1,.45,3.23,12.53,12.53,0,0,1-2.8,3.55L171,135.8c-.57.58-1.17,1.15-1.7,1.76-2.06,2.39-2,3.95,0,6.11,1.9,2,4,2.27,6.2.42a79,79,0,0,0,5.93-5.93q9.39-9.9,18.71-19.85a15.8,15.8,0,0,1,3.87-3,2.44,2.44,0,0,1,2.94.21C207.83,116.28,207.64,117.23,207.39,118.17Z"/><path class="cls-1" d="M11.41,65.46a23.41,23.41,0,0,0,3.84.13H240.57c1.17,0,2.34,0,3.5,0,.94,0,1.91-.18,2.24-1.29a2.16,2.16,0,0,0-.67-2.23c-1.15-1.16-2.3-2.31-3.5-3.42Q211.69,30.26,181.25,1.87a6.72,6.72,0,0,0-5-1.84Q128.11.09,80,0a7,7,0,0,0-5.27,2.11c-9,8.49-18,16.89-27.1,25.3q-17,15.84-34.08,31.64a26.82,26.82,0,0,0-3.38,3.53A1.7,1.7,0,0,0,11.41,65.46Zm86-38.76a5.24,5.24,0,0,1,5.12-5.19c.7-.06,1.4,0,2.1,0q23.61,0,47.23,0a12.46,12.46,0,0,1,3.12.24,5.16,5.16,0,0,1,4,5.13c.11,2,0,4,.05,6,.06,1.73-.82,2.18-2.37,2.17-4.9,0-9.79,0-14.69,0H101.66l-2.44,0A1.67,1.67,0,0,1,97.34,33C97.36,30.89,97.25,28.79,97.37,26.7Z"/><path class="cls-1" d="M11.63,54.75Q35.62,32.47,59.54,10l-.46-.74a10.23,10.23,0,0,0-1.34-.17c-9.55,0-19.11,0-28.66,0a23.92,23.92,0,0,0-6.18,1C15,12.16,10.2,18.19,10.23,26.33c0,8.51.25,17,.42,25.51C10.67,52.72,10.35,53.73,11.63,54.75Z"/><path class="cls-1" d="M245.53,53.62c.18-9.09.42-18.18.5-27.27a15.74,15.74,0,0,0-5.11-12.2,19.58,19.58,0,0,0-13.44-5c-9.67-.14-19.34-.06-29-.06a1.47,1.47,0,0,0-1.7,1C212.59,25,228.6,39.9,245,55.09A7.87,7.87,0,0,0,245.53,53.62Z"/></g></g></svg>