<svg xmlns="http://www.w3.org/2000/svg" viewBox="0 0 196.11 200"><defs><style>.cls-1{fill:#fff;}</style></defs><g id="Layer_2" data-name="Layer 2"><g id="Layer_1-2" data-name="Layer 1"><path class="cls-1" d="M192.89,55.24c-.81,0-1.61,0-2.42,0H97.77q-47.43,0-94.86,0C0,55.24,0,55.25,0,58.16V196.68c0,.63,0,1.25,0,1.88,0,1,.45,1.48,1.45,1.44.54,0,1.07,0,1.61,0h189.7c.63,0,1.25,0,1.88,0,1,0,1.49-.41,1.46-1.43,0-.54,0-1.07,0-1.61q0-69.25,0-138.52C196.1,55.07,196.33,55.24,192.89,55.24ZM158.82,90.48A6.39,6.39,0,0,1,157.38,93L143,109.21c-4,4.53-8.12,9-12.1,13.6a9.77,9.77,0,0,1-8,3.56c-1.07,0-2.14,0-3.21,0-4.25-1.07-7.14.95-9.68,4.06a44.86,44.86,0,0,1-4.37,4.35c-1,.95-1,1.65,0,2.64,4.37,4.34,8.68,8.75,13,13.13q7.53,7.62,15.08,15.23c.5.5,1,1,1.49,1.53,1.86,2.27,1.8,4-.23,6.16-.8.84-1.64,1.64-2.51,2.41-1.88,1.7-3.51,1.8-5.47.19-1.45-1.19-2.78-2.52-4.11-3.84Q110.51,160,98.17,147.67l-.76-.75c-2-2-2-2-4-.07L68.53,171.54c-1.47,1.45-2.91,2.91-4.41,4.31-2.45,2.28-4.13,2.27-6.47,0-.89-.87-1.78-1.76-2.59-2.7a3.43,3.43,0,0,1-.25-4.83,18.29,18.29,0,0,1,1.93-2.21l25.65-25.88q1.23-1.23,2.43-2.49c1.59-1.67,1.6-1.68,0-3.34-2.46-2.47-5-4.89-7.38-7.39a2.35,2.35,0,0,0-3.26-.54c-7.35,3.81-14.2,2.16-20.61-2.33a36.19,36.19,0,0,1-12.18-15.32A49.67,49.67,0,0,1,37.13,94a20.86,20.86,0,0,1,2.08-11.43A6.34,6.34,0,0,1,43,79.33,24.79,24.79,0,0,1,54.26,78a46.83,46.83,0,0,1,20.11,7.46c5.81,3.77,10.31,8.77,12.54,15.51a17,17,0,0,1-1.06,13.71c-.7,1.33-.74,2.17.37,3.24,2.64,2.54,5.15,5.21,7.76,7.78,1.29,1.28,1.5,1.27,2.82,0,2.42-2.38,4.78-4.83,7.2-7.2a3.31,3.31,0,0,0,1.16-2.84,60.43,60.43,0,0,1,.15-8.82,7.68,7.68,0,0,1,2.33-5.21c3.27-3.3,6.87-6.24,10.32-9.34q10.07-9,20.19-18a8.3,8.3,0,0,1,2.69-1.72,1.87,1.87,0,0,1,2.21.44,1.78,1.78,0,0,1,.07,2,9.73,9.73,0,0,1-2.43,3.16q-8,7.54-15.94,15.11c-1.22,1.17-2.49,2.32-3.59,3.6-1.51,1.75-1.23,3.7.58,5.13,1.41,1.13,2.43,1.25,3.87.11a41.79,41.79,0,0,0,3.5-3.29q8.35-8.32,16.68-16.66a6.3,6.3,0,0,1,2.34-1.75,2.15,2.15,0,0,1,2.45.55,2.08,2.08,0,0,1,.34,2.47,9.44,9.44,0,0,1-2.15,2.72L131,104c-.45.45-.9.88-1.31,1.35-1.57,1.83-1.56,3,0,4.68,1.46,1.51,3.1,1.73,4.75.32a58.93,58.93,0,0,0,4.54-4.54q7.19-7.59,14.33-15.21a12.44,12.44,0,0,1,3-2.26,1.88,1.88,0,0,1,2.26.16C159.16,89,159,89.76,158.82,90.48Z"/><path class="cls-1" d="M8.74,50.12a18,18,0,0,0,2.94.1H184.23c.89,0,1.79,0,2.68,0,.72,0,1.46-.14,1.71-1a1.65,1.65,0,0,0-.51-1.71c-.88-.89-1.77-1.77-2.68-2.62Q162.1,23.16,138.8,1.42A5.14,5.14,0,0,0,135,0Q98.1.06,61.27,0a5.4,5.4,0,0,0-4,1.62C50.36,8.12,43.42,14.55,36.49,21Q23.44,33.13,10.38,45.22A20,20,0,0,0,7.8,47.93,1.3,1.3,0,0,0,8.74,50.12ZM74.56,20.43a4,4,0,0,1,3.93-4c.53-.05,1.07,0,1.6,0h36.17a10,10,0,0,1,2.39.18,4,4,0,0,1,3,3.94c.09,1.51,0,3,0,4.55,0,1.33-.62,1.67-1.81,1.66-3.75,0-7.5,0-11.26,0H76c-1,0-1.45-.51-1.44-1.5C74.56,23.64,74.47,22,74.56,20.43Z"/><path class="cls-1" d="M8.91,41.92Q27.27,24.85,45.6,7.61l-.36-.56a7.14,7.14,0,0,0-1-.14c-7.32,0-14.64,0-21.95,0a18.16,18.16,0,0,0-4.74.74c-6,1.64-9.72,6.26-9.7,12.49,0,6.51.19,13,.33,19.54C8.17,40.36,7.92,41.13,8.91,41.92Z"/><path class="cls-1" d="M188,41c.15-7,.33-13.91.39-20.88a12,12,0,0,0-3.92-9.34A15,15,0,0,0,174.2,7c-7.4-.1-14.81,0-22.22,0a1.11,1.11,0,0,0-1.3.75c12.12,11.43,24.38,22.87,36.91,34.5A5.51,5.51,0,0,0,188,41Z"/></g></g></svg>