<svg xmlns="http://www.w3.org/2000/svg" viewBox="0 0 174.54 200"><defs><style>.cls-1{fill:#251e20;}.cls-2{fill:#fdfdfd;}.cls-3{fill:#e2183f;}</style></defs><g id="Layer_2" data-name="Layer 2"><g id="Layer_1-2" data-name="Layer 1"><path class="cls-1" d="M173.7,127c-1.2-4.54-3-8.72-7.1-11.4a13.7,13.7,0,0,0-8.29-2.5c-.87-28.25-23.34-50.63-51.62-54.39a9.08,9.08,0,0,1,.7-3.14c1.13-2.91,3.15-5.26,5-7.76s3.82-5,4.62-8.16c.6-2.32.12-4.06-1.34-5.09a5.25,5.25,0,0,0-5.46,0c-3.42,1.9-5.72,4.83-7.64,8.11a27.44,27.44,0,0,0-3.67,12c-.25,3.48-.24,3.42-3.66,3.44a1.55,1.55,0,0,1-1.83-1.41c-.83-3.14-1.81-6.25-2.74-9.36a1.43,1.43,0,0,1,.72-1.89,36.42,36.42,0,0,0,10.48-9.61c5.19-7.48,5.74-15.34,2-23.58a26,26,0,0,0-3.16-4.71c-2.13-2.82-5.16-4.38-8.3-5.85C90.46.84,88.45.65,86.54,0H80.36c-.9,1.05-2.15.32-3.25.62A54,54,0,0,0,62.39,7,59.24,59.24,0,0,0,48.66,19.12a49.43,49.43,0,0,0-8.38,15,2,2,0,0,1-1.78,1.63,80.7,80.7,0,0,0-14.8,3.91,56.58,56.58,0,0,0-13,6.59C5.6,49.87,1.75,54.43.33,60.73c0,.14-.21.24-.33.36v6.55c.62.91.56,2,.87,3A18.33,18.33,0,0,0,10.6,82.11c6.79,3.37,13.81,4.38,21,1.09,2.32-1.07,2.85-.93,4.72.83,1.4,1.32,2.1,2.39.5,4a10.61,10.61,0,0,0-1.57,2.44c-5.64,10.4-8.95,21.34-8,33.35a61,61,0,0,0,3,15.16c.7,2.06,1,3.2-1.08,4.95-5.34,4.55-7.34,10.56-6.36,17.66a29.73,29.73,0,0,0,8.69,17.3,42.94,42.94,0,0,0,9.25,6.68,68.36,68.36,0,0,0,14.91,6.07,121.33,121.33,0,0,0,20.25,3.83c7.61.91,15.24,1.63,22.87,2.32a60,60,0,0,1,11,2.19h8c2-.46,3.92-.85,5.85-1.39,6.15-1.71,11.49-4.75,15.19-10.08a26,26,0,0,1,5.14-6.1,33.43,33.43,0,0,0,3.23-2.54c3.38-3.36,7.38-6,10.23-10,1.38-1.91,3.31-3.43,4.77-5.34,5.75-7.59,10.51-15.66,12-25.27,0-.14.21-.25.32-.37v-8C173.71,129.74,174,128.32,173.7,127ZM31.76,75.71c-3.37-2.8-6.94-5.4-11.61-6.69.64,1.44,1.85,1.88,2.73,2.65q4.32,3.77,8.75,7.42c1.1.9.63,1.2-.33,1.64a19.38,19.38,0,0,1-7.54,1.66,22.37,22.37,0,0,1-12.9-3.27A16.5,16.5,0,0,1,3.26,68,17.87,17.87,0,0,1,6.81,53.26a24.68,24.68,0,0,1,7-6c7.61-4.64,16-7.09,24.76-9-.1,2-1.1,3.65-1.33,5.52-.07.57-.62,1.41.3,1.63s1.14-.62,1.39-1.34a87,87,0,0,1,8.21-18,54.25,54.25,0,0,1,5.13-7,59.82,59.82,0,0,1,6.11-5.89A50,50,0,0,1,70,6a32.77,32.77,0,0,1,13.26-3A19.87,19.87,0,0,1,92.1,4.52,19.81,19.81,0,0,1,102,29.73,29.63,29.63,0,0,1,89.64,43.18c-1.13-4-1.71-8-2.63-11.94-.11-.48.21-1.37-.44-1.35s-.74.9-.77,1.57a47.6,47.6,0,0,0,.9,11c1,5,2.38,9.81,3.59,14.72.14.57.81,1.35-.5,1.38-5.86.12-11.4,1.79-16.93,3.44-1.23.37-1.4,0-1.62-1.06a40,40,0,0,1-.14-11,24.23,24.23,0,0,0-.52-8.82c-1.14-3.88-4.9-4.88-7.92-2.16A9.68,9.68,0,0,0,60,44.11c-1.73,7.08-.46,13.76,2.73,20.16.64,1.28.73,1.75-.86,2.52a58.57,58.57,0,0,0-14.25,9.14,59.67,59.67,0,0,0-6.71,6.78c-.52.67-.93.8-1.55.1A66.83,66.83,0,0,0,31.76,75.71Zm137.55,71.55A51.16,51.16,0,0,1,163.07,159,94.49,94.49,0,0,1,150,173.89a68.2,68.2,0,0,1-7.4,6.21v-3.32c-1.11.19-1.18,1.1-1.37,1.76a25.37,25.37,0,0,1-9.4,13.25,26.68,26.68,0,0,1-13.64,5c-6.64.71-12.78-.82-18.86-3.24-1.79-.71-3.42-1.78-5.31-2.22-.36-.09-.84-.44-1.11.14-.19.4.13.69.39.93.83.78,1.7,1.52,2.65,2.37-2.23.5-4.39-.19-6.5-.32-4.83-.31-9.63-1.12-14.44-1.8a147.05,147.05,0,0,1-25.44-5.69c-2.54-.84-4.82-2.18-7.24-3.21-2.26-1-4.06-3-6.13-4.4-6-4.24-9.2-10.43-10.52-17.31-1-5.22-.22-10.53,3.7-14.88a20.13,20.13,0,0,1,14.88-6.74,56.4,56.4,0,0,1,12,1.13,1.79,1.79,0,0,0-.2-.86,1.59,1.59,0,0,0-.13-.22l-.14-.21-.18-.27,0-.08-.1-.17a.54.54,0,0,0,0-.11.39.39,0,0,1-.08.1l-.08.09a.64.64,0,0,1-.17.13h0l-.17.07c-.45.11-.91-.27-1.28-.39-6.35-2.05-12.61-2.09-18.78.63-1,.46-1.4-.07-1.71-.93a55.11,55.11,0,0,1-2.78-27.17,58.73,58.73,0,0,1,5.7-16.83A58.3,58.3,0,0,1,46.24,80.76,55.32,55.32,0,0,1,63.53,68.63a1.47,1.47,0,0,1,2.06.4c.67.86,1.35,1.7,2,2.56a6.07,6.07,0,0,0,2.78,2.16,4.44,4.44,0,0,0-1.31-2.68C64,64.14,61,56.51,61.49,47.75c.16-2.59.48-5.18,2.85-6.9a2.34,2.34,0,0,1,3.74.93,10.18,10.18,0,0,1,.74,4.63c-.12,3.68-.41,7.38-.37,11.06.07,5.15,2.32,9.44,5.75,13.17a1,1,0,0,0,1.19.47c-.09-1.77-1.34-3-2-4.53-.92-2-.94-1.93,1.07-2.59a83.92,83.92,0,0,1,14.9-3c2.5-.34,5.11-.93,7.77-.63,1.37.16,2,.45,1.86,1.88s-.2,2.67,1,3.73c.63-.72.37-1.54.38-2.29.11-4.17-.29-8.38.8-12.48A27.45,27.45,0,0,1,108.62,38a5.85,5.85,0,0,1,3.88-1.77c1.79-.06,2.55.71,2.44,2.53a6.77,6.77,0,0,1-1.32,3.34c-2.07,3.12-4.24,6.18-6.28,9.34-2.61,4-3.16,8.56-2.75,13.25a2.24,2.24,0,0,0,.75,1.9,7.77,7.77,0,0,0,.5-3.88c0-1.23.28-1.7,1.68-1.48,13.87,2.15,25.76,8.08,35.09,18.65a51.73,51.73,0,0,1,12.69,28.22c0,.18,0,.36,0,.54.52,4.09.51,4.06-3.2,5.56-.88.36-2.1.41-2.32,1.71a31.27,31.27,0,0,0,3.89-.81c8.07-1.36,14.47,2.56,16.76,10.78A34.29,34.29,0,0,1,169.31,147.26Z"/><path class="cls-2" d="M170.48,125.92c-2.29-8.22-8.69-12.14-16.76-10.78a31.27,31.27,0,0,1-3.89.81c-.81.33-1.11.15-1.14-.81A44.36,44.36,0,0,0,145,98.59a40.37,40.37,0,0,0-14.28-17c-7.89-4.72-18.69-3.06-24,3.14-4,4.71-5.51,10.18-5.68,16.17,0,1.43,0,2.86,0,4.32-.92,0-1-.68-1.23-1.08a27.33,27.33,0,0,0-6.14-7.71c-9.73-8.7-23.06-13-36-1.32-4.54,4.08-6.53,9.5-7.47,15.33-1.54,9.65.52,18.75,4.52,27.52.25.54.45,1.11.68,1.67h0a.54.54,0,0,1,0,.11l.1.17,0,.08.18.27.14.21a1.59,1.59,0,0,1,.13.22,1.79,1.79,0,0,1,.2.86,56.4,56.4,0,0,0-12-1.13,20.13,20.13,0,0,0-14.88,6.74c-3.92,4.35-4.69,9.66-3.7,14.88,1.32,6.88,4.48,13.07,10.52,17.31,2.07,1.44,3.87,3.44,6.13,4.4,2.42,1,4.7,2.37,7.24,3.21A147.05,147.05,0,0,0,75,192.61c4.81.68,9.61,1.49,14.44,1.8,2.11.13,4.27.82,6.5.32-1-.85-1.82-1.59-2.65-2.37-.26-.24-.58-.53-.39-.93.27-.58.75-.23,1.11-.14,1.89.44,3.52,1.51,5.31,2.22,6.08,2.42,12.22,4,18.86,3.24a26.68,26.68,0,0,0,13.64-5,25.37,25.37,0,0,0,9.4-13.25c.19-.66.26-1.57,1.37-1.76v3.32a68.2,68.2,0,0,0,7.4-6.21A94.49,94.49,0,0,0,163.07,159a51.16,51.16,0,0,0,6.24-11.74A34.29,34.29,0,0,0,170.48,125.92ZM116,90a11.51,11.51,0,0,1,5.51-1.84,11.83,11.83,0,0,1,6.63.8,21.62,21.62,0,0,1,10.22,9.58,39,39,0,0,1,4.75,12.93c.27,1.61.38,3.24.58,4.86,0,.42-.23,1,.56,1.1,1.5.25.81.64.09,1.2a39.11,39.11,0,0,1-7.86,4.33c-3.65,1.66-7.12,3.72-10.91,5.1-1.41.5-2.38,1.73-3.75,2.38s-2.2.45-3-.76a47.63,47.63,0,0,1-4.48-8.28,49.51,49.51,0,0,1-4.15-16.87C110.12,98.12,111.41,93.32,116,90Zm-11.34,55c1.7,0,3.21.85,4.86,1,2.84.32,5.57,0,7.89-1.79,1.86-1.44,2.12-2.69,1.31-4.85,1.68.64,2.49,2.8,1.88,4.85a6,6,0,0,1-4.38,4,11.69,11.69,0,0,1-10.37-1.37C105.19,146.42,104.41,146,104.62,145Zm-41.5-4.55c-.62.08-.6-.5-.8-.82-.29-.47.12-.66.46-.74,1.3-.3.94-1,.52-1.8-3.23-6.43-5.38-13.15-5.11-20.45A21.88,21.88,0,0,1,61,106.31a17.3,17.3,0,0,1,8.17-7.16A15.11,15.11,0,0,1,84.93,102a30.11,30.11,0,0,1,5.81,6.37,29.69,29.69,0,0,1,4.12,10.08,69.25,69.25,0,0,1,1.42,13.15c-.08,1.45-.25,3.27-.24,5.08,0,1.25-.51,1.47-1.65,1.48-5.26,0-10.53-.11-15.79.37-4.58.42-9.14,1-13.68,1.68C64.33,140.29,63.72,140.36,63.12,140.44Zm65.66,35c-1.5,1.76-2.9,3.69-5.1,4.65a18.76,18.76,0,0,1-9.55,1.78c-3.38-.34-7.47-2.12-9.5-4.76,2.83.83,5.39,1.67,8,2.42a12.71,12.71,0,0,0,8.2-.39,16.25,16.25,0,0,0,6.53-4,3.2,3.2,0,0,1,.67-.6c.3-.21.72-.42,1-.19S129.07,175.09,128.78,175.42Zm17.53-37a10.85,10.85,0,0,0-3.49,3.14,85.42,85.42,0,0,0-11.22,20,39.73,39.73,0,0,1-2.53,5c-4.13,7.21-11.22,9.49-18.76,7.25-3.71-1.1-6.84-3.31-10.16-5.18A78.31,78.31,0,0,0,88,162.9c-2.56-.9-5.09-1.87-7.63-2.81-2.92-1.09-5.82-1.66-9-.62a9.21,9.21,0,0,1-5.31-.22c2.13-.93,4.37-1.32,6.41-2.39s3-3.21,5-4.3a2.53,2.53,0,0,1-.26,2.42c-.91,1.43-.14,1.76,1,2.13a57.44,57.44,0,0,0,12.34,2.12c12.49,1.17,24.65.23,36.11-5.54a42.26,42.26,0,0,0,13.74-11.56,10.22,10.22,0,0,0,1.15-2.72c-1.28-.56-2.9-.6-3.58-2.4,2.45-.08,4.85.37,7.18-.27.11,0,.24,0,.36,0,1-.2,2.58-1.08,2.91-.21C148.93,137.52,147.18,137.9,146.31,138.37Z"/><path class="cls-2" d="M20.15,69c.63,1.44,1.85,1.88,2.73,2.65q4.32,3.77,8.75,7.42c1.1.9.63,1.2-.33,1.65a19.73,19.73,0,0,1-7.54,1.65,22.37,22.37,0,0,1-12.9-3.27A16.5,16.5,0,0,1,3.26,68,17.87,17.87,0,0,1,6.81,53.26a24.68,24.68,0,0,1,7-6c7.61-4.64,16-7.09,24.76-9-.1,1.94-1.1,3.64-1.33,5.51-.07.58-.63,1.41.3,1.63s1.14-.62,1.39-1.34a87,87,0,0,1,8.21-18,54.25,54.25,0,0,1,5.13-7,59.82,59.82,0,0,1,6.11-5.89A50,50,0,0,1,70,6a32.77,32.77,0,0,1,13.26-3A19.21,19.21,0,0,1,102,29.73,29.63,29.63,0,0,1,89.64,43.18c-1.13-4-1.71-8-2.63-11.94-.11-.48.21-1.37-.44-1.35s-.74.9-.77,1.56a47.09,47.09,0,0,0,.9,11c1,5,2.38,9.82,3.59,14.72.13.57.81,1.36-.5,1.38-5.86.12-11.4,1.79-16.94,3.44-1.22.37-1.4,0-1.6-1.06-.74-3.68-.44-7.36-.15-11a24.23,24.23,0,0,0-.52-8.82c-1.14-3.88-4.9-4.88-7.92-2.16A9.67,9.67,0,0,0,60,44.12c-1.73,7.07-.46,13.75,2.73,20.15.64,1.28.73,1.76-.86,2.52a58.57,58.57,0,0,0-14.25,9.14,59.67,59.67,0,0,0-6.71,6.78c-.52.67-.93.8-1.55.1a66.83,66.83,0,0,0-7.57-7.1C28.39,72.91,24.82,70.31,20.15,69Z"/><path class="cls-3" d="M149.83,116c-.81.32-1.11.14-1.13-.82A44.76,44.76,0,0,0,145,98.59a40.37,40.37,0,0,0-14.28-17c-7.89-4.72-18.69-3.06-24,3.14-4,4.71-5.51,10.18-5.68,16.17,0,1.43,0,2.86,0,4.32-.93,0-1-.68-1.24-1.08a27.33,27.33,0,0,0-6.14-7.71c-9.73-8.7-23.06-13-36-1.32-4.54,4.08-6.53,9.5-7.47,15.33-1.54,9.65.52,18.75,4.52,27.52.25.54.46,1.11.68,1.67-.58.84-1.27.16-1.78,0-6.35-2.05-12.61-2.09-18.78.63-1,.46-1.4-.07-1.71-.93a55,55,0,0,1-2.77-27.17,58.41,58.41,0,0,1,5.69-16.83A58.12,58.12,0,0,1,46.24,80.76,55.32,55.32,0,0,1,63.53,68.63a1.47,1.47,0,0,1,2.06.4c.67.86,1.35,1.71,2,2.56a6.07,6.07,0,0,0,2.78,2.16,4.41,4.41,0,0,0-1.31-2.68C64,64.14,61,56.51,61.49,47.75c.16-2.59.48-5.18,2.85-6.9a2.34,2.34,0,0,1,3.74.93,10.18,10.18,0,0,1,.74,4.63c-.12,3.69-.41,7.38-.37,11.06.07,5.15,2.32,9.44,5.75,13.17a1,1,0,0,0,1.19.47c-.09-1.77-1.35-3-2-4.53-.92-2-.94-1.93,1.07-2.59a83.74,83.74,0,0,1,14.9-3c2.5-.34,5.11-.93,7.77-.63,1.38.16,1.94.45,1.86,1.88s-.2,2.67,1,3.73c.63-.72.37-1.54.38-2.29.11-4.17-.29-8.38.8-12.48A27.37,27.37,0,0,1,108.62,38a5.78,5.78,0,0,1,3.88-1.77c1.79-.06,2.54.71,2.44,2.53a6.74,6.74,0,0,1-1.32,3.34c-2.07,3.12-4.24,6.18-6.28,9.34-2.61,4-3.16,8.56-2.75,13.25a2.24,2.24,0,0,0,.75,1.9,7.77,7.77,0,0,0,.5-3.88c0-1.23.28-1.7,1.68-1.48,13.87,2.15,25.76,8.08,35.09,18.65a51.73,51.73,0,0,1,12.69,28.22c0,.18,0,.36.06.54.51,4.09.5,4.06-3.21,5.56C151.27,114.6,150.05,114.65,149.83,116Z"/><path class="cls-1" d="M94.86,118.44a29.69,29.69,0,0,0-4.12-10.08A30.11,30.11,0,0,0,84.93,102,15.11,15.11,0,0,0,69.2,99.15,17.3,17.3,0,0,0,61,106.31a21.88,21.88,0,0,0-2.84,10.32c-.27,7.3,1.88,14,5.11,20.45.42.84.78,1.5-.52,1.8-.34.08-.75.27-.46.74.2.32.18.9.8.82s1.21-.15,1.8-.24c4.54-.69,9.1-1.26,13.68-1.68,5.26-.48,10.53-.32,15.79-.37,1.14,0,1.65-.23,1.65-1.48,0-1.81.16-3.63.24-5.08A69.25,69.25,0,0,0,94.86,118.44Zm-1,16.38c0,.91-.26,1.26-1.23,1.23-1.69-.07-3.39,0-5.08.06-1.17.06-1.45-.41-1.23-1.49a21.86,21.86,0,0,0-1.27-12.41c-.62-1.59-1.57-1.78-3.06-.82-1.72,1.11-3.46,2.17-5.45,3.41a44.71,44.71,0,0,1,3.16-7.87c.62-1.19.36-1.78-.71-2.38-3.74-2.09-7.62-2.88-11.42-.53a13.13,13.13,0,0,0-6.34,9.4,23.52,23.52,0,0,1,.05-11.31c1.22-4.41,3.67-8,7.44-10.13a12.42,12.42,0,0,1,12.75.43c6,3.57,9.09,9.14,10.81,15.64A56,56,0,0,1,93.86,134.82Z"/><path class="cls-1" d="M144.21,117.41c-.79-.13-.51-.68-.56-1.1-.2-1.62-.31-3.25-.58-4.86a39,39,0,0,0-4.75-12.93,21.62,21.62,0,0,0-10.22-9.58,11.83,11.83,0,0,0-6.63-.8A11.51,11.51,0,0,0,116,90c-4.55,3.34-5.84,8.14-5.82,14.53a49.51,49.51,0,0,0,4.15,16.87,47.63,47.63,0,0,0,4.48,8.28c.81,1.21,1.66,1.39,3,.76s2.34-1.88,3.75-2.38c3.79-1.38,7.26-3.44,10.91-5.1a39.11,39.11,0,0,0,7.86-4.33C145,118.05,145.71,117.66,144.21,117.41ZM140.29,119c-.27.05-.46.38-.72.53-2.35,1.36-2.53,1.24-2.89-1.41a24.93,24.93,0,0,0-2.43-8.08c-1-2-1.22-2.07-3.14-.87-1.47.92-2.89,1.91-4.33,2.88l-.34-.24c1-2.18,1.88-4.37,2.91-6.51.42-.88.34-1.4-.52-1.88a12.29,12.29,0,0,0-6.26-1.42c-3.78,0-5.85,2-7.8,4.55-.91,1.2-1.06,2.79-1.61,4.21-1-5.81-1.91-11.63,1.85-16.9a8.35,8.35,0,0,1,5.54-3.49,12.26,12.26,0,0,1,8.55,1.46,21.64,21.64,0,0,1,7.45,8.13,39.56,39.56,0,0,1,5,16.59C141.71,117.69,141.71,118.64,140.29,119Z"/><path class="cls-1" d="M148.54,136.49c-.33-.87-1.9,0-2.91.21-.12,0-.25,0-.36,0-2.33.64-4.73.19-7.18.27.68,1.8,2.3,1.84,3.58,2.4a10.22,10.22,0,0,1-1.15,2.72,42.26,42.26,0,0,1-13.74,11.56c-11.46,5.77-23.62,6.71-36.11,5.54a57.44,57.44,0,0,1-12.34-2.12c-1.16-.37-1.93-.7-1-2.13a2.53,2.53,0,0,0,.26-2.42c-2,1.09-3,3.25-5,4.3s-4.28,1.46-6.41,2.39a9.21,9.21,0,0,0,5.31.22c3.14-1,6-.47,9,.62,2.54.94,5.07,1.91,7.63,2.81a78.31,78.31,0,0,1,12.14,5.64c3.32,1.87,6.45,4.08,10.16,5.18,7.54,2.24,14.63,0,18.76-7.25a39.73,39.73,0,0,0,2.53-5,85.42,85.42,0,0,1,11.22-20,10.85,10.85,0,0,1,3.49-3.14C147.18,137.9,148.93,137.52,148.54,136.49Zm-20.8,27.83A13.73,13.73,0,0,1,113.06,172a24.82,24.82,0,0,1-9.8-4.07c-1.28-.84-.87-1.25.18-1.77,4.68-2.3,9.44-2.84,14.32-.69.28.12.57.21.85.3,0,0,.09-.07.15-.1-1-2.54-1-2.44,1.82-3.58,2.21-.9,4.25-.46,6.36.21C128.13,162.63,128.23,163.3,127.74,164.32Z"/><path class="cls-1" d="M104.63,177.09c2.83.83,5.39,1.67,8,2.42a12.71,12.71,0,0,0,8.2-.39,16.25,16.25,0,0,0,6.53-4,3.47,3.47,0,0,1,.67-.6c.3-.21.72-.42,1-.18s.1.78-.19,1.11c-1.5,1.76-2.9,3.69-5.1,4.65a18.78,18.78,0,0,1-9.56,1.78C110.75,181.51,106.66,179.73,104.63,177.09Z"/><path class="cls-1" d="M104.62,145c1.7,0,3.21.85,4.86,1,2.84.32,5.57,0,7.89-1.79,1.85-1.44,2.12-2.69,1.31-4.85,1.68.64,2.5,2.8,1.88,4.85a6,6,0,0,1-4.38,4,11.69,11.69,0,0,1-10.37-1.37C105.19,146.42,104.4,146,104.62,145Z"/><path class="cls-2" d="M61.23,123.42a23.4,23.4,0,0,1,.05-11.31c1.22-4.41,3.67-8,7.44-10.13a12.42,12.42,0,0,1,12.75.43c6,3.57,9.09,9.14,10.81,15.64a56.36,56.36,0,0,1,1.58,16.77c0,.91-.26,1.26-1.23,1.22-1.69,0-3.39,0-5.08.07-1.17.06-1.45-.41-1.23-1.49a21.86,21.86,0,0,0-1.27-12.41c-.62-1.59-1.57-1.78-3.06-.82-1.72,1.11-3.46,2.17-5.45,3.41a44.71,44.71,0,0,1,3.16-7.87c.62-1.19.36-1.78-.71-2.38-3.74-2.09-7.62-2.88-11.42-.53A13.13,13.13,0,0,0,61.23,123.42Z"/><path class="cls-2" d="M126.44,111.77c1-2.18,1.88-4.37,2.91-6.51.42-.88.34-1.4-.52-1.88a12.29,12.29,0,0,0-6.26-1.42c-3.78,0-5.85,2-7.8,4.55-.91,1.2-1.06,2.79-1.6,4.21-1-5.81-1.92-11.63,1.84-16.91a8.37,8.37,0,0,1,5.54-3.48,12.26,12.26,0,0,1,8.55,1.46,21.64,21.64,0,0,1,7.45,8.13,39.56,39.56,0,0,1,5,16.59c.11,1.18.11,2.13-1.31,2.45-.27.05-.46.38-.72.53-2.35,1.36-2.53,1.25-2.89-1.41a25,25,0,0,0-2.43-8.08c-1-2-1.22-2.08-3.14-.87-1.47.92-2.89,1.92-4.33,2.88Z"/><path class="cls-3" d="M118.76,165.63c-1-2.54-1-2.44,1.82-3.58,2.21-.9,4.25-.46,6.36.2,1.19.38,1.29,1.05.8,2.07A13.73,13.73,0,0,1,113.06,172a24.82,24.82,0,0,1-9.8-4.07c-1.28-.84-.87-1.25.18-1.77,4.68-2.3,9.44-2.84,14.32-.69.28.12.57.21.85.3C118.65,165.74,118.71,165.66,118.76,165.63Z"/></g></g></svg>