<svg xmlns="http://www.w3.org/2000/svg" viewBox="0 0 1048.19 224.32"><defs><style>.cls-1{fill:#fff;}.cls-2{fill:#251e20;}.cls-3{fill:#fdfdfd;}.cls-4{fill:#e2183f;}</style></defs><g id="Layer_2" data-name="Layer 2"><g id="Layer_1-2" data-name="Layer 1"><path class="cls-1" d="M742.7,98.73c-1.74.61-2.21.44-2.18-1.5.08-7.93.15-15.88,0-23.82-.25-12.66-10.6-20.85-23-18.31C708.67,56.93,703,64,703,73.49c-.06,19,0,37.9,0,56.85s0,38.19,0,57.28c0,8.58,5.18,15.48,13.3,17.65a20,20,0,0,0,16.56-2.49,2.58,2.58,0,0,1,2.94-.24,57.23,57.23,0,0,0,34.36,5.6c31.39-4.35,53.46-35.34,47.31-66.47A56.71,56.71,0,0,0,742.7,98.73Zm19.16,73.53a19.68,19.68,0,1,1,19.69-19.59A19.67,19.67,0,0,1,761.86,172.26Z"/><path class="cls-1" d="M471.46,95.53a56.63,56.63,0,1,0,56.42,56.72A56.47,56.47,0,0,0,471.46,95.53Zm-.51,76.7a19.67,19.67,0,1,1,20.1-19.57A19.66,19.66,0,0,1,471,172.23Z"/><path class="cls-1" d="M403.62,74.12c0-5.16-1.29-10-5-13.83-5.28-5.45-14.06-7.15-21.48-4.14-6.8,2.76-11.07,9.28-11.07,17.07q-.06,39.8,0,79.59a15.66,15.66,0,0,1-5.09,11.88c-8.57,8.11-23.21,6.26-29.53-3.7a34.26,34.26,0,0,1-3.47-7.74,99.64,99.64,0,0,0-3.48-10.11c-2-4.36-4.82-7.73-9.64-9.16a17.84,17.84,0,0,0-22.24,10.84A29.11,29.11,0,0,0,291.39,161C296.27,187.4,321.47,213.52,356,208c16.67-2.67,30.17-10.75,39.61-25,6-9.07,8-19.27,8-29.95.06-12.68,0-25.37,0-38.06C403.64,101.38,403.69,87.75,403.62,74.12Z"/><path class="cls-1" d="M1038.65,117.38c-10.79-15.31-26.09-21.81-44.47-21.41-12.67.26-24.1,4.38-33.45,13.06-14.54,13.49-20.42,30.46-18,50s12.39,34.29,30,43.46c12.81,6.68,26.55,7.67,40.64,5.44,7.58-1.21,14.71-3.54,21-8,4.41-3.15,7.34-7.33,8-12.74,1.17-8.76-6.1-15.68-15.19-14.64-3.35.39-6.46,1.68-9.68,2.61-7.65,2.21-15.35,3.49-23.25,1.48-6-1.53-11.35-4.13-14.44-10-.83-1.58-.81-2.21,1.29-2.18,8.74.09,17.49,0,26.24,0v-.08c8.82,0,17.65.13,26.46,0,8.19-.16,13.93-5.09,14.3-12.18C1048.77,139.53,1046,127.75,1038.65,117.38Zm-26,21.49c-5.39-.09-10.77,0-16.15,0s-10.63-.05-15.93,0c-1.8,0-2.34-.34-1.66-2.21,2.41-6.82,10.24-12.25,17.79-12.18,7.72,0,15.12,5.27,17.48,12.24C1014.71,138.34,1014.44,138.9,1012.63,138.87Z"/><path class="cls-1" d="M882.35,96c-16.37-.49-30.54,5-41.37,17.62-11.61,13.53-16.06,29.43-13.32,47,3,19.15,13.13,33.54,30.61,42.3,11.63,5.82,24.08,7,36.86,5.44,7.88-1,15.42-3,22.23-7.27a20.73,20.73,0,0,0,8.39-9.24c2.08-4.74,2.56-9.54-.75-13.88s-8.08-6.05-13.54-5.33c-4.35.56-8.39,2.37-12.62,3.42-8.41,2.07-16.73,2.32-24.86-1.14-4-1.7-7.33-4.19-9.35-8.16-1.07-2.13-1-2.29,1.32-2.29h26.24v0h12.69c4.3,0,8.6.06,12.9,0,10.21-.25,15.34-5.59,15.23-15.81,0-1.6-.16-3.2-.29-4.79C930.23,116,910.15,96.8,882.35,96Zm15.4,42.89c-5.53-.06-11.08,0-16.61,0H865.39c-2.43,0-2.49-.08-1.61-2.44,4.48-12.14,20.59-15.8,30.28-6.88a18,18,0,0,1,5,7.59C899.51,138.47,899.22,138.87,897.75,138.86Z"/><path class="cls-1" d="M631.25,118.86q0-22.64,0-45.27c0-5-1.4-9.63-5-13.35-5.26-5.44-14-7.07-21.5-4.07-6.64,2.65-11,9.34-11,17.13q-.06,56.52,0,113.06a31.89,31.89,0,0,0,.31,4.13,17.8,17.8,0,0,0,16.72,15.45c9.9.61,17.42-4.45,19.8-13.24a28.9,28.9,0,0,0,.78-7.58q0-27.45,0-54.89Z"/><path class="cls-1" d="M562.23,55c-9.85-1.53-18.43,3.28-21.3,11.93a27,27,0,0,0-1.09,8.42c0,7.94,0,15.89,0,23.82q0,43.74,0,87.47c0,5.09,1.28,9.82,4.92,13.63,5.27,5.54,14,7.3,21.41,4.33,7-2.79,11.2-9.15,11.2-17.15q0-28.56,0-57.08c0-19.23,0-38.49,0-57.73A17.68,17.68,0,0,0,562.23,55Z"/><path class="cls-1" d="M667.25,96.48c-10.8.11-18.41,7.66-18.47,18.48,0,12,0,24,0,36.06h-.1q0,18,0,36.07a20.24,20.24,0,0,0,1.63,8.29c3.35,7.66,12.14,12,20.86,10.36,9.11-1.74,15-8.64,15-18.24q.16-36.41,0-72.78C686.16,103.85,678.17,96.37,667.25,96.48Z"/><path class="cls-1" d="M667.23,33.13A21.62,21.62,0,1,0,688.66,54.8,21.53,21.53,0,0,0,667.23,33.13Z"/><path class="cls-2" d="M194.82,142.48c-1.34-5.08-3.35-9.77-8-12.78a15.4,15.4,0,0,0-9.3-2.8c-1-31.69-26.17-56.79-57.9-61a10.31,10.31,0,0,1,.79-3.52c1.27-3.27,3.53-5.9,5.55-8.7s4.28-5.64,5.19-9.15c.67-2.61.13-4.56-1.51-5.71a5.9,5.9,0,0,0-6.12,0c-3.84,2.13-6.42,5.43-8.57,9.1a30.72,30.72,0,0,0-4.12,13.46c-.28,3.9-.27,3.84-4.11,3.86a1.74,1.74,0,0,1-2.05-1.58c-.93-3.53-2-7-3.07-10.5a1.6,1.6,0,0,1,.81-2.12A40.7,40.7,0,0,0,114.2,40.22c5.82-8.39,6.43-17.2,2.23-26.44a28.73,28.73,0,0,0-3.54-5.29c-2.39-3.17-5.79-4.92-9.31-6.56C101.46.94,99.21.73,97.07,0H90.14c-1,1.18-2.42.36-3.65.7A60.59,60.59,0,0,0,70,7.9a66.13,66.13,0,0,0-15.4,13.55,55.14,55.14,0,0,0-9.4,16.78,2.26,2.26,0,0,1-2,1.82,89.85,89.85,0,0,0-16.6,4.39A63.35,63.35,0,0,0,12,51.83C6.28,55.94,2,61.05.38,68.12c0,.15-.25.27-.38.4v7.34c.7,1,.63,2.28,1,3.42A20.47,20.47,0,0,0,11.89,92.09C19.5,95.87,27.38,97,35.41,93.32c2.61-1.2,3.21-1,5.3.92,1.58,1.49,2.36,2.69.56,4.52a12,12,0,0,0-1.75,2.73c-6.33,11.67-10,23.94-9,37.41a68.27,68.27,0,0,0,3.39,17c.79,2.3,1.1,3.59-1.21,5.55-6,5.1-8.24,11.84-7.13,19.8a33.22,33.22,0,0,0,9.74,19.4,47.64,47.64,0,0,0,10.37,7.5A76.67,76.67,0,0,0,62.4,215a137.35,137.35,0,0,0,22.71,4.29c8.54,1,17.1,1.83,25.66,2.61a66.22,66.22,0,0,1,12.4,2.45h9c2.19-.51,4.4-.95,6.56-1.55,6.9-1.92,12.89-5.34,17-11.31,1.73-2.48,3.35-5,5.77-6.85a38.57,38.57,0,0,0,3.63-2.85c3.79-3.76,8.27-6.78,11.47-11.21,1.54-2.14,3.72-3.84,5.34-6,6.46-8.52,11.79-17.56,13.46-28.35,0-.15.23-.28.35-.41v-9C194.84,145.51,195.2,143.92,194.82,142.48ZM35.62,84.92c-3.78-3.14-7.78-6.06-13-7.51.71,1.62,2.07,2.11,3.06,3,3.23,2.82,6.5,5.61,9.82,8.32,1.23,1,.7,1.35-.37,1.85a21.87,21.87,0,0,1-8.46,1.86,25,25,0,0,1-14.47-3.67A18.49,18.49,0,0,1,3.66,76.21a20,20,0,0,1,4-16.48A27.67,27.67,0,0,1,15.51,53C24,47.78,33.45,45,43.29,42.92,43.17,45.1,42,47,41.79,49.1c-.08.65-.7,1.59.34,1.83s1.28-.69,1.56-1.5a98,98,0,0,1,9.2-20.15,61.73,61.73,0,0,1,5.76-7.9,69.14,69.14,0,0,1,6.85-6.6,56.38,56.38,0,0,1,13-8.11A36.94,36.94,0,0,1,93.39,3.28a21.56,21.56,0,0,1,21,30.06,33.24,33.24,0,0,1-13.87,15.09c-1.27-4.43-1.92-9-3-13.39-.13-.54.23-1.54-.5-1.52s-.83,1-.86,1.76a53.56,53.56,0,0,0,1,12.31c1.08,5.57,2.68,11,4,16.51.15.63.91,1.52-.57,1.55-6.56.13-12.78,2-19,3.86-1.37.41-1.57,0-1.8-1.19-.83-4.13-.48-8.26-.17-12.38a26.82,26.82,0,0,0-.58-9.9c-1.27-4.35-5.49-5.48-8.89-2.42a10.93,10.93,0,0,0-3,5.86c-1.93,7.93-.51,15.43,3.07,22.61.72,1.43.81,2-1,2.82a67,67,0,0,0-23.5,17.86c-.6.74-1.06.89-1.74.11A77,77,0,0,0,35.62,84.92Zm154.27,80.25a56.81,56.81,0,0,1-7,13.16A106,106,0,0,1,168.24,195a77.68,77.68,0,0,1-8.3,7v-3.72c-1.25.21-1.33,1.23-1.54,2a28.48,28.48,0,0,1-10.54,14.86c-4.37,3.35-9.69,5-15.3,5.57-7.44.8-14.33-.93-21.15-3.64-2-.79-3.84-2-6-2.49-.4-.1-.94-.5-1.24.15-.21.45.15.79.43,1.05.94.87,1.91,1.71,3,2.66-2.5.56-4.92-.21-7.29-.36-5.42-.35-10.81-1.26-16.2-2a164.1,164.1,0,0,1-28.53-6.39c-2.85-.93-5.41-2.44-8.12-3.59-2.53-1.08-4.56-3.32-6.88-4.94-6.77-4.75-10.32-11.69-11.79-19.41-1.12-5.85-.26-11.81,4.14-16.7s10.11-7.28,16.69-7.55a63,63,0,0,1,13.47,1.27,1.88,1.88,0,0,0-.22-1c0-.08-.09-.16-.15-.24l-.15-.24-.21-.3-.05-.09-.11-.19-.06-.13a.94.94,0,0,1-.09.12l-.09.1a1,1,0,0,1-.19.14h0a.64.64,0,0,1-.19.08c-.5.13-1-.31-1.44-.44-7.12-2.29-14.15-2.34-21.07.71-1.17.52-1.56-.07-1.9-1a61.64,61.64,0,0,1-3.12-30.48A70.17,70.17,0,0,1,51.86,90.58,62,62,0,0,1,71.26,77a1.67,1.67,0,0,1,2.31.45c.75,1,1.51,1.92,2.27,2.88A6.88,6.88,0,0,0,79,82.72c0-1.32-.82-2.13-1.47-3C71.73,71.94,68.36,63.38,69,53.56c.18-2.91.53-5.82,3.19-7.75a2.63,2.63,0,0,1,4.2,1,11.38,11.38,0,0,1,.83,5.19c-.13,4.14-.46,8.28-.41,12.41.08,5.77,2.6,10.59,6.44,14.77.31.33.63.74,1.34.52-.1-2-1.51-3.4-2.29-5.07-1-2.21-1.06-2.17,1.2-2.91a95,95,0,0,1,16.71-3.38c2.81-.38,5.74-1,8.71-.7,1.55.18,2.19.5,2.1,2.11-.09,1.45-.23,3,1.07,4.18.71-.81.41-1.73.43-2.57.12-4.67-.33-9.39.89-14a30.68,30.68,0,0,1,8.45-14.75,6.5,6.5,0,0,1,4.35-2c2-.06,2.86.8,2.74,2.83a7.56,7.56,0,0,1-1.48,3.75c-2.33,3.5-4.76,6.94-7,10.48-2.93,4.53-3.55,9.61-3.09,14.86a2.51,2.51,0,0,0,.84,2.13c.76-1.41.55-2.92.56-4.35s.31-1.9,1.89-1.66c15.55,2.42,28.88,9.07,39.35,20.92a58,58,0,0,1,14.24,31.65c0,.2,0,.41.06.61.58,4.59.56,4.55-3.6,6.23-1,.41-2.35.46-2.6,1.93a38.36,38.36,0,0,0,4.36-.91c9.06-1.53,16.23,2.86,18.8,12.08A38.43,38.43,0,0,1,189.89,165.17Z"/><path class="cls-3" d="M191.21,141.23c-2.57-9.22-9.74-13.61-18.8-12.08a38.36,38.36,0,0,1-4.36.91c-.91.36-1.24.15-1.27-.92a50.14,50.14,0,0,0-4.11-18.56,45.12,45.12,0,0,0-16-19.11c-8.85-5.3-21-3.44-26.9,3.52-4.5,5.28-6.17,11.41-6.37,18.13,0,1.61,0,3.21,0,4.85-1,0-1.15-.76-1.39-1.22a30.53,30.53,0,0,0-6.89-8.64c-10.9-9.76-25.86-14.53-40.39-1.47-5.1,4.56-7.33,10.64-8.38,17.18-1.74,10.83.58,21,5.07,30.87.28.61.51,1.24.76,1.87h0l.06.13.11.19.05.09.21.3.15.24c.06.08.1.16.15.24a1.88,1.88,0,0,1,.22,1,63,63,0,0,0-13.47-1.27C43.06,157.72,37.45,160,33,165s-5.26,10.85-4.14,16.7c1.47,7.72,5,14.66,11.79,19.41,2.32,1.62,4.35,3.86,6.88,4.94,2.71,1.15,5.27,2.66,8.12,3.59A164.1,164.1,0,0,0,84.13,216c5.39.76,10.78,1.67,16.2,2,2.37.15,4.79.92,7.29.36-1.07-.95-2-1.79-3-2.66-.28-.26-.64-.6-.43-1.05.3-.65.84-.25,1.24-.15,2.12.5,4,1.7,6,2.49,6.82,2.71,13.71,4.44,21.15,3.64,5.61-.61,10.93-2.22,15.3-5.57a28.48,28.48,0,0,0,10.54-14.86c.21-.74.29-1.76,1.54-2V202a77.68,77.68,0,0,0,8.3-7,106,106,0,0,0,14.66-16.71,56.81,56.81,0,0,0,7-13.16A38.43,38.43,0,0,0,191.21,141.23Zm-61.15-40.31a12.91,12.91,0,0,1,6.18-2.06,13.29,13.29,0,0,1,7.44.89,24.31,24.31,0,0,1,11.46,10.75,44,44,0,0,1,5.33,14.5c.3,1.81.42,3.64.65,5.45,0,.47-.26,1.09.62,1.24,1.69.28.92.72.11,1.34a43.82,43.82,0,0,1-8.82,4.85c-4.1,1.87-8,4.19-12.24,5.72-1.58.58-2.67,2-4.21,2.68s-2.46.51-3.37-.85a54.17,54.17,0,0,1-5-9.3c-2.69-6.43-4.46-13.08-4.65-18.91C123.51,110.05,125,104.67,130.06,100.92Zm-12.72,61.7c1.91,0,3.6.95,5.45,1.16,3.19.36,6.25,0,8.85-2,2.08-1.62,2.38-3,1.47-5.44,1.89.72,2.8,3.14,2.11,5.44-.74,2.49-2.72,3.75-4.92,4.44a13.09,13.09,0,0,1-11.62-1.53C118,164.23,117.1,163.78,117.34,162.62ZM70.8,157.51c-.7.09-.68-.55-.9-.91-.33-.53.13-.74.51-.83,1.46-.33,1.06-1.08.58-2-3.62-7.22-6-14.76-5.72-22.94a24.51,24.51,0,0,1,3.18-11.57,19.44,19.44,0,0,1,9.16-8c5.17-2.29,12.2-1.51,17.65,3.18a34.09,34.09,0,0,1,6.52,7.15,33.37,33.37,0,0,1,4.61,11.31A77.31,77.31,0,0,1,108,147.6c-.09,1.62-.28,3.65-.27,5.69,0,1.4-.58,1.65-1.85,1.66-5.91.05-11.81-.13-17.72.41-5.13.47-10.24,1.12-15.33,1.89C72.15,157.35,71.47,157.42,70.8,157.51Zm73.64,39.24c-1.69,2-3.25,4.14-5.72,5.22A21.09,21.09,0,0,1,128,204c-3.78-.38-8.37-2.37-10.65-5.33,3.17.92,6.05,1.86,8.93,2.71a14.23,14.23,0,0,0,9.19-.44,18.09,18.09,0,0,0,7.33-4.52,3.78,3.78,0,0,1,.76-.68c.33-.23.8-.47,1.09-.2S144.76,196.38,144.44,196.75Zm19.66-41.56a12.35,12.35,0,0,0-3.91,3.52,95.88,95.88,0,0,0-12.59,22.4,45.91,45.91,0,0,1-2.83,5.6c-4.64,8.09-12.59,10.65-21.05,8.14-4.16-1.24-7.67-3.72-11.4-5.82a86.75,86.75,0,0,0-13.61-6.32c-2.87-1-5.71-2.1-8.55-3.16-3.28-1.21-6.54-1.86-10.06-.69a10.21,10.21,0,0,1-5.95-.25c2.39-1,4.9-1.47,7.19-2.67s3.39-3.6,5.67-4.83a2.9,2.9,0,0,1-.3,2.72c-1,1.6-.16,2,1.14,2.38a64.59,64.59,0,0,0,13.84,2.38c14,1.31,27.66.26,40.51-6.21a47.42,47.42,0,0,0,15.41-13,11.77,11.77,0,0,0,1.29-3c-1.44-.63-3.25-.67-4-2.69,2.75-.09,5.44.42,8.05-.3a2.87,2.87,0,0,1,.41-.05c1.13-.22,2.9-1.2,3.26-.23C167,154.25,165.08,154.67,164.1,155.19Z"/><path class="cls-3" d="M22.6,77.41c.71,1.62,2.07,2.11,3.06,3q4.85,4.23,9.82,8.32c1.23,1,.7,1.35-.37,1.85a21.87,21.87,0,0,1-8.46,1.86,25.11,25.11,0,0,1-14.47-3.66A18.53,18.53,0,0,1,3.66,76.21a20,20,0,0,1,4-16.48A27.67,27.67,0,0,1,15.51,53C24,47.78,33.45,45,43.28,42.92,43.17,45.1,42,47,41.79,49.1c-.08.65-.7,1.59.34,1.83s1.28-.69,1.56-1.5a98,98,0,0,1,9.2-20.15,61.73,61.73,0,0,1,5.76-7.9,69.14,69.14,0,0,1,6.85-6.6,56.38,56.38,0,0,1,13-8.11A36.64,36.64,0,0,1,93.39,3.29a21.54,21.54,0,0,1,21,30.05,33.27,33.27,0,0,1-13.86,15.09c-1.28-4.43-1.93-9-3-13.39-.13-.54.23-1.54-.5-1.52s-.83,1-.86,1.76a53.48,53.48,0,0,0,1,12.3c1.08,5.58,2.67,11,4,16.52.16.64.92,1.52-.56,1.55-6.56.13-12.78,2-19,3.86-1.37.41-1.57,0-1.8-1.2-.83-4.12-.48-8.25-.16-12.37a27.24,27.24,0,0,0-.59-9.9c-1.27-4.36-5.49-5.48-8.88-2.42a10.88,10.88,0,0,0-3,5.86c-1.94,7.93-.51,15.43,3.07,22.6.72,1.44.81,2-1,2.83a67,67,0,0,0-23.5,17.86c-.6.74-1.06.89-1.74.11a77,77,0,0,0-8.5-8C31.84,81.78,27.84,78.86,22.6,77.41Z"/><path class="cls-4" d="M168.05,130.06c-.91.36-1.24.15-1.27-.92a50.1,50.1,0,0,0-4.11-18.56,40,40,0,0,0-7.83-12,39.51,39.51,0,0,0-8.19-7.11c-8.85-5.3-21-3.44-26.9,3.52-4.5,5.29-6.18,11.41-6.37,18.13,0,1.6,0,3.21,0,4.85-1,0-1.16-.76-1.39-1.22a30.53,30.53,0,0,0-6.89-8.64c-10.9-9.76-25.86-14.53-40.4-1.48-5.09,4.57-7.32,10.65-8.37,17.2-1.73,10.82.58,21,5.07,30.86.28.61.51,1.24.76,1.87-.65.94-1.42.19-2,0-7.12-2.29-14.14-2.34-21.07.71-1.17.52-1.56-.07-1.91-1a61.75,61.75,0,0,1-3.11-30.48A70.17,70.17,0,0,1,51.86,90.58,62,62,0,0,1,71.26,77a1.67,1.67,0,0,1,2.31.45c.75,1,1.51,1.92,2.27,2.87A6.81,6.81,0,0,0,79,82.72c0-1.32-.83-2.13-1.48-3C71.73,71.94,68.36,63.39,69,53.56c.18-2.91.53-5.82,3.19-7.74a2.62,2.62,0,0,1,4.2,1,11.38,11.38,0,0,1,.83,5.19c-.13,4.14-.47,8.28-.41,12.41.07,5.77,2.6,10.59,6.44,14.77.31.34.63.74,1.34.52-.1-2-1.51-3.4-2.29-5.07-1-2.21-1.06-2.17,1.2-2.91a95,95,0,0,1,16.71-3.38c2.81-.38,5.74-1,8.71-.7,1.55.18,2.19.5,2.1,2.11-.09,1.45-.23,3,1.07,4.18.71-.81.41-1.73.43-2.57.12-4.67-.33-9.39.89-14a30.68,30.68,0,0,1,8.45-14.75,6.48,6.48,0,0,1,4.35-2c2-.06,2.85.8,2.74,2.83a7.56,7.56,0,0,1-1.48,3.75c-2.33,3.51-4.76,6.94-7,10.47-2.93,4.54-3.55,9.61-3.1,14.87a2.55,2.55,0,0,0,.85,2.13c.76-1.41.55-2.92.56-4.35s.31-1.9,1.89-1.66c15.55,2.42,28.88,9.07,39.36,20.92a58,58,0,0,1,14.23,31.65c0,.2,0,.41.06.61.58,4.58.56,4.55-3.6,6.23C169.66,128.54,168.3,128.59,168.05,130.06Z"/><path class="cls-2" d="M106.39,132.85a33.37,33.37,0,0,0-4.61-11.31,34.09,34.09,0,0,0-6.52-7.15c-5.45-4.69-12.48-5.47-17.65-3.18a19.44,19.44,0,0,0-9.16,8,24.51,24.51,0,0,0-3.18,11.57C65,139,67.37,146.53,71,153.75c.48.94.88,1.69-.58,2-.38.09-.84.3-.51.83.22.36.2,1,.9.91s1.35-.16,2-.26c5.09-.77,10.2-1.42,15.33-1.89,5.91-.54,11.81-.36,17.72-.41,1.27,0,1.85-.26,1.85-1.66,0-2,.18-4.07.27-5.69A77.31,77.31,0,0,0,106.39,132.85Zm-1.12,18.36c0,1-.28,1.42-1.37,1.38-1.9-.07-3.81,0-5.71.07-1.31.07-1.62-.46-1.37-1.67a24.55,24.55,0,0,0-1.43-13.92c-.69-1.78-1.75-2-3.43-.92-1.93,1.24-3.88,2.43-6.12,3.82a52,52,0,0,1,3.55-8.82c.7-1.34.4-2-.8-2.67-4.19-2.35-8.54-3.23-12.81-.6a14.74,14.74,0,0,0-7.1,10.55,26.2,26.2,0,0,1,.06-12.69c1.36-4.94,4.11-9,8.33-11.36a13.93,13.93,0,0,1,14.31.49c6.73,4,10.19,10.24,12.13,17.54A63,63,0,0,1,105.27,151.21Z"/><path class="cls-2" d="M161.74,131.69c-.88-.15-.57-.77-.62-1.24-.23-1.81-.35-3.64-.65-5.45a44,44,0,0,0-5.33-14.5,24.31,24.31,0,0,0-11.46-10.75,13.29,13.29,0,0,0-7.44-.89,12.91,12.91,0,0,0-6.18,2.06c-5.1,3.75-6.55,9.13-6.53,16.3.19,5.83,2,12.48,4.65,18.91a54.17,54.17,0,0,0,5,9.3c.91,1.36,1.87,1.56,3.37.85s2.63-2.1,4.21-2.68c4.26-1.53,8.14-3.85,12.24-5.72a43.82,43.82,0,0,0,8.82-4.85C162.66,132.41,163.43,132,161.74,131.69Zm-4.39,1.73c-.3.07-.52.43-.81.6-2.63,1.53-2.84,1.4-3.24-1.58a28.15,28.15,0,0,0-2.73-9.07c-1.13-2.21-1.36-2.32-3.52-1-1.65,1-3.24,2.15-4.86,3.23l-.38-.27c1.08-2.44,2.11-4.9,3.27-7.3.47-1,.39-1.57-.58-2.11a13.82,13.82,0,0,0-7-1.59c-4.23,0-6.55,2.25-8.74,5.1-1,1.35-1.2,3.13-1.8,4.73-1.08-6.53-2.15-13,2.06-19a9.42,9.42,0,0,1,6.22-3.91A13.79,13.79,0,0,1,144.8,103c3.71,2.22,6.23,5.46,8.35,9.11a44.37,44.37,0,0,1,5.67,18.61C158.94,132,158.94,133.07,157.35,133.42Z"/><path class="cls-2" d="M166.6,153.09c-.36-1-2.13,0-3.26.23a2.87,2.87,0,0,0-.41.05c-2.61.72-5.3.21-8.05.3.77,2,2.58,2.06,4,2.69a11.77,11.77,0,0,1-1.29,3,47.42,47.42,0,0,1-15.41,13c-12.85,6.47-26.5,7.52-40.51,6.21a64.59,64.59,0,0,1-13.84-2.38c-1.3-.41-2.16-.78-1.14-2.38a2.9,2.9,0,0,0,.3-2.72c-2.28,1.23-3.43,3.65-5.67,4.83s-4.8,1.63-7.19,2.67a10.21,10.21,0,0,0,5.95.25c3.52-1.17,6.78-.52,10.06.69,2.84,1.06,5.68,2.15,8.55,3.16A86.75,86.75,0,0,1,112.32,189c3.73,2.1,7.24,4.58,11.4,5.82,8.46,2.51,16.41,0,21.05-8.14a45.91,45.91,0,0,0,2.83-5.6,95.88,95.88,0,0,1,12.59-22.4,12.35,12.35,0,0,1,3.91-3.52C165.08,154.67,167,154.25,166.6,153.09ZM143.28,184.3a15.4,15.4,0,0,1-16.47,8.57,27.8,27.8,0,0,1-11-4.56c-1.44-.95-1-1.41.2-2,5.25-2.58,10.58-3.18,16.06-.77a8.93,8.93,0,0,0,.95.33s.11-.07.17-.11c-1.12-2.85-1.08-2.74,2-4,2.48-1,4.77-.52,7.13.23C143.71,182.41,143.83,183.16,143.28,184.3Z"/><path class="cls-2" d="M117.35,198.63c3.18.92,6.05,1.86,8.93,2.71a14.26,14.26,0,0,0,9.2-.44,18.12,18.12,0,0,0,7.32-4.52,4.5,4.5,0,0,1,.76-.68c.33-.22.8-.47,1.09-.2s.11.88-.21,1.25c-1.69,2-3.25,4.14-5.72,5.21A21,21,0,0,1,128,204C124.22,203.58,119.63,201.59,117.35,198.63Z"/><path class="cls-2" d="M117.34,162.62c1.91,0,3.61.95,5.45,1.16,3.19.37,6.25,0,8.85-2,2.08-1.62,2.38-3,1.47-5.44,1.89.72,2.8,3.14,2.11,5.44-.74,2.49-2.72,3.75-4.92,4.44a13.11,13.11,0,0,1-11.63-1.53C118,164.23,117.1,163.78,117.34,162.62Z"/><path class="cls-3" d="M68.68,138.43a26.32,26.32,0,0,1,0-12.69c1.37-4.94,4.12-9,8.34-11.36a14,14,0,0,1,14.31.48c6.73,4,10.19,10.25,12.13,17.55a63,63,0,0,1,1.76,18.8c0,1-.28,1.42-1.37,1.38-1.9-.07-3.81,0-5.71.07-1.31.07-1.62-.46-1.37-1.67a24.47,24.47,0,0,0-1.43-13.92c-.69-1.78-1.75-2-3.43-.92-1.92,1.24-3.88,2.43-6.12,3.82a52,52,0,0,1,3.55-8.82c.7-1.33.4-2-.8-2.67-4.19-2.35-8.54-3.23-12.81-.59A14.7,14.7,0,0,0,68.68,138.43Z"/><path class="cls-3" d="M141.81,125.36c1.08-2.44,2.11-4.9,3.27-7.3.47-1,.39-1.57-.58-2.11a13.82,13.82,0,0,0-7-1.59c-4.23,0-6.55,2.25-8.74,5.1-1,1.35-1.19,3.13-1.8,4.73-1.08-6.53-2.15-13,2.06-19a9.42,9.42,0,0,1,6.22-3.91A13.79,13.79,0,0,1,144.8,103c3.71,2.22,6.23,5.46,8.35,9.11a44.37,44.37,0,0,1,5.67,18.61c.12,1.33.12,2.39-1.47,2.74-.3.07-.52.43-.81.6-2.63,1.53-2.84,1.4-3.24-1.58a28.15,28.15,0,0,0-2.73-9.07c-1.13-2.21-1.36-2.32-3.52-1-1.65,1-3.24,2.15-4.86,3.23Z"/><path class="cls-4" d="M133.2,185.77c-1.12-2.85-1.08-2.74,2-4,2.48-1,4.77-.52,7.13.23,1.34.42,1.46,1.17.91,2.31a15.4,15.4,0,0,1-16.47,8.57,27.8,27.8,0,0,1-11-4.56c-1.44-.95-1-1.41.2-2,5.25-2.58,10.58-3.18,16.06-.77a7.76,7.76,0,0,0,1,.33S133.14,185.81,133.2,185.77Z"/></g></g></svg>