<svg id="Layer_1" data-name="Layer 1" xmlns="http://www.w3.org/2000/svg" viewBox="0 0 113.43 144.04"><defs><style>.cls-1{fill:#ed1b2e;}.cls-2{isolation:isolate;}.cls-3{fill:#fff;}.cls-4{fill:#251e20;}.cls-5{fill:#fdfdfd;}.cls-6{fill:#e2183f;}</style></defs><g id="jollibeeInstruction"><g id="Rectangle_20-2" data-name="Rectangle 20-2"><rect class="cls-1" x="18.22" y="13.02" width="77" height="118" rx="5"/></g><g id="_1._Input_the_8_digit_order_number_from_Jollibee_App" data-name=" 1. Input the 8 digit order number from Jollibee App" class="cls-2"><g class="cls-2"><path class="cls-3" d="M28.6,86a.11.11,0,0,1-.12-.12V83.41l-.72.56a.12.12,0,0,1-.1,0,.18.18,0,0,1-.08,0l-.25-.33a.1.1,0,0,1,0-.09.11.11,0,0,1,.05-.08l1.14-.88a.09.09,0,0,1,.06,0h.59a.11.11,0,0,1,.09,0,.12.12,0,0,1,0,.09V85.9a.16.16,0,0,1,0,.09.14.14,0,0,1-.09,0Z"/><path class="cls-3" d="M30,86a.11.11,0,0,1-.12-.12v-.56a.12.12,0,0,1,.12-.13h.56a.14.14,0,0,1,.13.13v.56a.12.12,0,0,1-.13.12Z"/><path class="cls-3" d="M32.59,86a.11.11,0,0,1-.12-.12V82.65a.12.12,0,0,1,.12-.13h.57a.12.12,0,0,1,.12.13V85.9a.11.11,0,0,1-.12.12Z"/><path class="cls-3" d="M34.09,86A.14.14,0,0,1,34,86a.16.16,0,0,1,0-.09V83.55a.12.12,0,0,1,0-.09.11.11,0,0,1,.09,0h.49a.12.12,0,0,1,.12.13v.19a1.14,1.14,0,0,1,.34-.26,1.06,1.06,0,0,1,.5-.11,1,1,0,0,1,.51.13.89.89,0,0,1,.35.39,1.28,1.28,0,0,1,.13.61v1.4a.12.12,0,0,1,0,.09.11.11,0,0,1-.08,0h-.53a.12.12,0,0,1-.13-.12V84.53a.58.58,0,0,0-.13-.41.44.44,0,0,0-.37-.15.48.48,0,0,0-.37.15.54.54,0,0,0-.14.41V85.9a.12.12,0,0,1,0,.09.11.11,0,0,1-.08,0Z"/><path class="cls-3" d="M37.26,87a.12.12,0,0,1-.13-.12v-3.3a.14.14,0,0,1,.13-.13h.47a.14.14,0,0,1,.13.13v.19a.91.91,0,0,1,.31-.27,1.06,1.06,0,0,1,.47-.1,1.17,1.17,0,0,1,.45.08,1,1,0,0,1,.33.24.88.88,0,0,1,.2.37,1.71,1.71,0,0,1,.09.48v.37a1.78,1.78,0,0,1-.08.47,1.23,1.23,0,0,1-.21.37,1,1,0,0,1-.33.24,1.17,1.17,0,0,1-.45.08A1,1,0,0,1,38.2,86a.86.86,0,0,1-.31-.25v1.12a.16.16,0,0,1,0,.09.14.14,0,0,1-.09,0Zm1.16-1.5a.56.56,0,0,0,.3-.08.48.48,0,0,0,.15-.22.72.72,0,0,0,.06-.29,1.6,1.6,0,0,0,0-.31.73.73,0,0,0-.06-.3.48.48,0,0,0-.15-.22.56.56,0,0,0-.3-.08.45.45,0,0,0-.3.09.44.44,0,0,0-.17.21,1.27,1.27,0,0,0-.06.28v.38a1.1,1.1,0,0,0,.06.26.55.55,0,0,0,.17.2A.48.48,0,0,0,38.42,85.47Z"/><path class="cls-3" d="M41.2,86.07a1,1,0,0,1-.52-.13.93.93,0,0,1-.34-.39,1.38,1.38,0,0,1-.12-.61V83.55a.12.12,0,0,1,0-.09.11.11,0,0,1,.09,0h.53a.12.12,0,0,1,.12.13v1.36c0,.38.17.56.49.56a.5.5,0,0,0,.38-.15.56.56,0,0,0,.13-.41V83.55a.14.14,0,0,1,.13-.13h.53a.09.09,0,0,1,.08,0,.1.1,0,0,1,0,.09V85.9a.12.12,0,0,1,0,.09.11.11,0,0,1-.08,0h-.49A.12.12,0,0,1,42,85.9v-.2a.9.9,0,0,1-.33.28A1.28,1.28,0,0,1,41.2,86.07Z"/><path class="cls-3" d="M44.65,86a1.19,1.19,0,0,1-.53-.1.7.7,0,0,1-.34-.32,1.2,1.2,0,0,1-.11-.54V84h-.39a.11.11,0,0,1-.12-.12v-.34a.12.12,0,0,1,.12-.13h.39V82.6a.14.14,0,0,1,.13-.13h.49a.12.12,0,0,1,.12.13v.82H45a.09.09,0,0,1,.08,0,.1.1,0,0,1,0,.09v.34a.12.12,0,0,1,0,.09A.11.11,0,0,1,45,84h-.63v1a.51.51,0,0,0,.07.3.25.25,0,0,0,.24.11h.36a.11.11,0,0,1,.12.12v.37a.16.16,0,0,1,0,.09.14.14,0,0,1-.09,0Z"/><path class="cls-3" d="M47.89,86a1.25,1.25,0,0,1-.53-.1A.68.68,0,0,1,47,85.6a1.08,1.08,0,0,1-.11-.54V84h-.39a.12.12,0,0,1-.13-.12v-.34a.14.14,0,0,1,.13-.13h.39V82.6a.12.12,0,0,1,.12-.13h.49a.14.14,0,0,1,.13.13v.82h.62a.11.11,0,0,1,.09,0,.12.12,0,0,1,0,.09v.34a.16.16,0,0,1,0,.09.14.14,0,0,1-.09,0h-.62v1a.61.61,0,0,0,.06.3.28.28,0,0,0,.24.11h.37a.11.11,0,0,1,.08,0,.11.11,0,0,1,0,.09v.37a.12.12,0,0,1,0,.09.11.11,0,0,1-.08,0Z"/><path class="cls-3" d="M49,86a.12.12,0,0,1-.13-.12V82.6a.14.14,0,0,1,.13-.13h.54a.09.09,0,0,1,.08,0,.1.1,0,0,1,0,.09v1.12a1,1,0,0,1,.33-.25,1,1,0,0,1,.47-.1,1.11,1.11,0,0,1,.52.13,1,1,0,0,1,.36.39,1.41,1.41,0,0,1,.13.61v1.4a.12.12,0,0,1-.13.12h-.54a.14.14,0,0,1-.09,0,.16.16,0,0,1,0-.09V84.53a.63.63,0,0,0-.13-.41.47.47,0,0,0-.37-.15.49.49,0,0,0-.38.15.54.54,0,0,0-.14.41V85.9a.12.12,0,0,1,0,.09.11.11,0,0,1-.08,0Z"/><path class="cls-3" d="M53.24,86.07a1.26,1.26,0,0,1-.92-.32,1.27,1.27,0,0,1-.35-.93v-.21a1.54,1.54,0,0,1,.17-.67,1.11,1.11,0,0,1,.44-.42,1.33,1.33,0,0,1,.65-.15,1.34,1.34,0,0,1,.7.17,1.21,1.21,0,0,1,.43.47,1.67,1.67,0,0,1,.14.69v.11a.12.12,0,0,1,0,.09.11.11,0,0,1-.08,0H52.74v0a1.14,1.14,0,0,0,.06.29.62.62,0,0,0,.17.22.45.45,0,0,0,.26.08.4.4,0,0,0,.2,0,.47.47,0,0,0,.14-.08s.06-.06.07-.09l.07-.06h.61l.08,0a.07.07,0,0,1,0,.08.43.43,0,0,1-.08.2,1,1,0,0,1-.23.23,1.42,1.42,0,0,1-.37.19A1.61,1.61,0,0,1,53.24,86.07Zm-.5-1.59h1a.79.79,0,0,0-.06-.32.45.45,0,0,0-.16-.2.48.48,0,0,0-.27-.08A.45.45,0,0,0,53,84a.47.47,0,0,0-.17.2.79.79,0,0,0-.06.32Z"/><path class="cls-3" d="M57.46,86.07a2.28,2.28,0,0,1-.62-.08,1.36,1.36,0,0,1-.45-.23.92.92,0,0,1-.27-.35A1,1,0,0,1,56,85a.88.88,0,0,1,.14-.49,1,1,0,0,1,.36-.33.78.78,0,0,1-.28-.29.91.91,0,0,1-.09-.41A1,1,0,0,1,56.3,83a1,1,0,0,1,.43-.35,1.77,1.77,0,0,1,.73-.13,1.67,1.67,0,0,1,.71.13.89.89,0,0,1,.43.35.84.84,0,0,1,.15.5.82.82,0,0,1-.1.42.69.69,0,0,1-.27.29.79.79,0,0,1,.37.33.91.91,0,0,1,.13.5,1,1,0,0,1-.16.55,1,1,0,0,1-.48.39A2,2,0,0,1,57.46,86.07Zm0-.57a.71.71,0,0,0,.32-.07.54.54,0,0,0,.22-.17.44.44,0,0,0,.09-.27.45.45,0,0,0-.09-.28.54.54,0,0,0-.22-.17.87.87,0,0,0-.32-.06.88.88,0,0,0-.33.06.54.54,0,0,0-.22.17.45.45,0,0,0-.09.28.44.44,0,0,0,.09.27.54.54,0,0,0,.22.17A.72.72,0,0,0,57.46,85.5Zm0-1.57a.67.67,0,0,0,.28-.06.5.5,0,0,0,.2-.15.37.37,0,0,0,.07-.23.35.35,0,0,0-.07-.23.38.38,0,0,0-.2-.15.64.64,0,0,0-.28-.06.65.65,0,0,0-.29.06.38.38,0,0,0-.2.15.41.41,0,0,0,0,.46.46.46,0,0,0,.2.16A.84.84,0,0,0,57.46,83.93Z"/><path class="cls-3" d="M61.51,86.07a1.25,1.25,0,0,1-.45-.08,1,1,0,0,1-.33-.24,1,1,0,0,1-.2-.38,1.71,1.71,0,0,1-.09-.48v-.34a2.19,2.19,0,0,1,.08-.47,1.17,1.17,0,0,1,.21-.38,1,1,0,0,1,.33-.24,1.06,1.06,0,0,1,.45-.09,1,1,0,0,1,.44.09.9.9,0,0,1,.31.23V82.6a.12.12,0,0,1,.12-.13h.52a.09.09,0,0,1,.08,0,.1.1,0,0,1,0,.09v3.3A.12.12,0,0,1,63,86a.11.11,0,0,1-.08,0h-.48a.14.14,0,0,1-.09,0,.16.16,0,0,1,0-.09v-.17A1,1,0,0,1,62,86,.94.94,0,0,1,61.51,86.07Zm.23-.6a.5.5,0,0,0,.29-.08.52.52,0,0,0,.17-.22,1.15,1.15,0,0,0,.06-.28c0-.06,0-.13,0-.19s0-.12,0-.18a1.18,1.18,0,0,0-.06-.27.55.55,0,0,0-.17-.2.52.52,0,0,0-.29-.08.51.51,0,0,0-.3.08.44.44,0,0,0-.16.22,1.33,1.33,0,0,0-.06.3,1.6,1.6,0,0,0,0,.31,1.36,1.36,0,0,0,.06.29.44.44,0,0,0,.16.22A.51.51,0,0,0,61.74,85.47Z"/><path class="cls-3" d="M63.76,83a.14.14,0,0,1-.09,0,.16.16,0,0,1,0-.09v-.4a.17.17,0,0,1,0-.1.14.14,0,0,1,.09,0h.52a.12.12,0,0,1,.09,0,.13.13,0,0,1,0,.1v.4a.12.12,0,0,1-.13.12Zm0,3a.11.11,0,0,1-.08,0,.12.12,0,0,1,0-.09V83.55a.1.1,0,0,1,0-.09.09.09,0,0,1,.08,0h.5a.14.14,0,0,1,.13.13V85.9a.12.12,0,0,1-.13.12Z"/><path class="cls-3" d="M66.24,87.12a1.53,1.53,0,0,1-.61-.1,1,1,0,0,1-.39-.23.78.78,0,0,1-.2-.27,1,1,0,0,1-.07-.21.14.14,0,0,1,.13-.13h.53l.08,0a.22.22,0,0,1,.05.08l.07.13a.4.4,0,0,0,.14.11.55.55,0,0,0,.25,0,.84.84,0,0,0,.29,0,.4.4,0,0,0,.17-.17.75.75,0,0,0,.06-.33v-.33a1.05,1.05,0,0,1-.31.21A1,1,0,0,1,66,86a1.08,1.08,0,0,1-.46-.09.86.86,0,0,1-.33-.23,1,1,0,0,1-.2-.37,1.72,1.72,0,0,1-.08-.48v-.27a1.71,1.71,0,0,1,.08-.47,1.15,1.15,0,0,1,.2-.38,1,1,0,0,1,.33-.24,1.08,1.08,0,0,1,.46-.09,1,1,0,0,1,.47.11,1,1,0,0,1,.32.26v-.19a.12.12,0,0,1,0-.09.11.11,0,0,1,.09,0h.49a.09.09,0,0,1,.08,0,.1.1,0,0,1,0,.09V86a1.29,1.29,0,0,1-.15.64.91.91,0,0,1-.43.39A1.46,1.46,0,0,1,66.24,87.12Zm0-1.72a.52.52,0,0,0,.29-.08.68.68,0,0,0,.17-.21,1.31,1.31,0,0,0,.06-.27v-.31a1.07,1.07,0,0,0-.06-.27.51.51,0,0,0-.17-.21.52.52,0,0,0-.29-.08.51.51,0,0,0-.3.08.44.44,0,0,0-.16.22.73.73,0,0,0-.06.3.89.89,0,0,0,0,.23.73.73,0,0,0,.06.3.44.44,0,0,0,.16.22A.51.51,0,0,0,66.22,85.4Z"/><path class="cls-3" d="M68.25,83a.11.11,0,0,1-.08,0,.12.12,0,0,1,0-.09v-.4a.13.13,0,0,1,0-.1.11.11,0,0,1,.08,0h.53a.16.16,0,0,1,.09,0,.18.18,0,0,1,0,.1v.4a.18.18,0,0,1,0,.09.16.16,0,0,1-.09,0Zm0,3a.12.12,0,0,1-.09,0,.16.16,0,0,1,0-.09V83.55a.12.12,0,0,1,0-.09.1.1,0,0,1,.09,0h.5a.12.12,0,0,1,.12.13V85.9a.11.11,0,0,1-.12.12Z"/><path class="cls-3" d="M70.77,86a1.19,1.19,0,0,1-.53-.1.7.7,0,0,1-.34-.32,1.2,1.2,0,0,1-.11-.54V84H69.4a.14.14,0,0,1-.09,0,.16.16,0,0,1,0-.09v-.34a.12.12,0,0,1,0-.09.11.11,0,0,1,.09,0h.39V82.6a.14.14,0,0,1,.13-.13h.49a.12.12,0,0,1,.12.13v.82h.63a.09.09,0,0,1,.08,0,.1.1,0,0,1,0,.09v.34a.12.12,0,0,1,0,.09.11.11,0,0,1-.08,0h-.63v1a.51.51,0,0,0,.07.3.25.25,0,0,0,.24.11h.36a.16.16,0,0,1,.09,0,.14.14,0,0,1,0,.09v.37a.11.11,0,0,1-.12.12Z"/><path class="cls-3" d="M74.05,86.07a1.44,1.44,0,0,1-.69-.14,1,1,0,0,1-.43-.39,1.26,1.26,0,0,1-.16-.59,1.69,1.69,0,0,1,0-.23,1.41,1.41,0,0,1,0-.22,1.17,1.17,0,0,1,.17-.6,1,1,0,0,1,.43-.39,1.72,1.72,0,0,1,1.36,0,1,1,0,0,1,.43.39,1.17,1.17,0,0,1,.17.6,1.41,1.41,0,0,1,0,.22,1.69,1.69,0,0,1,0,.23,1.26,1.26,0,0,1-.16.59,1,1,0,0,1-.43.39A1.44,1.44,0,0,1,74.05,86.07Zm0-.55a.44.44,0,0,0,.37-.15.71.71,0,0,0,.14-.45v-.4a.7.7,0,0,0-.14-.44.42.42,0,0,0-.37-.16.43.43,0,0,0-.37.16.7.7,0,0,0-.14.44v.4a.71.71,0,0,0,.14.45A.45.45,0,0,0,74.05,85.52Z"/><path class="cls-3" d="M76,86a.14.14,0,0,1-.09,0,.16.16,0,0,1,0-.09V83.55a.12.12,0,0,1,0-.09.11.11,0,0,1,.09,0h.49a.12.12,0,0,1,.12.13v.2a.79.79,0,0,1,.31-.24.93.93,0,0,1,.42-.09h.22a.09.09,0,0,1,.08,0,.1.1,0,0,1,0,.09V84a.12.12,0,0,1,0,.09.11.11,0,0,1-.08,0h-.44a.42.42,0,0,0-.47.47V85.9a.12.12,0,0,1-.13.12Z"/><path class="cls-3" d="M79,86.07a1.25,1.25,0,0,1-.45-.08,1,1,0,0,1-.33-.24,1,1,0,0,1-.2-.38,1.71,1.71,0,0,1-.09-.48v-.34a2.19,2.19,0,0,1,.08-.47,1.17,1.17,0,0,1,.21-.38,1,1,0,0,1,.33-.24,1.06,1.06,0,0,1,.45-.09,1,1,0,0,1,.44.09.81.81,0,0,1,.31.23V82.6a.12.12,0,0,1,.12-.13h.52a.09.09,0,0,1,.08,0,.1.1,0,0,1,0,.09v3.3a.12.12,0,0,1,0,.09.11.11,0,0,1-.08,0h-.48a.14.14,0,0,1-.09,0,.16.16,0,0,1,0-.09v-.17a1,1,0,0,1-.32.24A.94.94,0,0,1,79,86.07Zm.23-.6a.5.5,0,0,0,.29-.08.52.52,0,0,0,.17-.22,1.15,1.15,0,0,0,.06-.28c0-.06,0-.13,0-.19s0-.12,0-.18a1.18,1.18,0,0,0-.06-.27.55.55,0,0,0-.17-.2.52.52,0,0,0-.29-.08.51.51,0,0,0-.3.08.44.44,0,0,0-.16.22,1.33,1.33,0,0,0-.06.3,1.6,1.6,0,0,0,0,.31,1.36,1.36,0,0,0,.06.29.44.44,0,0,0,.16.22A.51.51,0,0,0,79.21,85.47Z"/><path class="cls-3" d="M82.28,86.07a1.23,1.23,0,0,1-.91-.32,1.28,1.28,0,0,1-.36-.93v-.21a1.54,1.54,0,0,1,.18-.67,1.09,1.09,0,0,1,.43-.42,1.4,1.4,0,0,1,.66-.15,1.37,1.37,0,0,1,.7.17,1.12,1.12,0,0,1,.42.47,1.52,1.52,0,0,1,.15.69v.11a.18.18,0,0,1,0,.09.14.14,0,0,1-.09,0H81.79v0a.65.65,0,0,0,.06.29.6.6,0,0,0,.16.22.47.47,0,0,0,.26.08.44.44,0,0,0,.21,0,.57.57,0,0,0,.13-.08l.08-.09.07-.06h.61l.08,0a.11.11,0,0,1,0,.08.48.48,0,0,1-.09.2.94.94,0,0,1-.22.23,1.5,1.5,0,0,1-.38.19A1.53,1.53,0,0,1,82.28,86.07Zm-.49-1.59h1a.79.79,0,0,0-.06-.32.55.55,0,0,0-.17-.2.45.45,0,0,0-.26-.08A.48.48,0,0,0,82,84a.55.55,0,0,0-.17.2,1,1,0,0,0,0,.32Z"/><path class="cls-3" d="M84.17,86a.14.14,0,0,1-.09,0,.16.16,0,0,1,0-.09V83.55a.12.12,0,0,1,0-.09.11.11,0,0,1,.09,0h.49a.09.09,0,0,1,.08,0,.1.1,0,0,1,0,.09v.2a.73.73,0,0,1,.31-.24.93.93,0,0,1,.42-.09h.22a.09.09,0,0,1,.08,0,.1.1,0,0,1,0,.09V84a.12.12,0,0,1,0,.09.11.11,0,0,1-.08,0h-.44a.42.42,0,0,0-.47.47V85.9a.12.12,0,0,1-.13.12Z"/></g><g class="cls-2"><path class="cls-3" d="M27.65,92a.11.11,0,0,1-.08,0,.12.12,0,0,1,0-.09V89.55a.1.1,0,0,1,0-.09.09.09,0,0,1,.08,0h.49a.14.14,0,0,1,.13.13v.19a1.09,1.09,0,0,1,.33-.26,1.12,1.12,0,0,1,.5-.11,1.08,1.08,0,0,1,.52.13,1,1,0,0,1,.35.39,1.41,1.41,0,0,1,.13.61v1.4a.12.12,0,0,1,0,.09A.14.14,0,0,1,30,92h-.53a.11.11,0,0,1-.12-.12V90.53a.58.58,0,0,0-.13-.41.45.45,0,0,0-.37-.15.5.5,0,0,0-.38.15.58.58,0,0,0-.14.41V91.9a.16.16,0,0,1,0,.09.14.14,0,0,1-.09,0Z"/><path class="cls-3" d="M31.65,92.07a1,1,0,0,1-.51-.13.87.87,0,0,1-.34-.39,1.25,1.25,0,0,1-.13-.61V89.55a.1.1,0,0,1,0-.09.09.09,0,0,1,.08,0h.53a.14.14,0,0,1,.13.13v1.36c0,.38.16.56.49.56a.48.48,0,0,0,.37-.15.56.56,0,0,0,.14-.41V89.55a.12.12,0,0,1,.12-.13h.53a.11.11,0,0,1,.09,0,.12.12,0,0,1,0,.09V91.9a.16.16,0,0,1,0,.09.14.14,0,0,1-.09,0h-.49a.11.11,0,0,1-.12-.12v-.2a.93.93,0,0,1-.34.28A1.21,1.21,0,0,1,31.65,92.07Z"/><path class="cls-3" d="M34,92a.11.11,0,0,1-.08,0,.12.12,0,0,1,0-.09V89.55a.1.1,0,0,1,0-.09.09.09,0,0,1,.08,0h.47a.09.09,0,0,1,.08,0,.1.1,0,0,1,0,.09v.17a.73.73,0,0,1,.28-.24.93.93,0,0,1,.42-.11.8.8,0,0,1,.8.44.85.85,0,0,1,.33-.32,1,1,0,0,1,.48-.12.94.94,0,0,1,.47.12.83.83,0,0,1,.33.36,1.4,1.4,0,0,1,.12.62V91.9a.16.16,0,0,1,0,.09.14.14,0,0,1-.09,0h-.49a.14.14,0,0,1-.09,0,.16.16,0,0,1,0-.09V90.51a.73.73,0,0,0-.06-.32.38.38,0,0,0-.16-.17.54.54,0,0,0-.22,0,.46.46,0,0,0-.2,0,.33.33,0,0,0-.16.17.73.73,0,0,0-.06.32V91.9a.12.12,0,0,1-.13.12h-.49a.11.11,0,0,1-.12-.12V90.51a.73.73,0,0,0-.06-.32.38.38,0,0,0-.16-.17.47.47,0,0,0-.42,0,.52.52,0,0,0-.16.17.7.7,0,0,0-.06.32V91.9a.12.12,0,0,1,0,.09.11.11,0,0,1-.08,0Z"/><path class="cls-3" d="M39.91,92.07a1,1,0,0,1-.48-.1.92.92,0,0,1-.31-.24v.17A.11.11,0,0,1,39,92h-.48a.11.11,0,0,1-.12-.12V88.6a.12.12,0,0,1,.12-.13H39a.09.09,0,0,1,.08,0,.1.1,0,0,1,0,.09v1.09a.81.81,0,0,1,.31-.23,1,1,0,0,1,.44-.09,1.06,1.06,0,0,1,.45.09,1,1,0,0,1,.33.24,1,1,0,0,1,.2.38,1.4,1.4,0,0,1,.08.47,1.45,1.45,0,0,1,0,.34,1.42,1.42,0,0,1-.08.48,1.17,1.17,0,0,1-.21.38.87.87,0,0,1-.32.24A1.25,1.25,0,0,1,39.91,92.07Zm-.23-.6a.51.51,0,0,0,.3-.08.44.44,0,0,0,.16-.22,1.36,1.36,0,0,0,.06-.29v-.31a1.33,1.33,0,0,0-.06-.3.44.44,0,0,0-.16-.22.51.51,0,0,0-.3-.08.5.5,0,0,0-.29.08.47.47,0,0,0-.17.2.63.63,0,0,0-.06.27,1.09,1.09,0,0,0,0,.18,1.21,1.21,0,0,0,0,.19.64.64,0,0,0,.06.28.5.5,0,0,0,.16.22A.56.56,0,0,0,39.68,91.47Z"/><path class="cls-3" d="M42.67,92.07a1.26,1.26,0,0,1-.92-.32,1.27,1.27,0,0,1-.35-.93v-.21a1.54,1.54,0,0,1,.17-.67,1.11,1.11,0,0,1,.44-.42,1.33,1.33,0,0,1,.65-.15,1.34,1.34,0,0,1,.7.17,1.21,1.21,0,0,1,.43.47,1.67,1.67,0,0,1,.14.69v.11a.11.11,0,0,1-.12.12H42.17v0a1.14,1.14,0,0,0,.06.29.62.62,0,0,0,.17.22.45.45,0,0,0,.26.08.4.4,0,0,0,.2,0,.47.47,0,0,0,.14-.08s.06-.06.07-.09l.08-.06h.6l.09,0a.08.08,0,0,1,0,.08.43.43,0,0,1-.08.2,1,1,0,0,1-.23.23,1.42,1.42,0,0,1-.37.19A1.61,1.61,0,0,1,42.67,92.07Zm-.5-1.59h1a.79.79,0,0,0-.06-.32.45.45,0,0,0-.16-.2.48.48,0,0,0-.27-.08.45.45,0,0,0-.26.08.47.47,0,0,0-.17.2.79.79,0,0,0-.06.32Z"/><path class="cls-3" d="M44.55,92a.11.11,0,0,1-.08,0,.12.12,0,0,1,0-.09V89.55a.1.1,0,0,1,0-.09.09.09,0,0,1,.08,0H45a.11.11,0,0,1,.09,0,.13.13,0,0,1,0,.09v.2a.7.7,0,0,1,.3-.24,1,1,0,0,1,.43-.09h.21a.11.11,0,0,1,.09,0,.12.12,0,0,1,0,.09V90a.16.16,0,0,1,0,.09.14.14,0,0,1-.09,0h-.44a.47.47,0,0,0-.34.12.46.46,0,0,0-.13.35V91.9a.11.11,0,0,1-.12.12Z"/><path class="cls-3" d="M47.94,92a.12.12,0,0,1-.13-.12V90h-.39a.11.11,0,0,1-.12-.12v-.34a.12.12,0,0,1,.12-.13h.39v-.18a1,1,0,0,1,.12-.52.69.69,0,0,1,.35-.3,1.39,1.39,0,0,1,.57-.1h.36a.14.14,0,0,1,.13.13v.34a.12.12,0,0,1-.13.12h-.33a.31.31,0,0,0-.26.09.41.41,0,0,0-.07.27v.15h.61a.14.14,0,0,1,.13.13v.34a.12.12,0,0,1-.13.12h-.61V91.9a.12.12,0,0,1,0,.09.11.11,0,0,1-.08,0Z"/><path class="cls-3" d="M49.79,92a.14.14,0,0,1-.09,0,.16.16,0,0,1,0-.09V89.55a.12.12,0,0,1,0-.09.11.11,0,0,1,.09,0h.49a.09.09,0,0,1,.08,0,.1.1,0,0,1,0,.09v.2a.79.79,0,0,1,.31-.24.93.93,0,0,1,.42-.09h.22a.09.09,0,0,1,.08,0,.1.1,0,0,1,0,.09V90a.12.12,0,0,1,0,.09.11.11,0,0,1-.08,0h-.44a.42.42,0,0,0-.47.47V91.9a.12.12,0,0,1-.13.12Z"/><path class="cls-3" d="M53,92.07a1.44,1.44,0,0,1-.69-.14,1,1,0,0,1-.43-.39,1.26,1.26,0,0,1-.16-.59,1.69,1.69,0,0,1,0-.23,1.41,1.41,0,0,1,0-.22,1.17,1.17,0,0,1,.17-.6,1,1,0,0,1,.43-.39,1.59,1.59,0,0,1,.68-.14,1.55,1.55,0,0,1,.68.14,1,1,0,0,1,.43.39,1.17,1.17,0,0,1,.17.6,1.41,1.41,0,0,1,0,.22,1.69,1.69,0,0,1,0,.23,1.26,1.26,0,0,1-.16.59,1,1,0,0,1-.43.39A1.41,1.41,0,0,1,53,92.07Zm0-.55a.44.44,0,0,0,.37-.15.71.71,0,0,0,.14-.45v-.4a.7.7,0,0,0-.14-.44.42.42,0,0,0-.37-.16.43.43,0,0,0-.37.16.7.7,0,0,0-.14.44v.4a.71.71,0,0,0,.14.45A.45.45,0,0,0,53,91.52Z"/><path class="cls-3" d="M54.94,92a.14.14,0,0,1-.09,0,.16.16,0,0,1,0-.09V89.55a.12.12,0,0,1,0-.09.11.11,0,0,1,.09,0h.46a.11.11,0,0,1,.09,0,.13.13,0,0,1,0,.09v.17a.7.7,0,0,1,.27-.24.94.94,0,0,1,.43-.11.79.79,0,0,1,.79.44.92.92,0,0,1,.81-.44.91.91,0,0,1,.47.12.83.83,0,0,1,.33.36,1.27,1.27,0,0,1,.13.62V91.9a.12.12,0,0,1,0,.09.11.11,0,0,1-.08,0h-.5a.11.11,0,0,1-.08,0,.12.12,0,0,1,0-.09V90.51a.73.73,0,0,0-.06-.32.36.36,0,0,0-.15-.17.54.54,0,0,0-.22,0,.54.54,0,0,0-.21,0,.44.44,0,0,0-.16.17.73.73,0,0,0-.06.32V91.9A.11.11,0,0,1,57,92h-.49a.12.12,0,0,1-.13-.12V90.51a.73.73,0,0,0-.06-.32A.33.33,0,0,0,56.2,90,.46.46,0,0,0,56,90a.46.46,0,0,0-.2,0,.55.55,0,0,0-.17.17.7.7,0,0,0-.06.32V91.9a.16.16,0,0,1,0,.09.14.14,0,0,1-.09,0Z"/><path class="cls-3" d="M61.69,92.07a1.88,1.88,0,0,1-.53-.07,1.38,1.38,0,0,1-.44-.21,1,1,0,0,1-.31-.35,1,1,0,0,1-.12-.49.11.11,0,0,1,0-.08.1.1,0,0,1,.08,0H61a.17.17,0,0,1,.1,0,.44.44,0,0,1,.06.1.47.47,0,0,0,.1.26.45.45,0,0,0,.21.15.76.76,0,0,0,.27.05.52.52,0,0,0,.44-.19.81.81,0,0,0,.15-.52V89.19H60.64a.11.11,0,0,1-.09,0,.11.11,0,0,1,0-.08v-.42a.12.12,0,0,1,0-.09.11.11,0,0,1,.09,0H63a.14.14,0,0,1,.13.13v2.09a1.35,1.35,0,0,1-.18.72,1.23,1.23,0,0,1-.5.46A1.76,1.76,0,0,1,61.69,92.07Z"/><path class="cls-3" d="M65,92.07a1.44,1.44,0,0,1-.69-.14,1,1,0,0,1-.43-.39,1.26,1.26,0,0,1-.16-.59,1.69,1.69,0,0,1,0-.23,1.41,1.41,0,0,1,0-.22,1.17,1.17,0,0,1,.17-.6,1,1,0,0,1,.43-.39,1.59,1.59,0,0,1,.68-.14,1.55,1.55,0,0,1,.68.14,1,1,0,0,1,.43.39,1.17,1.17,0,0,1,.17.6,1.41,1.41,0,0,1,0,.22,1.69,1.69,0,0,1,0,.23,1.26,1.26,0,0,1-.16.59,1,1,0,0,1-.43.39A1.41,1.41,0,0,1,65,92.07Zm0-.55a.44.44,0,0,0,.37-.15.71.71,0,0,0,.14-.45v-.4a.7.7,0,0,0-.14-.44.42.42,0,0,0-.37-.16.43.43,0,0,0-.37.16.7.7,0,0,0-.14.44v.4a.71.71,0,0,0,.14.45A.45.45,0,0,0,65,91.52Z"/><path class="cls-3" d="M66.9,92a.11.11,0,0,1-.12-.12V88.6a.12.12,0,0,1,.12-.13h.5a.11.11,0,0,1,.09,0,.12.12,0,0,1,0,.09v3.3a.16.16,0,0,1,0,.09.14.14,0,0,1-.09,0Z"/><path class="cls-3" d="M68.28,92a.12.12,0,0,1-.13-.12V88.6a.14.14,0,0,1,.13-.13h.5a.09.09,0,0,1,.08,0,.1.1,0,0,1,0,.09v3.3a.12.12,0,0,1,0,.09.11.11,0,0,1-.08,0Z"/><path class="cls-3" d="M69.77,89a.11.11,0,0,1-.08,0,.12.12,0,0,1,0-.09v-.4a.13.13,0,0,1,0-.1.11.11,0,0,1,.08,0h.53a.16.16,0,0,1,.09,0,.18.18,0,0,1,0,.1v.4a.18.18,0,0,1,0,.09.16.16,0,0,1-.09,0Zm0,3a.14.14,0,0,1-.09,0,.16.16,0,0,1,0-.09V89.55a.12.12,0,0,1,0-.09.11.11,0,0,1,.09,0h.5a.12.12,0,0,1,.12.13V91.9a.11.11,0,0,1-.12.12Z"/><path class="cls-3" d="M72.55,92.07a1,1,0,0,1-.48-.1.92.92,0,0,1-.31-.24v.17a.11.11,0,0,1-.12.12h-.48A.11.11,0,0,1,71,91.9V88.6a.12.12,0,0,1,.12-.13h.52a.09.09,0,0,1,.08,0,.1.1,0,0,1,0,.09v1.09a.81.81,0,0,1,.31-.23,1,1,0,0,1,.44-.09,1.06,1.06,0,0,1,.45.09,1,1,0,0,1,.33.24,1,1,0,0,1,.2.38,1.4,1.4,0,0,1,.08.47,1.45,1.45,0,0,1,0,.34,1.42,1.42,0,0,1-.08.48,1.17,1.17,0,0,1-.21.38A.87.87,0,0,1,73,92,1.25,1.25,0,0,1,72.55,92.07Zm-.23-.6a.51.51,0,0,0,.3-.08.44.44,0,0,0,.16-.22,1.36,1.36,0,0,0,.06-.29v-.31a1.33,1.33,0,0,0-.06-.3.44.44,0,0,0-.16-.22.51.51,0,0,0-.3-.08.52.52,0,0,0-.29.08.47.47,0,0,0-.17.2.63.63,0,0,0-.06.27,1.09,1.09,0,0,0,0,.18,1.21,1.21,0,0,0,0,.19.64.64,0,0,0,.06.28.5.5,0,0,0,.16.22A.56.56,0,0,0,72.32,91.47Z"/><path class="cls-3" d="M75.31,92.07a1.22,1.22,0,0,1-.91-.32,1.24,1.24,0,0,1-.36-.93v-.21a1.54,1.54,0,0,1,.17-.67,1.11,1.11,0,0,1,.44-.42,1.33,1.33,0,0,1,.65-.15,1.34,1.34,0,0,1,.7.17,1.21,1.21,0,0,1,.43.47,1.52,1.52,0,0,1,.14.69v.11a.12.12,0,0,1,0,.09.11.11,0,0,1-.08,0H74.81v0a1.14,1.14,0,0,0,.06.29.62.62,0,0,0,.17.22.45.45,0,0,0,.26.08.4.4,0,0,0,.2,0,.47.47,0,0,0,.14-.08s.06-.06.07-.09l.07-.06h.61l.09,0a.08.08,0,0,1,0,.08.43.43,0,0,1-.08.2,1,1,0,0,1-.23.23,1.42,1.42,0,0,1-.37.19A1.61,1.61,0,0,1,75.31,92.07Zm-.5-1.59h1a.79.79,0,0,0-.06-.32.45.45,0,0,0-.16-.2.48.48,0,0,0-.27-.08A.45.45,0,0,0,75,90a.47.47,0,0,0-.17.2.79.79,0,0,0-.06.32Z"/><path class="cls-3" d="M78.23,92.07a1.23,1.23,0,0,1-.91-.32,1.28,1.28,0,0,1-.36-.93v-.21a1.54,1.54,0,0,1,.18-.67,1.09,1.09,0,0,1,.43-.42,1.4,1.4,0,0,1,.66-.15,1.37,1.37,0,0,1,.7.17,1.21,1.21,0,0,1,.43.47,1.67,1.67,0,0,1,.14.69v.11a.18.18,0,0,1,0,.09.12.12,0,0,1-.09,0H77.74v0a.65.65,0,0,0,.06.29.6.6,0,0,0,.16.22.47.47,0,0,0,.26.08.44.44,0,0,0,.21,0,.41.41,0,0,0,.13-.08l.08-.09.07-.06h.61l.08,0a.11.11,0,0,1,0,.08.48.48,0,0,1-.09.2.94.94,0,0,1-.22.23,1.5,1.5,0,0,1-.38.19A1.53,1.53,0,0,1,78.23,92.07Zm-.49-1.59h1a.79.79,0,0,0-.06-.32.47.47,0,0,0-.17-.2.45.45,0,0,0-.26-.08A.48.48,0,0,0,78,90a.55.55,0,0,0-.17.2,1,1,0,0,0-.05.32Z"/><path class="cls-3" d="M80.83,92a.11.11,0,0,1-.08,0,.11.11,0,0,1,0-.07.09.09,0,0,1,0,0l1.19-3.21a.21.21,0,0,1,.06-.1.21.21,0,0,1,.12,0h.64a.22.22,0,0,1,.13,0,.21.21,0,0,1,.06.1l1.19,3.21v0a.11.11,0,0,1,0,.07A.09.09,0,0,1,84,92H83.5a.16.16,0,0,1-.11,0,.23.23,0,0,1,0-.07l-.21-.56H81.72l-.22.56s0,0,0,.07a.18.18,0,0,1-.11,0Zm1.07-1.3h1l-.52-1.44Z"/><path class="cls-3" d="M84.62,93a.11.11,0,0,1-.12-.12v-3.3a.12.12,0,0,1,.12-.13h.48a.12.12,0,0,1,.12.13v.19a.91.91,0,0,1,.31-.27,1.14,1.14,0,0,1,.48-.1,1.25,1.25,0,0,1,.45.08.87.87,0,0,1,.32.24,1,1,0,0,1,.21.37,1.42,1.42,0,0,1,.08.48c0,.06,0,.13,0,.18s0,.12,0,.19a1.45,1.45,0,0,1-.08.47,1,1,0,0,1-.2.37,1,1,0,0,1-.33.24,1.25,1.25,0,0,1-.45.08,1.06,1.06,0,0,1-.45-.09.91.91,0,0,1-.3-.25v1.12a.12.12,0,0,1,0,.09.11.11,0,0,1-.08,0Zm1.16-1.5a.51.51,0,0,0,.3-.08.5.5,0,0,0,.16-.22,1.36,1.36,0,0,0,.06-.29v-.31a1.33,1.33,0,0,0-.06-.3.5.5,0,0,0-.16-.22.51.51,0,0,0-.3-.08.49.49,0,0,0-.3.09.37.37,0,0,0-.16.21.67.67,0,0,0-.06.28,1.15,1.15,0,0,0,0,.19,1.28,1.28,0,0,0,0,.19.58.58,0,0,0,.06.26.47.47,0,0,0,.17.2A.43.43,0,0,0,85.78,91.47Z"/><path class="cls-3" d="M87.73,93a.12.12,0,0,1-.09,0,.16.16,0,0,1,0-.09v-3.3a.12.12,0,0,1,0-.09.1.1,0,0,1,.09,0h.48a.12.12,0,0,1,.12.13v.19a1,1,0,0,1,.31-.27,1.14,1.14,0,0,1,.48-.1,1.25,1.25,0,0,1,.45.08.87.87,0,0,1,.32.24,1,1,0,0,1,.21.37,1.42,1.42,0,0,1,.08.48,1.15,1.15,0,0,1,0,.18,1.28,1.28,0,0,1,0,.19,1.45,1.45,0,0,1-.08.47,1,1,0,0,1-.2.37,1,1,0,0,1-.33.24,1.25,1.25,0,0,1-.45.08,1.06,1.06,0,0,1-.45-.09.91.91,0,0,1-.3-.25v1.12a.12.12,0,0,1,0,.09.11.11,0,0,1-.08,0Zm1.16-1.5a.51.51,0,0,0,.3-.08.44.44,0,0,0,.16-.22,1.36,1.36,0,0,0,.06-.29v-.31a1.33,1.33,0,0,0-.06-.3.44.44,0,0,0-.16-.22.51.51,0,0,0-.3-.08.49.49,0,0,0-.3.09.42.42,0,0,0-.16.21.67.67,0,0,0-.06.28,1.15,1.15,0,0,0,0,.19,1.28,1.28,0,0,0,0,.19.58.58,0,0,0,.06.26.47.47,0,0,0,.17.2A.43.43,0,0,0,88.89,91.47Z"/></g></g><g id="_2._Get_order" data-name=" 2. Get order" class="cls-2"><g class="cls-2"><path class="cls-3" d="M27.56,101a.12.12,0,0,1-.13-.12v-.3a.52.52,0,0,1,0-.11.27.27,0,0,1,.11-.13l.66-.66c.24-.19.44-.34.59-.47a2.19,2.19,0,0,0,.34-.36.58.58,0,0,0,.11-.31.48.48,0,0,0-.11-.32.42.42,0,0,0-.35-.13.5.5,0,0,0-.27.07.4.4,0,0,0-.16.18.62.62,0,0,0-.08.24.13.13,0,0,1-.07.09l-.09,0H27.6a.1.1,0,0,1-.08,0,.11.11,0,0,1,0-.07,1,1,0,0,1,.1-.44,1,1,0,0,1,.26-.36,1.31,1.31,0,0,1,.41-.26,1.53,1.53,0,0,1,.54-.09,1.66,1.66,0,0,1,.71.14,1,1,0,0,1,.43.38,1.1,1.1,0,0,1,.14.55A1,1,0,0,1,30,99a1.36,1.36,0,0,1-.28.39c-.12.12-.27.25-.44.39l-.59.59H30a.12.12,0,0,1,.09,0,.11.11,0,0,1,0,.09v.43A.12.12,0,0,1,30,101Z"/><path class="cls-3" d="M30.8,101a.12.12,0,0,1-.13-.12v-.56a.14.14,0,0,1,.13-.13h.56a.12.12,0,0,1,.12.13v.56a.11.11,0,0,1-.12.12Z"/><path class="cls-3" d="M34.65,101.07a1.83,1.83,0,0,1-.81-.16,1.09,1.09,0,0,1-.51-.46,1.49,1.49,0,0,1-.2-.73V98.8a1.48,1.48,0,0,1,.2-.72,1.15,1.15,0,0,1,.52-.45,1.78,1.78,0,0,1,.8-.16,1.89,1.89,0,0,1,.65.1,1.6,1.6,0,0,1,.47.24,1.5,1.5,0,0,1,.29.34.77.77,0,0,1,.1.34.11.11,0,0,1,0,.08.1.1,0,0,1-.08,0h-.62l-.08,0a.15.15,0,0,1,0-.06.63.63,0,0,0-.12-.18.64.64,0,0,0-.2-.16.83.83,0,0,0-.34-.06.72.72,0,0,0-.5.16.75.75,0,0,0-.2.54c0,.29,0,.58,0,.88a.8.8,0,0,0,.2.56.77.77,0,0,0,.51.17.83.83,0,0,0,.36-.08.51.51,0,0,0,.26-.22.72.72,0,0,0,.1-.4v-.12h-.55a.12.12,0,0,1-.08,0,.12.12,0,0,1,0-.09v-.32a.11.11,0,0,1,0-.09.11.11,0,0,1,.08,0h1.23a.16.16,0,0,1,.09,0,.14.14,0,0,1,0,.09v.55a1.32,1.32,0,0,1-.19.73,1.22,1.22,0,0,1-.53.47A1.86,1.86,0,0,1,34.65,101.07Z"/><path class="cls-3" d="M37.9,101.07a1.26,1.26,0,0,1-.92-.32,1.27,1.27,0,0,1-.35-.93v-.21a1.54,1.54,0,0,1,.17-.67,1.11,1.11,0,0,1,.44-.42,1.33,1.33,0,0,1,.65-.15,1.34,1.34,0,0,1,.7.17A1.21,1.21,0,0,1,39,99a1.67,1.67,0,0,1,.14.69v.11a.12.12,0,0,1,0,.09.11.11,0,0,1-.08,0H37.4v0a1.14,1.14,0,0,0,.06.29.62.62,0,0,0,.17.22.45.45,0,0,0,.26.08.4.4,0,0,0,.2,0,.32.32,0,0,0,.13-.08s.07-.06.08-.09l.07-.06H39a.15.15,0,0,1,.08,0,.07.07,0,0,1,0,.08.43.43,0,0,1-.08.2,1,1,0,0,1-.23.23,1.42,1.42,0,0,1-.37.19A1.61,1.61,0,0,1,37.9,101.07Zm-.5-1.59h1a.79.79,0,0,0-.06-.32.45.45,0,0,0-.16-.2.48.48,0,0,0-.27-.08.45.45,0,0,0-.26.08.47.47,0,0,0-.17.2.79.79,0,0,0-.06.32Z"/><path class="cls-3" d="M40.9,101a1.25,1.25,0,0,1-.53-.1.68.68,0,0,1-.33-.32,1.08,1.08,0,0,1-.11-.54V99h-.39a.12.12,0,0,1-.13-.12v-.34a.14.14,0,0,1,.13-.13h.39V97.6a.12.12,0,0,1,.12-.13h.49a.14.14,0,0,1,.13.13v.82h.62a.11.11,0,0,1,.09,0,.12.12,0,0,1,0,.09v.34a.16.16,0,0,1,0,.09.14.14,0,0,1-.09,0h-.62v1a.61.61,0,0,0,.06.3.28.28,0,0,0,.24.11h.37a.11.11,0,0,1,.08,0,.11.11,0,0,1,0,.09v.37a.12.12,0,0,1,0,.09.11.11,0,0,1-.08,0Z"/><path class="cls-3" d="M44.19,101.07a1.48,1.48,0,0,1-.7-.14,1,1,0,0,1-.43-.39,1.39,1.39,0,0,1-.16-.59V99.5a1.28,1.28,0,0,1,.17-.6,1,1,0,0,1,.44-.39,1.7,1.7,0,0,1,1.35,0,1,1,0,0,1,.44.39,1.28,1.28,0,0,1,.17.6c0,.06,0,.13,0,.22s0,.16,0,.23a1.27,1.27,0,0,1-.17.59.94.94,0,0,1-.42.39A1.47,1.47,0,0,1,44.19,101.07Zm0-.55a.47.47,0,0,0,.37-.15.71.71,0,0,0,.13-.45,2,2,0,0,0,0-.4.7.7,0,0,0-.13-.44.44.44,0,0,0-.37-.16.45.45,0,0,0-.38.16.7.7,0,0,0-.13.44,2,2,0,0,0,0,.4.71.71,0,0,0,.13.45A.48.48,0,0,0,44.19,100.52Z"/><path class="cls-3" d="M46.12,101a.11.11,0,0,1-.08,0,.12.12,0,0,1,0-.09V98.55a.1.1,0,0,1,0-.09.09.09,0,0,1,.08,0h.49a.11.11,0,0,1,.09,0,.13.13,0,0,1,0,.09v.2a.7.7,0,0,1,.3-.24,1,1,0,0,1,.43-.09h.21a.11.11,0,0,1,.09,0,.12.12,0,0,1,0,.09V99a.16.16,0,0,1,0,.09.14.14,0,0,1-.09,0h-.44a.47.47,0,0,0-.34.12.46.46,0,0,0-.13.35v1.33a.11.11,0,0,1-.12.12Z"/><path class="cls-3" d="M49.11,101.07a1.23,1.23,0,0,1-.44-.08,1,1,0,0,1-.33-.24,1.17,1.17,0,0,1-.21-.38,2.18,2.18,0,0,1-.08-.48,1.45,1.45,0,0,1,0-.34,1.4,1.4,0,0,1,.08-.47,1.37,1.37,0,0,1,.2-.38,1,1,0,0,1,.33-.24,1.13,1.13,0,0,1,.45-.09,1,1,0,0,1,.45.09.86.86,0,0,1,.3.23V97.6a.14.14,0,0,1,.13-.13h.51a.11.11,0,0,1,.09,0,.12.12,0,0,1,0,.09v3.3a.16.16,0,0,1,0,.09.14.14,0,0,1-.09,0H50a.11.11,0,0,1-.08,0,.12.12,0,0,1,0-.09v-.17a.92.92,0,0,1-.31.24A1,1,0,0,1,49.11,101.07Zm.23-.6a.53.53,0,0,0,.3-.08.5.5,0,0,0,.16-.22.64.64,0,0,0,.06-.28,1.21,1.21,0,0,0,0-.19,1.09,1.09,0,0,0,0-.18.63.63,0,0,0-.06-.27.41.41,0,0,0-.17-.2.5.5,0,0,0-.29-.08.56.56,0,0,0-.3.08.6.6,0,0,0-.16.22.94.94,0,0,0-.05.3,1.6,1.6,0,0,0,0,.31.93.93,0,0,0,.05.29.6.6,0,0,0,.16.22A.56.56,0,0,0,49.34,100.47Z"/><path class="cls-3" d="M52.42,101.07a1.26,1.26,0,0,1-.92-.32,1.27,1.27,0,0,1-.35-.93v-.21a1.54,1.54,0,0,1,.17-.67,1.11,1.11,0,0,1,.44-.42,1.33,1.33,0,0,1,.65-.15,1.34,1.34,0,0,1,.7.17,1.21,1.21,0,0,1,.43.47,1.67,1.67,0,0,1,.14.69v.11a.12.12,0,0,1,0,.09.11.11,0,0,1-.08,0H51.92v0a1.14,1.14,0,0,0,.06.29.62.62,0,0,0,.17.22.45.45,0,0,0,.26.08.4.4,0,0,0,.2,0,.32.32,0,0,0,.13-.08s.07-.06.08-.09l.07-.06h.61l.08,0a.07.07,0,0,1,0,.08.43.43,0,0,1-.08.2,1,1,0,0,1-.23.23,1.42,1.42,0,0,1-.37.19A1.61,1.61,0,0,1,52.42,101.07Zm-.5-1.59h1a.79.79,0,0,0-.06-.32.45.45,0,0,0-.16-.2.48.48,0,0,0-.27-.08.45.45,0,0,0-.26.08.47.47,0,0,0-.17.2.79.79,0,0,0-.06.32Z"/><path class="cls-3" d="M54.3,101a.11.11,0,0,1-.08,0,.12.12,0,0,1,0-.09V98.55a.1.1,0,0,1,0-.09.09.09,0,0,1,.08,0h.49a.11.11,0,0,1,.09,0,.13.13,0,0,1,0,.09v.2a.7.7,0,0,1,.3-.24,1,1,0,0,1,.43-.09h.21a.11.11,0,0,1,.09,0,.12.12,0,0,1,0,.09V99a.16.16,0,0,1,0,.09.14.14,0,0,1-.09,0h-.44a.47.47,0,0,0-.34.12.46.46,0,0,0-.13.35v1.33a.11.11,0,0,1-.12.12Z"/></g></g><g id="_3._Lock_the_door" data-name=" 3. Lock the door" class="cls-2"><g class="cls-2"><path class="cls-3" d="M28.81,110.07a2,2,0,0,1-.64-.09,1.45,1.45,0,0,1-.43-.23.85.85,0,0,1-.26-.31,1,1,0,0,1-.09-.32.09.09,0,0,1,0-.07.11.11,0,0,1,.08,0h.55a.15.15,0,0,1,.09,0,.18.18,0,0,1,.06.08.4.4,0,0,0,.13.18.5.5,0,0,0,.22.1,1,1,0,0,0,.26,0,.74.74,0,0,0,.44-.13.47.47,0,0,0,.16-.37.38.38,0,0,0-.15-.34.74.74,0,0,0-.43-.11H28.3a.14.14,0,0,1-.09,0,.16.16,0,0,1,0-.09v-.24a.15.15,0,0,1,0-.1.1.1,0,0,1,.05-.06l.86-.79H27.7a.1.1,0,0,1-.09,0,.09.09,0,0,1,0-.08v-.4a.14.14,0,0,1,.13-.13h2.22a.12.12,0,0,1,.12.13V107a.15.15,0,0,1,0,.09l-.05.06-.81.8h.05a1.66,1.66,0,0,1,.52.14.83.83,0,0,1,.36.33,1,1,0,0,1,.14.54.9.9,0,0,1-.19.58,1.21,1.21,0,0,1-.5.38A1.9,1.9,0,0,1,28.81,110.07Z"/><path class="cls-3" d="M30.85,110a.12.12,0,0,1-.13-.12v-.56a.14.14,0,0,1,.13-.13h.56a.12.12,0,0,1,.12.13v.56a.11.11,0,0,1-.12.12Z"/><path class="cls-3" d="M33.42,110a.12.12,0,0,1-.13-.12v-3.25a.14.14,0,0,1,.13-.13H34a.14.14,0,0,1,.13.13v2.7h1.55a.12.12,0,0,1,.12.13v.42a.11.11,0,0,1-.12.12Z"/><path class="cls-3" d="M37.34,110.07a1.48,1.48,0,0,1-.7-.14,1,1,0,0,1-.43-.39,1.39,1.39,0,0,1-.16-.59v-.45a1.28,1.28,0,0,1,.17-.6,1,1,0,0,1,.44-.39,1.7,1.7,0,0,1,1.35,0,1,1,0,0,1,.44.39,1.28,1.28,0,0,1,.17.6c0,.06,0,.13,0,.22s0,.16,0,.23a1.27,1.27,0,0,1-.17.59.94.94,0,0,1-.42.39A1.47,1.47,0,0,1,37.34,110.07Zm0-.55a.47.47,0,0,0,.37-.15.71.71,0,0,0,.13-.45,2,2,0,0,0,0-.4.7.7,0,0,0-.13-.44.44.44,0,0,0-.37-.16.45.45,0,0,0-.38.16.7.7,0,0,0-.13.44,2,2,0,0,0,0,.4.71.71,0,0,0,.13.45A.48.48,0,0,0,37.34,109.52Z"/><path class="cls-3" d="M40.31,110.07a1.41,1.41,0,0,1-.64-.13,1,1,0,0,1-.44-.4,1.18,1.18,0,0,1-.18-.61v-.41a1.22,1.22,0,0,1,.18-.62,1,1,0,0,1,.43-.39,1.48,1.48,0,0,1,.65-.14,1.62,1.62,0,0,1,.57.09,1.3,1.3,0,0,1,.38.24.83.83,0,0,1,.22.29.63.63,0,0,1,.08.27.08.08,0,0,1,0,.08.11.11,0,0,1-.09,0h-.53a.1.1,0,0,1-.08,0,.13.13,0,0,1,0-.07.56.56,0,0,0-.18-.25.51.51,0,0,0-.28-.08.43.43,0,0,0-.35.15.62.62,0,0,0-.14.45,2,2,0,0,0,0,.35.67.67,0,0,0,.14.45.42.42,0,0,0,.35.14.47.47,0,0,0,.28-.07.62.62,0,0,0,.18-.25.16.16,0,0,1,0-.08.1.1,0,0,1,.08,0h.53a.11.11,0,0,1,.09,0,.09.09,0,0,1,0,.09,1,1,0,0,1,0,.2,1.18,1.18,0,0,1-.14.23.85.85,0,0,1-.24.22,1,1,0,0,1-.35.17A1.75,1.75,0,0,1,40.31,110.07Z"/><path class="cls-3" d="M42.18,110a.12.12,0,0,1-.13-.12v-3.3a.14.14,0,0,1,.13-.13h.49a.09.09,0,0,1,.08,0,.1.1,0,0,1,0,.09v1.69l.77-.78a.19.19,0,0,1,.07-.06.15.15,0,0,1,.1,0h.57a.11.11,0,0,1,.08,0,.13.13,0,0,1,0,.08s0,0,0,0,0,0,0,0l-1,1,1.09,1.24a.12.12,0,0,1,0,.08.1.1,0,0,1-.11.11h-.58l-.11,0-.07-.06-.87-1v.94a.12.12,0,0,1,0,.09.11.11,0,0,1-.08,0Z"/><path class="cls-3" d="M47.11,110a1.25,1.25,0,0,1-.53-.1.68.68,0,0,1-.33-.32,1.08,1.08,0,0,1-.11-.54v-1h-.39a.12.12,0,0,1-.13-.12v-.34a.14.14,0,0,1,.13-.13h.39v-.82a.12.12,0,0,1,.12-.13h.49a.14.14,0,0,1,.13.13v.82h.62a.11.11,0,0,1,.09,0,.12.12,0,0,1,0,.09v.34a.16.16,0,0,1,0,.09.14.14,0,0,1-.09,0h-.62v1a.61.61,0,0,0,.06.3.28.28,0,0,0,.24.11h.37a.11.11,0,0,1,.08,0,.11.11,0,0,1,0,.09v.37a.12.12,0,0,1,0,.09.11.11,0,0,1-.08,0Z"/><path class="cls-3" d="M48.23,110a.12.12,0,0,1-.13-.12v-3.3a.14.14,0,0,1,.13-.13h.54a.09.09,0,0,1,.08,0,.1.1,0,0,1,0,.09v1.12a1,1,0,0,1,.33-.25,1,1,0,0,1,.47-.1,1.11,1.11,0,0,1,.52.13,1,1,0,0,1,.36.39,1.41,1.41,0,0,1,.13.61v1.4a.12.12,0,0,1-.13.12H50a.14.14,0,0,1-.09,0,.16.16,0,0,1,0-.09v-1.37a.63.63,0,0,0-.13-.41.47.47,0,0,0-.37-.15.49.49,0,0,0-.38.15.54.54,0,0,0-.14.41v1.37a.12.12,0,0,1,0,.09.11.11,0,0,1-.08,0Z"/><path class="cls-3" d="M52.46,110.07a1.26,1.26,0,0,1-.92-.32,1.27,1.27,0,0,1-.35-.93v-.21a1.54,1.54,0,0,1,.17-.67,1.11,1.11,0,0,1,.44-.42,1.33,1.33,0,0,1,.65-.15,1.34,1.34,0,0,1,.7.17,1.21,1.21,0,0,1,.43.47,1.67,1.67,0,0,1,.14.69v.11a.12.12,0,0,1,0,.09.11.11,0,0,1-.08,0H52v0a1.14,1.14,0,0,0,.06.29.62.62,0,0,0,.17.22.45.45,0,0,0,.26.08.4.4,0,0,0,.2,0,.32.32,0,0,0,.13-.08s.07-.06.08-.09l.07-.06h.61l.08,0a.07.07,0,0,1,0,.08.43.43,0,0,1-.08.2,1,1,0,0,1-.23.23A1.42,1.42,0,0,1,53,110,1.61,1.61,0,0,1,52.46,110.07Zm-.5-1.59h1a.79.79,0,0,0-.06-.32.45.45,0,0,0-.16-.2.48.48,0,0,0-.27-.08.45.45,0,0,0-.26.08.47.47,0,0,0-.17.2.79.79,0,0,0-.06.32Z"/><path class="cls-3" d="M56.29,110.07a1.23,1.23,0,0,1-.44-.08,1,1,0,0,1-.33-.24,1.17,1.17,0,0,1-.21-.38,2.18,2.18,0,0,1-.08-.48,1.45,1.45,0,0,1,0-.34,1.4,1.4,0,0,1,.08-.47,1.37,1.37,0,0,1,.2-.38,1,1,0,0,1,.33-.24,1.13,1.13,0,0,1,.45-.09,1.06,1.06,0,0,1,.45.09.86.86,0,0,1,.3.23V106.6a.14.14,0,0,1,.13-.13h.51a.12.12,0,0,1,.12.13v3.3a.11.11,0,0,1-.12.12H57.2a.11.11,0,0,1-.08,0,.12.12,0,0,1,0-.09v-.17a.92.92,0,0,1-.31.24A1,1,0,0,1,56.29,110.07Zm.23-.6a.53.53,0,0,0,.3-.08.5.5,0,0,0,.16-.22.64.64,0,0,0,.06-.28,1.21,1.21,0,0,0,0-.19,1.09,1.09,0,0,0,0-.18.63.63,0,0,0-.06-.27.47.47,0,0,0-.17-.2.5.5,0,0,0-.29-.08.56.56,0,0,0-.3.08.6.6,0,0,0-.16.22.94.94,0,0,0-.05.3,1.6,1.6,0,0,0,0,.31.93.93,0,0,0,.05.29.6.6,0,0,0,.16.22A.56.56,0,0,0,56.52,109.47Z"/><path class="cls-3" d="M59.63,110.07a1.48,1.48,0,0,1-.7-.14,1,1,0,0,1-.43-.39,1.39,1.39,0,0,1-.16-.59v-.45a1.28,1.28,0,0,1,.17-.6,1,1,0,0,1,.44-.39,1.7,1.7,0,0,1,1.35,0,1,1,0,0,1,.44.39,1.28,1.28,0,0,1,.17.6c0,.06,0,.13,0,.22s0,.16,0,.23a1.27,1.27,0,0,1-.17.59.94.94,0,0,1-.42.39A1.47,1.47,0,0,1,59.63,110.07Zm0-.55a.47.47,0,0,0,.37-.15.71.71,0,0,0,.13-.45,2,2,0,0,0,0-.4.7.7,0,0,0-.13-.44.44.44,0,0,0-.37-.16.45.45,0,0,0-.38.16.7.7,0,0,0-.13.44,2,2,0,0,0,0,.4.71.71,0,0,0,.13.45A.48.48,0,0,0,59.63,109.52Z"/><path class="cls-3" d="M62.63,110.07a1.44,1.44,0,0,1-.69-.14,1,1,0,0,1-.43-.39,1.26,1.26,0,0,1-.16-.59,1.69,1.69,0,0,1,0-.23,1.41,1.41,0,0,1,0-.22,1.17,1.17,0,0,1,.17-.6,1,1,0,0,1,.43-.39,1.59,1.59,0,0,1,.68-.14,1.55,1.55,0,0,1,.68.14,1,1,0,0,1,.43.39,1.17,1.17,0,0,1,.17.6,1.41,1.41,0,0,1,0,.22,1.69,1.69,0,0,1,0,.23,1.26,1.26,0,0,1-.16.59,1,1,0,0,1-.43.39A1.41,1.41,0,0,1,62.63,110.07Zm0-.55a.44.44,0,0,0,.37-.15.71.71,0,0,0,.14-.45v-.4a.7.7,0,0,0-.14-.44.42.42,0,0,0-.37-.16.43.43,0,0,0-.37.16.7.7,0,0,0-.14.44v.4a.71.71,0,0,0,.14.45A.45.45,0,0,0,62.63,109.52Z"/><path class="cls-3" d="M64.57,110a.14.14,0,0,1-.09,0,.16.16,0,0,1,0-.09v-2.35a.12.12,0,0,1,0-.09.11.11,0,0,1,.09,0h.49a.12.12,0,0,1,.12.13v.2a.79.79,0,0,1,.31-.24.93.93,0,0,1,.42-.09h.22a.09.09,0,0,1,.08,0,.1.1,0,0,1,0,.09V108a.12.12,0,0,1,0,.09.11.11,0,0,1-.08,0h-.44a.42.42,0,0,0-.47.47v1.33a.12.12,0,0,1-.13.12Z"/></g></g><g id="Group_8" data-name="Group 8"><g id="Path_21" data-name="Path 21"><path class="cls-3" d="M59.19,43.94c-.07,0-.1,0-.1-.07,0-.35,0-.7,0-1A.8.8,0,0,0,58.3,42a.83.83,0,0,0-.22,0,.78.78,0,0,0-.64.81v5a.78.78,0,0,0,.59.78.9.9,0,0,0,.73-.11.1.1,0,0,1,.13,0,2.5,2.5,0,0,0,2.29-4.45,2.55,2.55,0,0,0-2-.13ZM60,47.18a.87.87,0,1,1,.87-.87h0A.88.88,0,0,1,60,47.18Z"/></g><g id="Path_22" data-name="Path 22"><path class="cls-3" d="M47.24,43.8a2.5,2.5,0,0,0,0,5,2.52,2.52,0,0,0,2.52-2.49h0a2.49,2.49,0,0,0-2.48-2.5Zm0,3.38a.87.87,0,0,1-.85-.89.87.87,0,0,1,1.73,0,.87.87,0,0,1-.87.86Z"/></g><g id="Path_23" data-name="Path 23"><path class="cls-3" d="M44.25,42.85a.87.87,0,0,0-.22-.61.9.9,0,0,0-1-.18.8.8,0,0,0-.49.75v3.51a.71.71,0,0,1-.22.53.86.86,0,0,1-1.22-.07.39.39,0,0,1-.08-.1,1.33,1.33,0,0,1-.16-.34,3.26,3.26,0,0,0-.15-.44.67.67,0,0,0-.42-.4.78.78,0,0,0-1,.47,1.27,1.27,0,0,0-.06.72,2.52,2.52,0,0,0,2.85,2.07,2.48,2.48,0,0,0,1.75-1.1,2.34,2.34,0,0,0,.35-1.32V42.85Z"/></g><g id="Path_24" data-name="Path 24"><path class="cls-3" d="M72.24,44.76a2.18,2.18,0,0,0-2-.94,2.15,2.15,0,0,0-1.47.57,2.47,2.47,0,0,0-.8,2.2,2.4,2.4,0,0,0,1.32,1.92,2.85,2.85,0,0,0,1.79.24,2.21,2.21,0,0,0,.93-.36.79.79,0,0,0,.35-.56.58.58,0,0,0-.49-.65h-.17a2.09,2.09,0,0,0-.43.11,1.9,1.9,0,0,1-1,.07.93.93,0,0,1-.63-.44c0-.07,0-.1,0-.1H72a.6.6,0,0,0,.63-.54A2.39,2.39,0,0,0,72.24,44.76Zm-1.15,1H69.68c-.08,0-.1,0-.07-.1a.87.87,0,0,1,.78-.54.85.85,0,0,1,.77.54C71.18,45.68,71.17,45.71,71.09,45.71Z"/></g><g id="Path_25" data-name="Path 25"><path class="cls-3" d="M65.35,43.82a2.18,2.18,0,0,0-1.82.77,2.46,2.46,0,0,0-.59,2.07,2.38,2.38,0,0,0,1.35,1.87,2.82,2.82,0,0,0,1.62.24,2.27,2.27,0,0,0,1-.32.92.92,0,0,0,.37-.41.56.56,0,0,0,0-.61.61.61,0,0,0-.6-.24,3.92,3.92,0,0,0-.56.16A1.8,1.8,0,0,1,65,47.3a.85.85,0,0,1-.41-.36c0-.1,0-.1.06-.1H66.9a.62.62,0,0,0,.68-.55v-.15a1.49,1.49,0,0,0,0-.21A2.22,2.22,0,0,0,65.35,43.82ZM66,45.71H64.6c-.1,0-.11,0-.07-.11a.83.83,0,0,1,1.08-.46.87.87,0,0,1,.26.16.83.83,0,0,1,.22.33c0,.06,0,.08-.06.08Z"/></g><g id="Path_26" data-name="Path 26"><path class="cls-3" d="M54.28,44.83v-2a.81.81,0,0,0-.22-.59.86.86,0,0,0-1-.18.8.8,0,0,0-.48.75v5a1.09,1.09,0,0,0,0,.18.79.79,0,0,0,.74.68.8.8,0,0,0,.87-.58,1.27,1.27,0,0,0,0-.34V44.83Z"/></g><g id="Path_27" data-name="Path 27"><path class="cls-3" d="M51.24,42a.82.82,0,0,0-.94.53,1.14,1.14,0,0,0,0,.37v4.9a.83.83,0,0,0,.22.6.85.85,0,0,0,.94.19.78.78,0,0,0,.5-.75V42.79A.79.79,0,0,0,51.24,42Z"/></g><g id="Path_28" data-name="Path 28"><path class="cls-3" d="M55.87,43.84a.79.79,0,0,0-.82.76v1.64h0v1.59a1,1,0,0,0,.08.37.83.83,0,0,0,.92.45.78.78,0,0,0,.66-.8v-3.2a.78.78,0,0,0-.76-.81Z"/></g><g id="Path_29" data-name="Path 29"><path class="cls-3" d="M55.87,41.05a1,1,0,1,0,.94,1h0a.94.94,0,0,0-.94-1Z"/></g></g><g id="jollibeeLogoBG"><g id="Path_30" data-name="Path 30"><path class="cls-4" d="M64.65,30.39A1.72,1.72,0,0,0,64,29.31a1.28,1.28,0,0,0-.78-.23,5.48,5.48,0,0,0-4.88-5.15.8.8,0,0,1,.06-.3,3.5,3.5,0,0,1,.47-.73,2.57,2.57,0,0,0,.44-.77.4.4,0,0,0-.13-.48.47.47,0,0,0-.51,0,2,2,0,0,0-.73.76,2.56,2.56,0,0,0-.34,1.14c0,.33,0,.32-.35.32a.13.13,0,0,1-.17-.11v0c-.08-.3-.17-.59-.26-.88a.14.14,0,0,1,.06-.18h0a3.73,3.73,0,0,0,1-.91A2.12,2.12,0,0,0,58,19.54a2.21,2.21,0,0,0-.3-.45,2.05,2.05,0,0,0-.78-.55,5,5,0,0,0-.55-.16h-.59c-.08.1-.2,0-.3.06a5.11,5.11,0,0,0-1.4.6,5.68,5.68,0,0,0-1.3,1.15A4.78,4.78,0,0,0,52,21.6a.19.19,0,0,1-.17.16,7.06,7.06,0,0,0-1.4.37,5.26,5.26,0,0,0-1.23.62,2.31,2.31,0,0,0-1,1.37l0,0v.61a1,1,0,0,1,.08.29,1.74,1.74,0,0,0,.92,1.08,2.19,2.19,0,0,0,2,.1c.22-.1.27-.08.44.08s.2.23,0,.38a1.14,1.14,0,0,0-.15.23,5.64,5.64,0,0,0-.76,3.16,5.86,5.86,0,0,0,.29,1.43A.35.35,0,0,1,51,32a1.74,1.74,0,0,0-.6,1.67,2.75,2.75,0,0,0,.82,1.63,4,4,0,0,0,.88.64,6.41,6.41,0,0,0,1.41.57,10.22,10.22,0,0,0,1.91.36c.72.09,1.44.16,2.17.22a6.18,6.18,0,0,1,1,.21h.76l.55-.13a2.51,2.51,0,0,0,1.44-1,2.38,2.38,0,0,1,.48-.57l.31-.24a8.7,8.7,0,0,0,1-1c.13-.18.31-.32.45-.5a5.34,5.34,0,0,0,1.13-2.39s0,0,0,0v-.75C64.65,30.65,64.68,30.51,64.65,30.39ZM51.22,25.54a2.9,2.9,0,0,0-1.1-.64c.06.14.18.18.26.25.27.24.55.47.83.7.1.09.06.12,0,.16a2,2,0,0,1-.72.16,2.18,2.18,0,0,1-1.22-.31,1.59,1.59,0,0,1-.72-1.06,1.7,1.7,0,0,1,.34-1.39,2.4,2.4,0,0,1,.66-.57A7.56,7.56,0,0,1,51.86,22a4,4,0,0,1-.12.52c0,.06-.06.14,0,.16s.11-.06.13-.13a8.38,8.38,0,0,1,.77-1.7,5.37,5.37,0,0,1,.49-.66,5.12,5.12,0,0,1,.58-.56,4.63,4.63,0,0,1,1.1-.69,3.16,3.16,0,0,1,1.25-.28,1.81,1.81,0,0,1,1.77,2.53,2.82,2.82,0,0,1-1.16,1.28c-.11-.38-.17-.76-.25-1.13,0,0,0-.13-.05-.13s-.07.08-.07.15a4.49,4.49,0,0,0,.09,1c.09.47.22.93.34,1.4,0,0,.07.12,0,.13a5.76,5.76,0,0,0-1.6.32c-.12,0-.13,0-.15-.1a3.62,3.62,0,0,1,0-1,2.17,2.17,0,0,0,0-.84.43.43,0,0,0-.5-.34.48.48,0,0,0-.25.14,1,1,0,0,0-.25.5,2.68,2.68,0,0,0,.26,1.9c.06.12.07.17-.08.24a5.2,5.2,0,0,0-1.35.87,4.76,4.76,0,0,0-.63.64c-.05.06-.09.07-.15,0a5.71,5.71,0,0,0-.72-.67Zm13,6.76a4.91,4.91,0,0,1-.59,1.11,8.76,8.76,0,0,1-1.24,1.41,6.62,6.62,0,0,1-.7.59v-.32c-.1,0-.11.1-.13.17A2.42,2.42,0,0,1,59.4,37a3.65,3.65,0,0,1-1.79-.3,2.41,2.41,0,0,0-.5-.21s-.08,0-.1,0,0,.07,0,.09l.25.22a2.15,2.15,0,0,1-.62,0c-.45,0-.91-.1-1.36-.17a14.23,14.23,0,0,1-2.41-.54c-.24-.08-.45-.2-.68-.3a3.37,3.37,0,0,1-.58-.41,2.48,2.48,0,0,1-1-1.64A1.58,1.58,0,0,1,51,32.29a1.89,1.89,0,0,1,1.41-.63,5.49,5.49,0,0,1,1.14.1.24.24,0,0,0,0-.08l0,0v0l0,0h0v0h0s-.09,0-.12,0a2.48,2.48,0,0,0-1.78.06c-.1.05-.13,0-.16-.09A5.22,5.22,0,0,1,51.11,29a5.93,5.93,0,0,1,1.5-3,5.19,5.19,0,0,1,1.63-1.15.15.15,0,0,1,.2,0h0l.19.24a.63.63,0,0,0,.26.2.42.42,0,0,0-.12-.25,3.29,3.29,0,0,1-.72-2.21.77.77,0,0,1,.27-.65.22.22,0,0,1,.31,0,.16.16,0,0,1,0,.07.93.93,0,0,1,.07.43c0,.35,0,.7,0,1a1.83,1.83,0,0,0,.54,1.25s0,.06.11,0a1.18,1.18,0,0,0-.19-.43c-.09-.18-.09-.18.1-.24a8.4,8.4,0,0,1,1.41-.29,3,3,0,0,1,.73-.06c.13,0,.19.05.18.18a.4.4,0,0,0,.09.35c.06-.06,0-.14,0-.21a5.17,5.17,0,0,1,.07-1.18A2.63,2.63,0,0,1,58.51,22a.48.48,0,0,1,.36-.16c.17,0,.24.06.23.23a.6.6,0,0,1-.12.32l-.6.88a2,2,0,0,0-.26,1.26.24.24,0,0,0,.07.18.68.68,0,0,0,.05-.37c0-.12,0-.16.16-.14a5.43,5.43,0,0,1,3.32,1.76,4.94,4.94,0,0,1,1.2,2.67v0c0,.39,0,.39-.3.53-.08,0-.2,0-.22.16a2.45,2.45,0,0,0,.37-.08,1.32,1.32,0,0,1,1.58,1v0a3.25,3.25,0,0,1-.12,2Z"/></g><g id="Path_31" data-name="Path 31"><path class="cls-5" d="M64.34,30.29a1.31,1.31,0,0,0-1.55-1h0a2.66,2.66,0,0,1-.37.07c-.08,0-.1,0-.11-.07a4.08,4.08,0,0,0-.35-1.57,3.21,3.21,0,0,0-.66-1,3.31,3.31,0,0,0-.69-.6,1.83,1.83,0,0,0-2.26.3,2.31,2.31,0,0,0-.54,1.53v.41c-.09,0-.1-.07-.12-.1a2.43,2.43,0,0,0-.58-.73,2.35,2.35,0,0,0-3.33-.19l-.08.06a2.43,2.43,0,0,0-.7,1.45,4.49,4.49,0,0,0,.43,2.6l.06.16h0v0h0l0,0v0a.24.24,0,0,1,0,.08,6.12,6.12,0,0,0-1.14-.11,1.94,1.94,0,0,0-1.4.64,1.58,1.58,0,0,0-.35,1.41,2.53,2.53,0,0,0,1,1.64,4.67,4.67,0,0,0,.58.41,6,6,0,0,0,.69.3,14.12,14.12,0,0,0,2.4.54c.46.06.91.14,1.37.17a2.09,2.09,0,0,0,.61,0L57,36.57s-.05-.06,0-.09.07,0,.1,0a4.4,4.4,0,0,1,.5.21,3.63,3.63,0,0,0,1.78.31,2.53,2.53,0,0,0,1.29-.47,2.38,2.38,0,0,0,.89-1.25c0-.06,0-.15.13-.17v.32a6.62,6.62,0,0,0,.7-.59,9.14,9.14,0,0,0,1.23-1.41,4.39,4.39,0,0,0,.59-1.11A3.22,3.22,0,0,0,64.34,30.29Zm-5.16-3.4a1,1,0,0,1,.53-.18,1.09,1.09,0,0,1,.62.08,2,2,0,0,1,1,.9,3.79,3.79,0,0,1,.45,1.23c0,.15,0,.3,0,.46s0,.09.06.1.07.06,0,.11a4.56,4.56,0,0,1-.75.41c-.34.16-.67.35-1,.48a3.5,3.5,0,0,0-.35.23.19.19,0,0,1-.27-.05l0,0a3.91,3.91,0,0,1-.42-.78,4.71,4.71,0,0,1-.4-1.6,1.53,1.53,0,0,1,.55-1.36Zm-1.07,5.2a2.36,2.36,0,0,1,.46.1,1.05,1.05,0,0,0,.75-.17.34.34,0,0,0,.12-.46.36.36,0,0,1,.18.46.55.55,0,0,1-.42.37,1.1,1.1,0,0,1-1-.13s-.13-.07-.11-.17Zm-3.92-.43c-.06,0-.06-.05-.08-.08s0-.06,0-.07.09-.09.05-.17a4,4,0,0,1-.48-1.94,2.08,2.08,0,0,1,.27-1,1.69,1.69,0,0,1,.77-.68,1.43,1.43,0,0,1,1.49.27,2.62,2.62,0,0,1,.55.6,2.73,2.73,0,0,1,.39.95,6.55,6.55,0,0,1,.13,1.25c0,.13,0,.3,0,.48s0,.13-.15.14c-.5,0-1,0-1.5,0s-.86.09-1.29.16l-.17,0ZM60.4,35a1.29,1.29,0,0,1-.49.44,1.65,1.65,0,0,1-.9.17,1.39,1.39,0,0,1-.9-.45l.76.23a1.13,1.13,0,0,0,.77,0,1.38,1.38,0,0,0,.62-.38l.06,0s.07,0,.1,0,0,.08,0,.11Zm1.65-3.5a1.18,1.18,0,0,0-.33.3,8.56,8.56,0,0,0-1.06,1.89,3.45,3.45,0,0,1-.24.47,1.44,1.44,0,0,1-1.77.69,4.82,4.82,0,0,1-1-.49,7,7,0,0,0-1.15-.53l-.72-.27a1.25,1.25,0,0,0-.85-.06.78.78,0,0,1-.5,0c.2-.09.41-.12.61-.22s.28-.3.47-.41a.21.21,0,0,1,0,.23c-.09.13,0,.16.1.2a5.73,5.73,0,0,0,1.17.2,6.16,6.16,0,0,0,3.41-.53,3.91,3.91,0,0,0,1.3-1.09.85.85,0,0,0,.11-.26c-.12,0-.27,0-.34-.22a2.59,2.59,0,0,0,.68,0h0c.1,0,.25-.1.28,0s-.13.13-.22.17Z"/></g><g id="Path_32" data-name="Path 32"><path class="cls-5" d="M50.12,24.9c.06.14.18.18.26.25.27.24.55.48.83.7.1.09.06.12,0,.16a2,2,0,0,1-.71.16,2.16,2.16,0,0,1-1.22-.31,1.53,1.53,0,0,1-.72-1.06,1.69,1.69,0,0,1,.33-1.39,2.45,2.45,0,0,1,.67-.57A7.38,7.38,0,0,1,51.87,22a4.56,4.56,0,0,1-.13.53c0,.05-.06.13,0,.15s.11-.06.13-.13a8.41,8.41,0,0,1,.78-1.7,5,5,0,0,1,.48-.66,6.11,6.11,0,0,1,.58-.56,4.67,4.67,0,0,1,1.1-.68,3,3,0,0,1,1.26-.29,2,2,0,0,1,.83.15,1.88,1.88,0,0,1,.94,2.38,2.85,2.85,0,0,1-1.17,1.28c-.11-.38-.16-.76-.25-1.13,0,0,0-.13,0-.13s-.07.08-.08.15a4.49,4.49,0,0,0,.09,1c.09.47.22.93.34,1.4,0,0,.08.13,0,.13a5.91,5.91,0,0,0-1.6.32c-.11,0-.13,0-.15-.1a3.62,3.62,0,0,1,0-1,2.64,2.64,0,0,0-.05-.84.44.44,0,0,0-.51-.34.45.45,0,0,0-.24.14.9.9,0,0,0-.26.5,2.73,2.73,0,0,0,.26,1.9c.06.13.07.17-.08.24a5.66,5.66,0,0,0-1.35.87,4.76,4.76,0,0,0-.63.64c-.05.06-.09.07-.15,0a6.4,6.4,0,0,0-.71-.67A3,3,0,0,0,50.12,24.9Z"/></g><g id="Path_33" data-name="Path 33"><path class="cls-6" d="M62.39,29.34c-.08,0-.1,0-.11-.07a4.08,4.08,0,0,0-.35-1.57,3.21,3.21,0,0,0-.66-1,3.31,3.31,0,0,0-.69-.6,1.83,1.83,0,0,0-2.26.3,2.31,2.31,0,0,0-.54,1.53v.41c-.09,0-.1-.07-.12-.1a2.43,2.43,0,0,0-.58-.73,2.36,2.36,0,0,0-3.34-.19l-.07.06a2.43,2.43,0,0,0-.7,1.45,4.41,4.41,0,0,0,.43,2.6l.06.16c-.06.08-.12,0-.17,0a2.43,2.43,0,0,0-1.78.06c-.1,0-.13,0-.16-.09A5.22,5.22,0,0,1,51.09,29a5.64,5.64,0,0,1,.54-1.59,5.45,5.45,0,0,1,1-1.37,5.07,5.07,0,0,1,1.64-1.15.13.13,0,0,1,.19,0h0l.19.24a.6.6,0,0,0,.27.2.43.43,0,0,0-.13-.25A3.34,3.34,0,0,1,54,22.89a.77.77,0,0,1,.27-.65.21.21,0,0,1,.31,0,.18.18,0,0,1,0,.07,1,1,0,0,1,.07.43c0,.35,0,.7,0,1a1.9,1.9,0,0,0,.54,1.25s.06.06.12,0a1.2,1.2,0,0,0-.2-.43c-.08-.18-.09-.18.1-.24a7.68,7.68,0,0,1,1.41-.29,3,3,0,0,1,.74-.06c.13,0,.18,0,.17.18a.43.43,0,0,0,.09.35c.06-.06,0-.14,0-.21a4.66,4.66,0,0,1,.08-1.18A2.53,2.53,0,0,1,58.49,22a.56.56,0,0,1,.36-.17c.17,0,.25.07.24.24a.7.7,0,0,1-.13.32c-.2.3-.4.58-.59.88a1.92,1.92,0,0,0-.26,1.26.22.22,0,0,0,.07.18,1,1,0,0,0,0-.37c0-.12,0-.16.15-.14a5.33,5.33,0,0,1,3.32,1.76,4.8,4.8,0,0,1,1.2,2.67v0c.05.39.05.39-.3.53C62.52,29.21,62.41,29.22,62.39,29.34Z"/></g><g id="Path_34" data-name="Path 34"><path class="cls-4" d="M57.19,29.58a2.73,2.73,0,0,0-.39-.95,2.62,2.62,0,0,0-.55-.6,1.43,1.43,0,0,0-1.49-.27,1.62,1.62,0,0,0-.77.67,2.12,2.12,0,0,0-.27,1,3.92,3.92,0,0,0,.48,1.93c0,.08.08.15-.05.18s-.07,0,0,.07,0,.08.08.07l.17,0c.43-.06.86-.12,1.29-.16s1,0,1.49,0c.11,0,.16,0,.16-.14s0-.35,0-.48A6.55,6.55,0,0,0,57.19,29.58Zm-.1,1.55c0,.08,0,.12-.11.11H56.5c-.11,0-.14,0-.12-.14a2,2,0,0,0-.12-1.17c-.06-.15-.15-.17-.29-.08l-.51.32a3.19,3.19,0,0,1,.3-.74c.05-.12,0-.17-.07-.23a1,1,0,0,0-1.08-.05,1.22,1.22,0,0,0-.6.89A2.15,2.15,0,0,1,54,29a1.49,1.49,0,0,1,.7-1,1.17,1.17,0,0,1,1.2,0,2.34,2.34,0,0,1,1,1.48,5.31,5.31,0,0,1,.15,1.59Z"/></g><g id="Path_35" data-name="Path 35"><path class="cls-4" d="M61.86,29.48c-.08,0,0-.06-.06-.1s0-.31,0-.46a3.82,3.82,0,0,0-.45-1.22,2,2,0,0,0-1-.91,1.13,1.13,0,0,0-.63-.07,1.1,1.1,0,0,0-.52.17,1.56,1.56,0,0,0-.55,1.38,4.71,4.71,0,0,0,.4,1.6,4.21,4.21,0,0,0,.42.78.19.19,0,0,0,.26.09s0,0,0,0,.23-.18.36-.22c.36-.13.69-.33,1-.49a3.53,3.53,0,0,0,.74-.4C61.93,29.54,62,29.5,61.86,29.48Zm-.38.15s0,0-.06.05c-.23.13-.24.11-.28-.14a2.3,2.3,0,0,0-.23-.76c-.1-.19-.11-.2-.3-.08s-.27.18-.41.27l0,0c.09-.21.18-.42.28-.62a.12.12,0,0,0-.05-.18,1.21,1.21,0,0,0-.59-.13.86.86,0,0,0-.74.43,1.38,1.38,0,0,0-.15.4,2,2,0,0,1,.17-1.6.75.75,0,0,1,.53-.33,1.13,1.13,0,0,1,.8.14,1.93,1.93,0,0,1,.7.77,3.6,3.6,0,0,1,.48,1.56c0,.12,0,.21-.11.24Z"/></g><g id="Path_36" data-name="Path 36"><path class="cls-4" d="M62.27,31.28c0-.08-.18,0-.28,0h0a2.61,2.61,0,0,1-.68,0c.06.17.21.17.34.23a1.12,1.12,0,0,1-.11.25,4,4,0,0,1-1.3,1.1,6.1,6.1,0,0,1-3.42.52,5.13,5.13,0,0,1-1.16-.2c-.11,0-.19-.07-.1-.2a.26.26,0,0,0,0-.23c-.19.1-.29.31-.48.41a6.13,6.13,0,0,1-.6.22.85.85,0,0,0,.5,0,1.24,1.24,0,0,1,.85,0c.24.09.48.19.72.27a8.51,8.51,0,0,1,1.15.53,4.35,4.35,0,0,0,1,.49,1.44,1.44,0,0,0,1.77-.68,4.16,4.16,0,0,0,.24-.47,8,8,0,0,1,1.06-1.89.94.94,0,0,1,.33-.3C62.14,31.42,62.3,31.38,62.27,31.28Zm-2,2.64a1.3,1.3,0,0,1-1.39.72,2.31,2.31,0,0,1-.93-.39c-.12-.08-.08-.11,0-.16A1.53,1.53,0,0,1,59.35,34l.08,0h0c-.1-.24-.09-.23.17-.34a.83.83,0,0,1,.6,0c.11,0,.13.1.08.2Z"/></g><g id="Path_37" data-name="Path 37"><path class="cls-4" d="M58.11,35.13l.76.22a1.2,1.2,0,0,0,.77,0,1.65,1.65,0,0,0,.62-.38l.06-.06s.07,0,.09,0,0,.08,0,.11a1.48,1.48,0,0,1-.49.44,1.86,1.86,0,0,1-.9.17A1.49,1.49,0,0,1,58.11,35.13Z"/></g><g id="Path_38" data-name="Path 38"><path class="cls-4" d="M58.11,32.09a3.41,3.41,0,0,1,.46.1,1,1,0,0,0,.75-.17.34.34,0,0,0,.12-.46.37.37,0,0,1,.18.46.55.55,0,0,1-.42.37,1.1,1.1,0,0,1-1-.12C58.17,32.22,58.09,32.19,58.11,32.09Z"/></g><g id="Path_39" data-name="Path 39"><path class="cls-5" d="M54,30.05A2.15,2.15,0,0,1,54,29a1.52,1.52,0,0,1,.7-1,1.19,1.19,0,0,1,1.21,0,2.36,2.36,0,0,1,1,1.48,5.31,5.31,0,0,1,.15,1.59c0,.08,0,.12-.12.11h-.48c-.11,0-.14,0-.12-.14a2,2,0,0,0-.12-1.18c0-.15-.14-.16-.28-.07l-.52.32a4.89,4.89,0,0,1,.3-.75c.06-.11,0-.16-.07-.22a1,1,0,0,0-1.08-.05A1.23,1.23,0,0,0,54,30.05Z"/></g><g id="Path_40" data-name="Path 40"><path class="cls-5" d="M60.18,29c.09-.21.17-.42.27-.62s0-.13-.05-.17a1.1,1.1,0,0,0-.59-.14.91.91,0,0,0-.74.43,1.49,1.49,0,0,0-.15.4,2,2,0,0,1,.17-1.6.88.88,0,0,1,.53-.33,1.21,1.21,0,0,1,.81.14,2.16,2.16,0,0,1,.7.77,3.77,3.77,0,0,1,.47,1.57c0,.11,0,.2-.12.23s0,0-.07.05c-.22.13-.24.12-.27-.13a2.29,2.29,0,0,0-.23-.77c-.1-.19-.12-.2-.3-.08L60.2,29Z"/></g><g id="Path_41" data-name="Path 41"><path class="cls-6" d="M59.44,34c-.09-.24-.09-.23.18-.34a.88.88,0,0,1,.6,0c.11,0,.12.1.07.2a1.3,1.3,0,0,1-1.39.73,2.21,2.21,0,0,1-.92-.39c-.12-.08-.08-.12,0-.17A1.55,1.55,0,0,1,59.35,34l.08,0Z"/></g></g></g></svg>