<svg id="Layer_1" data-name="Layer 1" xmlns="http://www.w3.org/2000/svg" viewBox="0 0 169 26"><defs><style>.cls-1{fill:#ed1b2e;}.cls-2{isolation:isolate;}.cls-3{fill:#fff;}</style></defs><g id="Group_28" data-name="Group 28"><rect id="Rectangle_35" data-name="Rectangle 35" class="cls-1" width="169" height="26" rx="3.91"/><g id="All_lockers_are_full" data-name="All lockers are full" class="cls-2"><g class="cls-2"><path class="cls-3" d="M31.72,16.91a.21.21,0,0,1-.17-.08.23.23,0,0,1-.08-.17s0-.08,0-.11l2.82-7.7a.51.51,0,0,1,.15-.23.48.48,0,0,1,.32-.11h1.78a.48.48,0,0,1,.32.11.51.51,0,0,1,.15.23l2.8,7.7a.2.2,0,0,1,0,.11.23.23,0,0,1-.08.17.22.22,0,0,1-.19.08H38.11a.37.37,0,0,1-.27-.09.51.51,0,0,1-.12-.16l-.46-1.22H34.05l-.45,1.22a.66.66,0,0,1-.11.16.39.39,0,0,1-.29.09Zm2.82-3.2h2.24l-1.12-3.17Z"/><path class="cls-3" d="M41,16.91a.27.27,0,0,1-.21-.09.29.29,0,0,1-.09-.21V8.69a.31.31,0,0,1,.3-.3h1.42a.29.29,0,0,1,.22.09.3.3,0,0,1,.08.21v7.92a.32.32,0,0,1-.08.21.29.29,0,0,1-.22.09Z"/><path class="cls-3" d="M44.4,16.91a.29.29,0,0,1-.22-.09.28.28,0,0,1-.08-.21V8.69a.26.26,0,0,1,.08-.21.29.29,0,0,1,.22-.09h1.41a.29.29,0,0,1,.22.09.3.3,0,0,1,.08.21v7.92a.32.32,0,0,1-.08.21.29.29,0,0,1-.22.09Z"/><path class="cls-3" d="M50.38,16.91a.27.27,0,0,1-.21-.09.29.29,0,0,1-.09-.21V8.69a.31.31,0,0,1,.3-.3H51.8a.29.29,0,0,1,.22.09.3.3,0,0,1,.08.21v7.92a.32.32,0,0,1-.08.21.29.29,0,0,1-.22.09Z"/><path class="cls-3" d="M56.47,17a4.09,4.09,0,0,1-1.7-.32,2.47,2.47,0,0,1-1.06-.93,3.12,3.12,0,0,1-.41-1.45c0-.16,0-.34,0-.54s0-.38,0-.54a3,3,0,0,1,.43-1.45,2.5,2.5,0,0,1,1.08-.92,3.81,3.81,0,0,1,1.66-.33,3.86,3.86,0,0,1,1.67.33,2.5,2.5,0,0,1,1.08.92,3,3,0,0,1,.43,1.45c0,.16,0,.33,0,.54s0,.38,0,.54a3,3,0,0,1-.42,1.45,2.39,2.39,0,0,1-1,.93A4.11,4.11,0,0,1,56.47,17Zm0-1.46a.92.92,0,0,0,.78-.32,1.78,1.78,0,0,0,.29-1c0-.12,0-.28,0-.48s0-.36,0-.48a1.76,1.76,0,0,0-.29-1,.9.9,0,0,0-.78-.33.94.94,0,0,0-.78.33,1.68,1.68,0,0,0-.28,1c0,.12,0,.28,0,.48s0,.36,0,.48a1.7,1.7,0,0,0,.28,1A1,1,0,0,0,56.47,15.57Z"/><path class="cls-3" d="M63.72,17a3.74,3.74,0,0,1-1.58-.32,2.66,2.66,0,0,1-1.08-.94,2.84,2.84,0,0,1-.44-1.48c0-.13,0-.29,0-.49s0-.36,0-.49a2.93,2.93,0,0,1,.43-1.49,2.56,2.56,0,0,1,1.09-.94,3.6,3.6,0,0,1,1.58-.33,3.8,3.8,0,0,1,1.42.24,3,3,0,0,1,1,.58,2.67,2.67,0,0,1,.55.71,1.78,1.78,0,0,1,.2.64.25.25,0,0,1-.09.22.29.29,0,0,1-.21.09H65a.32.32,0,0,1-.2-.07.48.48,0,0,1-.13-.17,1.11,1.11,0,0,0-.37-.53,1.06,1.06,0,0,0-1.31.15,1.63,1.63,0,0,0-.28,1c0,.32,0,.61,0,.85a1.66,1.66,0,0,0,.29,1,1.07,1.07,0,0,0,1.32.13,1.16,1.16,0,0,0,.35-.52.52.52,0,0,1,.13-.18.32.32,0,0,1,.2-.06h1.53a.29.29,0,0,1,.21.09.21.21,0,0,1,.09.21,1.71,1.71,0,0,1-.12.47,2.56,2.56,0,0,1-.34.58,2.61,2.61,0,0,1-.59.55,3.41,3.41,0,0,1-.88.41A4,4,0,0,1,63.72,17Z"/><path class="cls-3" d="M68.23,16.91a.29.29,0,0,1-.22-.09.32.32,0,0,1-.08-.21V8.69A.3.3,0,0,1,68,8.48a.29.29,0,0,1,.22-.09h1.39a.29.29,0,0,1,.21.09.27.27,0,0,1,.09.21v4l1.67-1.83a1.06,1.06,0,0,1,.15-.15.43.43,0,0,1,.24-.06h1.61a.27.27,0,0,1,.27.27.44.44,0,0,1,0,.1.16.16,0,0,1-.08.1L71.6,13.47l2.46,3a.28.28,0,0,1,.1.18.26.26,0,0,1-.08.19.24.24,0,0,1-.2.08H72.24a.49.49,0,0,1-.27-.06c0-.05-.11-.09-.15-.14l-1.9-2.28v2.18a.31.31,0,0,1-.3.3Z"/><path class="cls-3" d="M77.55,17a3.17,3.17,0,0,1-2.25-.77A3,3,0,0,1,74.42,14v-.42a3.42,3.42,0,0,1,.43-1.63,2.55,2.55,0,0,1,1.08-1,3.41,3.41,0,0,1,1.61-.36,3.33,3.33,0,0,1,1.75.42,2.64,2.64,0,0,1,1,1.14,3.64,3.64,0,0,1,.35,1.65V14a.31.31,0,0,1-.08.22.29.29,0,0,1-.22.08H76.53v.09a1.92,1.92,0,0,0,.13.64,1,1,0,0,0,.33.45.9.9,0,0,0,.55.17,1,1,0,0,0,.4-.08.91.91,0,0,0,.27-.18l.17-.17a.88.88,0,0,1,.17-.17l.21,0h1.49a.27.27,0,0,1,.2.07.25.25,0,0,1,.07.19,1.09,1.09,0,0,1-.21.49,2.49,2.49,0,0,1-.56.57,3,3,0,0,1-.91.46A4.19,4.19,0,0,1,77.55,17Zm-1-3.87h2v0a1.88,1.88,0,0,0-.11-.67A1,1,0,0,0,78.1,12a1,1,0,0,0-.56-.16A.89.89,0,0,0,77,12a1,1,0,0,0-.35.44,1.67,1.67,0,0,0-.12.67Z"/><path class="cls-3" d="M82.1,16.91a.29.29,0,0,1-.22-.09.32.32,0,0,1-.08-.21V11a.32.32,0,0,1,.08-.21.29.29,0,0,1,.22-.09h1.38a.29.29,0,0,1,.22.09.29.29,0,0,1,.09.21v.48a2.15,2.15,0,0,1,.76-.57,2.38,2.38,0,0,1,1-.21h.53a.27.27,0,0,1,.21.09.26.26,0,0,1,.09.21v1.24a.29.29,0,0,1-.09.21.27.27,0,0,1-.21.09H84.93a.94.94,0,0,0-1,1v3.07a.29.29,0,0,1-.09.21.29.29,0,0,1-.22.09Z"/><path class="cls-3" d="M89.82,17a4.58,4.58,0,0,1-1.33-.17,3.21,3.21,0,0,1-.89-.43,1.91,1.91,0,0,1-.51-.52,1.12,1.12,0,0,1-.18-.47.24.24,0,0,1,.09-.22.32.32,0,0,1,.2-.08h1.43a.15.15,0,0,1,.07,0,1.41,1.41,0,0,1,.31.21,2.16,2.16,0,0,0,.36.22,1.22,1.22,0,0,0,.49.09,1.09,1.09,0,0,0,.57-.13.43.43,0,0,0,.23-.39.48.48,0,0,0-.11-.32,1,1,0,0,0-.44-.25,6.52,6.52,0,0,0-1-.24A4.35,4.35,0,0,1,88,14a1.67,1.67,0,0,1-.72-.61,1.65,1.65,0,0,1,.06-1.84,2.33,2.33,0,0,1,.91-.73,3.6,3.6,0,0,1,1.49-.28,4.36,4.36,0,0,1,1.2.16,3,3,0,0,1,.86.42,2.19,2.19,0,0,1,.53.52,1,1,0,0,1,.19.48.21.21,0,0,1-.07.2.23.23,0,0,1-.19.09H90.94l-.08,0a1.68,1.68,0,0,1-.29-.2,1.55,1.55,0,0,0-.33-.21,1,1,0,0,0-.49-.1.82.82,0,0,0-.5.14.48.48,0,0,0-.18.38.53.53,0,0,0,.1.29,1.1,1.1,0,0,0,.42.24,9.68,9.68,0,0,0,1,.24,3.6,3.6,0,0,1,1.32.42,2,2,0,0,1,.71.68,1.76,1.76,0,0,1,.21.83,1.64,1.64,0,0,1-.35,1,2.3,2.3,0,0,1-1,.69A4.83,4.83,0,0,1,89.82,17Z"/><path class="cls-3" d="M98.31,17a2.7,2.7,0,0,1-1.16-.24,2.15,2.15,0,0,1-.81-.67,1.58,1.58,0,0,1-.3-1,1.61,1.61,0,0,1,.7-1.35,4.16,4.16,0,0,1,1.85-.67l1.5-.23v-.17a1,1,0,0,0-.18-.66.81.81,0,0,0-.66-.23,1.09,1.09,0,0,0-.55.13,1,1,0,0,0-.33.36.33.33,0,0,1-.3.16H96.73a.29.29,0,0,1-.21-.08.28.28,0,0,1-.06-.18,1,1,0,0,1,.17-.5,1.91,1.91,0,0,1,.49-.56,2.65,2.65,0,0,1,.87-.46,4,4,0,0,1,1.28-.18,4.3,4.3,0,0,1,1.32.18,2.31,2.31,0,0,1,.9.51A2,2,0,0,1,102,12a2.69,2.69,0,0,1,.16,1v3.65a.31.31,0,0,1-.3.3h-1.39a.29.29,0,0,1-.22-.09.32.32,0,0,1-.08-.21v-.42a1.52,1.52,0,0,1-.42.42,2.12,2.12,0,0,1-.62.31A2.54,2.54,0,0,1,98.31,17Zm.57-1.36a1.17,1.17,0,0,0,.62-.16,1,1,0,0,0,.45-.46,1.76,1.76,0,0,0,.16-.8v-.17l-1,.18a2,2,0,0,0-.82.29A.6.6,0,0,0,98,15a.55.55,0,0,0,.12.35.83.83,0,0,0,.32.22A1.18,1.18,0,0,0,98.88,15.67Z"/><path class="cls-3" d="M103.82,16.91a.29.29,0,0,1-.22-.09.32.32,0,0,1-.08-.21V11a.32.32,0,0,1,.08-.21.29.29,0,0,1,.22-.09h1.38a.29.29,0,0,1,.22.09.29.29,0,0,1,.09.21v.48a2.15,2.15,0,0,1,.76-.57,2.38,2.38,0,0,1,1-.21h.53a.27.27,0,0,1,.21.09.26.26,0,0,1,.09.21v1.24a.29.29,0,0,1-.09.21.27.27,0,0,1-.21.09h-1.17a.94.94,0,0,0-1,1v3.07a.29.29,0,0,1-.09.21.29.29,0,0,1-.22.09Z"/><path class="cls-3" d="M111.8,17a3.2,3.2,0,0,1-2.26-.77,3,3,0,0,1-.87-2.27v-.42a3.42,3.42,0,0,1,.42-1.63,2.55,2.55,0,0,1,1.08-1,3.46,3.46,0,0,1,1.62-.36,3.3,3.3,0,0,1,1.74.42,2.66,2.66,0,0,1,1,1.14,3.77,3.77,0,0,1,.35,1.65V14a.28.28,0,0,1-.09.22.25.25,0,0,1-.21.08h-3.84v.09a1.92,1.92,0,0,0,.13.64,1,1,0,0,0,.33.45.9.9,0,0,0,.55.17,1,1,0,0,0,.4-.08.91.91,0,0,0,.27-.18l.17-.17a.88.88,0,0,1,.17-.17l.21,0h1.49a.27.27,0,0,1,.2.07.21.21,0,0,1,.06.19,1.05,1.05,0,0,1-.2.49,2.49,2.49,0,0,1-.56.57,2.93,2.93,0,0,1-.92.46A4.12,4.12,0,0,1,111.8,17Zm-1-3.87h2v0a1.67,1.67,0,0,0-.12-.67.86.86,0,0,0-.35-.44.92.92,0,0,0-.55-.16.89.89,0,0,0-.54.16.91.91,0,0,0-.35.44,1.67,1.67,0,0,0-.12.67Z"/><path class="cls-3" d="M119.41,16.91a.31.31,0,0,1-.3-.3V12.25h-.91a.29.29,0,0,1-.22-.09.26.26,0,0,1-.08-.21V11a.25.25,0,0,1,.08-.21.29.29,0,0,1,.22-.09h.91v-.38A2.48,2.48,0,0,1,119.42,9a1.87,1.87,0,0,1,.91-.72A4.17,4.17,0,0,1,121.74,8h.93a.29.29,0,0,1,.22.09.3.3,0,0,1,.08.21v1a.33.33,0,0,1-.08.22.29.29,0,0,1-.22.09h-.84a.71.71,0,0,0-.57.19.8.8,0,0,0-.16.55v.32h1.45a.29.29,0,0,1,.22.09.29.29,0,0,1,.08.21v1a.3.3,0,0,1-.08.21.29.29,0,0,1-.22.09H121.1v4.36a.32.32,0,0,1-.08.21.29.29,0,0,1-.22.09Z"/><path class="cls-3" d="M126,17a2.33,2.33,0,0,1-1.22-.31,2.07,2.07,0,0,1-.83-.92,3.15,3.15,0,0,1-.3-1.48V11a.25.25,0,0,1,.08-.21.28.28,0,0,1,.22-.09h1.5a.31.31,0,0,1,.22.09.26.26,0,0,1,.09.21v3.28c0,.78.35,1.17,1,1.17a1.06,1.06,0,0,0,.79-.3,1.22,1.22,0,0,0,.29-.87V11a.29.29,0,0,1,.08-.21.29.29,0,0,1,.22-.09h1.5a.29.29,0,0,1,.22.09A.29.29,0,0,1,130,11v5.64a.32.32,0,0,1-.08.21.29.29,0,0,1-.22.09H128.3a.31.31,0,0,1-.3-.3v-.45a2,2,0,0,1-.81.65A2.86,2.86,0,0,1,126,17Z"/><path class="cls-3" d="M131.71,16.91a.29.29,0,0,1-.22-.09.28.28,0,0,1-.08-.21V8.69a.26.26,0,0,1,.08-.21.29.29,0,0,1,.22-.09h1.41a.29.29,0,0,1,.22.09.3.3,0,0,1,.08.21v7.92a.32.32,0,0,1-.08.21.29.29,0,0,1-.22.09Z"/><path class="cls-3" d="M135.14,16.91a.29.29,0,0,1-.22-.09.32.32,0,0,1-.08-.21V8.69a.3.3,0,0,1,.08-.21.29.29,0,0,1,.22-.09h1.41a.29.29,0,0,1,.22.09.26.26,0,0,1,.08.21v7.92a.28.28,0,0,1-.08.21.29.29,0,0,1-.22.09Z"/></g></g></g></svg>