<svg xmlns="http://www.w3.org/2000/svg" viewBox="0 0 428.5 89.63"><defs><style>.cls-1{fill:#fff;}</style></defs><g id="Layer_2" data-name="Layer 2"><g id="Layer_1-2" data-name="Layer 1"><path class="cls-1" d="M377.24.12C372.78,0,372,1.86,372.16,5.73c.26,6.45.07,12.92.07,19.93-13-6.63-24.33-5-31.74,4.11a25.38,25.38,0,0,0,.13,31.81c7.58,9.12,18.85,10.56,31.54,4,1,5.52,5.35,3.48,8.41,3.23.95-.08,2.31-3.44,2.32-5.31.17-19.3,0-38.6.22-57.9C383.17.82,381.27.22,377.24.12Zm-18.14,60C351,60,345.44,54,345.55,45.44s5.66-14.39,13.88-14.32c7.89.07,13.89,6.45,13.76,14.65S367.09,60.15,359.1,60.1Z"/><path class="cls-1" d="M181.46,5.61c0-1.6-.19-3.2-.29-4.68C171-1,170.63-.67,170.63,8.65v17C158.49,18.78,146.81,20.59,139,30c-7.41,8.94-7.17,23.11.54,31.76,8.24,9.24,19.75,10.68,31.32,3.34.88,6.36,5.48,3.56,8.66,3.61.63,0,1.87-3.34,1.89-5.15C181.53,44.26,181.48,24.93,181.46,5.61ZM158.09,60.09c-8.38.07-13.66-5.44-13.72-14.31s5.09-14.6,13.37-14.66,13.76,5.65,13.83,14.31S166.21,60,158.09,60.09Z"/><path class="cls-1" d="M233,30.18c-8.31-9.86-19.3-11.44-31.86-4.45-1.18-5.46-5.51-3.7-8.73-3.26-.93.13-2,3.62-2,5.58-.14,19.15,0,38.3-.16,57.45-.05,4.53,2.58,4.12,5.48,4.12s5.72.41,5.54-4.11c-.26-6.45-.07-12.93-.07-20,12.47,6.92,23.74,5.13,31.73-4.41C240.15,52.49,240.19,38.7,233,30.18ZM214.17,60.09c-8.15.08-13.8-5.73-13.86-14.27s5.38-14.62,13.43-14.7c8.4-.09,13.58,5.33,13.64,14.27S222.44,60,214.17,60.09Z"/><path class="cls-1" d="M428.15,36.56c-.61-9.71-7-15-16.94-15.5-10.37-.46-17.54,4.4-19.46,13.44,4.26,1.06,8.09,3.63,12.12-1.79,1.41-1.88,6.85-1.8,10-1,1.92.51,3,4.18,4.47,6.44-.39.45-.79.9-1.18,1.36-2.29,0-4.63-.34-6.84.07-4.52.84-9.28,1.41-13.36,3.32-5.88,2.76-8.25,8.88-7.07,15.13C391.15,64.72,395,68.4,402,69.51c6.14,1,11.42-1,16.18-5.14.42,1.22.52,2.77,1.11,3a21.09,21.09,0,0,0,6.69,1.51c.78,0,2.31-1.83,2.33-2.84C428.41,56.2,428.76,46.35,428.15,36.56ZM404.49,59.85c-1.54-.5-3.63-3.31-3.34-4.56.53-2.21,2.32-5.18,4.23-5.78,3.64-1.15,7.73-.85,11.62-1.15C417.66,56.18,411.12,62,404.49,59.85Z"/><path class="cls-1" d="M280.4,63.27c.18-8.31.17-16.63,0-25-.15-9.11-4.52-14.66-12.79-16.65-9.52-2.29-18.55,1.1-22.5,8.52a31.35,31.35,0,0,0-1.53,4.22c4.81,1.5,8.66,3.3,12.57-1.85,1.37-1.82,6.62-1.8,9.59-.92,2.12.62,3.4,4.09,5.05,6.29l-1.29,1.64c-2.46,0-5-.38-7.37.08-4.5.86-9.21,1.55-13.28,3.49-5.72,2.72-7.81,8.55-6.68,15.27,1,6,5,9.75,11.31,11s11.9-.85,17.23-5.25c0,6,3.88,5,7.09,4.85C282,68.77,280.36,65.36,280.4,63.27Zm-20.94-3.16c-2.82.14-5.49-.09-6.12-3.59-.65-3.67.82-6.48,4.45-7.18,3.82-.74,7.78-.69,11.74-1C269.35,56,265.84,59.81,259.46,60.11Z"/><path class="cls-1" d="M106,21.14A24.46,24.46,0,1,0,130.34,45.8,24.62,24.62,0,0,0,106,21.14Zm-.18,39c-8.58,0-13.64-5.54-13.54-14.85.09-8.89,5.27-14.22,13.76-14.13,8.34.08,13.34,5.57,13.31,14.59S114.24,60.09,105.84,60.1Z"/><path class="cls-1" d="M53.51,21.14a24.46,24.46,0,0,0-.31,48.91,24.7,24.7,0,0,0,25-24.54A24.76,24.76,0,0,0,53.51,21.14Zm-.23,39C45,60,40,54.39,40.06,45.39s5.22-14.3,13.66-14.27,13.51,5.56,13.52,14.46C67.25,54.67,61.92,60.21,53.28,60.09Z"/><path class="cls-1" d="M318.8,68.57c0-7.27,0-14.39,0-21.51,0-2.34.07-4.68-.1-7-.45-6.27-3.24-9-9-8.94S299.63,35,299.47,40.56c-.23,8-.34,16,0,24,.21,4.66-2.31,4.59-5.57,4.59s-5.71,0-5.6-4.59c.31-12,0-24,.2-36,0-2.14,1-5.87,2-6.07,3.25-.61,7.55-2,9,3.34,6.5-5.61,13.47-6,20.61-2.33,7,3.58,9.52,9.81,9.43,17.4-.08,7.16,0,14.32,0,21.49,0,6.88,0,6.89-6.78,6.67C321.68,69,320.56,68.79,318.8,68.57Z"/><path class="cls-1" d="M28.45,22.5v9.29l-9.37.53V49.15c0,5-.27,10,.08,15,.32,4.63-2,5-5.73,5-3.55,0-5.46-.49-5.33-4.85.31-10.16.07-20.33,0-30.5a7.07,7.07,0,0,0-.34-1.35C4.08,32-.56,32.91.06,26c.56-6.33,5.46-2.48,8.19-4.91,0-2.15-.13-4.78,0-7.4A13.81,13.81,0,0,1,21.9.35c6.54-.3,7.92,2,6.15,10.17-9.52.13-10.13.92-8.36,11.29l4.28.3C25.41,22.22,26.85,22.36,28.45,22.5Z"/></g></g></svg>