<svg xmlns="http://www.w3.org/2000/svg" xmlns:xlink="http://www.w3.org/1999/xlink" viewBox="0 0 37 17"><defs><style>.cls-1{opacity:0.5;}.cls-2{fill:url(#linear-gradient);}.cls-3{fill:#fff;}</style><linearGradient id="linear-gradient" y1="8.5" x2="37" y2="8.5" gradientUnits="userSpaceOnUse"><stop offset="0" stop-color="#50ba84"/><stop offset="1" stop-color="#15abd0"/></linearGradient></defs><g id="Layer_2" data-name="Layer 2"><g id="Layer_1-2" data-name="Layer 1"><g id="lockBtn" class="cls-1"><path id="Rectangle_17" data-name="Rectangle 17" class="cls-2" d="M8.5,0h20A8.51,8.51,0,0,1,37,8.5h0A8.51,8.51,0,0,1,28.5,17H8.5A8.51,8.51,0,0,1,0,8.5H0A8.51,8.51,0,0,1,8.5,0Z"/><path id="Icon_ionic-md-arrow-round-forward" data-name="Icon ionic-md-arrow-round-forward" class="cls-3" d="M19.79,13.78l4.66-4.52a1.05,1.05,0,0,0,.3-.75v0a1.05,1.05,0,0,0-.3-.75L19.79,3.22a1,1,0,0,0-1.41,0l-.05,0a1.11,1.11,0,0,0,0,1.52l2.8,2.68H13.91a1.08,1.08,0,0,0,0,2.16h7.22l-2.8,2.68a1.11,1.11,0,0,0,0,1.52,1,1,0,0,0,1.41.05Z"/></g></g></g></svg>