<svg xmlns="http://www.w3.org/2000/svg" xmlns:xlink="http://www.w3.org/1999/xlink" viewBox="0 0 131 21"><defs><style>.cls-1{fill:url(#linear-gradient);}.cls-2{isolation:isolate;}.cls-3{fill:#fff;}</style><linearGradient id="linear-gradient" y1="10.5" x2="131" y2="10.5" gradientUnits="userSpaceOnUse"><stop offset="0" stop-color="#50ba84"/><stop offset="1" stop-color="#15abd0"/></linearGradient></defs><g id="Layer_2" data-name="Layer 2"><g id="Layer_1-2" data-name="Layer 1"><path id="Rectangle_23" data-name="Rectangle 23" class="cls-1" d="M10.5,0H131V21H10.5A10.5,10.5,0,0,1,0,10.5H0A10.5,10.5,0,0,1,10.5,0Z"/><g id="Thank_you_for_using_Jollibee_Smartlockers" data-name="Thank you for using Jollibee Smartlockers" class="cls-2"><g class="cls-2"><path class="cls-3" d="M25.33,16.06a.11.11,0,0,1-.12-.12V13.26H24.3a.12.12,0,0,1-.09,0,.16.16,0,0,1,0-.09v-.45a.12.12,0,0,1,0-.09.13.13,0,0,1,.09,0h2.62a.18.18,0,0,1,.09,0,.12.12,0,0,1,0,.09v.45a.16.16,0,0,1,0,.09l-.09,0H26v2.68A.1.1,0,0,1,26,16a.11.11,0,0,1-.08,0Z"/><path class="cls-3" d="M27.51,16.06a.12.12,0,0,1-.09,0,.1.1,0,0,1,0-.09v-3.3a.1.1,0,0,1,0-.09.12.12,0,0,1,.09,0h.54a.11.11,0,0,1,.08,0,.13.13,0,0,1,0,.09v1.13a.85.85,0,0,1,.33-.26,1.09,1.09,0,0,1,.47-.1,1,1,0,0,1,.52.14.94.94,0,0,1,.36.38,1.46,1.46,0,0,1,.12.62v1.39a.11.11,0,0,1-.12.12h-.54a.12.12,0,0,1-.09,0,.13.13,0,0,1,0-.09V14.57a.65.65,0,0,0-.12-.41.47.47,0,0,0-.38-.14.48.48,0,0,0-.37.14.55.55,0,0,0-.14.41v1.37a.13.13,0,0,1,0,.09.11.11,0,0,1-.08,0Z"/><path class="cls-3" d="M31.34,16.11a1.09,1.09,0,0,1-.48-.1.83.83,0,0,1-.33-.28.65.65,0,0,1-.13-.38.68.68,0,0,1,.29-.57,1.89,1.89,0,0,1,.76-.27l.65-.1v-.09A.45.45,0,0,0,32,14a.39.39,0,0,0-.31-.11.54.54,0,0,0-.27.07.5.5,0,0,0-.15.17.14.14,0,0,1-.12.07h-.47a.15.15,0,0,1-.09,0,.15.15,0,0,1,0-.08.49.49,0,0,1,.06-.2,1.07,1.07,0,0,1,.21-.22.92.92,0,0,1,.34-.19,1.52,1.52,0,0,1,.51-.08,1.66,1.66,0,0,1,.54.08.9.9,0,0,1,.36.21,1,1,0,0,1,.21.31,1.21,1.21,0,0,1,.06.38v1.55a.12.12,0,0,1,0,.09.17.17,0,0,1-.1,0h-.48a.11.11,0,0,1-.12-.12v-.18a1,1,0,0,1-.18.17.71.71,0,0,1-.26.13A1,1,0,0,1,31.34,16.11Zm.2-.51a.61.61,0,0,0,.3-.08.45.45,0,0,0,.2-.21.82.82,0,0,0,.07-.37v-.08l-.46.07a1.07,1.07,0,0,0-.39.14.25.25,0,0,0-.13.22.23.23,0,0,0,.06.16.33.33,0,0,0,.15.11A.65.65,0,0,0,31.54,15.6Z"/><path class="cls-3" d="M33.6,16.06a.12.12,0,0,1-.09,0,.13.13,0,0,1,0-.09V13.59a.13.13,0,0,1,0-.09.12.12,0,0,1,.09,0h.48a.17.17,0,0,1,.1,0,.12.12,0,0,1,0,.09v.19a1.23,1.23,0,0,1,.33-.26,1.12,1.12,0,0,1,.5-.11,1,1,0,0,1,.52.14.86.86,0,0,1,.35.38,1.32,1.32,0,0,1,.13.62v1.39A.1.1,0,0,1,36,16a.12.12,0,0,1-.09,0h-.52a.17.17,0,0,1-.1,0,.12.12,0,0,1,0-.09V14.57a.59.59,0,0,0-.13-.41.45.45,0,0,0-.37-.14.46.46,0,0,0-.37.14.56.56,0,0,0-.15.41v1.37a.11.11,0,0,1-.12.12Z"/><path class="cls-3" d="M36.76,16.06a.11.11,0,0,1-.08,0,.1.1,0,0,1,0-.09v-3.3a.1.1,0,0,1,0-.09.11.11,0,0,1,.08,0h.5a.11.11,0,0,1,.08,0,.12.12,0,0,1,0,.09v1.69l.77-.78.08-.06s.05,0,.1,0h.57a.13.13,0,0,1,.08,0,.19.19,0,0,1,0,.07.09.09,0,0,1,0,0s0,0,0,0l-1,1,1.09,1.24a.15.15,0,0,1,0,.08.1.1,0,0,1-.11.11h-.58s-.09,0-.11,0L38.25,16l-.88-1v.94a.12.12,0,0,1,0,.09.11.11,0,0,1-.08,0Z"/><path class="cls-3" d="M40.89,17a.09.09,0,0,1-.07,0,.08.08,0,0,1,0-.07,0,0,0,0,1,0,0,.08.08,0,0,1,0,0l.39-.94-1-2.26a.25.25,0,0,1,0-.07.25.25,0,0,1,0-.07.11.11,0,0,1,.08,0h.48a.17.17,0,0,1,.1,0l0,.06.62,1.55.64-1.55a.43.43,0,0,0,0-.07l.1,0h.48a.11.11,0,0,1,.07,0,.09.09,0,0,1,0,.07.2.2,0,0,1,0,.07l-1.42,3.27a.13.13,0,0,1,0,.07.11.11,0,0,1-.1,0Z"/><path class="cls-3" d="M44.43,16.11a1.6,1.6,0,0,1-.69-.13.93.93,0,0,1-.43-.4,1.23,1.23,0,0,1-.16-.59c0-.07,0-.14,0-.23s0-.16,0-.22a1.28,1.28,0,0,1,.17-.6,1,1,0,0,1,.44-.39,1.51,1.51,0,0,1,.67-.14,1.55,1.55,0,0,1,.68.14,1,1,0,0,1,.44.39,1.4,1.4,0,0,1,.17.6V15a1.36,1.36,0,0,1-.17.59.93.93,0,0,1-.43.4A1.55,1.55,0,0,1,44.43,16.11Zm0-.55a.48.48,0,0,0,.38-.15.77.77,0,0,0,.13-.44v-.41a.77.77,0,0,0-.13-.44.48.48,0,0,0-.38-.15.47.47,0,0,0-.37.15.7.7,0,0,0-.13.44,2.11,2.11,0,0,0,0,.41.7.7,0,0,0,.13.44A.47.47,0,0,0,44.43,15.56Z"/><path class="cls-3" d="M47.2,16.11a1,1,0,0,1-.51-.13.84.84,0,0,1-.34-.38,1.29,1.29,0,0,1-.13-.62V13.59a.13.13,0,0,1,0-.09.12.12,0,0,1,.09,0h.52a.12.12,0,0,1,.09,0,.1.1,0,0,1,0,.09V15c0,.38.16.57.49.57a.47.47,0,0,0,.37-.15A.61.61,0,0,0,48,15V13.59a.12.12,0,0,1,0-.09l.09,0h.53a.11.11,0,0,1,.12.12v2.35a.11.11,0,0,1-.12.12h-.49l-.09,0a.12.12,0,0,1,0-.09v-.2a.84.84,0,0,1-.34.28A1.21,1.21,0,0,1,47.2,16.11Z"/><path class="cls-3" d="M50.84,16.06a.17.17,0,0,1-.1,0,.12.12,0,0,1,0-.09V14.06h-.39a.14.14,0,0,1-.13-.13v-.34a.13.13,0,0,1,0-.09.12.12,0,0,1,.09,0h.39v-.19a1,1,0,0,1,.12-.52.69.69,0,0,1,.35-.3,1.52,1.52,0,0,1,.56-.1h.37a.13.13,0,0,1,.09,0,.12.12,0,0,1,0,.09v.34a.11.11,0,0,1-.12.12h-.34a.28.28,0,0,0-.25.1.37.37,0,0,0-.08.26v.16h.62a.11.11,0,0,1,.12.12v.34a.12.12,0,0,1,0,.09.13.13,0,0,1-.09,0h-.62v1.88a.11.11,0,0,1-.12.12Z"/><path class="cls-3" d="M53.72,16.11A1.62,1.62,0,0,1,53,16a1,1,0,0,1-.42-.4,1.24,1.24,0,0,1-.17-.59v-.45a1.28,1.28,0,0,1,.17-.6,1,1,0,0,1,.44-.39,1.55,1.55,0,0,1,.68-.14,1.51,1.51,0,0,1,.67.14,1,1,0,0,1,.44.39,1.28,1.28,0,0,1,.17.6,1.48,1.48,0,0,1,0,.22A1.62,1.62,0,0,1,55,15a1.23,1.23,0,0,1-.16.59.93.93,0,0,1-.43.4A1.6,1.6,0,0,1,53.72,16.11Zm0-.55a.45.45,0,0,0,.37-.15.7.7,0,0,0,.13-.44,2.11,2.11,0,0,0,0-.41.7.7,0,0,0-.13-.44.53.53,0,0,0-.74,0,.7.7,0,0,0-.14.44V15a.7.7,0,0,0,.14.44A.45.45,0,0,0,53.72,15.56Z"/><path class="cls-3" d="M55.65,16.06a.11.11,0,0,1-.08,0,.13.13,0,0,1,0-.09V13.59a.18.18,0,0,1,0-.09.11.11,0,0,1,.08,0h.49a.12.12,0,0,1,.13.12v.2a.88.88,0,0,1,.73-.32h.22a.11.11,0,0,1,.08,0,.13.13,0,0,1,0,.09V14a.13.13,0,0,1,0,.09.11.11,0,0,1-.08,0h-.45a.48.48,0,0,0-.34.13.47.47,0,0,0-.12.34v1.33a.13.13,0,0,1,0,.09.12.12,0,0,1-.09,0Z"/><path class="cls-3" d="M59.67,16.11a1,1,0,0,1-.51-.13.86.86,0,0,1-.35-.38,1.43,1.43,0,0,1-.12-.62V13.59a.12.12,0,0,1,0-.09l.09,0h.53a.12.12,0,0,1,.09,0,.13.13,0,0,1,0,.09V15c0,.38.16.57.49.57a.48.48,0,0,0,.37-.15.61.61,0,0,0,.14-.42V13.59a.11.11,0,0,1,.12-.12h.53l.09,0a.12.12,0,0,1,0,.09v2.35a.12.12,0,0,1,0,.09.16.16,0,0,1-.09,0h-.49a.11.11,0,0,1-.12-.12v-.2a.84.84,0,0,1-.34.28A1.24,1.24,0,0,1,59.67,16.11Z"/><path class="cls-3" d="M62.89,16.11a1.7,1.7,0,0,1-.53-.07,1.21,1.21,0,0,1-.36-.18.66.66,0,0,1-.2-.21.45.45,0,0,1-.08-.18.1.1,0,0,1,0-.09.13.13,0,0,1,.08,0h.51l0,0,.13.11a.51.51,0,0,0,.16.09.53.53,0,0,0,.23,0,.58.58,0,0,0,.28-.06.22.22,0,0,0,.12-.2.27.27,0,0,0-.05-.15.46.46,0,0,0-.2-.1,2.69,2.69,0,0,0-.43-.12,1.77,1.77,0,0,1-.46-.16.63.63,0,0,1-.28-.25.62.62,0,0,1-.1-.37.65.65,0,0,1,.12-.37.91.91,0,0,1,.36-.3,1.37,1.37,0,0,1,.6-.12,1.75,1.75,0,0,1,.49.07,1.2,1.2,0,0,1,.34.17.89.89,0,0,1,.22.21.34.34,0,0,1,.07.19.1.1,0,0,1,0,.09l-.08,0h-.5l0,0-.12-.09a.56.56,0,0,0-.15-.1.67.67,0,0,0-.22,0,.37.37,0,0,0-.25.08.23.23,0,0,0-.09.18.28.28,0,0,0,0,.13.41.41,0,0,0,.19.11l.42.11a1.56,1.56,0,0,1,.54.17A.78.78,0,0,1,64,15a.69.69,0,0,1,.09.34.68.68,0,0,1-.14.42.91.91,0,0,1-.41.28A1.83,1.83,0,0,1,62.89,16.11Z"/><path class="cls-3" d="M64.68,13.06a.11.11,0,0,1-.08,0,.13.13,0,0,1,0-.09v-.4a.13.13,0,0,1,0-.09.09.09,0,0,1,.08,0h.53a.14.14,0,0,1,.13.13v.4a.1.1,0,0,1,0,.09.12.12,0,0,1-.09,0Zm0,3a.16.16,0,0,1-.09,0,.12.12,0,0,1,0-.09V13.59a.12.12,0,0,1,0-.09l.09,0h.5a.11.11,0,0,1,.12.12v2.35a.11.11,0,0,1-.12.12Z"/><path class="cls-3" d="M66.2,16.06a.16.16,0,0,1-.09,0,.12.12,0,0,1,0-.09V13.59a.12.12,0,0,1,0-.09l.09,0h.49a.11.11,0,0,1,.12.12v.19a1.14,1.14,0,0,1,.34-.26,1.09,1.09,0,0,1,.5-.11,1,1,0,0,1,.52.14.92.92,0,0,1,.35.38,1.46,1.46,0,0,1,.12.62v1.39a.12.12,0,0,1,0,.09.16.16,0,0,1-.09,0H68a.12.12,0,0,1-.09,0,.13.13,0,0,1,0-.09V14.57a.65.65,0,0,0-.12-.41.47.47,0,0,0-.38-.14.48.48,0,0,0-.37.14.6.6,0,0,0-.14.41v1.37a.1.1,0,0,1,0,.09.11.11,0,0,1-.08,0Z"/><path class="cls-3" d="M70.47,17.16a1.81,1.81,0,0,1-.62-.09,1.44,1.44,0,0,1-.39-.24.94.94,0,0,1-.2-.27,1,1,0,0,1-.07-.21.1.1,0,0,1,0-.09.16.16,0,0,1,.09,0h.53s.06,0,.08,0a.13.13,0,0,1,0,.07.46.46,0,0,0,.08.13.24.24,0,0,0,.13.11.47.47,0,0,0,.25.05.79.79,0,0,0,.29-.05.31.31,0,0,0,.17-.17.75.75,0,0,0,.06-.33v-.33a.81.81,0,0,1-.3.21,1,1,0,0,1-.45.09,1.3,1.3,0,0,1-.46-.08.87.87,0,0,1-.32-.24,1.07,1.07,0,0,1-.21-.36,2.39,2.39,0,0,1-.08-.49V14.6a2.18,2.18,0,0,1,.08-.48,1.12,1.12,0,0,1,.21-.37.8.8,0,0,1,.32-.25,1.11,1.11,0,0,1,.46-.09,1,1,0,0,1,.47.11,1,1,0,0,1,.32.26v-.19a.16.16,0,0,1,0-.09l.09,0h.49l.09,0a.16.16,0,0,1,0,.09V16a1.38,1.38,0,0,1-.14.64,1,1,0,0,1-.43.4A1.65,1.65,0,0,1,70.47,17.16Zm0-1.72a.43.43,0,0,0,.29-.08.44.44,0,0,0,.17-.21.58.58,0,0,0,.06-.26s0-.09,0-.16,0-.12,0-.16a.66.66,0,0,0-.06-.27.47.47,0,0,0-.17-.2.43.43,0,0,0-.29-.08.45.45,0,0,0-.3.08.47.47,0,0,0-.16.21,1.33,1.33,0,0,0-.06.3v.24a1.24,1.24,0,0,0,.06.29.45.45,0,0,0,.16.22A.45.45,0,0,0,70.44,15.44Z"/><path class="cls-3" d="M75.77,16.39a.16.16,0,0,1-.12,0l-.07-.08L75.4,16a1.23,1.23,0,0,1-.49.08,2.05,2.05,0,0,1-.78-.14,1.2,1.2,0,0,1-.51-.46,1.66,1.66,0,0,1-.21-.76v-.86a1.74,1.74,0,0,1,.21-.76,1.22,1.22,0,0,1,.52-.46,2.08,2.08,0,0,1,1.55,0,1.22,1.22,0,0,1,.52.46,1.5,1.5,0,0,1,.2.76c0,.15,0,.29,0,.43s0,.29,0,.43a1.45,1.45,0,0,1-.36,1l.36.5s0,0,0,0,0,0,0,0a.1.1,0,0,1-.11.11Zm-.86-.92a.65.65,0,0,0,.48-.18.82.82,0,0,0,.21-.56V13.9a1,1,0,0,0-.1-.42.56.56,0,0,0-.24-.24.78.78,0,0,0-.35-.08.81.81,0,0,0-.34.08.56.56,0,0,0-.24.24,1,1,0,0,0-.1.42v.83a.78.78,0,0,0,.21.56A.64.64,0,0,0,74.91,15.47Z"/><path class="cls-3" d="M78.47,16.11A1.86,1.86,0,0,1,77.7,16a1.09,1.09,0,0,1-.51-.46,1.5,1.5,0,0,1-.18-.78v-2a.14.14,0,0,1,.13-.13h.54a.13.13,0,0,1,.09,0,.1.1,0,0,1,0,.09v2a.78.78,0,0,0,.17.54.76.76,0,0,0,1,0,.73.73,0,0,0,.17-.54v-2a.13.13,0,0,1,0-.09.18.18,0,0,1,.09,0h.55a.12.12,0,0,1,.08,0,.1.1,0,0,1,0,.09v2a1.5,1.5,0,0,1-.18.78,1.09,1.09,0,0,1-.51.46A1.8,1.8,0,0,1,78.47,16.11Z"/><path class="cls-3" d="M80.76,16.06a.16.16,0,0,1-.09,0,.12.12,0,0,1,0-.09V12.69a.12.12,0,0,1,0-.09.18.18,0,0,1,.09,0h1.49a1.66,1.66,0,0,1,.68.12.88.88,0,0,1,.39.34,1,1,0,0,1,.13.52.66.66,0,0,1-.07.32.84.84,0,0,1-.16.24,1.62,1.62,0,0,1-.19.13.87.87,0,0,1,.34.3.81.81,0,0,1,.15.49,1.1,1.1,0,0,1-.14.55.83.83,0,0,1-.42.36,1.48,1.48,0,0,1-.67.13ZM81.43,14h.72a.49.49,0,0,0,.36-.12.46.46,0,0,0,0-.6.53.53,0,0,0-.36-.11h-.72Zm0,1.5h.77a.48.48,0,0,0,.37-.14.47.47,0,0,0,.12-.32.48.48,0,0,0-.12-.33.49.49,0,0,0-.37-.13h-.77Z"/><path class="cls-3" d="M84.24,16.06a.12.12,0,0,1-.09,0,.13.13,0,0,1,0-.09V12.69a.14.14,0,0,1,.13-.13H86.5a.13.13,0,0,1,.09,0,.1.1,0,0,1,0,.09v.4a.12.12,0,0,1-.13.12H84.88V14h1.51a.13.13,0,0,1,.09,0,.1.1,0,0,1,0,.09v.37a.09.09,0,0,1,0,.08.1.1,0,0,1-.09,0H84.88v.81h1.66a.12.12,0,0,1,.09,0,.13.13,0,0,1,0,.1v.39a.1.1,0,0,1,0,.09.12.12,0,0,1-.09,0Z"/><path class="cls-3" d="M89.63,16.11a2.06,2.06,0,0,1-.8-.13,1.2,1.2,0,0,1-.49-.37.89.89,0,0,1-.18-.48.09.09,0,0,1,0-.07.12.12,0,0,1,.08,0h.54a.12.12,0,0,1,.09,0,.23.23,0,0,1,.07.07.42.42,0,0,0,.11.16.55.55,0,0,0,.21.14,1.11,1.11,0,0,0,.34.05.91.91,0,0,0,.49-.11.32.32,0,0,0,.16-.28.26.26,0,0,0-.09-.21.84.84,0,0,0-.27-.14c-.13-.05-.29-.09-.5-.15a3,3,0,0,1-.64-.2,1,1,0,0,1-.39-.33.92.92,0,0,1-.14-.5.94.94,0,0,1,.17-.54,1.12,1.12,0,0,1,.46-.36,1.75,1.75,0,0,1,.72-.13,2.1,2.1,0,0,1,.59.08,1.27,1.27,0,0,1,.43.24,1,1,0,0,1,.26.31.7.7,0,0,1,.1.32.09.09,0,0,1,0,.07.11.11,0,0,1-.08,0h-.65a.28.28,0,0,1-.06-.08.37.37,0,0,0-.18-.22.63.63,0,0,0-.38-.1.75.75,0,0,0-.39.09.31.31,0,0,0-.14.27.31.31,0,0,0,.07.21.63.63,0,0,0,.25.14,4.55,4.55,0,0,0,.46.14,3,3,0,0,1,.71.22.84.84,0,0,1,.54.82.93.93,0,0,1-.19.57,1.26,1.26,0,0,1-.52.37A2.2,2.2,0,0,1,89.63,16.11Z"/><path class="cls-3" d="M91.69,16.06a.11.11,0,0,1-.08,0,.13.13,0,0,1,0-.09V13.59a.13.13,0,0,1,0-.09.11.11,0,0,1,.08,0h.47l.09,0a.12.12,0,0,1,0,.09v.17a1,1,0,0,1,.28-.24.93.93,0,0,1,.42-.11.81.81,0,0,1,.8.44,1,1,0,0,1,.33-.31,1,1,0,0,1,.48-.13.94.94,0,0,1,.47.12.83.83,0,0,1,.33.36,1.41,1.41,0,0,1,.12.63v1.42a.11.11,0,0,1-.12.12H94.9a.16.16,0,0,1-.09,0,.12.12,0,0,1,0-.09V14.56a.75.75,0,0,0-.06-.33.38.38,0,0,0-.16-.17.51.51,0,0,0-.22,0,.48.48,0,0,0-.2,0,.44.44,0,0,0-.16.17.75.75,0,0,0-.06.33v1.38a.1.1,0,0,1,0,.09.12.12,0,0,1-.09,0H93.3a.16.16,0,0,1-.09,0,.12.12,0,0,1,0-.09V14.56a.75.75,0,0,0-.06-.33.38.38,0,0,0-.16-.17.46.46,0,0,0-.21,0,.41.41,0,0,0-.37.21.73.73,0,0,0-.06.32v1.39a.1.1,0,0,1,0,.09.11.11,0,0,1-.08,0Z"/><path class="cls-3" d="M96.88,16.11a1,1,0,0,1-.47-.1.93.93,0,0,1-.34-.28.64.64,0,0,1-.12-.38.68.68,0,0,1,.29-.57,1.84,1.84,0,0,1,.75-.27l.66-.1v-.09a.45.45,0,0,0-.09-.3.41.41,0,0,0-.32-.11A.5.5,0,0,0,97,14a.44.44,0,0,0-.16.17.12.12,0,0,1-.11.07h-.48a.12.12,0,0,1-.08,0,.1.1,0,0,1,0-.08.53.53,0,0,1,.07-.2.8.8,0,0,1,.2-.22,1,1,0,0,1,.34-.19,1.58,1.58,0,0,1,.52-.08,1.71,1.71,0,0,1,.54.08.9.9,0,0,1,.36.21.79.79,0,0,1,.2.31,1.21,1.21,0,0,1,.06.38v1.55a.11.11,0,0,1-.12.12H97.8a.16.16,0,0,1-.09,0,.12.12,0,0,1,0-.09v-.18a.59.59,0,0,1-.18.17.71.71,0,0,1-.26.13A1,1,0,0,1,96.88,16.11Zm.2-.51a.61.61,0,0,0,.3-.08.41.41,0,0,0,.2-.21.81.81,0,0,0,.08-.37v-.08l-.47.07a1.07,1.07,0,0,0-.39.14.27.27,0,0,0-.13.22.23.23,0,0,0,.06.16.33.33,0,0,0,.15.11A.71.71,0,0,0,97.08,15.6Z"/><path class="cls-3" d="M99.14,16.06a.16.16,0,0,1-.09,0,.12.12,0,0,1,0-.09V13.59a.16.16,0,0,1,0-.09l.09,0h.49l.09,0a.16.16,0,0,1,0,.09v.2a1,1,0,0,1,.31-.24.93.93,0,0,1,.42-.08h.22a.11.11,0,0,1,.08,0,.1.1,0,0,1,0,.09V14a.1.1,0,0,1,0,.09.11.11,0,0,1-.08,0h-.44a.5.5,0,0,0-.35.13.47.47,0,0,0-.12.34v1.33a.1.1,0,0,1,0,.09.12.12,0,0,1-.09,0Z"/><path class="cls-3" d="M102.44,16.06a1.25,1.25,0,0,1-.53-.1.73.73,0,0,1-.33-.32,1.2,1.2,0,0,1-.11-.54v-1h-.39a.14.14,0,0,1-.13-.13v-.34a.13.13,0,0,1,0-.09.12.12,0,0,1,.09,0h.39v-.83a.1.1,0,0,1,0-.09.11.11,0,0,1,.08,0h.49a.12.12,0,0,1,.09,0,.1.1,0,0,1,0,.09v.83h.62a.11.11,0,0,1,.12.12v.34a.12.12,0,0,1,0,.09.13.13,0,0,1-.09,0h-.62v1a.5.5,0,0,0,.07.29.25.25,0,0,0,.23.11h.37a.11.11,0,0,1,.08,0,.12.12,0,0,1,0,.09v.37a.1.1,0,0,1,0,.09.11.11,0,0,1-.08,0Z"/><path class="cls-3" d="M103.56,16.06a.12.12,0,0,1-.09,0,.13.13,0,0,1,0-.09v-3.3a.13.13,0,0,1,0-.09.12.12,0,0,1,.09,0h.5a.11.11,0,0,1,.08,0,.1.1,0,0,1,0,.09v3.3a.1.1,0,0,1,0,.09.11.11,0,0,1-.08,0Z"/><path class="cls-3" d="M106,16.11a1.62,1.62,0,0,1-.7-.13.91.91,0,0,1-.42-.4,1.24,1.24,0,0,1-.17-.59v-.45a1.28,1.28,0,0,1,.17-.6,1,1,0,0,1,.44-.39,1.55,1.55,0,0,1,.68-.14,1.51,1.51,0,0,1,.67.14,1,1,0,0,1,.44.39,1.28,1.28,0,0,1,.17.6,1.48,1.48,0,0,1,0,.22,1.62,1.62,0,0,1,0,.23,1.23,1.23,0,0,1-.16.59.93.93,0,0,1-.43.4A1.6,1.6,0,0,1,106,16.11Zm0-.55a.45.45,0,0,0,.37-.15.7.7,0,0,0,.13-.44,2.11,2.11,0,0,0,0-.41.7.7,0,0,0-.13-.44.53.53,0,0,0-.74,0,.7.7,0,0,0-.14.44s0,.12,0,.21,0,.14,0,.2a.7.7,0,0,0,.14.44A.45.45,0,0,0,106,15.56Z"/><path class="cls-3" d="M109,16.11a1.44,1.44,0,0,1-.64-.13,1,1,0,0,1-.44-.39,1.22,1.22,0,0,1-.18-.62v-.41a1.22,1.22,0,0,1,.18-.62,1,1,0,0,1,.43-.39,1.51,1.51,0,0,1,.65-.14,1.61,1.61,0,0,1,.57.1,1.17,1.17,0,0,1,.38.23,1,1,0,0,1,.23.29.77.77,0,0,1,.07.27.09.09,0,0,1,0,.09.13.13,0,0,1-.09,0h-.53a.11.11,0,0,1-.08,0,.56.56,0,0,1,0-.08.56.56,0,0,0-.18-.25A.49.49,0,0,0,109,14a.44.44,0,0,0-.35.15.71.71,0,0,0-.14.45v.35a.73.73,0,0,0,.14.45.43.43,0,0,0,.35.14.47.47,0,0,0,.28-.07.56.56,0,0,0,.18-.25.22.22,0,0,1,0-.08.11.11,0,0,1,.08,0h.53a.13.13,0,0,1,.09,0,.09.09,0,0,1,0,.09.88.88,0,0,1,0,.2,1,1,0,0,1-.14.23,1.06,1.06,0,0,1-.24.23,1,1,0,0,1-.35.16A1.75,1.75,0,0,1,109,16.11Z"/><path class="cls-3" d="M110.84,16.06a.12.12,0,0,1-.09,0,.13.13,0,0,1,0-.09v-3.3a.13.13,0,0,1,0-.09.12.12,0,0,1,.09,0h.49a.11.11,0,0,1,.08,0,.1.1,0,0,1,0,.09v1.69l.77-.78.07-.06a.15.15,0,0,1,.1,0H113a.11.11,0,0,1,.08,0,.11.11,0,0,1,0,.07.09.09,0,0,1,0,0,.08.08,0,0,1,0,0l-1,1,1.09,1.24a.12.12,0,0,1,0,.08.1.1,0,0,1-.11.11h-.58s-.08,0-.1,0l-.08-.06-.87-1v.94a.1.1,0,0,1,0,.09.11.11,0,0,1-.08,0Z"/><path class="cls-3" d="M114.59,16.11a1.29,1.29,0,0,1-.91-.31,1.37,1.37,0,0,1-.36-.94v-.21a1.6,1.6,0,0,1,.18-.66,1,1,0,0,1,.43-.43,1.4,1.4,0,0,1,.66-.15,1.28,1.28,0,0,1,.7.18,1.09,1.09,0,0,1,.43.47,1.62,1.62,0,0,1,.14.68v.11a.1.1,0,0,1,0,.09.13.13,0,0,1-.09,0H114.1v0a.72.72,0,0,0,.06.29.51.51,0,0,0,.17.21.5.5,0,0,0,.59,0,.32.32,0,0,0,.08-.09l.07-.06h.61a.11.11,0,0,1,.08,0,.1.1,0,0,1,0,.08.41.41,0,0,1-.08.19,1,1,0,0,1-.23.23,1.17,1.17,0,0,1-.37.19A1.64,1.64,0,0,1,114.59,16.11Zm-.49-1.59h1a.75.75,0,0,0-.06-.31.46.46,0,0,0-.43-.29.5.5,0,0,0-.27.08.42.42,0,0,0-.16.21.75.75,0,0,0-.06.31Z"/><path class="cls-3" d="M116.48,16.06a.16.16,0,0,1-.09,0,.12.12,0,0,1,0-.09V13.59a.16.16,0,0,1,0-.09l.09,0H117l.09,0a.16.16,0,0,1,0,.09v.2a1,1,0,0,1,.31-.24.93.93,0,0,1,.42-.08H118a.11.11,0,0,1,.08,0,.1.1,0,0,1,0,.09V14a.1.1,0,0,1,0,.09.11.11,0,0,1-.08,0h-.44a.5.5,0,0,0-.35.13.47.47,0,0,0-.12.34v1.33a.1.1,0,0,1,0,.09.12.12,0,0,1-.09,0Z"/><path class="cls-3" d="M119.56,16.11A1.62,1.62,0,0,1,119,16a1.21,1.21,0,0,1-.36-.18.7.7,0,0,1-.21-.21.41.41,0,0,1-.07-.18.12.12,0,0,1,0-.09l.08,0H119l0,0,.13.11a.46.46,0,0,0,.17.09.53.53,0,0,0,.23,0,.61.61,0,0,0,.28-.06.24.24,0,0,0,.06-.35.41.41,0,0,0-.2-.1,2.41,2.41,0,0,0-.43-.12,1.77,1.77,0,0,1-.46-.16.69.69,0,0,1-.28-.25.7.7,0,0,1-.1-.37.6.6,0,0,1,.13-.37.91.91,0,0,1,.36-.3,1.34,1.34,0,0,1,.6-.12,1.73,1.73,0,0,1,.48.07,1.27,1.27,0,0,1,.35.17,1,1,0,0,1,.21.21.37.37,0,0,1,.08.19.16.16,0,0,1,0,.09.11.11,0,0,1-.08,0h-.49l0,0-.12-.09a.56.56,0,0,0-.15-.1.62.62,0,0,0-.22,0,.37.37,0,0,0-.25.08.23.23,0,0,0-.09.18.21.21,0,0,0,0,.13.37.37,0,0,0,.18.11l.43.11a1.56,1.56,0,0,1,.54.17.87.87,0,0,1,.29.28.81.81,0,0,1,.08.34.63.63,0,0,1-.14.42.93.93,0,0,1-.4.28A1.83,1.83,0,0,1,119.56,16.11Z"/></g></g><g id="You_may_now_take_your_order." data-name="You may now take your order." class="cls-2"><g class="cls-2"><path class="cls-3" d="M26,9.06a.16.16,0,0,1-.12,0,.17.17,0,0,1-.05-.13V7.35l-1.64-3v0s0,0,0,0a.13.13,0,0,1,0-.1.16.16,0,0,1,.11,0h.74a.25.25,0,0,1,.15,0,.58.58,0,0,1,.08.1l1.1,1.92,1.1-1.92a.46.46,0,0,1,.07-.1.25.25,0,0,1,.16,0h.74a.18.18,0,0,1,.15.15s0,0,0,0l0,0L27,7.35V8.89a.21.21,0,0,1-.05.13.2.2,0,0,1-.13,0Z"/><path class="cls-3" d="M30.27,9.14a2.22,2.22,0,0,1-1-.2,1.31,1.31,0,0,1-.59-.55,1.71,1.71,0,0,1-.23-.83,3.11,3.11,0,0,1,0-.32,2.91,2.91,0,0,1,0-.31,1.65,1.65,0,0,1,.24-.84,1.43,1.43,0,0,1,.6-.54,2.16,2.16,0,0,1,1-.2,2.07,2.07,0,0,1,.94.2,1.46,1.46,0,0,1,.61.54,1.65,1.65,0,0,1,.24.84,2.91,2.91,0,0,1,0,.31,3.11,3.11,0,0,1,0,.32,1.71,1.71,0,0,1-.23.83,1.39,1.39,0,0,1-.6.55A2.13,2.13,0,0,1,30.27,9.14Zm0-.78a.64.64,0,0,0,.52-.21A1,1,0,0,0,31,7.52a2.18,2.18,0,0,0,0-.28A2,2,0,0,0,31,7a1,1,0,0,0-.18-.63.65.65,0,0,0-.52-.22.63.63,0,0,0-.52.22,1,1,0,0,0-.2.63v.55a1,1,0,0,0,.2.63A.63.63,0,0,0,30.27,8.36Z"/><path class="cls-3" d="M34.14,9.14A1.39,1.39,0,0,1,33.43,9a1.23,1.23,0,0,1-.49-.54,2,2,0,0,1-.17-.86V5.6a.21.21,0,0,1,0-.13.16.16,0,0,1,.12,0h.74a.18.18,0,0,1,.13,0,.21.21,0,0,1,0,.13V7.51c0,.52.23.79.68.79a.69.69,0,0,0,.53-.21.86.86,0,0,0,.19-.58V5.6a.17.17,0,0,1,.05-.13.16.16,0,0,1,.12,0h.75a.15.15,0,0,1,.11,0,.17.17,0,0,1,.05.13V8.89a.17.17,0,0,1-.05.13.15.15,0,0,1-.11,0h-.69a.2.2,0,0,1-.13,0,.21.21,0,0,1,0-.13V8.62a1.22,1.22,0,0,1-.46.38A1.7,1.7,0,0,1,34.14,9.14Z"/><path class="cls-3" d="M38.94,9.06a.16.16,0,0,1-.12,0,.21.21,0,0,1,0-.13V5.6a.21.21,0,0,1,0-.13.16.16,0,0,1,.12,0h.65a.16.16,0,0,1,.12,0,.18.18,0,0,1,.06.13v.24a1.27,1.27,0,0,1,.38-.34,1.4,1.4,0,0,1,.6-.15A1.11,1.11,0,0,1,41.86,6a1.22,1.22,0,0,1,.46-.44A1.32,1.32,0,0,1,43,5.35a1.3,1.3,0,0,1,.66.17,1.2,1.2,0,0,1,.47.5,2,2,0,0,1,.17.87v2a.21.21,0,0,1,0,.13.16.16,0,0,1-.12,0h-.69a.16.16,0,0,1-.12,0,.21.21,0,0,1-.05-.13V7a1.1,1.1,0,0,0-.08-.45A.47.47,0,0,0,43,6.27a.61.61,0,0,0-.3-.08.57.57,0,0,0-.28.08.51.51,0,0,0-.23.23,1,1,0,0,0-.08.45V8.89A.21.21,0,0,1,42,9a.2.2,0,0,1-.13,0h-.69a.16.16,0,0,1-.12,0,.21.21,0,0,1,0-.13V7a1,1,0,0,0-.09-.45.41.41,0,0,0-.22-.23.57.57,0,0,0-.58,0,.63.63,0,0,0-.23.23.93.93,0,0,0-.09.44v2a.2.2,0,0,1,0,.13.19.19,0,0,1-.12,0Z"/><path class="cls-3" d="M46.21,9.14A1.47,1.47,0,0,1,45.54,9a1.19,1.19,0,0,1-.47-.39.94.94,0,0,1-.17-.54.92.92,0,0,1,.4-.79,2.5,2.5,0,0,1,1.06-.39l.92-.13V6.62a.66.66,0,0,0-.13-.42.54.54,0,0,0-.44-.14.68.68,0,0,0-.37.09.69.69,0,0,0-.22.23.19.19,0,0,1-.16.1H45.3a.15.15,0,0,1-.16-.16A.6.6,0,0,1,45.23,6a1.34,1.34,0,0,1,.28-.32A1.73,1.73,0,0,1,46,5.46a2.1,2.1,0,0,1,.72-.11,2.37,2.37,0,0,1,.75.11,1.39,1.39,0,0,1,.51.29,1.37,1.37,0,0,1,.28.44,1.61,1.61,0,0,1,.09.54V8.89A.21.21,0,0,1,48.3,9a.18.18,0,0,1-.13,0h-.68a.16.16,0,0,1-.12,0,.21.21,0,0,1,0-.13V8.63a1,1,0,0,1-.25.25,1,1,0,0,1-.36.18A1.54,1.54,0,0,1,46.21,9.14Zm.28-.73a.92.92,0,0,0,.41-.1.76.76,0,0,0,.29-.3,1.13,1.13,0,0,0,.1-.51V7.38l-.65.1a1.34,1.34,0,0,0-.55.19.38.38,0,0,0-.18.31.36.36,0,0,0,.08.23.48.48,0,0,0,.22.15A.82.82,0,0,0,46.49,8.41Z"/><path class="cls-3" d="M49.75,10.39a.13.13,0,0,1-.1,0,.14.14,0,0,1,0-.1.08.08,0,0,1,0,0,.14.14,0,0,1,0-.06l.55-1.31L48.83,5.67a.51.51,0,0,1,0-.09.16.16,0,0,1,0-.11.13.13,0,0,1,.1,0h.68a.2.2,0,0,1,.14,0,.47.47,0,0,1,.06.09l.87,2.17.89-2.17a.2.2,0,0,1,.07-.09s.07,0,.13,0h.66a.14.14,0,0,1,.11,0,.14.14,0,0,1,0,.1.22.22,0,0,1,0,.1l-2,4.59a.28.28,0,0,1-.07.09.17.17,0,0,1-.13,0Z"/><path class="cls-3" d="M54.72,9.06a.16.16,0,0,1-.12,0,.21.21,0,0,1-.05-.13V5.6a.21.21,0,0,1,.05-.13.16.16,0,0,1,.12,0h.68a.17.17,0,0,1,.13,0,.21.21,0,0,1,0,.13v.27a1.46,1.46,0,0,1,.47-.37,1.48,1.48,0,0,1,.7-.15,1.43,1.43,0,0,1,.72.19,1.23,1.23,0,0,1,.49.54,1.86,1.86,0,0,1,.18.86v2a.21.21,0,0,1,0,.13.19.19,0,0,1-.12,0h-.75a.16.16,0,0,1-.12,0,.17.17,0,0,1-.05-.13V7a.86.86,0,0,0-.18-.58.64.64,0,0,0-.52-.21.69.69,0,0,0-.53.21.81.81,0,0,0-.19.58V8.89a.21.21,0,0,1-.05.13.16.16,0,0,1-.12,0Z"/><path class="cls-3" d="M60.65,9.14a2.19,2.19,0,0,1-1-.2,1.31,1.31,0,0,1-.59-.55,1.71,1.71,0,0,1-.23-.83,3.11,3.11,0,0,1,0-.32,2.91,2.91,0,0,1,0-.31,1.65,1.65,0,0,1,.24-.84,1.43,1.43,0,0,1,.6-.54,2.16,2.16,0,0,1,1-.2,2.1,2.1,0,0,1,.94.2,1.46,1.46,0,0,1,.61.54,1.76,1.76,0,0,1,.24.84,2.91,2.91,0,0,1,0,.31,3.11,3.11,0,0,1,0,.32,1.83,1.83,0,0,1-.23.83,1.39,1.39,0,0,1-.6.55A2.13,2.13,0,0,1,60.65,9.14Zm0-.78a.61.61,0,0,0,.51-.21,1,1,0,0,0,.19-.63,2.18,2.18,0,0,0,0-.28,2,2,0,0,0,0-.27,1,1,0,0,0-.19-.63.61.61,0,0,0-.51-.22.63.63,0,0,0-.52.22,1,1,0,0,0-.2.63v.55a1,1,0,0,0,.2.63A.63.63,0,0,0,60.65,8.36Z"/><path class="cls-3" d="M64.08,9.06a.24.24,0,0,1-.15,0,.57.57,0,0,1-.08-.13l-1-3.24a.17.17,0,0,1,0-.07A.14.14,0,0,1,63,5.43h.62a.2.2,0,0,1,.14,0l.06.09.64,2.17.68-2.15a.27.27,0,0,1,.06-.1.2.2,0,0,1,.15-.05h.4a.17.17,0,0,1,.15.05.2.2,0,0,1,.07.1l.68,2.15.64-2.17s0,0,.06-.09a.18.18,0,0,1,.13,0h.62a.14.14,0,0,1,.15.15.17.17,0,0,1,0,.07l-1,3.24a.35.35,0,0,1-.08.13.21.21,0,0,1-.15,0h-.54a.24.24,0,0,1-.15,0,.26.26,0,0,1-.08-.13l-.68-2.07-.7,2.07a.33.33,0,0,1-.07.13.25.25,0,0,1-.16,0Z"/><path class="cls-3" d="M71.89,9.06a1.66,1.66,0,0,1-.74-.14,1,1,0,0,1-.47-.44,1.71,1.71,0,0,1-.16-.76V6.25H70a.19.19,0,0,1-.13,0,.17.17,0,0,1,0-.12V5.6a.21.21,0,0,1,0-.13.18.18,0,0,1,.13,0h.54V4.27a.18.18,0,0,1,.06-.13.16.16,0,0,1,.12,0h.69a.16.16,0,0,1,.12,0,.21.21,0,0,1,0,.13V5.43h.87a.16.16,0,0,1,.12,0,.17.17,0,0,1,0,.13v.48a.13.13,0,0,1,0,.12.17.17,0,0,1-.12,0h-.87V7.64a.8.8,0,0,0,.09.41A.38.38,0,0,0,72,8.2h.51a.17.17,0,0,1,.17.17v.52a.21.21,0,0,1,0,.13.19.19,0,0,1-.12,0Z"/><path class="cls-3" d="M74.35,9.14A1.47,1.47,0,0,1,73.68,9a1.12,1.12,0,0,1-.47-.39A.94.94,0,0,1,73,8.06a.92.92,0,0,1,.4-.79,2.5,2.5,0,0,1,1.06-.39l.92-.13V6.62a.6.6,0,0,0-.13-.42.54.54,0,0,0-.44-.14.68.68,0,0,0-.37.09.69.69,0,0,0-.22.23.19.19,0,0,1-.16.1h-.66a.17.17,0,0,1-.12-.05.15.15,0,0,1,0-.11A.6.6,0,0,1,73.37,6a1.34,1.34,0,0,1,.28-.32,1.73,1.73,0,0,1,.49-.26,2.1,2.1,0,0,1,.72-.11,2.37,2.37,0,0,1,.75.11,1.39,1.39,0,0,1,.51.29,1.37,1.37,0,0,1,.28.44,1.61,1.61,0,0,1,.09.54V8.89a.21.21,0,0,1,0,.13.18.18,0,0,1-.13,0h-.68a.16.16,0,0,1-.12,0,.17.17,0,0,1-.05-.13V8.63a1,1,0,0,1-.25.25,1,1,0,0,1-.36.18A1.54,1.54,0,0,1,74.35,9.14Zm.28-.73a.92.92,0,0,0,.41-.1.76.76,0,0,0,.29-.3,1.13,1.13,0,0,0,.1-.51V7.38l-.65.1a1.34,1.34,0,0,0-.55.19.38.38,0,0,0-.18.31.36.36,0,0,0,.08.23.48.48,0,0,0,.22.15A.82.82,0,0,0,74.63,8.41Z"/><path class="cls-3" d="M77.51,9.06a.2.2,0,0,1-.13,0,.21.21,0,0,1,0-.13V4.27a.21.21,0,0,1,0-.13.2.2,0,0,1,.13,0h.69a.15.15,0,0,1,.11,0,.17.17,0,0,1,0,.13V6.64l1.08-1.1.1-.08a.28.28,0,0,1,.15,0h.79a.14.14,0,0,1,.15.15.13.13,0,0,1,0,.06s0,0-.05.06L79.22,7.06,80.74,8.8c.05,0,.07.07.07.11a.16.16,0,0,1,0,.11.15.15,0,0,1-.11,0h-.81a.28.28,0,0,1-.15,0L79.59,9,78.36,7.57V8.89a.17.17,0,0,1,0,.13.15.15,0,0,1-.11,0Z"/><path class="cls-3" d="M82.77,9.14a1.77,1.77,0,0,1-1.28-.45,1.79,1.79,0,0,1-.5-1.3V7.08a2.19,2.19,0,0,1,.24-.92,1.53,1.53,0,0,1,.61-.6,1.92,1.92,0,0,1,.92-.21,1.76,1.76,0,0,1,1,.25,1.5,1.5,0,0,1,.6.65,2.26,2.26,0,0,1,.2,1v.16a.17.17,0,0,1-.05.12.21.21,0,0,1-.13,0H82.07V7.6a1.3,1.3,0,0,0,.09.4.71.71,0,0,0,.23.3.55.55,0,0,0,.36.11A.6.6,0,0,0,83,8.36a.61.61,0,0,0,.18-.11l.11-.12.1-.09.13,0h.73a.15.15,0,0,1,.11,0,.14.14,0,0,1,0,.11.63.63,0,0,1-.12.28,1.32,1.32,0,0,1-.31.32,2,2,0,0,1-.53.26A2.16,2.16,0,0,1,82.77,9.14Zm-.7-2.24h1.38a1.15,1.15,0,0,0-.08-.44.76.76,0,0,0-.24-.29.64.64,0,0,0-.37-.1.62.62,0,0,0-.37.1.76.76,0,0,0-.24.29,1.15,1.15,0,0,0-.08.44Z"/><path class="cls-3" d="M87.27,10.39a.13.13,0,0,1-.1,0,.14.14,0,0,1,0-.1.08.08,0,0,1,0,0,.14.14,0,0,1,0-.06l.54-1.31L86.35,5.67a.51.51,0,0,1,0-.09.16.16,0,0,1,0-.11.13.13,0,0,1,.1,0h.68a.2.2,0,0,1,.14,0,.47.47,0,0,1,.06.09l.87,2.17.89-2.17a.2.2,0,0,1,.07-.09s.07,0,.13,0H90a.14.14,0,0,1,.11,0,.14.14,0,0,1,0,.1.22.22,0,0,1,0,.1l-2,4.59-.07.09a.17.17,0,0,1-.13,0Z"/><path class="cls-3" d="M92.22,9.14a2.18,2.18,0,0,1-1-.2,1.39,1.39,0,0,1-.6-.55,1.71,1.71,0,0,1-.22-.83,3.11,3.11,0,0,1,0-.32,2.91,2.91,0,0,1,0-.31,1.75,1.75,0,0,1,.23-.84,1.52,1.52,0,0,1,.61-.54,2.36,2.36,0,0,1,1.9,0,1.52,1.52,0,0,1,.61.54,1.88,1.88,0,0,1,.24.84c0,.09,0,.19,0,.31s0,.23,0,.32a1.83,1.83,0,0,1-.23.83,1.39,1.39,0,0,1-.6.55A2.15,2.15,0,0,1,92.22,9.14Zm0-.78a.63.63,0,0,0,.52-.21,1,1,0,0,0,.19-.63c0-.07,0-.16,0-.28s0-.21,0-.27a1,1,0,0,0-.19-.63.63.63,0,0,0-.52-.22.66.66,0,0,0-.52.22,1,1,0,0,0-.19.63c0,.06,0,.16,0,.27s0,.21,0,.28a1,1,0,0,0,.19.63A.66.66,0,0,0,92.22,8.36Z"/><path class="cls-3" d="M96.1,9.14A1.43,1.43,0,0,1,95.38,9a1.27,1.27,0,0,1-.48-.54,2,2,0,0,1-.17-.86V5.6a.21.21,0,0,1,0-.13.16.16,0,0,1,.12,0h.74a.15.15,0,0,1,.17.17V7.51c0,.52.23.79.69.79A.67.67,0,0,0,97,8.09a.82.82,0,0,0,.2-.58V5.6a.15.15,0,0,1,.17-.17h.74a.16.16,0,0,1,.12,0,.21.21,0,0,1,0,.13V8.89a.21.21,0,0,1,0,.13.16.16,0,0,1-.12,0h-.68a.17.17,0,0,1-.13,0,.21.21,0,0,1,0-.13V8.62A1.26,1.26,0,0,1,96.8,9,1.62,1.62,0,0,1,96.1,9.14Z"/><path class="cls-3" d="M99.35,9.06a.16.16,0,0,1-.12,0,.21.21,0,0,1,0-.13V5.6a.17.17,0,0,1,0-.12.13.13,0,0,1,.12-.05H100a.16.16,0,0,1,.12.05.17.17,0,0,1,0,.12v.28a1.18,1.18,0,0,1,.43-.34,1.38,1.38,0,0,1,.59-.11h.3a.16.16,0,0,1,.12,0,.17.17,0,0,1,0,.13v.6a.15.15,0,0,1,0,.13.17.17,0,0,1-.12,0h-.61a.59.59,0,0,0-.66.65V8.89a.21.21,0,0,1-.05.13.16.16,0,0,1-.12,0Z"/><path class="cls-3" d="M105.3,9.14a2.15,2.15,0,0,1-1-.2,1.39,1.39,0,0,1-.6-.55,1.71,1.71,0,0,1-.23-.83c0-.09,0-.2,0-.32s0-.22,0-.31a1.65,1.65,0,0,1,.24-.84,1.46,1.46,0,0,1,.61-.54,2.12,2.12,0,0,1,1-.2,2.07,2.07,0,0,1,.94.2,1.4,1.4,0,0,1,.61.54,1.65,1.65,0,0,1,.24.84,2.69,2.69,0,0,1,0,.31,2.88,2.88,0,0,1,0,.32,1.71,1.71,0,0,1-.23.83,1.31,1.31,0,0,1-.59.55A2.21,2.21,0,0,1,105.3,9.14Zm0-.78a.64.64,0,0,0,.52-.21,1.07,1.07,0,0,0,.19-.63V7a1.1,1.1,0,0,0-.19-.63.72.72,0,0,0-1,0,1,1,0,0,0-.19.63,2,2,0,0,0,0,.27,2.18,2.18,0,0,0,0,.28,1,1,0,0,0,.19.63A.64.64,0,0,0,105.3,8.36Z"/><path class="cls-3" d="M108,9.06a.16.16,0,0,1-.12,0,.21.21,0,0,1,0-.13V5.6a.17.17,0,0,1,0-.12.13.13,0,0,1,.12-.05h.68a.17.17,0,0,1,.18.17v.28a1.18,1.18,0,0,1,.43-.34,1.38,1.38,0,0,1,.59-.11h.3a.16.16,0,0,1,.12,0,.21.21,0,0,1,0,.13v.6a.19.19,0,0,1,0,.13.17.17,0,0,1-.12,0h-.61a.59.59,0,0,0-.66.65V8.89a.21.21,0,0,1,0,.13.17.17,0,0,1-.13,0Z"/><path class="cls-3" d="M112.19,9.14a1.52,1.52,0,0,1-.62-.12,1.28,1.28,0,0,1-.46-.34,1.46,1.46,0,0,1-.29-.52,3.31,3.31,0,0,1-.12-.68V7a2.28,2.28,0,0,1,.12-.67,1.55,1.55,0,0,1,.29-.52,1.13,1.13,0,0,1,.46-.34,1.52,1.52,0,0,1,.62-.13,1.5,1.5,0,0,1,.63.13,1.23,1.23,0,0,1,.42.32V4.27a.21.21,0,0,1,.05-.13.2.2,0,0,1,.13,0h.72a.16.16,0,0,1,.12,0,.21.21,0,0,1,0,.13V8.89a.21.21,0,0,1,0,.13.16.16,0,0,1-.12,0h-.67a.16.16,0,0,1-.12,0,.21.21,0,0,1,0-.13V8.65a1.39,1.39,0,0,1-.44.35A1.48,1.48,0,0,1,112.19,9.14Zm.33-.84a.65.65,0,0,0,.41-.12.59.59,0,0,0,.23-.31,1,1,0,0,0,.08-.39,2.28,2.28,0,0,0,0-.26,2.11,2.11,0,0,0,0-.26.91.91,0,0,0-.08-.37.7.7,0,0,0-.23-.28.69.69,0,0,0-.41-.12.66.66,0,0,0-.42.12.59.59,0,0,0-.22.3,1.42,1.42,0,0,0-.08.42,1.55,1.55,0,0,0,0,.43,1.3,1.3,0,0,0,.08.41.58.58,0,0,0,.22.31A.66.66,0,0,0,112.52,8.3Z"/><path class="cls-3" d="M116.82,9.14a1.78,1.78,0,0,1-1.28-.45,1.84,1.84,0,0,1-.5-1.3V7.08a2.06,2.06,0,0,1,.25-.92,1.47,1.47,0,0,1,.61-.6,1.88,1.88,0,0,1,.91-.21,1.8,1.8,0,0,1,1,.25,1.54,1.54,0,0,1,.59.65,2.12,2.12,0,0,1,.2,1v.16a.17.17,0,0,1,0,.12.18.18,0,0,1-.12,0h-2.29V7.6a.9.9,0,0,0,.09.4.64.64,0,0,0,.23.3.55.55,0,0,0,.36.11.59.59,0,0,0,.28-.05.68.68,0,0,0,.19-.11l.11-.12a.26.26,0,0,1,.1-.09l.12,0h.73a.16.16,0,0,1,.12,0,.11.11,0,0,1,0,.11.59.59,0,0,1-.11.28,1.38,1.38,0,0,1-.32.32,1.94,1.94,0,0,1-.52.26A2.27,2.27,0,0,1,116.82,9.14Zm-.69-2.24h1.37a1.15,1.15,0,0,0-.08-.44.66.66,0,0,0-.23-.29.67.67,0,0,0-.38-.1.6.6,0,0,0-.6.39,1.15,1.15,0,0,0-.08.44Z"/><path class="cls-3" d="M119.46,9.06a.16.16,0,0,1-.12,0,.21.21,0,0,1,0-.13V5.6a.17.17,0,0,1,0-.12.13.13,0,0,1,.12-.05h.69a.16.16,0,0,1,.12.05.17.17,0,0,1,0,.12v.28a1.18,1.18,0,0,1,.43-.34,1.38,1.38,0,0,1,.59-.11h.3a.16.16,0,0,1,.12,0,.17.17,0,0,1,0,.13v.6a.15.15,0,0,1,0,.13.17.17,0,0,1-.12,0H121a.61.61,0,0,0-.66.65V8.89a.21.21,0,0,1-.05.13.16.16,0,0,1-.12,0Z"/><path class="cls-3" d="M122.1,9.06A.2.2,0,0,1,122,9a.21.21,0,0,1,0-.13V8.11A.17.17,0,0,1,122,8a.21.21,0,0,1,.13-.05h.78A.19.19,0,0,1,123,8a.17.17,0,0,1,0,.13v.78A.21.21,0,0,1,123,9a.18.18,0,0,1-.13,0Z"/></g></g></g></g></svg>