<svg xmlns="http://www.w3.org/2000/svg" xmlns:xlink="http://www.w3.org/1999/xlink" viewBox="0 0 113.69 136.07"><defs><style>.cls-1{fill:url(#linear-gradient);}.cls-2{fill:url(#linear-gradient-2);}.cls-3{fill:url(#linear-gradient-3);}.cls-4{fill:url(#linear-gradient-4);}.cls-5{fill:url(#linear-gradient-5);}.cls-6{fill:#fff;}.cls-7{fill:url(#linear-gradient-6);}</style><linearGradient id="linear-gradient" x1="105.72" y1="105.77" x2="12.49" y2="32.64" gradientUnits="userSpaceOnUse"><stop offset="0" stop-color="#6ec8ce"/><stop offset="1" stop-color="#72c8b8"/></linearGradient><linearGradient id="linear-gradient-2" x1="64.58" y1="64.45" x2="71.4" y2="69.91" gradientUnits="userSpaceOnUse"><stop offset="0" stop-color="#50ba84"/><stop offset="1" stop-color="#15abd0"/></linearGradient><linearGradient id="linear-gradient-3" x1="18.8" y1="35.07" x2="93.64" y2="94.95" xlink:href="#linear-gradient-2"/><linearGradient id="linear-gradient-4" x1="-1.78" y1="60.8" x2="73.06" y2="120.67" xlink:href="#linear-gradient-2"/><linearGradient id="linear-gradient-5" x1="37.87" y1="60.54" x2="66.56" y2="83.49" xlink:href="#linear-gradient-2"/><linearGradient id="linear-gradient-6" x1="43.65" y1="23.82" x2="98.89" y2="96.91" xlink:href="#linear-gradient-2"/></defs><g id="Layer_2" data-name="Layer 2"><g id="Design"><path class="cls-1" d="M112.13,38.24,59,.68h0L58.88.62,58.76.54l-.2-.11,0,0a2.67,2.67,0,0,0-.46-.2h0l-.2-.07-.12,0-.12,0-.14,0-.11,0h-1l-.11,0-.14,0L56,.1l-.12,0L55.63.2h0a2.76,2.76,0,0,0-.47.2h0l-.2.12-.12.07-.09.06h0L1.56,38.24a3.69,3.69,0,0,0-1.56,3V93.61a3.68,3.68,0,0,0,1.51,3l53.16,38.77,0,0,0,0,.19.12h0a3,3,0,0,0,.4.2l0,0,.37.13.05,0L56,136h0l.17,0,.06,0,.18,0h0l.17,0h.48l.18,0h0l.19,0,0,0,.17,0h0l.18-.05,0,0a2.32,2.32,0,0,0,.37-.13l0,0a2.87,2.87,0,0,0,.39-.2h0l.2-.13,0,0,0,0,53.16-38.77a3.69,3.69,0,0,0,1.52-3V41.25A3.72,3.72,0,0,0,112.13,38.24Zm-59,86.9L7.36,91.74V48.41l45.8,32.71Zm3.68-50.45-3.68-2.63h0L36.63,60.26,16.39,45.8,10,41.27,53.16,10.8l1.55-1.1h0l.09-.06.12-.08.2-.11h0a4,4,0,0,1,.47-.21h0l.23-.07.12,0,.12,0,.14,0,.11,0,.14,0h.85l.11,0,.14,0,.12,0,.12,0,.2.06h0a3.82,3.82,0,0,1,.46.21h0l.2.11.12.08.09.06h0l1.55,1.1,43.12,30.47L97.3,45.8,75.71,61.22l-.84.6L60.52,72.07h0Zm49.48,17-45.8,33.4v-44l45.8-32.71Z"/><polygon class="cls-2" points="74.87 61.83 60.52 72.07 60.52 72.06 74.87 61.83"/><polygon class="cls-3" points="106.32 48.41 106.32 91.74 60.52 125.14 60.52 81.12 106.32 48.41"/><polygon class="cls-4" points="53.16 81.12 53.16 125.14 7.37 91.74 7.37 48.41 53.16 81.12"/><polygon class="cls-5" points="53.16 72.06 53.16 72.07 36.63 60.26 53.16 72.06"/><path class="cls-6" d="M112.13,38.24,59,.68h0L58.88.62,58.76.54l-.2-.11,0,0a2.67,2.67,0,0,0-.46-.2h0l-.2-.07-.12,0-.12,0-.14,0-.11,0h-1l-.11,0-.14,0L56,.1l-.12,0L55.63.2h0a2.76,2.76,0,0,0-.47.2h0l-.2.12-.12.07-.09.06h0L1.56,38.24a3.69,3.69,0,0,0-1.56,3V93.61a3.68,3.68,0,0,0,1.51,3l53.16,38.77,0,0,0,0,.19.12h0a3,3,0,0,0,.4.2l0,0,.37.13.05,0L56,136h0l.17,0,.06,0,.18,0h0l.17,0h.48l.18,0h0l.19,0,0,0,.17,0h0l.18-.05,0,0a2.32,2.32,0,0,0,.37-.13l0,0a2.87,2.87,0,0,0,.39-.2h0l.2-.13,0,0,0,0,53.16-38.77a3.69,3.69,0,0,0,1.52-3V41.25A3.72,3.72,0,0,0,112.13,38.24Zm-59,86.9L7.36,91.74V48.41l45.8,32.71Zm3.68-50.45-3.68-2.63h0L36.63,60.26,16.39,45.8,10,41.27,53.16,10.8l1.55-1.1h0l.09-.06.12-.08.2-.11h0a4,4,0,0,1,.47-.21h0l.23-.07.12,0,.12,0,.14,0,.11,0,.14,0h.85l.11,0,.14,0,.12,0,.12,0,.2.06h0a3.82,3.82,0,0,1,.46.21h0l.2.11.12.08.09.06h0l1.55,1.1,43.12,30.47L97.3,45.8,75.71,61.22l-.84.6L60.52,72.07h0Zm49.48,17-45.8,33.4v-44l45.8-32.71Z"/><path class="cls-7" d="M103.64,41.27,97.3,45.8,75.71,61.22l-.84.6L60.52,72.07l-3.68,2.62-3.68-2.63L36.63,60.26,16.39,45.8,10,41.27,53.16,10.8l1.55-1.1h0l.09-.06.12-.08.2-.11h0a4,4,0,0,1,.47-.21h0l.23-.07.12,0,.12,0,.14,0,.11,0,.14,0h.85l.11,0,.14,0,.12,0,.12,0,.2.06h0a3.82,3.82,0,0,1,.46.21h0l.2.11.12.08.09.06h0l1.55,1.1Z"/><polygon class="cls-2" points="74.87 61.83 60.52 72.07 60.52 72.06 74.87 61.83"/><polygon class="cls-5" points="53.16 72.06 53.16 72.07 36.63 60.26 53.16 72.06"/></g></g></svg>