<svg id="alertThanks" xmlns="http://www.w3.org/2000/svg" width="138.224" height="32.922" viewBox="0 0 138.224 32.922">
  <path id="Rectangle_23" data-name="Rectangle 23" d="M10.5,0H131a0,0,0,0,1,0,0V21a0,0,0,0,1,0,0H10.5A10.5,10.5,0,0,1,0,10.5v0A10.5,10.5,0,0,1,10.5,0Z" transform="translate(7.224 10.965)" fill="#ed1b2e"/>
  <g id="jollibeeLogoBG" transform="translate(717.011 -1026.228)">
    <path id="Path_30" data-name="Path 30" d="M-688.418,1047.139a2.969,2.969,0,0,0-1.169-1.875,2.252,2.252,0,0,0-1.365-.411,9.531,9.531,0,0,0-8.5-8.954,1.512,1.512,0,0,1,.116-.517,5.975,5.975,0,0,1,.814-1.277,4.138,4.138,0,0,0,.762-1.342.721.721,0,0,0-.22-.839.866.866,0,0,0-.9,0,3.4,3.4,0,0,0-1.257,1.336,4.494,4.494,0,0,0-.6,1.974c-.041.573-.04.564-.6.567a.256.256,0,0,1-.3-.232c-.136-.517-.3-1.028-.45-1.541a.234.234,0,0,1,.119-.311,6,6,0,0,0,1.725-1.582,3.7,3.7,0,0,0,.326-3.881,4.264,4.264,0,0,0-.519-.777,3.413,3.413,0,0,0-1.368-.963,8.877,8.877,0,0,0-.955-.283h-1.017c-.148.172-.355.053-.535.1a8.888,8.888,0,0,0-2.423,1.057,9.723,9.723,0,0,0-2.259,1.989,8.113,8.113,0,0,0-1.38,2.463.334.334,0,0,1-.292.268,13.229,13.229,0,0,0-2.437.644,9.289,9.289,0,0,0-2.141,1.084,4,4,0,0,0-1.706,2.39c0,.023-.036.039-.055.06v1.077a1.688,1.688,0,0,1,.144.5,3.013,3.013,0,0,0,1.6,1.882,3.833,3.833,0,0,0,3.452.179c.383-.176.47-.152.778.136.23.217.346.394.081.663a1.743,1.743,0,0,0-.257.4,9.75,9.75,0,0,0-1.321,5.49,10.056,10.056,0,0,0,.5,2.5c.116.338.162.527-.177.815a3.045,3.045,0,0,0-1.047,2.907,4.881,4.881,0,0,0,1.43,2.847,6.98,6.98,0,0,0,1.522,1.1,11.287,11.287,0,0,0,2.454,1,20.1,20.1,0,0,0,3.333.63c1.253.149,2.509.268,3.765.382a9.8,9.8,0,0,1,1.82.36h1.317c.321-.075.645-.14.963-.228a4.309,4.309,0,0,0,2.5-1.659,4.287,4.287,0,0,1,.846-1,5.517,5.517,0,0,0,.532-.418,14.148,14.148,0,0,0,1.684-1.645c.227-.314.546-.565.785-.88a9.223,9.223,0,0,0,1.974-4.16c0-.023.035-.041.053-.061v-1.317C-688.416,1047.584-688.362,1047.35-688.418,1047.139Zm-23.365-8.448a5.067,5.067,0,0,0-1.911-1.1c.1.236.3.309.45.435q.711.621,1.44,1.222c.181.148.1.2-.054.271a3.224,3.224,0,0,1-1.242.273,3.686,3.686,0,0,1-2.123-.538,2.718,2.718,0,0,1-1.251-1.84,2.942,2.942,0,0,1,.584-2.419,4.085,4.085,0,0,1,1.155-.99,12.809,12.809,0,0,1,4.077-1.478c-.016.32-.182.6-.219.908-.011.095-.1.232.05.268s.188-.1.229-.221a14.352,14.352,0,0,1,1.35-2.957,8.977,8.977,0,0,1,.846-1.16,10.042,10.042,0,0,1,1.005-.969,8.3,8.3,0,0,1,1.91-1.19,5.4,5.4,0,0,1,2.183-.5,3.257,3.257,0,0,1,1.454.261,3.261,3.261,0,0,1,1.631,4.15,4.887,4.887,0,0,1-2.035,2.215c-.187-.651-.283-1.315-.434-1.967-.018-.078.035-.225-.072-.222-.128,0-.122.149-.126.258a7.82,7.82,0,0,0,.148,1.806c.158.818.392,1.616.59,2.424.023.093.134.223-.083.227a10.491,10.491,0,0,0-2.787.566c-.2.06-.231,0-.265-.175a6.574,6.574,0,0,1-.024-1.817,3.991,3.991,0,0,0-.085-1.453.751.751,0,0,0-1.3-.354,1.6,1.6,0,0,0-.442.859,4.725,4.725,0,0,0,.45,3.318c.105.211.12.289-.141.415a9.687,9.687,0,0,0-2.347,1.5,9.777,9.777,0,0,0-1.1,1.118c-.087.109-.155.13-.255.016A11.033,11.033,0,0,0-711.783,1038.692Zm22.642,11.778a8.39,8.39,0,0,1-1.026,1.932,15.6,15.6,0,0,1-2.151,2.451,11.453,11.453,0,0,1-1.219,1.022v-.546c-.183.03-.2.179-.226.288a4.179,4.179,0,0,1-1.548,2.181,4.4,4.4,0,0,1-2.245.817,6.411,6.411,0,0,1-3.1-.534,6.509,6.509,0,0,0-.875-.366c-.059-.013-.138-.072-.183.023-.031.066.022.115.064.154.138.127.28.25.438.39a3.621,3.621,0,0,1-1.07-.053c-.8-.051-1.586-.184-2.377-.3a24.111,24.111,0,0,1-4.188-.937c-.419-.138-.793-.358-1.192-.528a6.133,6.133,0,0,1-1.009-.724,4.326,4.326,0,0,1-1.732-2.849,2.746,2.746,0,0,1,.609-2.45,3.32,3.32,0,0,1,2.449-1.109,9.337,9.337,0,0,1,1.977.186.275.275,0,0,0-.033-.141.32.32,0,0,0-.021-.036l-.023-.035-.03-.044-.008-.013-.016-.028-.008-.018a.1.1,0,0,1-.014.017l-.014.015a.143.143,0,0,1-.027.021h0a.1.1,0,0,1-.028.011c-.074.019-.15-.045-.211-.065a4.209,4.209,0,0,0-3.092.1c-.172.076-.23-.011-.28-.152a9.057,9.057,0,0,1-.457-4.474,9.621,9.621,0,0,1,.937-2.769,9.6,9.6,0,0,1,1.674-2.392,9.1,9.1,0,0,1,2.847-2,.242.242,0,0,1,.339.066c.11.141.223.281.334.422a1,1,0,0,0,.458.356.735.735,0,0,0-.217-.442,5.715,5.715,0,0,1-1.25-3.838,1.363,1.363,0,0,1,.468-1.136.386.386,0,0,1,.617.154,1.672,1.672,0,0,1,.122.761c-.019.607-.068,1.215-.06,1.821a3.223,3.223,0,0,0,.945,2.168c.045.048.093.108.2.076a2.061,2.061,0,0,0-.336-.745c-.151-.324-.155-.318.176-.426a13.922,13.922,0,0,1,2.453-.5,5.121,5.121,0,0,1,1.278-.1c.227.026.321.074.307.31a.689.689,0,0,0,.158.614c.1-.119.06-.255.063-.377a8.745,8.745,0,0,1,.131-2.054,4.5,4.5,0,0,1,1.241-2.165.953.953,0,0,1,.637-.292c.295-.009.42.118.4.416a1.107,1.107,0,0,1-.217.55c-.342.514-.7,1.019-1.034,1.538a3.358,3.358,0,0,0-.454,2.182.369.369,0,0,0,.124.312,1.281,1.281,0,0,0,.083-.638c0-.2.045-.279.276-.243a9.359,9.359,0,0,1,5.776,3.069,8.522,8.522,0,0,1,2.089,4.646c0,.029,0,.059.008.089.086.673.083.667-.528.915-.146.06-.345.068-.382.282a5.422,5.422,0,0,0,.64-.134,2.291,2.291,0,0,1,2.759,1.774A5.638,5.638,0,0,1-689.141,1050.469Z" transform="translate(0)" fill="#251e20"/>
    <path id="Path_31" data-name="Path 31" d="M-623.592,1250.687a2.291,2.291,0,0,0-2.759-1.774,5.371,5.371,0,0,1-.64.133c-.133.053-.182.023-.187-.134a7.351,7.351,0,0,0-.6-2.724,5.881,5.881,0,0,0-1.149-1.762,5.85,5.85,0,0,0-1.2-1.043,3.216,3.216,0,0,0-3.948.516,4.1,4.1,0,0,0-.935,2.662c-.007.235,0,.471,0,.711-.151,0-.169-.111-.2-.178a4.488,4.488,0,0,0-1.011-1.269c-1.6-1.432-3.8-2.132-5.929-.216a4.1,4.1,0,0,0-1.229,2.523,7.764,7.764,0,0,0,.744,4.529c.041.09.074.183.111.275h0l.008.018c0,.01.01.019.016.028l.008.013.03.044.023.035a.342.342,0,0,1,.021.036.275.275,0,0,1,.033.141,9.32,9.32,0,0,0-1.977-.186,3.319,3.319,0,0,0-2.449,1.109,2.746,2.746,0,0,0-.608,2.45,4.327,4.327,0,0,0,1.732,2.849,6.183,6.183,0,0,0,1.009.725c.4.17.773.39,1.192.528a24.069,24.069,0,0,0,4.188.937c.791.112,1.581.245,2.377.3a3.642,3.642,0,0,0,1.07.053c-.158-.139-.3-.262-.438-.39-.042-.039-.094-.088-.063-.154.044-.1.124-.037.183-.023a6.453,6.453,0,0,1,.875.366,6.413,6.413,0,0,0,3.1.534,4.394,4.394,0,0,0,2.245-.818,4.176,4.176,0,0,0,1.548-2.181c.031-.109.042-.258.226-.289v.546a11.425,11.425,0,0,0,1.218-1.022,15.6,15.6,0,0,0,2.151-2.452,8.389,8.389,0,0,0,1.026-1.932A5.637,5.637,0,0,0-623.592,1250.687Zm-8.974-5.916a1.894,1.894,0,0,1,.907-.3,1.955,1.955,0,0,1,1.092.131,3.564,3.564,0,0,1,1.681,1.577,6.436,6.436,0,0,1,.782,2.129c.044.265.062.534.1.8.008.068-.037.159.092.181.247.042.135.106.016.2a6.466,6.466,0,0,1-1.294.712c-.6.274-1.171.614-1.8.84-.232.084-.392.286-.618.392a.334.334,0,0,1-.5-.125,7.958,7.958,0,0,1-.738-1.364,8.156,8.156,0,0,1-.683-2.776A2.657,2.657,0,0,1-632.567,1244.77Zm-1.867,9.054a7.069,7.069,0,0,1,.8.171,1.705,1.705,0,0,0,1.3-.294.587.587,0,0,0,.215-.8.641.641,0,0,1,.311.8.994.994,0,0,1-.722.651,1.924,1.924,0,0,1-1.707-.225C-634.34,1254.061-634.468,1254-634.434,1253.825Zm-6.83-.749c-.1.013-.1-.081-.132-.134-.048-.077.02-.109.075-.122.214-.049.155-.159.085-.3a6.865,6.865,0,0,1-.84-3.366,3.592,3.592,0,0,1,.468-1.7,2.848,2.848,0,0,1,1.344-1.179,2.485,2.485,0,0,1,2.589.467,4.953,4.953,0,0,1,.957,1.049,4.886,4.886,0,0,1,.677,1.659,11.286,11.286,0,0,1,.234,2.165c-.013.239-.041.537-.04.836,0,.2-.084.241-.271.243-.867.008-1.734-.018-2.6.061-.754.069-1.5.163-2.251.277C-641.066,1253.052-641.166,1253.063-641.264,1253.076Zm10.808,5.759a2.494,2.494,0,0,1-.839.765,3.1,3.1,0,0,1-1.573.294,2.416,2.416,0,0,1-1.563-.783c.466.136.887.274,1.311.4a2.09,2.09,0,0,0,1.349-.064,2.654,2.654,0,0,0,1.075-.664.6.6,0,0,1,.111-.1c.048-.034.119-.069.16-.03C-630.362,1258.709-630.409,1258.78-630.456,1258.834Zm2.885-6.1a1.789,1.789,0,0,0-.574.517,14.041,14.041,0,0,0-1.847,3.287,6.6,6.6,0,0,1-.416.822,2.521,2.521,0,0,1-3.089,1.194,8.317,8.317,0,0,1-1.672-.853,12.841,12.841,0,0,0-2-.928c-.42-.149-.837-.308-1.255-.463a2.146,2.146,0,0,0-1.475-.1,1.494,1.494,0,0,1-.873-.036c.35-.153.718-.216,1.054-.393s.5-.528.832-.708a.419.419,0,0,1-.044.4c-.15.235-.023.289.168.35a9.436,9.436,0,0,0,2.032.349,10.656,10.656,0,0,0,5.944-.912,6.964,6.964,0,0,0,2.262-1.9,1.731,1.731,0,0,0,.189-.448c-.211-.092-.477-.1-.59-.394a5.065,5.065,0,0,0,1.182-.045c.019-.005.04,0,.06-.007.166-.032.425-.177.479-.034C-627.14,1252.6-627.427,1252.658-627.571,1252.735Z" transform="translate(-65.356 -203.73)" fill="#fdfdfd"/>
    <path id="Path_32" data-name="Path 32" d="M-706.2,1045.138c.1.236.3.309.449.436q.711.621,1.44,1.221c.181.148.1.2-.054.271a3.23,3.23,0,0,1-1.241.273,3.685,3.685,0,0,1-2.124-.538,2.718,2.718,0,0,1-1.251-1.84,2.942,2.942,0,0,1,.584-2.418,4.084,4.084,0,0,1,1.155-.99,12.81,12.81,0,0,1,4.077-1.477c-.016.319-.182.6-.219.908-.011.094-.1.232.05.268s.188-.1.228-.22a14.375,14.375,0,0,1,1.351-2.957,8.97,8.97,0,0,1,.846-1.159,10.029,10.029,0,0,1,1.005-.97,8.28,8.28,0,0,1,1.91-1.19,5.4,5.4,0,0,1,2.183-.5,3.257,3.257,0,0,1,1.454.261,3.261,3.261,0,0,1,1.631,4.15,4.887,4.887,0,0,1-2.035,2.214c-.187-.65-.283-1.315-.434-1.966-.018-.078.035-.225-.073-.222-.128,0-.121.149-.126.258a7.8,7.8,0,0,0,.148,1.806c.157.818.392,1.616.59,2.424.023.093.134.223-.082.227a10.505,10.505,0,0,0-2.787.566c-.2.06-.23,0-.265-.175a6.559,6.559,0,0,1-.024-1.816,4,4,0,0,0-.085-1.453.751.751,0,0,0-1.3-.354,1.6,1.6,0,0,0-.443.859,4.726,4.726,0,0,0,.451,3.318c.105.211.12.289-.142.415a9.7,9.7,0,0,0-2.347,1.5,9.732,9.732,0,0,0-1.1,1.117c-.087.109-.154.13-.255.016a11.05,11.05,0,0,0-1.247-1.168A5.078,5.078,0,0,0-706.2,1045.138Z" transform="translate(-7.496 -7.548)" fill="#fdfdfd"/>
    <path id="Path_33" data-name="Path 33" d="M-615.442,1139.036c-.133.053-.182.023-.187-.134a7.356,7.356,0,0,0-.6-2.724,5.873,5.873,0,0,0-1.148-1.762,5.85,5.85,0,0,0-1.2-1.043,3.216,3.216,0,0,0-3.948.517,4.1,4.1,0,0,0-.935,2.661c-.007.235,0,.47,0,.711-.152,0-.169-.111-.2-.178a4.5,4.5,0,0,0-1.011-1.269c-1.6-1.431-3.8-2.132-5.929-.216a4.1,4.1,0,0,0-1.229,2.523,7.763,7.763,0,0,0,.744,4.529c.041.09.075.183.112.275-.1.138-.209.027-.294,0a4.208,4.208,0,0,0-3.091.1c-.172.076-.23-.011-.28-.153a9.056,9.056,0,0,1-.457-4.474,9.608,9.608,0,0,1,.937-2.769,9.587,9.587,0,0,1,1.674-2.392,9.109,9.109,0,0,1,2.846-2,.243.243,0,0,1,.339.066c.111.141.223.281.335.421a1,1,0,0,0,.458.356.734.734,0,0,0-.217-.442,5.716,5.716,0,0,1-1.251-3.839,1.363,1.363,0,0,1,.469-1.136.385.385,0,0,1,.616.154,1.665,1.665,0,0,1,.122.761c-.019.607-.068,1.215-.061,1.821a3.221,3.221,0,0,0,.945,2.168c.045.049.093.109.2.076a2.061,2.061,0,0,0-.336-.745c-.151-.324-.155-.318.176-.426a13.909,13.909,0,0,1,2.453-.5,5.08,5.08,0,0,1,1.278-.1c.227.026.321.074.307.31a.688.688,0,0,0,.158.614c.1-.119.06-.254.063-.377a8.728,8.728,0,0,1,.131-2.053,4.5,4.5,0,0,1,1.241-2.165.953.953,0,0,1,.637-.292c.294-.009.419.118.4.416a1.111,1.111,0,0,1-.218.55c-.342.514-.7,1.019-1.034,1.537a3.358,3.358,0,0,0-.454,2.182.373.373,0,0,0,.124.312,1.28,1.28,0,0,0,.083-.639c0-.2.046-.279.276-.243a9.362,9.362,0,0,1,5.777,3.07,8.516,8.516,0,0,1,2.089,4.645c0,.03,0,.06.009.089.085.673.083.668-.528.915C-615.206,1138.813-615.405,1138.822-615.442,1139.036Z" transform="translate(-76.905 -93.721)" fill="#e2183f"/>
    <path id="Path_34" data-name="Path 34" d="M-551.066,1299.119a4.886,4.886,0,0,0-.677-1.659,4.955,4.955,0,0,0-.957-1.049,2.485,2.485,0,0,0-2.589-.467,2.85,2.85,0,0,0-1.344,1.178,3.6,3.6,0,0,0-.468,1.7,6.868,6.868,0,0,0,.84,3.366c.07.138.129.248-.085.3-.056.012-.123.044-.075.121.032.053.03.147.132.134s.2-.024.3-.039c.747-.113,1.5-.208,2.251-.277.866-.079,1.734-.052,2.6-.061.186,0,.271-.038.271-.243,0-.3.027-.6.039-.836A11.3,11.3,0,0,0-551.066,1299.119Zm-.165,2.7c-.006.15-.041.207-.2.2-.278-.01-.559,0-.837.011-.193.009-.238-.068-.2-.246a3.589,3.589,0,0,0-.209-2.042c-.1-.261-.257-.293-.5-.135-.283.182-.571.356-.9.561a7.538,7.538,0,0,1,.52-1.3c.1-.2.059-.293-.117-.392a1.752,1.752,0,0,0-1.88-.088,2.16,2.16,0,0,0-1.043,1.548,3.845,3.845,0,0,1,.008-1.862,2.638,2.638,0,0,1,1.223-1.668,2.047,2.047,0,0,1,2.1.072,3.983,3.983,0,0,1,1.78,2.575A9.249,9.249,0,0,1-551.231,1301.814Z" transform="translate(-150.331 -253.393)" fill="#251e20"/>
    <path id="Path_35" data-name="Path 35" d="M-408.634,1272.966c-.129-.022-.083-.113-.092-.181-.033-.266-.052-.535-.1-.8a6.433,6.433,0,0,0-.782-2.129,3.565,3.565,0,0,0-1.681-1.577,1.954,1.954,0,0,0-1.092-.131,1.891,1.891,0,0,0-.907.3,2.657,2.657,0,0,0-.958,2.391,8.155,8.155,0,0,0,.683,2.777,7.955,7.955,0,0,0,.738,1.364.334.334,0,0,0,.5.124c.226-.107.386-.308.618-.392.625-.225,1.195-.565,1.8-.839a6.459,6.459,0,0,0,1.294-.712C-408.5,1273.072-408.387,1273.007-408.634,1272.966Zm-.645.255c-.044.009-.076.063-.118.087-.386.225-.417.206-.476-.231a4.1,4.1,0,0,0-.4-1.331c-.166-.325-.2-.341-.517-.142-.241.151-.475.315-.713.474l-.056-.04c.159-.358.309-.719.479-1.071.069-.145.057-.23-.085-.309a2.023,2.023,0,0,0-1.031-.234,1.521,1.521,0,0,0-1.283.749,2.6,2.6,0,0,0-.265.693,3.491,3.491,0,0,1,.3-2.783,1.377,1.377,0,0,1,.912-.574,2.023,2.023,0,0,1,1.407.241,3.558,3.558,0,0,1,1.226,1.337,6.519,6.519,0,0,1,.832,2.731C-409.045,1273.012-409.045,1273.168-409.279,1273.22Z" transform="translate(-284.639 -227.41)" fill="#251e20"/>
    <path id="Path_36" data-name="Path 36" d="M-521.693,1400.468c-.054-.142-.312,0-.479.034-.02,0-.041,0-.06.007a5.064,5.064,0,0,1-1.182.045c.113.3.378.3.59.394a1.737,1.737,0,0,1-.189.448,6.96,6.96,0,0,1-2.262,1.9,10.654,10.654,0,0,1-5.944.912,9.436,9.436,0,0,1-2.032-.349c-.191-.061-.317-.115-.168-.35a.419.419,0,0,0,.044-.4c-.333.179-.5.534-.832.708s-.7.24-1.054.393a1.5,1.5,0,0,0,.873.036,2.145,2.145,0,0,1,1.476.1c.418.155.835.314,1.255.463a12.8,12.8,0,0,1,2,.927,8.3,8.3,0,0,0,1.672.853,2.521,2.521,0,0,0,3.089-1.194,6.631,6.631,0,0,0,.416-.822,14.049,14.049,0,0,1,1.847-3.287,1.787,1.787,0,0,1,.574-.517C-521.916,1400.7-521.629,1400.638-521.693,1400.468Zm-3.423,4.582a2.259,2.259,0,0,1-2.417,1.257,4.068,4.068,0,0,1-1.612-.669c-.211-.139-.143-.207.03-.292a2.668,2.668,0,0,1,2.357-.113c.045.02.093.033.14.048.006,0,.016-.01.024-.016-.164-.418-.157-.4.3-.589a1.467,1.467,0,0,1,1.047.033C-525.053,1404.771-525.036,1404.882-525.116,1405.05Z" transform="translate(-170.867 -351.773)" fill="#251e20"/>
    <path id="Path_37" data-name="Path 37" d="M-429.393,1505.583c.466.135.887.274,1.311.4a2.083,2.083,0,0,0,1.349-.064,2.653,2.653,0,0,0,1.075-.664.617.617,0,0,1,.112-.1c.048-.033.118-.069.16-.03.063.058.016.129-.03.183a2.491,2.491,0,0,1-.84.765,3.1,3.1,0,0,1-1.573.294A2.417,2.417,0,0,1-429.393,1505.583Z" transform="translate(-270.395 -450.204)" fill="#251e20"/>
    <path id="Path_38" data-name="Path 38" d="M-429.511,1410.33a7.024,7.024,0,0,1,.8.171,1.7,1.7,0,0,0,1.3-.293.587.587,0,0,0,.215-.8.641.641,0,0,1,.31.8.993.993,0,0,1-.722.651,1.926,1.926,0,0,1-1.707-.225C-429.417,1410.566-429.546,1410.5-429.511,1410.33Z" transform="translate(-270.279 -360.235)" fill="#251e20"/>
    <path id="Path_39" data-name="Path 39" d="M-550.413,1306.07a3.848,3.848,0,0,1,.008-1.862,2.638,2.638,0,0,1,1.224-1.668,2.046,2.046,0,0,1,2.1.072,3.983,3.983,0,0,1,1.78,2.575,9.245,9.245,0,0,1,.259,2.76c-.006.151-.041.207-.2.2-.279-.01-.558,0-.837.011-.193.009-.238-.068-.2-.246a3.588,3.588,0,0,0-.209-2.042c-.1-.262-.258-.293-.5-.135-.283.182-.57.356-.9.56a7.565,7.565,0,0,1,.52-1.3c.1-.2.06-.293-.117-.392a1.752,1.752,0,0,0-1.88-.087A2.158,2.158,0,0,0-550.413,1306.07Z" transform="translate(-156.518 -259.525)" fill="#fdfdfd"/>
    <path id="Path_40" data-name="Path 40" d="M-405.962,1277.546c.158-.358.309-.719.479-1.071.07-.144.057-.23-.085-.309a2.024,2.024,0,0,0-1.031-.234,1.521,1.521,0,0,0-1.283.749,2.608,2.608,0,0,0-.265.693,3.492,3.492,0,0,1,.3-2.783,1.379,1.379,0,0,1,.912-.574,2.02,2.02,0,0,1,1.407.241,3.561,3.561,0,0,1,1.227,1.337,6.515,6.515,0,0,1,.831,2.731c.018.2.018.352-.216.4-.044.01-.076.063-.118.087-.386.225-.417.206-.476-.231a4.108,4.108,0,0,0-.4-1.331c-.166-.325-.2-.341-.517-.142-.242.151-.475.315-.713.473Z" transform="translate(-290.235 -232.92)" fill="#fdfdfd"/>
    <path id="Path_41" data-name="Path 41" d="M-432.655,1470.984c-.164-.418-.158-.4.3-.589a1.468,1.468,0,0,1,1.046.034c.2.062.214.172.133.34a2.259,2.259,0,0,1-2.417,1.256,4.065,4.065,0,0,1-1.613-.668c-.211-.139-.143-.207.03-.292a2.67,2.67,0,0,1,2.357-.113,1.268,1.268,0,0,0,.139.048C-432.673,1471-432.663,1470.99-432.655,1470.984Z" transform="translate(-264.808 -417.491)" fill="#e2183f"/>
  </g>
  <text id="Thank_you_for_using_Jollibee_Smartlockers" data-name="Thank you for using Jollibee Smartlockers" transform="translate(31.224 26.965)" fill="#fff" font-size="5" font-family="Rubik-SemiBold, Rubik" font-weight="600"><tspan x="0" y="0">Thank you for using Jollibee Smartlockers</tspan></text>
  <text id="You_may_now_take_your_order." data-name="You may now take your order." transform="translate(31.224 19.965)" fill="#fff" font-size="7" font-family="Rubik-SemiBold, Rubik" font-weight="600"><tspan x="0" y="0">You may now take your order.</tspan></text>
</svg>
