<svg xmlns="http://www.w3.org/2000/svg" viewBox="0 0 174.76 73.84"><defs><style>.cls-1{fill:#fff;}</style></defs><g id="Layer_2" data-name="Layer 2"><g id="Layer_1-2" data-name="Layer 1"><path class="cls-1" d="M89.38,32.65l-2.19,6.23h4.39Zm0,0-2.19,6.23h4.39ZM137.84,0H36.92a36.92,36.92,0,0,0,0,73.84H137.84a36.92,36.92,0,0,0,0-73.84Zm-82,38.9a3.45,3.45,0,0,0,.82,2.4A2.87,2.87,0,0,0,58.7,42a3.38,3.38,0,0,0,1.84-.47,2.66,2.66,0,0,0,1.06-1.7.85.85,0,0,1,.27-.48.78.78,0,0,1,.48-.13h3.19a.52.52,0,0,1,.36.14.41.41,0,0,1,.13.36,5.13,5.13,0,0,1-.58,2.37,5.37,5.37,0,0,1-1.54,1.79A7.11,7.11,0,0,1,61.6,45a10.13,10.13,0,0,1-2.88.39,9.1,9.1,0,0,1-3.82-.73,5.57,5.57,0,0,1-2.49-2.15,7.07,7.07,0,0,1-1-3.51c0-.65,0-1.34,0-2.08s0-1.44,0-2.12a7,7,0,0,1,1-3.49,5.63,5.63,0,0,1,2.5-2.17,9.07,9.07,0,0,1,3.8-.73,10.13,10.13,0,0,1,2.88.39A7.11,7.11,0,0,1,63.91,30a5.28,5.28,0,0,1,1.54,1.79A5.13,5.13,0,0,1,66,34.11a.41.41,0,0,1-.13.36.52.52,0,0,1-.36.14H62.35a.8.8,0,0,1-.47-.13A1.05,1.05,0,0,1,61.6,34a2.72,2.72,0,0,0-1.08-1.71,3.44,3.44,0,0,0-1.82-.46,2.87,2.87,0,0,0-2.06.72,3.45,3.45,0,0,0-.82,2.4Q55.75,36.88,55.82,38.9Zm24.72,5.69a.6.6,0,0,1-.17.41.54.54,0,0,1-.42.18H69.1a.57.57,0,0,1-.43-.18.59.59,0,0,1-.16-.41V29.25a.57.57,0,0,1,.16-.42.6.6,0,0,1,.43-.17h3.11a.58.58,0,0,1,.43.17.57.57,0,0,1,.16.42V41.61H80a.54.54,0,0,1,.42.18.62.62,0,0,1,.17.44ZM97.46,45a.5.5,0,0,1-.36.16H94.2a.69.69,0,0,1-.53-.18.92.92,0,0,1-.23-.32l-.92-2.41h-6.3l-.89,2.41a1,1,0,0,1-.22.32.72.72,0,0,1-.56.18h-2.9a.47.47,0,0,1-.34-.16.44.44,0,0,1-.16-.34.66.66,0,0,1,0-.21l5.54-15.15a1,1,0,0,1,.29-.46.93.93,0,0,1,.63-.2h3.49a1,1,0,0,1,.63.2,1.09,1.09,0,0,1,.29.46l5.52,15.15a.46.46,0,0,1,.05.21A.44.44,0,0,1,97.46,45Zm6.38-.43a.56.56,0,0,1-.17.41.6.6,0,0,1-.44.18h-3.16a.54.54,0,0,1-.42-.18.6.6,0,0,1-.17-.41V29.25a.58.58,0,0,1,.59-.59h3.16a.64.64,0,0,1,.44.17.54.54,0,0,1,.17.42Zm19.51,0a.62.62,0,0,1-.61.59h-2.81a.55.55,0,0,1-.43-.18.58.58,0,0,1-.19-.41V35.74l-2.63,4.93a1.61,1.61,0,0,1-.31.38.77.77,0,0,1-.52.16h-1.23a.73.73,0,0,1-.51-.16,1.66,1.66,0,0,1-.32-.38l-2.66-4.93v8.85A.64.64,0,0,1,111,45a.58.58,0,0,1-.43.18h-2.83a.55.55,0,0,1-.41-.18.57.57,0,0,1-.18-.41V29.25a.54.54,0,0,1,.18-.42.58.58,0,0,1,.41-.17h2.55a.81.81,0,0,1,.59.2,1.43,1.43,0,0,1,.24.32l4.14,7.43,4.16-7.43a2,2,0,0,1,.25-.32.71.71,0,0,1,.57-.2h2.53a.6.6,0,0,1,.43.17.54.54,0,0,1,.18.42ZM87.19,38.88h4.39l-2.2-6.23Zm2.19-6.23-2.19,6.23h4.39Zm0,0-2.19,6.23h4.39Z"/></g></g></svg>