<svg xmlns="http://www.w3.org/2000/svg" viewBox="0 0 174.76 73.84"><defs><style>.cls-1{fill:#fff;}</style></defs><g id="Layer_2" data-name="Layer 2"><g id="Layer_1-2" data-name="Layer 1"><path class="cls-1" d="M114.27,32.56a2.22,2.22,0,0,1,.52,1.51,2,2,0,0,1-.6,1.58,2.42,2.42,0,0,1-1.62.52h-2.76V31.94h2.76A2.11,2.11,0,0,1,114.27,32.56Z"/><path class="cls-1" d="M81.12,32.51a2.23,2.23,0,0,0-1.69-.57H76.72V36h2.71a2.29,2.29,0,0,0,1.66-.54A2,2,0,0,0,81.65,34,2.1,2.1,0,0,0,81.12,32.51ZM98.32,35a4.17,4.17,0,0,0-.41-1.81,2.43,2.43,0,0,0-1-1,3.14,3.14,0,0,0-1.46-.33,3.06,3.06,0,0,0-1.44.33,2.53,2.53,0,0,0-1,1A4.16,4.16,0,0,0,92.57,35c0,.66,0,1.29,0,1.91s0,1.26,0,2a3.42,3.42,0,0,0,.86,2.41,2.82,2.82,0,0,0,2,.75,2.85,2.85,0,0,0,2-.75,3.37,3.37,0,0,0,.83-2.41c0-.69.05-1.34.05-2S98.36,35.65,98.32,35Zm0,0a4.17,4.17,0,0,0-.41-1.81,2.43,2.43,0,0,0-1-1,3.14,3.14,0,0,0-1.46-.33,3.06,3.06,0,0,0-1.44.33,2.53,2.53,0,0,0-1,1A4.16,4.16,0,0,0,92.57,35c0,.66,0,1.29,0,1.91s0,1.26,0,2a3.42,3.42,0,0,0,.86,2.41,2.82,2.82,0,0,0,2,.75,2.85,2.85,0,0,0,2-.75,3.37,3.37,0,0,0,.83-2.41c0-.69.05-1.34.05-2S98.36,35.65,98.32,35Zm-17.2-2.48a2.23,2.23,0,0,0-1.69-.57H76.72V36h2.71a2.29,2.29,0,0,0,1.66-.54A2,2,0,0,0,81.65,34,2.1,2.1,0,0,0,81.12,32.51ZM137.84,0H36.92a36.92,36.92,0,0,0,0,73.84H137.84a36.92,36.92,0,0,0,0-73.84ZM69.69,38.71a7.9,7.9,0,0,1-.93,3.64,5.12,5.12,0,0,1-2.43,2.13,9.84,9.84,0,0,1-3.91.7H56.17a.54.54,0,0,1-.42-.18.6.6,0,0,1-.17-.41V29.25a.58.58,0,0,1,.59-.59H62.3a9.33,9.33,0,0,1,3.94.75,5.48,5.48,0,0,1,2.5,2.17,7,7,0,0,1,1,3.52c0,.7,0,1.3,0,1.82S69.7,38,69.69,38.71ZM86.26,45a.49.49,0,0,1-.34.16H82.78a.87.87,0,0,1-.66-.23,2.32,2.32,0,0,1-.31-.41l-2.69-5.19h-2.4v5.24a.57.57,0,0,1-.18.41.59.59,0,0,1-.44.18h-3a.54.54,0,0,1-.42-.18.6.6,0,0,1-.17-.41V29.25a.58.58,0,0,1,.59-.59h6.42a7.45,7.45,0,0,1,4.81,1.41A4.8,4.8,0,0,1,86,34a4.79,4.79,0,0,1-.8,2.83,5,5,0,0,1-2.12,1.75l3.23,5.8a.56.56,0,0,1,.07.26A.46.46,0,0,1,86.26,45Zm16.45-6a7,7,0,0,1-1,3.57,5.52,5.52,0,0,1-2.51,2.13,10.39,10.39,0,0,1-7.55,0,5.49,5.49,0,0,1-2.5-2.13,7.15,7.15,0,0,1-1-3.57c0-.68,0-1.36,0-2s0-1.37,0-2.05a7.27,7.27,0,0,1,1-3.57,5.67,5.67,0,0,1,2.53-2.18,10,10,0,0,1,7.49,0,5.7,5.7,0,0,1,2.52,2.18,7.06,7.06,0,0,1,1,3.57c0,.68.05,1.36.05,2.05S102.74,38.32,102.71,39Zm15.65-1.89a4.73,4.73,0,0,1-2.26,1.74,9.3,9.3,0,0,1-3.41.57h-2.81v5.17a.6.6,0,0,1-.61.59h-3.18a.55.55,0,0,1-.43-.18.59.59,0,0,1-.16-.41V29.25a.57.57,0,0,1,.16-.42.58.58,0,0,1,.43-.17h6.6a8.69,8.69,0,0,1,3.41.61,4.9,4.9,0,0,1,2.26,1.8,5.26,5.26,0,0,1,.82,3A5.13,5.13,0,0,1,118.36,37.11ZM97.91,33.18a2.43,2.43,0,0,0-1-1,3.14,3.14,0,0,0-1.46-.33,3.06,3.06,0,0,0-1.44.33,2.53,2.53,0,0,0-1,1A4.16,4.16,0,0,0,92.57,35c0,.66,0,1.29,0,1.91s0,1.26,0,2a3.42,3.42,0,0,0,.86,2.41,2.82,2.82,0,0,0,2,.75,2.85,2.85,0,0,0,2-.75,3.37,3.37,0,0,0,.83-2.41c0-.69.05-1.34.05-2s0-1.25-.05-1.91A4.17,4.17,0,0,0,97.91,33.18ZM79.43,31.94H76.72V36h2.71a2.29,2.29,0,0,0,1.66-.54A2,2,0,0,0,81.65,34a2.1,2.1,0,0,0-.53-1.48A2.23,2.23,0,0,0,79.43,31.94Zm-14.9.86a3.32,3.32,0,0,0-2.34-.74H59.83v9.72H62.3A4,4,0,0,0,64,41.46a2.15,2.15,0,0,0,1-1,4.3,4.3,0,0,0,.36-1.79q0-.69.06-1.23c0-.36,0-.72,0-1.09s0-.76-.06-1.2A3.22,3.22,0,0,0,64.53,32.8ZM98.32,35a4.17,4.17,0,0,0-.41-1.81,2.43,2.43,0,0,0-1-1,3.14,3.14,0,0,0-1.46-.33,3.06,3.06,0,0,0-1.44.33,2.53,2.53,0,0,0-1,1A4.16,4.16,0,0,0,92.57,35c0,.66,0,1.29,0,1.91s0,1.26,0,2a3.42,3.42,0,0,0,.86,2.41,2.82,2.82,0,0,0,2,.75,2.85,2.85,0,0,0,2-.75,3.37,3.37,0,0,0,.83-2.41c0-.69.05-1.34.05-2S98.36,35.65,98.32,35Zm0,0a4.17,4.17,0,0,0-.41-1.81,2.43,2.43,0,0,0-1-1,3.14,3.14,0,0,0-1.46-.33,3.06,3.06,0,0,0-1.44.33,2.53,2.53,0,0,0-1,1A4.16,4.16,0,0,0,92.57,35c0,.66,0,1.29,0,1.91s0,1.26,0,2a3.42,3.42,0,0,0,.86,2.41,2.82,2.82,0,0,0,2,.75,2.85,2.85,0,0,0,2-.75,3.37,3.37,0,0,0,.83-2.41c0-.69.05-1.34.05-2S98.36,35.65,98.32,35Z"/></g></g></svg>