<svg id="Component_19_32" data-name="Component 19 – 32" xmlns="http://www.w3.org/2000/svg" width="67.861" height="50.112" viewBox="0 0 67.861 50.112">
  <g id="Group_27" data-name="Group 27" transform="translate(0 0)">
    <g id="Group_22" data-name="Group 22" transform="translate(0 0)">
      <path id="Path_84" data-name="Path 84" d="M762.464,1322.762V1272.65h67.861v50.112Zm59.691-8.169v-33.774H770.633v33.774Z" transform="translate(-762.464 -1272.65)" fill="#ed1b2e"/>
      <path id="Path_85" data-name="Path 85" d="M787.943,1298.13v45h62.746v-45Zm59.691,41.943H791v-38.889h56.637Z" transform="translate(-785.386 -1295.573)" fill="#ed1b2e"/>
      <path id="Path_86" data-name="Path 86" d="M818.372,1328.56v38.889h56.637V1328.56Zm56.179,38.43H818.83v-37.972h55.721Z" transform="translate(-812.76 -1322.948)" fill="#7a7a7a"/>
      <path id="Path_87" data-name="Path 87" d="M878.657,1641.515H822.937l12.263-7.8h31.195Z" transform="translate(-816.867 -1597.473)" fill="#d8d8d8"/>
      <path id="Path_88" data-name="Path 88" d="M835.2,1340.925V1363.3l-12.263,7.8v-37.972Z" transform="translate(-816.867 -1327.054)" fill="#bfbfbf"/>
      <path id="Path_89" data-name="Path 89" d="M878.657,1333.124l-12.263,7.8H835.2l-12.263-7.8Z" transform="translate(-816.867 -1327.054)" fill="#d8d8d8"/>
      <path id="Path_90" data-name="Path 90" d="M1268.155,1333.124V1371.1l-12.263-7.8v-22.371Z" transform="translate(-1206.365 -1327.054)" fill="#bfbfbf"/>
      <rect id="Rectangle_32" data-name="Rectangle 32" width="31.195" height="22.371" transform="translate(18.333 13.871)" fill="#e2e2e2"/>
    </g>
    <g id="Group_24" data-name="Group 24" transform="translate(21.644 17.549)">
      <rect id="Rectangle_33" data-name="Rectangle 33" width="24.573" height="17.434" transform="translate(0 5.832)" fill="#ed1b2e"/>
      <path id="Path_91" data-name="Path 91" d="M1002.666,1453.319H978.093l3.182-5.832h18.208Z" transform="translate(-978.093 -1447.487)" fill="#d3051e"/>
      <g id="Group_23" data-name="Group 23" transform="translate(5.977 6.241)">
        <path id="Path_92" data-name="Path 92" d="M1050.2,1518.85a1.3,1.3,0,0,0-.513-.824.989.989,0,0,0-.6-.181,4.186,4.186,0,0,0-3.732-3.932.668.668,0,0,1,.051-.227,2.629,2.629,0,0,1,.358-.561,1.813,1.813,0,0,0,.334-.59.317.317,0,0,0-.1-.368.381.381,0,0,0-.4,0,1.493,1.493,0,0,0-.552.587,1.973,1.973,0,0,0-.266.867c-.018.252-.018.248-.265.249a.112.112,0,0,1-.132-.1c-.06-.227-.131-.452-.2-.677a.1.1,0,0,1,.052-.136,2.628,2.628,0,0,0,.758-.695,1.626,1.626,0,0,0,.143-1.7,1.875,1.875,0,0,0-.228-.341,1.5,1.5,0,0,0-.6-.423,3.891,3.891,0,0,0-.419-.124h-.447c-.065.076-.156.023-.235.045a3.9,3.9,0,0,0-1.064.464,4.268,4.268,0,0,0-.992.874,3.561,3.561,0,0,0-.606,1.081.146.146,0,0,1-.128.118,5.814,5.814,0,0,0-1.07.283,4.085,4.085,0,0,0-.94.476,1.756,1.756,0,0,0-.749,1.05c0,.01-.016.017-.024.026v.473a.745.745,0,0,1,.063.22,1.323,1.323,0,0,0,.7.826,1.684,1.684,0,0,0,1.516.079c.168-.077.206-.067.342.06.1.1.152.173.036.291a.76.76,0,0,0-.113.176,4.283,4.283,0,0,0-.58,2.411,4.418,4.418,0,0,0,.218,1.1c.051.149.071.231-.078.358a1.337,1.337,0,0,0-.46,1.276,2.144,2.144,0,0,0,.628,1.25,3.062,3.062,0,0,0,.668.483,4.945,4.945,0,0,0,1.078.439,8.82,8.82,0,0,0,1.464.277c.55.066,1.1.118,1.654.168a4.282,4.282,0,0,1,.8.158h.579c.141-.033.283-.062.423-.1a1.893,1.893,0,0,0,1.1-.729,1.887,1.887,0,0,1,.372-.441,2.39,2.39,0,0,0,.234-.184,6.215,6.215,0,0,0,.74-.722c.1-.138.24-.248.344-.387a4.053,4.053,0,0,0,.867-1.827c0-.01.015-.018.023-.027v-.578C1050.2,1519.046,1050.225,1518.943,1050.2,1518.85Zm-10.262-3.71a2.225,2.225,0,0,0-.839-.484c.046.1.134.136.2.191q.312.273.633.537c.079.065.045.087-.024.119a1.416,1.416,0,0,1-.545.12,1.618,1.618,0,0,1-.932-.236,1.194,1.194,0,0,1-.549-.808,1.292,1.292,0,0,1,.256-1.062,1.793,1.793,0,0,1,.507-.435,5.625,5.625,0,0,1,1.79-.649c-.007.141-.08.264-.1.4-.005.042-.045.1.022.118s.083-.045.1-.1a6.3,6.3,0,0,1,.593-1.3,3.929,3.929,0,0,1,.371-.509,4.423,4.423,0,0,1,.442-.426,3.646,3.646,0,0,1,.839-.523,2.37,2.37,0,0,1,.959-.218,1.389,1.389,0,0,1,1.355,1.937,2.146,2.146,0,0,1-.894.973c-.082-.286-.124-.578-.191-.864-.008-.034.015-.1-.032-.1s-.053.065-.055.113a3.434,3.434,0,0,0,.065.793c.069.359.172.71.259,1.065.01.041.059.1-.036.1a4.612,4.612,0,0,0-1.224.248c-.089.027-.1,0-.116-.077a2.884,2.884,0,0,1-.011-.8,1.756,1.756,0,0,0-.037-.638.33.33,0,0,0-.573-.156.7.7,0,0,0-.194.377,2.076,2.076,0,0,0,.2,1.457c.046.093.053.127-.062.182a4.254,4.254,0,0,0-1.031.661,4.31,4.31,0,0,0-.485.491c-.038.048-.068.057-.112.007A4.858,4.858,0,0,0,1039.939,1515.14Zm9.944,5.173a3.688,3.688,0,0,1-.451.848,6.853,6.853,0,0,1-.945,1.077,5.036,5.036,0,0,1-.535.449v-.24c-.08.013-.086.079-.1.127a1.834,1.834,0,0,1-.68.958,1.931,1.931,0,0,1-.986.359,2.816,2.816,0,0,1-1.363-.234,2.846,2.846,0,0,0-.384-.161c-.026-.006-.061-.032-.08.01s.01.05.028.068c.06.056.123.11.192.171a1.6,1.6,0,0,1-.47-.023c-.349-.023-.7-.081-1.044-.13a10.581,10.581,0,0,1-1.839-.412c-.184-.061-.349-.157-.523-.232a2.7,2.7,0,0,1-.443-.318,1.9,1.9,0,0,1-.761-1.251,1.206,1.206,0,0,1,.267-1.076,1.459,1.459,0,0,1,1.076-.487,4.1,4.1,0,0,1,.868.082.122.122,0,0,0-.015-.062l-.009-.016-.01-.015-.013-.02,0-.006-.007-.012,0-.008-.006.007-.006.007-.012.009h0l-.012.005c-.032.008-.066-.02-.093-.028a1.848,1.848,0,0,0-1.358.046c-.076.033-.1,0-.123-.067a3.977,3.977,0,0,1-.2-1.965,4.527,4.527,0,0,1,1.147-2.267,4,4,0,0,1,1.25-.877.106.106,0,0,1,.149.029c.048.062.1.123.147.185a.439.439,0,0,0,.2.156.323.323,0,0,0-.1-.194,2.51,2.51,0,0,1-.549-1.686.6.6,0,0,1,.206-.5.169.169,0,0,1,.271.068.735.735,0,0,1,.053.334c-.008.267-.03.534-.027.8a1.415,1.415,0,0,0,.415.952c.02.021.041.048.086.033a.9.9,0,0,0-.147-.327c-.066-.142-.068-.14.077-.187a6.1,6.1,0,0,1,1.077-.218,2.243,2.243,0,0,1,.562-.046c.1.012.141.033.135.136a.3.3,0,0,0,.069.27c.045-.052.026-.112.028-.166a3.844,3.844,0,0,1,.057-.9,1.977,1.977,0,0,1,.545-.951.418.418,0,0,1,.28-.128c.129,0,.184.052.177.183a.487.487,0,0,1-.1.242c-.15.226-.307.447-.454.675a1.474,1.474,0,0,0-.2.958.162.162,0,0,0,.054.137.561.561,0,0,0,.036-.28c0-.089.02-.123.122-.107a4.111,4.111,0,0,1,2.537,1.348,3.742,3.742,0,0,1,.917,2.04c0,.013,0,.026,0,.039.038.3.037.293-.232.4-.064.026-.151.03-.168.124a2.386,2.386,0,0,0,.281-.059,1.007,1.007,0,0,1,1.212.779A2.477,2.477,0,0,1,1049.883,1520.313Z" transform="translate(-1037.643 -1509.666)" fill="#251e20"/>
        <path id="Path_93" data-name="Path 93" d="M1066.354,1569.85a1.007,1.007,0,0,0-1.212-.779,2.386,2.386,0,0,1-.281.059c-.058.023-.08.01-.082-.059a3.225,3.225,0,0,0-.265-1.2,2.919,2.919,0,0,0-1.032-1.232,1.413,1.413,0,0,0-1.734.227,1.8,1.8,0,0,0-.411,1.169c0,.1,0,.207,0,.312-.067,0-.074-.049-.089-.078a1.971,1.971,0,0,0-.444-.557,1.806,1.806,0,0,0-3.144,1.013,3.409,3.409,0,0,0,.327,1.989c.018.039.033.08.049.121h0l0,.008.007.012,0,.006.013.02.01.015.009.016a.122.122,0,0,1,.015.062,4.1,4.1,0,0,0-.868-.082,1.459,1.459,0,0,0-1.076.487,1.206,1.206,0,0,0-.267,1.076,1.9,1.9,0,0,0,.761,1.251,2.7,2.7,0,0,0,.443.318c.175.075.34.171.523.232a10.581,10.581,0,0,0,1.839.412c.347.049.695.108,1.044.13a1.6,1.6,0,0,0,.47.023c-.069-.061-.132-.115-.192-.171-.018-.017-.041-.039-.028-.068s.054-.016.08-.01a2.846,2.846,0,0,1,.384.161,2.816,2.816,0,0,0,1.363.234,1.931,1.931,0,0,0,.986-.359,1.834,1.834,0,0,0,.68-.958c.013-.048.019-.113.1-.127v.24a5.036,5.036,0,0,0,.535-.449,6.853,6.853,0,0,0,.945-1.077,3.688,3.688,0,0,0,.451-.848A2.477,2.477,0,0,0,1066.354,1569.85Zm-3.942-2.6a.831.831,0,0,1,.4-.133.859.859,0,0,1,.48.058,1.565,1.565,0,0,1,.738.692,2.827,2.827,0,0,1,.344.935c.019.116.027.234.042.351,0,.03-.016.07.04.08.109.018.059.046.007.087a2.84,2.84,0,0,1-.568.313c-.264.12-.514.27-.789.369-.1.037-.172.125-.271.172a.147.147,0,0,1-.218-.055,3.485,3.485,0,0,1-.324-.6,3.58,3.58,0,0,1-.3-1.22A1.167,1.167,0,0,1,1062.413,1567.251Zm-.82,3.977a3.082,3.082,0,0,1,.352.075.749.749,0,0,0,.57-.129.258.258,0,0,0,.094-.351.282.282,0,0,1,.136.351.436.436,0,0,1-.317.286.845.845,0,0,1-.75-.1C1061.634,1571.332,1061.577,1571.3,1061.593,1571.228Zm-3-.329c-.045.006-.044-.036-.058-.059s.009-.048.033-.053c.094-.022.068-.07.037-.13a3.016,3.016,0,0,1-.369-1.478,1.577,1.577,0,0,1,.205-.746,1.251,1.251,0,0,1,.59-.518,1.091,1.091,0,0,1,1.137.205,2.176,2.176,0,0,1,.42.461,2.147,2.147,0,0,1,.3.729,4.962,4.962,0,0,1,.1.951c-.005.1-.018.236-.017.367,0,.09-.037.106-.119.107-.381,0-.762-.008-1.142.027-.331.03-.66.072-.989.122Zm4.747,2.529a1.1,1.1,0,0,1-.369.336,1.361,1.361,0,0,1-.691.129,1.061,1.061,0,0,1-.687-.344c.2.06.39.12.576.175a.918.918,0,0,0,.593-.028,1.164,1.164,0,0,0,.472-.292.266.266,0,0,1,.049-.043c.021-.015.052-.03.071-.013S1063.36,1573.4,1063.34,1573.428Zm1.267-2.679a.785.785,0,0,0-.252.227,6.169,6.169,0,0,0-.811,1.444,2.912,2.912,0,0,1-.183.361,1.107,1.107,0,0,1-1.357.524,3.645,3.645,0,0,1-.735-.375,5.613,5.613,0,0,0-.878-.407c-.185-.066-.368-.135-.551-.2a.942.942,0,0,0-.648-.045.658.658,0,0,1-.384-.016c.154-.067.315-.095.463-.173s.219-.232.365-.311a.184.184,0,0,1-.019.175c-.066.1-.01.127.074.154a4.152,4.152,0,0,0,.892.153,4.678,4.678,0,0,0,2.611-.4,3.058,3.058,0,0,0,.994-.836.757.757,0,0,0,.083-.2c-.093-.041-.209-.043-.259-.173a2.223,2.223,0,0,0,.519-.02c.008,0,.018,0,.026,0,.073-.014.187-.078.21-.015S1064.67,1570.716,1064.607,1570.75Z" transform="translate(-1054.029 -1560.746)" fill="#fdfdfd"/>
        <path id="Path_94" data-name="Path 94" d="M1040.979,1516.548c.046.1.134.136.2.191q.312.273.633.536c.079.065.045.087-.024.119a1.42,1.42,0,0,1-.545.12,1.62,1.62,0,0,1-.933-.236,1.194,1.194,0,0,1-.549-.808,1.292,1.292,0,0,1,.256-1.062,1.8,1.8,0,0,1,.507-.435,5.63,5.63,0,0,1,1.79-.649c-.007.14-.08.264-.1.4-.005.042-.045.1.022.118s.083-.045.1-.1a6.315,6.315,0,0,1,.593-1.3,3.969,3.969,0,0,1,.371-.509,4.438,4.438,0,0,1,.442-.426,3.643,3.643,0,0,1,.839-.523,2.371,2.371,0,0,1,.959-.218,1.389,1.389,0,0,1,1.355,1.938,2.147,2.147,0,0,1-.894.973c-.082-.286-.124-.578-.191-.864-.008-.034.015-.1-.032-.1s-.053.066-.055.113a3.422,3.422,0,0,0,.065.793c.069.359.172.71.259,1.065.01.041.059.1-.036.1a4.62,4.62,0,0,0-1.224.249c-.089.026-.1,0-.116-.077a2.878,2.878,0,0,1-.01-.8,1.755,1.755,0,0,0-.038-.638.329.329,0,0,0-.573-.156.7.7,0,0,0-.195.377,2.076,2.076,0,0,0,.2,1.457c.046.093.053.127-.062.182a4.326,4.326,0,0,0-1.515,1.151c-.038.048-.068.057-.112.007a4.855,4.855,0,0,0-.548-.513A2.233,2.233,0,0,0,1040.979,1516.548Z" transform="translate(-1039.522 -1511.558)" fill="#fdfdfd"/>
        <path id="Path_95" data-name="Path 95" d="M1067.757,1541.547c-.058.023-.08.01-.082-.059a3.23,3.23,0,0,0-.265-1.2,2.922,2.922,0,0,0-1.032-1.232,1.413,1.413,0,0,0-1.734.227,1.8,1.8,0,0,0-.411,1.169c0,.1,0,.207,0,.312-.067,0-.074-.049-.089-.078a1.975,1.975,0,0,0-.444-.557,1.806,1.806,0,0,0-3.144,1.013,3.41,3.41,0,0,0,.327,1.989c.018.039.033.08.049.121-.042.061-.092.012-.129,0a1.848,1.848,0,0,0-1.358.046c-.076.033-.1,0-.123-.067a3.978,3.978,0,0,1-.2-1.965,4.528,4.528,0,0,1,1.147-2.267,4,4,0,0,1,1.25-.877.107.107,0,0,1,.149.029l.147.185a.44.44,0,0,0,.2.157.321.321,0,0,0-.1-.194,2.511,2.511,0,0,1-.549-1.686.6.6,0,0,1,.206-.5.169.169,0,0,1,.271.068.734.734,0,0,1,.054.334c-.009.267-.03.533-.027.8a1.415,1.415,0,0,0,.415.952c.02.021.041.048.086.034a.9.9,0,0,0-.147-.327c-.066-.143-.068-.14.077-.187a6.079,6.079,0,0,1,1.077-.218,2.235,2.235,0,0,1,.561-.046c.1.011.141.032.135.136a.3.3,0,0,0,.069.27c.045-.052.026-.112.028-.166a3.835,3.835,0,0,1,.057-.9,1.977,1.977,0,0,1,.545-.951.417.417,0,0,1,.28-.128c.129,0,.184.052.177.183a.488.488,0,0,1-.1.242c-.15.226-.307.447-.454.675a1.475,1.475,0,0,0-.2.958.163.163,0,0,0,.054.137.562.562,0,0,0,.036-.28c0-.089.02-.123.121-.107a4.113,4.113,0,0,1,2.537,1.348,3.741,3.741,0,0,1,.917,2.04c0,.013,0,.026,0,.039.037.3.037.293-.232.4C1067.861,1541.449,1067.773,1541.453,1067.757,1541.547Z" transform="translate(-1056.925 -1533.164)" fill="#e2183f"/>
        <path id="Path_96" data-name="Path 96" d="M1082.193,1581.761a2.016,2.016,0,0,0-.718-1.189,1.092,1.092,0,0,0-1.137-.205,1.25,1.25,0,0,0-.59.518,1.577,1.577,0,0,0-.205.746,3.015,3.015,0,0,0,.369,1.478c.031.061.057.109-.037.13-.025.005-.054.019-.033.053s.013.065.058.059l.13-.017c.328-.05.657-.091.989-.122.38-.035.761-.023,1.142-.027.082,0,.119-.017.119-.107,0-.131.012-.262.017-.367A4.982,4.982,0,0,0,1082.193,1581.761Zm-.072,1.184c0,.066-.018.091-.088.089-.122,0-.245,0-.368,0-.085,0-.1-.03-.089-.108a1.577,1.577,0,0,0-.092-.9c-.045-.115-.113-.129-.221-.059-.124.08-.251.156-.394.246a3.306,3.306,0,0,1,.229-.569c.045-.086.026-.129-.052-.172a.769.769,0,0,0-.825-.038.948.948,0,0,0-.458.679,1.689,1.689,0,0,1,0-.818,1.158,1.158,0,0,1,.537-.733.9.9,0,0,1,.922.032,1.749,1.749,0,0,1,.782,1.131A4.064,4.064,0,0,1,1082.12,1582.945Z" transform="translate(-1075.335 -1573.198)" fill="#251e20"/>
        <path id="Path_97" data-name="Path 97" d="M1119.435,1575.172c-.057-.01-.036-.05-.04-.08-.015-.117-.023-.235-.042-.351a2.83,2.83,0,0,0-.344-.935,1.565,1.565,0,0,0-.739-.692.858.858,0,0,0-.48-.058.832.832,0,0,0-.4.133,1.167,1.167,0,0,0-.421,1.05,3.583,3.583,0,0,0,.3,1.22,3.494,3.494,0,0,0,.324.6.147.147,0,0,0,.218.055c.1-.047.169-.135.271-.172.274-.1.525-.248.789-.369a2.842,2.842,0,0,0,.568-.313C1119.494,1575.218,1119.543,1575.19,1119.435,1575.172Zm-.283.112c-.019,0-.033.028-.052.038-.17.1-.183.09-.209-.1a1.8,1.8,0,0,0-.176-.585c-.073-.143-.088-.15-.227-.063-.106.067-.208.138-.313.208l-.024-.017c.07-.157.136-.316.21-.471.031-.064.025-.1-.037-.136a.888.888,0,0,0-.453-.1.668.668,0,0,0-.564.329,1.14,1.14,0,0,0-.116.3,1.533,1.533,0,0,1,.133-1.222.605.605,0,0,1,.4-.252.888.888,0,0,1,.618.106,1.566,1.566,0,0,1,.539.587,2.863,2.863,0,0,1,.365,1.2C1119.254,1575.192,1119.254,1575.261,1119.151,1575.284Z" transform="translate(-1109.009 -1566.684)" fill="#251e20"/>
        <path id="Path_98" data-name="Path 98" d="M1091.222,1607.732c-.024-.062-.137,0-.21.015-.009,0-.018,0-.026,0a2.222,2.222,0,0,1-.519.02c.05.13.166.133.259.173a.761.761,0,0,1-.083.2,3.059,3.059,0,0,1-.994.836,4.678,4.678,0,0,1-2.611.4,4.151,4.151,0,0,1-.892-.153c-.084-.027-.139-.051-.074-.154a.184.184,0,0,0,.019-.175c-.147.079-.221.235-.366.311s-.309.105-.463.173a.658.658,0,0,0,.383.016.942.942,0,0,1,.648.045c.184.068.367.138.551.2a5.613,5.613,0,0,1,.878.407,3.647,3.647,0,0,0,.734.375,1.107,1.107,0,0,0,1.357-.524,2.911,2.911,0,0,0,.183-.361,6.174,6.174,0,0,1,.811-1.444.785.785,0,0,1,.252-.227C1091.124,1607.834,1091.25,1607.807,1091.222,1607.732Zm-1.5,2.012a.992.992,0,0,1-1.062.552,1.787,1.787,0,0,1-.708-.294c-.093-.061-.063-.091.013-.128a1.173,1.173,0,0,1,1.035-.049.627.627,0,0,0,.061.021s.007,0,.01-.007c-.072-.184-.069-.177.132-.259a.644.644,0,0,1,.46.015C1089.746,1609.622,1089.754,1609.67,1089.719,1609.744Z" transform="translate(-1080.483 -1597.864)" fill="#251e20"/>
        <path id="Path_99" data-name="Path 99" d="M1113,1635.347c.2.06.39.12.576.174a.914.914,0,0,0,.593-.028,1.164,1.164,0,0,0,.472-.291.268.268,0,0,1,.049-.043c.021-.015.052-.03.07-.013s.007.057-.013.081a1.1,1.1,0,0,1-.369.336,1.361,1.361,0,0,1-.691.129A1.062,1.062,0,0,1,1113,1635.347Z" transform="translate(-1105.438 -1622.543)" fill="#251e20"/>
        <path id="Path_100" data-name="Path 100" d="M1112.972,1610.468a3.076,3.076,0,0,1,.352.075.747.747,0,0,0,.57-.129.258.258,0,0,0,.094-.351.282.282,0,0,1,.136.351.436.436,0,0,1-.317.286.845.845,0,0,1-.75-.1C1113.013,1610.572,1112.957,1610.543,1112.972,1610.468Z" transform="translate(-1105.408 -1599.986)" fill="#251e20"/>
        <path id="Path_101" data-name="Path 101" d="M1081.313,1583.658a1.689,1.689,0,0,1,0-.818,1.159,1.159,0,0,1,.537-.733.9.9,0,0,1,.922.031,1.75,1.75,0,0,1,.782,1.131,4.063,4.063,0,0,1,.114,1.212c0,.066-.018.091-.089.089-.122,0-.245,0-.368,0-.085,0-.1-.03-.089-.108a1.577,1.577,0,0,0-.092-.9c-.045-.115-.113-.129-.221-.059-.124.08-.25.157-.394.246a3.312,3.312,0,0,1,.228-.569c.045-.086.026-.129-.051-.172a.769.769,0,0,0-.826-.038A.948.948,0,0,0,1081.313,1583.658Z" transform="translate(-1076.886 -1574.735)" fill="#fdfdfd"/>
        <path id="Path_102" data-name="Path 102" d="M1119.553,1576.146c.069-.157.136-.316.21-.471.031-.063.025-.1-.037-.136a.889.889,0,0,0-.453-.1.668.668,0,0,0-.563.329,1.139,1.139,0,0,0-.116.3,1.533,1.533,0,0,1,.133-1.223.605.605,0,0,1,.4-.252.887.887,0,0,1,.618.106,1.564,1.564,0,0,1,.539.587,2.859,2.859,0,0,1,.365,1.2c.008.086.008.154-.095.177-.019,0-.033.027-.052.038-.17.1-.183.09-.209-.1a1.805,1.805,0,0,0-.176-.584c-.073-.143-.088-.15-.227-.063-.106.066-.209.138-.313.208Z" transform="translate(-1110.412 -1568.065)" fill="#fdfdfd"/>
        <path id="Path_103" data-name="Path 103" d="M1112.622,1626.316c-.072-.184-.069-.177.132-.259a.645.645,0,0,1,.459.015c.086.027.094.076.059.149a.992.992,0,0,1-1.062.552,1.785,1.785,0,0,1-.708-.294c-.093-.061-.063-.091.013-.128a1.172,1.172,0,0,1,1.035-.05.526.526,0,0,0,.061.021S1112.619,1626.319,1112.622,1626.316Z" transform="translate(-1104.037 -1614.342)" fill="#e2183f"/>
      </g>
    </g>
    <path id="Path_104" data-name="Path 104" d="M1005.3,1333.125,982.495,1371.1h-16.1l22.807-37.972Z" transform="translate(-945.921 -1327.055)" fill="#f9c84e" opacity="0.5"/>
    <path id="Path_105" data-name="Path 105" d="M860.143,1333.125,837.336,1371.1h-14.4v-37.972Z" transform="translate(-816.867 -1327.055)" fill="#f9c84e" opacity="0.3"/>
    <path id="Path_106" data-name="Path 106" d="M1152.051,1333.125v4.286l-20.232,33.686h-4.985l22.807-37.972Z" transform="translate(-1090.26 -1327.055)" fill="#f9c84e" opacity="0.3"/>
    <path id="Path_107" data-name="Path 107" d="M1242.089,1507.752l13.649-22.725v22.725Z" transform="translate(-1193.947 -1463.709)" fill="#f9c84e" opacity="0.3"/>
    <path id="Path_108" data-name="Path 108" d="M1196.731,1375.824v10.961l-13.649,22.725H1176.5Z" transform="translate(-1134.94 -1365.468)" fill="#f9c84e" opacity="0.5"/>
  </g>
</svg>
