<svg id="Component_19_33" data-name="Component 19 – 33" xmlns="http://www.w3.org/2000/svg" width="78.543" height="50.112" viewBox="0 0 78.543 50.112">
  <g id="Group_18" data-name="Group 18" transform="translate(10.682)">
    <path id="Path_64" data-name="Path 64" d="M762.464,292.1V241.984h67.861V292.1Zm59.691-8.169V250.153H770.633v33.773Z" transform="translate(-762.464 -241.984)" fill="#ed1b2e"/>
    <path id="Path_65" data-name="Path 65" d="M787.943,267.464v45h62.746v-45Zm59.691,41.943H791V270.518h56.637Z" transform="translate(-785.386 -264.906)" fill="#ed1b2e"/>
    <path id="Path_66" data-name="Path 66" d="M818.372,297.894v38.889h56.637V297.894Zm56.179,38.43H818.83V298.352h55.721Z" transform="translate(-812.76 -292.282)" fill="#7a7a7a"/>
    <path id="Path_67" data-name="Path 67" d="M878.657,610.849H822.937l12.263-7.8h31.195Z" transform="translate(-816.867 -566.807)" fill="#d8d8d8"/>
    <path id="Path_68" data-name="Path 68" d="M835.2,310.259V332.63l-12.263,7.8V302.458Z" transform="translate(-816.867 -296.388)" fill="#bfbfbf"/>
    <path id="Path_69" data-name="Path 69" d="M878.657,302.458l-12.263,7.8H835.2l-12.263-7.8Z" transform="translate(-816.867 -296.388)" fill="#d8d8d8"/>
    <path id="Path_70" data-name="Path 70" d="M1268.155,302.458V340.43l-12.263-7.8V310.259Z" transform="translate(-1206.365 -296.388)" fill="#bfbfbf"/>
    <rect id="Rectangle_30" data-name="Rectangle 30" width="31.195" height="22.371" transform="translate(18.333 13.871)" fill="#e2e2e2"/>
  </g>
  <path id="Path_71" data-name="Path 71" d="M656.043,320.8l16.294-2.007V279.9l-16.294-2.008Z" transform="translate(-656.043 -274.289)" fill="#474747" opacity="0.5"/>
</svg>
