<svg xmlns="http://www.w3.org/2000/svg" viewBox="0 0 117.39 50.11"><defs><style>.cls-1{fill:#e2e2e2;}.cls-2{fill:#7a7a7a;}.cls-3{fill:#d8d8d8;}.cls-4{fill:#bfbfbf;}.cls-5,.cls-6{fill:#494949;isolation:isolate;}.cls-5{opacity:0.5;}.cls-6{opacity:0.3;}</style></defs><g id="Layer_2" data-name="Layer 2"><g id="Layer_1-2" data-name="Layer 1"><path id="Path_84" data-name="Path 84" class="cls-1" d="M0,50.11V0H67.86V50.11Zm59.69-8.17V8.17H8.17V41.94Z"/><path id="Path_85" data-name="Path 85" class="cls-1" d="M2.56,2.56v45H65.3v-45ZM62.25,44.5H5.61V5.61H62.25Z"/><path id="Path_86" data-name="Path 86" class="cls-2" d="M5.61,5.61V44.5H62.25V5.61ZM61.79,44H6.07v-38H61.79Z"/><path id="Path_87" data-name="Path 87" class="cls-3" d="M61.79,44H6.07l12.26-7.8h31.2Z"/><path id="Path_88" data-name="Path 88" class="cls-4" d="M18.33,13.87V36.25L6.07,44.05v-38Z"/><path id="Path_89" data-name="Path 89" class="cls-3" d="M61.79,6.07l-12.26,7.8H18.33L6.07,6.07Z"/><path id="Path_90" data-name="Path 90" class="cls-4" d="M61.79,6.07v38l-12.26-7.8V13.88Z"/><rect id="Rectangle_32" data-name="Rectangle 32" class="cls-1" x="18.33" y="13.87" width="31.19" height="22.37"/><path id="Path_104" data-name="Path 104" class="cls-5" d="M80.18,6.07,103,44H86.89l-22.81-38Z"/><path id="Path_105" data-name="Path 105" class="cls-6" d="M117.39,6.07V44H103l-22.81-38Z"/><path id="Path_106" data-name="Path 106" class="cls-6" d="M64.08,6.07,86.89,44h-5L61.67,10.36V6.07Z"/><path id="Path_107" data-name="Path 107" class="cls-6" d="M61.67,44V21.32L75.32,44Z"/><path id="Path_108" data-name="Path 108" class="cls-5" d="M81.9,44H75.32L61.67,21.32v-11Z"/></g></g></svg>